<svg width="222" height="76" viewBox="0 0 222 76" fill="none" xmlns="http://www.w3.org/2000/svg">
<path d="M1.184 16V14.192L5.392 9.888C6.07467 9.17333 6.416 8.448 6.416 7.712C6.416 7.18933 6.26133 6.768 5.952 6.448C5.65333 6.11733 5.248 5.952 4.736 5.952C4.21333 5.952 3.792 6.12267 3.472 6.464C3.16267 6.79467 3.008 7.23733 3.008 7.792H1.008C1.008 7.06667 1.168 6.432 1.488 5.888C1.808 5.344 2.25067 4.92267 2.816 4.624C3.38133 4.31467 4.03733 4.16 4.784 4.16C5.52 4.16 6.16533 4.304 6.72 4.592C7.27467 4.88 7.70133 5.28533 8 5.808C8.30933 6.32 8.464 6.92267 8.464 7.616C8.464 8.21333 8.32 8.81067 8.032 9.408C7.75467 10.0053 7.29067 10.624 6.64 11.264L3.696 14.192H8.608V16H1.184ZM15.3538 16.16C14.5964 16.16 13.9404 16.016 13.3858 15.728C12.8311 15.44 12.3991 15.0347 12.0898 14.512C11.7911 13.9893 11.6418 13.376 11.6418 12.672V7.648C11.6418 6.944 11.7911 6.33067 12.0898 5.808C12.3991 5.28533 12.8311 4.88 13.3858 4.592C13.9404 4.304 14.5964 4.16 15.3538 4.16C16.1111 4.16 16.7671 4.304 17.3218 4.592C17.8764 4.88 18.3031 5.28533 18.6018 5.808C18.9111 6.33067 19.0658 6.944 19.0658 7.648V12.672C19.0658 13.376 18.9111 13.9893 18.6018 14.512C18.3031 15.0347 17.8764 15.44 17.3218 15.728C16.7671 16.016 16.1111 16.16 15.3538 16.16ZM15.3538 14.432C15.9084 14.432 16.3511 14.272 16.6818 13.952C17.0124 13.632 17.1778 13.2053 17.1778 12.672V7.648C17.1778 7.11467 17.0124 6.688 16.6818 6.368C16.3618 6.048 15.9191 5.888 15.3538 5.888C14.7884 5.888 14.3404 6.048 14.0098 6.368C13.6898 6.688 13.5298 7.11467 13.5298 7.648V12.672C13.5298 13.2053 13.6951 13.632 14.0258 13.952C14.3564 14.272 14.7991 14.432 15.3538 14.432ZM15.3538 11.12C15.0338 11.12 14.7778 11.0347 14.5858 10.864C14.3938 10.6827 14.2978 10.432 14.2978 10.112C14.2978 9.792 14.3938 9.552 14.5858 9.392C14.7778 9.22133 15.0338 9.136 15.3538 9.136C15.6738 9.136 15.9298 9.22133 16.1218 9.392C16.3138 9.552 16.4098 9.792 16.4098 10.112C16.4098 10.432 16.3138 10.6827 16.1218 10.864C15.9298 11.0347 15.6738 11.12 15.3538 11.12ZM22.2915 16V14.192L26.4995 9.888C27.1822 9.17333 27.5235 8.448 27.5235 7.712C27.5235 7.18933 27.3688 6.768 27.0595 6.448C26.7608 6.11733 26.3555 5.952 25.8435 5.952C25.3208 5.952 24.8995 6.12267 24.5795 6.464C24.2702 6.79467 24.1155 7.23733 24.1155 7.792H22.1155C22.1155 7.06667 22.2755 6.432 22.5955 5.888C22.9155 5.344 23.3582 4.92267 23.9235 4.624C24.4888 4.31467 25.1448 4.16 25.8915 4.16C26.6275 4.16 27.2728 4.304 27.8275 4.592C28.3822 4.88 28.8088 5.28533 29.1075 5.808C29.4168 6.32 29.5715 6.92267 29.5715 7.616C29.5715 8.21333 29.4275 8.81067 29.1395 9.408C28.8622 10.0053 28.3982 10.624 27.7475 11.264L24.8035 14.192H29.7155V16H22.2915ZM36.4612 16.16C35.6612 16.16 34.9626 16 34.3652 15.68C33.7786 15.36 33.3199 14.912 32.9892 14.336C32.6692 13.7493 32.5092 13.0667 32.5092 12.288C32.5092 11.8293 32.6052 11.3067 32.7972 10.72C32.9999 10.1227 33.2719 9.52 33.6132 8.912L36.1412 4.32H38.4132L35.4052 9.472L35.4692 9.504C35.6292 9.28 35.8639 9.104 36.1732 8.976C36.4826 8.848 36.8186 8.784 37.1812 8.784C37.8319 8.784 38.3972 8.93333 38.8772 9.232C39.3679 9.52 39.7466 9.93067 40.0132 10.464C40.2799 10.9973 40.4132 11.6267 40.4132 12.352C40.4132 13.12 40.2479 13.792 39.9172 14.368C39.5972 14.9333 39.1386 15.376 38.5412 15.696C37.9546 16.0053 37.2612 16.16 36.4612 16.16ZM36.4612 14.464C37.0586 14.464 37.5386 14.2773 37.9012 13.904C38.2639 13.52 38.4452 13.0133 38.4452 12.384C38.4452 11.744 38.2639 11.2373 37.9012 10.864C37.5386 10.48 37.0586 10.288 36.4612 10.288C35.8639 10.288 35.3839 10.48 35.0212 10.864C34.6586 11.2373 34.4772 11.744 34.4772 12.384C34.4772 13.0133 34.6586 13.52 35.0212 13.904C35.3839 14.2773 35.8639 14.464 36.4612 14.464Z" fill="black"/>
<path d="M6.876 43V40.39H1.062V37.132L5.922 29.86H8.424L3.222 37.726V38.41H6.876V35.44H9.144V43H6.876ZM13.313 44.98L19.613 28.06H21.953L15.653 44.98H13.313ZM25.9779 43V40.966H29.3979V32.038L25.9599 34.558V32.038L28.9839 29.86H31.6479V40.966H34.4019V43H25.9779ZM42.0989 43.18C41.2469 43.18 40.5089 43.018 39.8849 42.694C39.2609 42.37 38.7749 41.914 38.4269 41.326C38.0909 40.738 37.9229 40.048 37.9229 39.256V33.604C37.9229 32.812 38.0909 32.122 38.4269 31.534C38.7749 30.946 39.2609 30.49 39.8849 30.166C40.5089 29.842 41.2469 29.68 42.0989 29.68C42.9509 29.68 43.6889 29.842 44.3129 30.166C44.9369 30.49 45.4169 30.946 45.7529 31.534C46.1009 32.122 46.2749 32.812 46.2749 33.604V39.256C46.2749 40.048 46.1009 40.738 45.7529 41.326C45.4169 41.914 44.9369 42.37 44.3129 42.694C43.6889 43.018 42.9509 43.18 42.0989 43.18ZM42.0989 41.236C42.7229 41.236 43.2209 41.056 43.5929 40.696C43.9649 40.336 44.1509 39.856 44.1509 39.256V33.604C44.1509 33.004 43.9649 32.524 43.5929 32.164C43.2329 31.804 42.7349 31.624 42.0989 31.624C41.4629 31.624 40.9589 31.804 40.5869 32.164C40.2269 32.524 40.0469 33.004 40.0469 33.604V39.256C40.0469 39.856 40.2329 40.336 40.6049 40.696C40.9769 41.056 41.4749 41.236 42.0989 41.236ZM42.0989 37.51C41.7389 37.51 41.4509 37.414 41.2349 37.222C41.0189 37.018 40.9109 36.736 40.9109 36.376C40.9109 36.016 41.0189 35.746 41.2349 35.566C41.4509 35.374 41.7389 35.278 42.0989 35.278C42.4589 35.278 42.7469 35.374 42.9629 35.566C43.1789 35.746 43.2869 36.016 43.2869 36.376C43.2869 36.736 43.1789 37.018 42.9629 37.222C42.7469 37.414 42.4589 37.51 42.0989 37.51ZM54.2669 44.32C53.1522 44.0633 52.2905 43.561 51.6819 42.813C51.0732 42.0577 50.7689 41.1263 50.7689 40.019V38.05C50.7689 36.95 51.0732 36.026 51.6819 35.278C52.2905 34.53 53.1522 34.024 54.2669 33.76V35.124C53.6142 35.278 53.0972 35.619 52.7159 36.147C52.3419 36.6677 52.1549 37.302 52.1549 38.05V40.019C52.1549 40.767 52.3419 41.405 52.7159 41.933C53.0972 42.4537 53.6142 42.791 54.2669 42.945V44.32ZM57.2876 43V34.97H62.2816V36.246H58.6406V38.391H61.9956V39.667H58.6626V43H57.2876ZM64.7303 43V34.97H67.2603C67.7956 34.97 68.2576 35.069 68.6463 35.267C69.0423 35.465 69.3503 35.7437 69.5703 36.103C69.7903 36.455 69.9003 36.873 69.9003 37.357C69.9003 37.8923 69.7683 38.3617 69.5043 38.765C69.2403 39.161 68.8846 39.4433 68.4373 39.612L70.0103 43H68.5033L67.0953 39.81H66.0943V43H64.7303ZM66.0943 38.6H67.2603C67.6489 38.6 67.9533 38.4937 68.1733 38.281C68.3933 38.0683 68.5033 37.775 68.5033 37.401C68.5033 37.027 68.3896 36.73 68.1623 36.51C67.9423 36.29 67.6416 36.18 67.2603 36.18H66.0943V38.6ZM72.349 43V41.757H73.966V36.213H72.349V34.97H76.969V36.213H75.352V41.757H76.969V43H72.349ZM80.0997 44.32V42.945C80.7524 42.791 81.2657 42.4537 81.6397 41.933C82.021 41.405 82.2117 40.767 82.2117 40.019V38.05C82.2117 37.302 82.021 36.6677 81.6397 36.147C81.2657 35.619 80.7524 35.278 80.0997 35.124V33.76C81.2144 34.024 82.076 34.53 82.6847 35.278C83.2934 36.026 83.5977 36.95 83.5977 38.05V40.019C83.5977 41.1263 83.2934 42.0577 82.6847 42.813C82.076 43.561 81.2144 44.0633 80.0997 44.32ZM25.9779 69V66.966H29.3979V58.038L25.9599 60.558V58.038L28.9839 55.86H31.6479V66.966H34.4019V69H25.9779ZM38.2109 69V66.966H41.6309V58.038L38.1929 60.558V58.038L41.2169 55.86H43.8809V66.966H46.6349V69H38.2109ZM54.2669 70.32C53.1522 70.0633 52.2905 69.561 51.6819 68.813C51.0732 68.0577 50.7689 67.1263 50.7689 66.019V64.05C50.7689 62.95 51.0732 62.026 51.6819 61.278C52.2905 60.53 53.1522 60.024 54.2669 59.76V61.124C53.6142 61.278 53.0972 61.619 52.7159 62.147C52.3419 62.6677 52.1549 63.302 52.1549 64.05V66.019C52.1549 66.767 52.3419 67.405 52.7159 67.933C53.0972 68.4537 53.6142 68.791 54.2669 68.945V70.32ZM59.7406 69.11C59.1979 69.11 58.7212 69.0147 58.3106 68.824C57.9072 68.6333 57.5919 68.362 57.3646 68.01C57.1446 67.6507 57.0346 67.2253 57.0346 66.734H58.3876C58.3876 67.0933 58.5086 67.3793 58.7506 67.592C58.9999 67.8047 59.3299 67.911 59.7406 67.911C60.1366 67.911 60.4482 67.8083 60.6756 67.603C60.9102 67.3903 61.0276 67.108 61.0276 66.756C61.0276 66.492 60.9506 66.261 60.7966 66.063C60.6499 65.8577 60.4372 65.7183 60.1586 65.645L59.0806 65.37C58.5012 65.2233 58.0429 64.9483 57.7056 64.545C57.3682 64.1417 57.1996 63.6613 57.1996 63.104C57.1996 62.422 57.4232 61.8793 57.8706 61.476C58.3179 61.0653 58.9156 60.86 59.6636 60.86C60.1696 60.86 60.6096 60.9517 60.9836 61.135C61.3649 61.3183 61.6582 61.5787 61.8636 61.916C62.0689 62.246 62.1716 62.6347 62.1716 63.082H60.8296C60.8296 62.774 60.7232 62.5247 60.5106 62.334C60.2979 62.1433 60.0156 62.048 59.6636 62.048C59.3189 62.048 59.0439 62.1433 58.8386 62.334C58.6406 62.5173 58.5416 62.7593 58.5416 63.06C58.5416 63.3093 58.6112 63.5147 58.7506 63.676C58.8972 63.8373 59.0989 63.9547 59.3556 64.028L60.4666 64.303C61.0606 64.4497 61.5262 64.743 61.8636 65.183C62.2082 65.623 62.3806 66.1473 62.3806 66.756C62.3806 67.2327 62.2706 67.647 62.0506 67.999C61.8379 68.351 61.5336 68.626 61.1376 68.824C60.7416 69.0147 60.2759 69.11 59.7406 69.11ZM64.2683 69L66.2923 60.97H68.0633L70.0983 69H68.6903L68.2503 67.053H66.1163L65.6763 69H64.2683ZM66.3693 65.931H67.9973L67.5133 63.775C67.4326 63.4157 67.3629 63.093 67.3043 62.807C67.2456 62.5137 67.2053 62.301 67.1833 62.169C67.1613 62.301 67.1209 62.5137 67.0623 62.807C67.0036 63.093 66.9339 63.412 66.8533 63.764L66.3693 65.931ZM73.966 69V62.213H71.865V60.97H77.453V62.213H75.352V69H73.966ZM80.0997 70.32V68.945C80.7524 68.791 81.2657 68.4537 81.6397 67.933C82.021 67.405 82.2117 66.767 82.2117 66.019V64.05C82.2117 63.302 82.021 62.6677 81.6397 62.147C81.2657 61.619 80.7524 61.278 80.0997 61.124V59.76C81.2144 60.024 82.076 60.53 82.6847 61.278C83.2934 62.026 83.5977 62.95 83.5977 64.05V66.019C83.5977 67.1263 83.2934 68.0577 82.6847 68.813C82.076 69.561 81.2144 70.0633 80.0997 70.32Z" fill="black"/>
<path d="M97.512 43V40.966H100.932V32.038L97.494 34.558V32.038L100.518 29.86H103.182V40.966H105.936V43H97.512ZM112.913 43.18C112.013 43.18 111.227 43 110.555 42.64C109.895 42.28 109.379 41.776 109.007 41.128C108.647 40.468 108.467 39.7 108.467 38.824C108.467 38.308 108.575 37.72 108.791 37.06C109.019 36.388 109.325 35.71 109.709 35.026L112.553 29.86H115.109L111.725 35.656L111.797 35.692C111.977 35.44 112.241 35.242 112.589 35.098C112.937 34.954 113.315 34.882 113.723 34.882C114.455 34.882 115.091 35.05 115.631 35.386C116.183 35.71 116.609 36.172 116.909 36.772C117.209 37.372 117.359 38.08 117.359 38.896C117.359 39.76 117.173 40.516 116.801 41.164C116.441 41.8 115.925 42.298 115.253 42.658C114.593 43.006 113.813 43.18 112.913 43.18ZM112.913 41.272C113.585 41.272 114.125 41.062 114.533 40.642C114.941 40.21 115.145 39.64 115.145 38.932C115.145 38.212 114.941 37.642 114.533 37.222C114.125 36.79 113.585 36.574 112.913 36.574C112.241 36.574 111.701 36.79 111.293 37.222C110.885 37.642 110.681 38.212 110.681 38.932C110.681 39.64 110.885 40.21 111.293 40.642C111.701 41.062 112.241 41.272 112.913 41.272ZM124.426 34.504C123.922 34.504 123.514 34.366 123.202 34.09C122.902 33.802 122.752 33.436 122.752 32.992C122.752 32.536 122.902 32.17 123.202 31.894C123.514 31.618 123.922 31.48 124.426 31.48C124.93 31.48 125.332 31.618 125.632 31.894C125.944 32.17 126.1 32.536 126.1 32.992C126.1 33.436 125.944 33.802 125.632 34.09C125.332 34.366 124.93 34.504 124.426 34.504ZM124.426 41.74C123.922 41.74 123.514 41.602 123.202 41.326C122.902 41.05 122.752 40.684 122.752 40.228C122.752 39.784 122.902 39.424 123.202 39.148C123.514 38.86 123.922 38.716 124.426 38.716C124.93 38.716 125.332 38.86 125.632 39.148C125.944 39.424 126.1 39.784 126.1 40.228C126.1 40.684 125.944 41.05 125.632 41.326C125.332 41.602 124.93 41.74 124.426 41.74ZM135.939 43.18C135.087 43.18 134.349 43.018 133.725 42.694C133.101 42.37 132.615 41.914 132.267 41.326C131.931 40.738 131.763 40.048 131.763 39.256V33.604C131.763 32.812 131.931 32.122 132.267 31.534C132.615 30.946 133.101 30.49 133.725 30.166C134.349 29.842 135.087 29.68 135.939 29.68C136.791 29.68 137.529 29.842 138.153 30.166C138.777 30.49 139.257 30.946 139.593 31.534C139.941 32.122 140.115 32.812 140.115 33.604V39.256C140.115 40.048 139.941 40.738 139.593 41.326C139.257 41.914 138.777 42.37 138.153 42.694C137.529 43.018 136.791 43.18 135.939 43.18ZM135.939 41.236C136.563 41.236 137.061 41.056 137.433 40.696C137.805 40.336 137.991 39.856 137.991 39.256V33.604C137.991 33.004 137.805 32.524 137.433 32.164C137.073 31.804 136.575 31.624 135.939 31.624C135.303 31.624 134.799 31.804 134.427 32.164C134.067 32.524 133.887 33.004 133.887 33.604V39.256C133.887 39.856 134.073 40.336 134.445 40.696C134.817 41.056 135.315 41.236 135.939 41.236ZM135.939 37.51C135.579 37.51 135.291 37.414 135.075 37.222C134.859 37.018 134.751 36.736 134.751 36.376C134.751 36.016 134.859 35.746 135.075 35.566C135.291 35.374 135.579 35.278 135.939 35.278C136.299 35.278 136.587 35.374 136.803 35.566C137.019 35.746 137.127 36.016 137.127 36.376C137.127 36.736 137.019 37.018 136.803 37.222C136.587 37.414 136.299 37.51 135.939 37.51ZM147.452 43.18C146.6 43.18 145.862 43.018 145.238 42.694C144.614 42.37 144.128 41.914 143.78 41.326C143.444 40.738 143.276 40.048 143.276 39.256V33.604C143.276 32.812 143.444 32.122 143.78 31.534C144.128 30.946 144.614 30.49 145.238 30.166C145.862 29.842 146.6 29.68 147.452 29.68C148.304 29.68 149.042 29.842 149.666 30.166C150.29 30.49 150.77 30.946 151.106 31.534C151.454 32.122 151.628 32.812 151.628 33.604V39.256C151.628 40.048 151.454 40.738 151.106 41.326C150.77 41.914 150.29 42.37 149.666 42.694C149.042 43.018 148.304 43.18 147.452 43.18ZM147.452 41.236C148.076 41.236 148.574 41.056 148.946 40.696C149.318 40.336 149.504 39.856 149.504 39.256V33.604C149.504 33.004 149.318 32.524 148.946 32.164C148.586 31.804 148.088 31.624 147.452 31.624C146.816 31.624 146.312 31.804 145.94 32.164C145.58 32.524 145.4 33.004 145.4 33.604V39.256C145.4 39.856 145.586 40.336 145.958 40.696C146.33 41.056 146.828 41.236 147.452 41.236ZM147.452 37.51C147.092 37.51 146.804 37.414 146.588 37.222C146.372 37.018 146.264 36.736 146.264 36.376C146.264 36.016 146.372 35.746 146.588 35.566C146.804 35.374 147.092 35.278 147.452 35.278C147.812 35.278 148.1 35.374 148.316 35.566C148.532 35.746 148.64 36.016 148.64 36.376C148.64 36.736 148.532 37.018 148.316 37.222C148.1 37.414 147.812 37.51 147.452 37.51ZM156.085 38.104V36.016H161.845V38.104H156.085ZM166.41 43V40.966L171.144 36.124C171.912 35.32 172.296 34.504 172.296 33.676C172.296 33.088 172.122 32.614 171.774 32.254C171.438 31.882 170.982 31.696 170.406 31.696C169.818 31.696 169.344 31.888 168.984 32.272C168.636 32.644 168.462 33.142 168.462 33.766H166.212C166.212 32.95 166.392 32.236 166.752 31.624C167.112 31.012 167.61 30.538 168.246 30.202C168.882 29.854 169.62 29.68 170.46 29.68C171.288 29.68 172.014 29.842 172.638 30.166C173.262 30.49 173.742 30.946 174.078 31.534C174.426 32.11 174.6 32.788 174.6 33.568C174.6 34.24 174.438 34.912 174.114 35.584C173.802 36.256 173.28 36.952 172.548 37.672L169.236 40.966H174.762V43H166.41ZM181.991 43.18C181.139 43.18 180.401 43.018 179.777 42.694C179.153 42.37 178.667 41.914 178.319 41.326C177.983 40.738 177.815 40.048 177.815 39.256V33.604C177.815 32.812 177.983 32.122 178.319 31.534C178.667 30.946 179.153 30.49 179.777 30.166C180.401 29.842 181.139 29.68 181.991 29.68C182.843 29.68 183.581 29.842 184.205 30.166C184.829 30.49 185.309 30.946 185.645 31.534C185.993 32.122 186.167 32.812 186.167 33.604V39.256C186.167 40.048 185.993 40.738 185.645 41.326C185.309 41.914 184.829 42.37 184.205 42.694C183.581 43.018 182.843 43.18 181.991 43.18ZM181.991 41.236C182.615 41.236 183.113 41.056 183.485 40.696C183.857 40.336 184.043 39.856 184.043 39.256V33.604C184.043 33.004 183.857 32.524 183.485 32.164C183.125 31.804 182.627 31.624 181.991 31.624C181.355 31.624 180.851 31.804 180.479 32.164C180.119 32.524 179.939 33.004 179.939 33.604V39.256C179.939 39.856 180.125 40.336 180.497 40.696C180.869 41.056 181.367 41.236 181.991 41.236ZM181.991 37.51C181.631 37.51 181.343 37.414 181.127 37.222C180.911 37.018 180.803 36.736 180.803 36.376C180.803 36.016 180.911 35.746 181.127 35.566C181.343 35.374 181.631 35.278 181.991 35.278C182.351 35.278 182.639 35.374 182.855 35.566C183.071 35.746 183.179 36.016 183.179 36.376C183.179 36.736 183.071 37.018 182.855 37.222C182.639 37.414 182.351 37.51 181.991 37.51ZM193.504 34.504C193 34.504 192.592 34.366 192.28 34.09C191.98 33.802 191.83 33.436 191.83 32.992C191.83 32.536 191.98 32.17 192.28 31.894C192.592 31.618 193 31.48 193.504 31.48C194.008 31.48 194.41 31.618 194.71 31.894C195.022 32.17 195.178 32.536 195.178 32.992C195.178 33.436 195.022 33.802 194.71 34.09C194.41 34.366 194.008 34.504 193.504 34.504ZM193.504 41.74C193 41.74 192.592 41.602 192.28 41.326C191.98 41.05 191.83 40.684 191.83 40.228C191.83 39.784 191.98 39.424 192.28 39.148C192.592 38.86 193 38.716 193.504 38.716C194.008 38.716 194.41 38.86 194.71 39.148C195.022 39.424 195.178 39.784 195.178 40.228C195.178 40.684 195.022 41.05 194.71 41.326C194.41 41.602 194.008 41.74 193.504 41.74ZM205.017 43.18C204.165 43.18 203.427 43.018 202.803 42.694C202.179 42.37 201.693 41.914 201.345 41.326C201.009 40.738 200.841 40.048 200.841 39.256V33.604C200.841 32.812 201.009 32.122 201.345 31.534C201.693 30.946 202.179 30.49 202.803 30.166C203.427 29.842 204.165 29.68 205.017 29.68C205.869 29.68 206.607 29.842 207.231 30.166C207.855 30.49 208.335 30.946 208.671 31.534C209.019 32.122 209.193 32.812 209.193 33.604V39.256C209.193 40.048 209.019 40.738 208.671 41.326C208.335 41.914 207.855 42.37 207.231 42.694C206.607 43.018 205.869 43.18 205.017 43.18ZM205.017 41.236C205.641 41.236 206.139 41.056 206.511 40.696C206.883 40.336 207.069 39.856 207.069 39.256V33.604C207.069 33.004 206.883 32.524 206.511 32.164C206.151 31.804 205.653 31.624 205.017 31.624C204.381 31.624 203.877 31.804 203.505 32.164C203.145 32.524 202.965 33.004 202.965 33.604V39.256C202.965 39.856 203.151 40.336 203.523 40.696C203.895 41.056 204.393 41.236 205.017 41.236ZM205.017 37.51C204.657 37.51 204.369 37.414 204.153 37.222C203.937 37.018 203.829 36.736 203.829 36.376C203.829 36.016 203.937 35.746 204.153 35.566C204.369 35.374 204.657 35.278 205.017 35.278C205.377 35.278 205.665 35.374 205.881 35.566C206.097 35.746 206.205 36.016 206.205 36.376C206.205 36.736 206.097 37.018 205.881 37.222C205.665 37.414 205.377 37.51 205.017 37.51ZM216.53 43.18C215.678 43.18 214.94 43.018 214.316 42.694C213.692 42.37 213.206 41.914 212.858 41.326C212.522 40.738 212.354 40.048 212.354 39.256V33.604C212.354 32.812 212.522 32.122 212.858 31.534C213.206 30.946 213.692 30.49 214.316 30.166C214.94 29.842 215.678 29.68 216.53 29.68C217.382 29.68 218.12 29.842 218.744 30.166C219.368 30.49 219.848 30.946 220.184 31.534C220.532 32.122 220.706 32.812 220.706 33.604V39.256C220.706 40.048 220.532 40.738 220.184 41.326C219.848 41.914 219.368 42.37 218.744 42.694C218.12 43.018 217.382 43.18 216.53 43.18ZM216.53 41.236C217.154 41.236 217.652 41.056 218.024 40.696C218.396 40.336 218.582 39.856 218.582 39.256V33.604C218.582 33.004 218.396 32.524 218.024 32.164C217.664 31.804 217.166 31.624 216.53 31.624C215.894 31.624 215.39 31.804 215.018 32.164C214.658 32.524 214.478 33.004 214.478 33.604V39.256C214.478 39.856 214.664 40.336 215.036 40.696C215.408 41.056 215.906 41.236 216.53 41.236ZM216.53 37.51C216.17 37.51 215.882 37.414 215.666 37.222C215.45 37.018 215.342 36.736 215.342 36.376C215.342 36.016 215.45 35.746 215.666 35.566C215.882 35.374 216.17 35.278 216.53 35.278C216.89 35.278 217.178 35.374 217.394 35.566C217.61 35.746 217.718 36.016 217.718 36.376C217.718 36.736 217.61 37.018 217.394 37.222C217.178 37.414 216.89 37.51 216.53 37.51Z" fill="black"/>
<path d="M97.512 69V66.966H100.932V58.038L97.494 60.558V58.038L100.518 55.86H103.182V66.966H105.936V69H97.512ZM112.913 69.18C112.061 69.18 111.323 69.018 110.699 68.694C110.075 68.37 109.589 67.914 109.241 67.326C108.905 66.738 108.737 66.048 108.737 65.256V59.604C108.737 58.812 108.905 58.122 109.241 57.534C109.589 56.946 110.075 56.49 110.699 56.166C111.323 55.842 112.061 55.68 112.913 55.68C113.765 55.68 114.503 55.842 115.127 56.166C115.751 56.49 116.231 56.946 116.567 57.534C116.915 58.122 117.089 58.812 117.089 59.604V65.256C117.089 66.048 116.915 66.738 116.567 67.326C116.231 67.914 115.751 68.37 115.127 68.694C114.503 69.018 113.765 69.18 112.913 69.18ZM112.913 67.236C113.537 67.236 114.035 67.056 114.407 66.696C114.779 66.336 114.965 65.856 114.965 65.256V59.604C114.965 59.004 114.779 58.524 114.407 58.164C114.047 57.804 113.549 57.624 112.913 57.624C112.277 57.624 111.773 57.804 111.401 58.164C111.041 58.524 110.861 59.004 110.861 59.604V65.256C110.861 65.856 111.047 66.336 111.419 66.696C111.791 67.056 112.289 67.236 112.913 67.236ZM112.913 63.51C112.553 63.51 112.265 63.414 112.049 63.222C111.833 63.018 111.725 62.736 111.725 62.376C111.725 62.016 111.833 61.746 112.049 61.566C112.265 61.374 112.553 61.278 112.913 61.278C113.273 61.278 113.561 61.374 113.777 61.566C113.993 61.746 114.101 62.016 114.101 62.376C114.101 62.736 113.993 63.018 113.777 63.222C113.561 63.414 113.273 63.51 112.913 63.51ZM124.426 60.504C123.922 60.504 123.514 60.366 123.202 60.09C122.902 59.802 122.752 59.436 122.752 58.992C122.752 58.536 122.902 58.17 123.202 57.894C123.514 57.618 123.922 57.48 124.426 57.48C124.93 57.48 125.332 57.618 125.632 57.894C125.944 58.17 126.1 58.536 126.1 58.992C126.1 59.436 125.944 59.802 125.632 60.09C125.332 60.366 124.93 60.504 124.426 60.504ZM124.426 67.74C123.922 67.74 123.514 67.602 123.202 67.326C122.902 67.05 122.752 66.684 122.752 66.228C122.752 65.784 122.902 65.424 123.202 65.148C123.514 64.86 123.922 64.716 124.426 64.716C124.93 64.716 125.332 64.86 125.632 65.148C125.944 65.424 126.1 65.784 126.1 66.228C126.1 66.684 125.944 67.05 125.632 67.326C125.332 67.602 124.93 67.74 124.426 67.74ZM135.939 69.18C135.087 69.18 134.349 69.018 133.725 68.694C133.101 68.37 132.615 67.914 132.267 67.326C131.931 66.738 131.763 66.048 131.763 65.256V59.604C131.763 58.812 131.931 58.122 132.267 57.534C132.615 56.946 133.101 56.49 133.725 56.166C134.349 55.842 135.087 55.68 135.939 55.68C136.791 55.68 137.529 55.842 138.153 56.166C138.777 56.49 139.257 56.946 139.593 57.534C139.941 58.122 140.115 58.812 140.115 59.604V65.256C140.115 66.048 139.941 66.738 139.593 67.326C139.257 67.914 138.777 68.37 138.153 68.694C137.529 69.018 136.791 69.18 135.939 69.18ZM135.939 67.236C136.563 67.236 137.061 67.056 137.433 66.696C137.805 66.336 137.991 65.856 137.991 65.256V59.604C137.991 59.004 137.805 58.524 137.433 58.164C137.073 57.804 136.575 57.624 135.939 57.624C135.303 57.624 134.799 57.804 134.427 58.164C134.067 58.524 133.887 59.004 133.887 59.604V65.256C133.887 65.856 134.073 66.336 134.445 66.696C134.817 67.056 135.315 67.236 135.939 67.236ZM135.939 63.51C135.579 63.51 135.291 63.414 135.075 63.222C134.859 63.018 134.751 62.736 134.751 62.376C134.751 62.016 134.859 61.746 135.075 61.566C135.291 61.374 135.579 61.278 135.939 61.278C136.299 61.278 136.587 61.374 136.803 61.566C137.019 61.746 137.127 62.016 137.127 62.376C137.127 62.736 137.019 63.018 136.803 63.222C136.587 63.414 136.299 63.51 135.939 63.51ZM147.452 69.18C146.6 69.18 145.862 69.018 145.238 68.694C144.614 68.37 144.128 67.914 143.78 67.326C143.444 66.738 143.276 66.048 143.276 65.256V59.604C143.276 58.812 143.444 58.122 143.78 57.534C144.128 56.946 144.614 56.49 145.238 56.166C145.862 55.842 146.6 55.68 147.452 55.68C148.304 55.68 149.042 55.842 149.666 56.166C150.29 56.49 150.77 56.946 151.106 57.534C151.454 58.122 151.628 58.812 151.628 59.604V65.256C151.628 66.048 151.454 66.738 151.106 67.326C150.77 67.914 150.29 68.37 149.666 68.694C149.042 69.018 148.304 69.18 147.452 69.18ZM147.452 67.236C148.076 67.236 148.574 67.056 148.946 66.696C149.318 66.336 149.504 65.856 149.504 65.256V59.604C149.504 59.004 149.318 58.524 148.946 58.164C148.586 57.804 148.088 57.624 147.452 57.624C146.816 57.624 146.312 57.804 145.94 58.164C145.58 58.524 145.4 59.004 145.4 59.604V65.256C145.4 65.856 145.586 66.336 145.958 66.696C146.33 67.056 146.828 67.236 147.452 67.236ZM147.452 63.51C147.092 63.51 146.804 63.414 146.588 63.222C146.372 63.018 146.264 62.736 146.264 62.376C146.264 62.016 146.372 61.746 146.588 61.566C146.804 61.374 147.092 61.278 147.452 61.278C147.812 61.278 148.1 61.374 148.316 61.566C148.532 61.746 148.64 62.016 148.64 62.376C148.64 62.736 148.532 63.018 148.316 63.222C148.1 63.414 147.812 63.51 147.452 63.51ZM156.085 64.104V62.016H161.845V64.104H156.085ZM166.59 69V66.966H170.01V58.038L166.572 60.558V58.038L169.596 55.86H172.26V66.966H175.014V69H166.59ZM179.435 69L184.241 57.84H180.047V59.982H177.797V55.86H186.671V57.84L181.901 69H179.435ZM193.504 60.504C193 60.504 192.592 60.366 192.28 60.09C191.98 59.802 191.83 59.436 191.83 58.992C191.83 58.536 191.98 58.17 192.28 57.894C192.592 57.618 193 57.48 193.504 57.48C194.008 57.48 194.41 57.618 194.71 57.894C195.022 58.17 195.178 58.536 195.178 58.992C195.178 59.436 195.022 59.802 194.71 60.09C194.41 60.366 194.008 60.504 193.504 60.504ZM193.504 67.74C193 67.74 192.592 67.602 192.28 67.326C191.98 67.05 191.83 66.684 191.83 66.228C191.83 65.784 191.98 65.424 192.28 65.148C192.592 64.86 193 64.716 193.504 64.716C194.008 64.716 194.41 64.86 194.71 65.148C195.022 65.424 195.178 65.784 195.178 66.228C195.178 66.684 195.022 67.05 194.71 67.326C194.41 67.602 194.008 67.74 193.504 67.74ZM205.017 69.18C204.165 69.18 203.427 69.018 202.803 68.694C202.179 68.37 201.693 67.914 201.345 67.326C201.009 66.738 200.841 66.048 200.841 65.256V59.604C200.841 58.812 201.009 58.122 201.345 57.534C201.693 56.946 202.179 56.49 202.803 56.166C203.427 55.842 204.165 55.68 205.017 55.68C205.869 55.68 206.607 55.842 207.231 56.166C207.855 56.49 208.335 56.946 208.671 57.534C209.019 58.122 209.193 58.812 209.193 59.604V65.256C209.193 66.048 209.019 66.738 208.671 67.326C208.335 67.914 207.855 68.37 207.231 68.694C206.607 69.018 205.869 69.18 205.017 69.18ZM205.017 67.236C205.641 67.236 206.139 67.056 206.511 66.696C206.883 66.336 207.069 65.856 207.069 65.256V59.604C207.069 59.004 206.883 58.524 206.511 58.164C206.151 57.804 205.653 57.624 205.017 57.624C204.381 57.624 203.877 57.804 203.505 58.164C203.145 58.524 202.965 59.004 202.965 59.604V65.256C202.965 65.856 203.151 66.336 203.523 66.696C203.895 67.056 204.393 67.236 205.017 67.236ZM205.017 63.51C204.657 63.51 204.369 63.414 204.153 63.222C203.937 63.018 203.829 62.736 203.829 62.376C203.829 62.016 203.937 61.746 204.153 61.566C204.369 61.374 204.657 61.278 205.017 61.278C205.377 61.278 205.665 61.374 205.881 61.566C206.097 61.746 206.205 62.016 206.205 62.376C206.205 62.736 206.097 63.018 205.881 63.222C205.665 63.414 205.377 63.51 205.017 63.51ZM216.53 69.18C215.678 69.18 214.94 69.018 214.316 68.694C213.692 68.37 213.206 67.914 212.858 67.326C212.522 66.738 212.354 66.048 212.354 65.256V59.604C212.354 58.812 212.522 58.122 212.858 57.534C213.206 56.946 213.692 56.49 214.316 56.166C214.94 55.842 215.678 55.68 216.53 55.68C217.382 55.68 218.12 55.842 218.744 56.166C219.368 56.49 219.848 56.946 220.184 57.534C220.532 58.122 220.706 58.812 220.706 59.604V65.256C220.706 66.048 220.532 66.738 220.184 67.326C219.848 67.914 219.368 68.37 218.744 68.694C218.12 69.018 217.382 69.18 216.53 69.18ZM216.53 67.236C217.154 67.236 217.652 67.056 218.024 66.696C218.396 66.336 218.582 65.856 218.582 65.256V59.604C218.582 59.004 218.396 58.524 218.024 58.164C217.664 57.804 217.166 57.624 216.53 57.624C215.894 57.624 215.39 57.804 215.018 58.164C214.658 58.524 214.478 59.004 214.478 59.604V65.256C214.478 65.856 214.664 66.336 215.036 66.696C215.408 67.056 215.906 67.236 216.53 67.236ZM216.53 63.51C216.17 63.51 215.882 63.414 215.666 63.222C215.45 63.018 215.342 62.736 215.342 62.376C215.342 62.016 215.45 61.746 215.666 61.566C215.882 61.374 216.17 61.278 216.53 61.278C216.89 61.278 217.178 61.374 217.394 61.566C217.61 61.746 217.718 62.016 217.718 62.376C217.718 62.736 217.61 63.018 217.394 63.222C217.178 63.414 216.89 63.51 216.53 63.51Z" fill="black"/>
</svg>
