<svg width="169" height="44" viewBox="0 0 169 44" fill="none" xmlns="http://www.w3.org/2000/svg">
<rect y="6" width="130" height="14" fill="white"/>
<rect y="28" width="166" height="14" fill="white"/>
<path d="M3.942 8.118H4.374C4.662 8.118 4.986 8.01 4.986 7.668V6.444C4.986 5.436 4.914 4.482 4.914 4.464C4.914 4.338 4.968 4.284 5.094 4.284C5.544 4.284 5.85 4.32 6.426 4.374C6.876 4.41 7.254 4.464 7.254 4.626C7.254 4.698 7.182 4.77 7.146 4.806C6.912 5.094 6.93 5.238 6.93 6.408V7.65C6.93 7.902 7.128 8.118 7.398 8.118H10.566C10.818 8.118 11.016 7.956 11.016 7.596C11.016 6.948 10.98 5.076 10.944 4.536C10.944 4.464 10.926 4.392 10.926 4.32C10.926 4.194 11.034 4.104 11.16 4.104C11.412 4.104 12.42 4.212 12.708 4.23C13.014 4.266 13.266 4.266 13.266 4.428C13.266 4.518 13.194 4.59 13.068 4.716C12.978 4.824 12.96 5.616 12.96 6.228V6.912C12.96 7.092 12.978 7.272 12.978 7.452V7.56C12.978 7.92 13.14 8.118 13.5 8.118H13.986C14.544 8.118 15.732 8.082 16.11 8.082C16.434 8.082 16.56 8.226 16.56 8.928C16.56 9.828 16.506 9.99 16.056 9.99C15.354 9.99 14.67 9.954 13.986 9.954H13.5C12.942 9.954 12.942 10.332 12.942 10.566C12.888 13.698 12.582 15.876 9.774 17.73C9.486 17.928 8.28 18.648 7.974 18.648C7.704 18.648 6.66 17.622 6.66 17.334C6.66 17.19 6.822 17.1 6.948 17.046C10.368 15.624 10.998 14.13 10.998 10.53C10.998 10.224 10.872 9.954 10.53 9.954H7.398C7.146 9.954 6.93 10.152 6.93 10.404V12.114C6.93 12.618 6.966 13.104 6.966 13.608C6.966 14.4 6.876 14.328 5.796 14.328C5.166 14.328 4.95 14.346 4.95 13.878C4.95 13.302 4.986 12.726 4.986 12.15V10.422C4.986 10.152 4.752 9.954 4.5 9.954H3.942C3.24 9.954 2.52 10.008 1.926 10.008C1.476 10.008 1.458 9.63 1.458 9.18C1.458 8.316 1.476 8.082 1.908 8.082C2.43 8.082 3.24 8.118 3.942 8.118ZM23.58 9.882H31.86C32.688 9.882 33.858 9.828 34.092 9.828C34.578 9.828 34.596 9.972 34.596 10.962C34.596 11.538 34.578 11.88 34.11 11.88C33.354 11.88 32.598 11.844 31.86 11.844H23.58C22.842 11.844 22.086 11.88 21.33 11.88C20.862 11.88 20.844 11.538 20.844 10.98C20.844 9.972 20.88 9.828 21.348 9.828C21.582 9.828 22.824 9.882 23.58 9.882ZM46.944 6.462H50.148C50.472 6.462 50.742 6.444 51.156 6.354C51.21 6.354 51.282 6.336 51.354 6.336C51.714 6.336 52.506 7.326 52.506 7.56C52.506 7.65 52.434 7.776 52.29 8.01C52.146 8.226 51.966 8.532 51.732 8.982C49.968 12.402 48.204 15.03 44.892 17.172C44.496 17.424 42.804 18.486 42.426 18.486C42.03 18.486 40.896 17.604 40.896 17.262C40.896 17.082 41.112 16.992 41.256 16.938C44.154 15.642 46.422 13.806 48.204 11.178C48.51 10.728 49.59 8.982 49.59 8.532C49.59 8.298 49.302 8.28 49.05 8.28H45.63C45.216 8.28 45.108 8.46 44.874 8.784C44.532 9.27 42.462 11.736 41.976 11.736C41.76 11.736 40.446 11.052 40.446 10.674C40.446 10.548 40.518 10.476 40.608 10.422C42.498 8.928 44.586 6.246 45.414 3.978C45.486 3.798 45.54 3.546 45.702 3.546C45.792 3.546 46.278 3.762 46.656 3.942C46.818 4.032 47.736 4.374 47.736 4.572C47.736 4.662 47.646 4.734 47.574 4.77C47.322 4.86 47.268 4.95 46.962 5.508C46.89 5.652 46.638 6.012 46.638 6.156C46.638 6.354 46.764 6.444 46.944 6.462ZM66.7842 8.136V13.266C66.7842 13.824 66.8022 14.094 67.0722 14.094C67.6662 14.094 71.2122 10.926 71.7882 10.332C71.8782 10.242 72.0042 10.098 72.1482 10.098C72.4542 10.098 73.0662 11.25 73.0662 11.538C73.0662 11.808 72.3642 12.384 72.1302 12.582C71.0502 13.518 69.9702 14.436 68.8362 15.282C68.3502 15.66 67.5762 16.236 67.1442 16.614C66.9822 16.74 66.8022 16.938 66.5862 16.938C66.3522 16.938 65.5782 16.542 65.3442 16.398C65.0922 16.254 64.7682 16.074 64.7682 15.75C64.7682 15.624 64.8402 14.454 64.8402 13.59V7.29C64.8402 6.678 64.8402 6.066 64.7682 5.454V5.364C64.7682 5.238 64.8402 5.184 64.9482 5.184C65.0562 5.184 65.5062 5.256 65.6502 5.274C66.5862 5.4 67.1082 5.454 67.1082 5.652C67.1082 5.778 67.0362 5.814 66.9642 5.904C66.8382 6.03 66.8202 6.192 66.8022 6.372C66.7842 6.786 66.7842 7.686 66.7842 8.136ZM60.8802 5.562C61.2222 5.562 62.1402 5.688 62.5182 5.742C62.7342 5.778 62.9682 5.778 62.9682 5.958C62.9682 6.048 62.8602 6.138 62.7882 6.21C62.6802 6.318 62.6982 6.624 62.6982 6.786V7.182C62.6982 10.908 62.4462 14.076 59.5842 16.812C59.4402 16.938 59.2242 17.19 59.0262 17.19C58.7562 17.19 57.4242 16.524 57.4242 16.2C57.4242 16.074 57.5682 15.948 57.6582 15.876C60.3942 13.608 60.7362 11.088 60.7362 7.74C60.7362 7.2 60.7182 6.48 60.6642 5.958C60.6642 5.904 60.6462 5.814 60.6462 5.76C60.6462 5.598 60.7542 5.562 60.8802 5.562ZM85.7202 17.1C85.7202 17.19 85.6302 17.262 85.5042 17.262C85.4682 17.262 85.4322 17.244 85.3962 17.244C85.3602 17.244 85.2882 17.226 85.2522 17.226C85.1442 17.226 85.0002 17.316 84.9102 17.388C84.3522 17.766 82.1382 19.188 81.5622 19.188C81.1482 19.188 80.4822 18.432 80.4822 18.018C80.4822 17.856 80.6442 17.802 80.9142 17.712C82.0482 17.316 83.1462 16.704 84.1182 16.02C84.2082 15.948 84.2802 15.876 84.3882 15.876C84.5862 15.876 85.7202 16.92 85.7202 17.1ZM91.9842 18.036C91.9842 18.396 91.4622 19.188 91.0842 19.188C90.5982 19.188 87.3582 17.262 87.3582 16.866C87.3582 16.668 88.1142 15.93 88.3302 15.93C88.4742 15.93 88.7262 16.146 88.8882 16.272C89.6982 16.884 90.6522 17.37 91.6062 17.748C91.8582 17.856 91.9842 17.892 91.9842 18.036ZM87.4482 6.858V6.642C87.4122 6.336 87.2502 6.174 86.9442 6.138H85.9182C85.6122 6.174 85.4502 6.336 85.4142 6.642V6.858C85.4502 7.164 85.6122 7.326 85.9182 7.362H86.9442C87.2502 7.326 87.4122 7.164 87.4482 6.858ZM83.7042 13.788V13.968C83.7042 14.22 83.8842 14.4 84.1362 14.4H85.1622C85.4142 14.4 85.5942 14.22 85.5942 13.968V13.788C85.5942 13.536 85.4142 13.356 85.1622 13.356H84.1362C83.8842 13.356 83.7042 13.536 83.7042 13.788ZM87.7002 14.4H88.7442C88.9962 14.4 89.1762 14.22 89.1762 13.968V13.788C89.1762 13.536 88.9962 13.356 88.7442 13.356H87.7002C87.4482 13.356 87.2682 13.536 87.2682 13.788V13.968C87.2682 14.22 87.4482 14.4 87.7002 14.4ZM85.1622 11.214H84.1362C83.8842 11.214 83.7042 11.394 83.7042 11.646V11.772C83.7042 12.024 83.8842 12.204 84.1362 12.204H85.1622C85.4142 12.204 85.5942 12.024 85.5942 11.772V11.646C85.5942 11.394 85.4142 11.214 85.1622 11.214ZM89.1762 11.772V11.646C89.1762 11.394 88.9962 11.214 88.7442 11.214H87.7002C87.4482 11.214 87.2682 11.394 87.2682 11.646V11.772C87.2682 12.024 87.4482 12.204 87.7002 12.204H88.7442C88.9962 12.204 89.1762 12.024 89.1762 11.772ZM83.7222 6.858V6.642C83.7222 6.318 83.5962 6.156 83.2542 6.156C83.0202 6.156 82.4082 6.174 82.2102 6.174C81.7962 6.174 81.8142 5.922 81.8142 5.418C81.8142 4.86 81.8142 4.644 82.2282 4.644C82.5522 4.644 82.8942 4.662 83.2182 4.68C83.5422 4.68 83.7042 4.554 83.7222 4.212C83.7222 3.942 83.7042 3.672 83.6682 3.42C83.6502 3.366 83.6502 3.312 83.6502 3.258C83.6502 3.078 83.7942 3.042 83.9562 3.042C84.2082 3.042 85.1442 3.132 85.4502 3.15C85.5762 3.168 85.8642 3.168 85.8642 3.366C85.8642 3.492 85.7202 3.582 85.6302 3.636C85.4322 3.78 85.4322 3.888 85.4142 4.212C85.4322 4.554 85.5762 4.68 85.9182 4.68H86.9442C87.2862 4.68 87.4302 4.554 87.4482 4.194C87.4302 3.96 87.4122 3.69 87.3762 3.456C87.3582 3.402 87.3582 3.348 87.3582 3.312C87.3582 3.114 87.5202 3.096 87.6822 3.096C87.8982 3.096 88.9602 3.186 89.2122 3.204C89.3562 3.222 89.5902 3.24 89.5902 3.402C89.5902 3.546 89.4282 3.636 89.3382 3.708C89.1582 3.834 89.1582 3.96 89.1582 4.176C89.1402 4.5 89.2842 4.68 89.6262 4.68C89.9862 4.68 90.3642 4.644 90.7422 4.644C91.1742 4.644 91.1382 4.878 91.1382 5.418C91.1382 5.922 91.1742 6.174 90.7422 6.174C90.4002 6.174 89.9862 6.156 89.6262 6.156C89.2842 6.156 89.1582 6.318 89.1582 6.642V6.858C89.1582 7.218 89.3022 7.362 89.6442 7.362C90.2022 7.38 90.7422 7.326 91.2822 7.326C91.6962 7.326 91.6782 7.56 91.6782 8.064C91.6782 8.622 91.6962 8.82 91.2822 8.82C90.6702 8.82 90.0762 8.784 89.4822 8.784H87.7002C87.3942 8.784 87.2682 8.91 87.2682 9.216V9.36C87.2682 9.648 87.3942 9.774 87.7002 9.774H88.8162C89.2482 9.774 89.6802 9.756 90.1122 9.756C90.5802 9.756 90.8502 9.882 90.8502 10.404C90.8502 10.764 90.8322 11.106 90.8322 11.466V14.094C90.8322 14.454 90.8502 14.796 90.8502 15.156C90.8502 15.714 90.5622 15.804 89.8782 15.804C89.5902 15.804 89.2482 15.786 88.8162 15.786H84.0102C83.5782 15.786 83.2362 15.804 82.9482 15.804C82.2822 15.804 81.9942 15.714 81.9942 15.156C81.9942 14.796 82.0122 14.454 82.0122 14.094V11.466C82.0122 11.124 81.9942 10.764 81.9942 10.422C81.9942 9.9 82.2462 9.756 82.7322 9.756C83.1642 9.756 83.5782 9.774 84.0102 9.774H85.1622C85.4682 9.774 85.5942 9.648 85.5942 9.36V9.216C85.5942 8.91 85.4682 8.784 85.1622 8.784H83.4702C82.8942 8.784 82.3002 8.82 81.7062 8.82C81.2922 8.82 81.3102 8.586 81.3102 8.064C81.3102 7.56 81.2922 7.326 81.7062 7.326C82.2102 7.326 82.7142 7.38 83.2182 7.362C83.5782 7.362 83.7222 7.218 83.7222 6.858ZM79.6182 8.55C80.1222 9.468 80.8602 10.494 81.5442 11.286C81.6522 11.412 81.7062 11.466 81.7062 11.592C81.7062 11.862 81.2382 12.852 81.0042 12.852C80.6622 12.852 79.9602 11.556 79.7802 11.25C79.7622 11.214 79.7262 11.178 79.6722 11.178C79.5822 11.178 79.5462 11.25 79.5462 11.322V16.128C79.5462 16.956 79.6002 17.784 79.6002 18.612C79.6002 19.116 79.4202 19.152 78.7002 19.152C77.9802 19.152 77.8002 19.116 77.8002 18.612C77.8002 17.784 77.8542 16.956 77.8542 16.128V12.366C77.8542 12.294 77.8362 12.258 77.7822 12.258C77.7462 12.258 77.7282 12.276 77.7102 12.312C77.4402 13.248 77.1342 14.058 76.7202 14.958C76.6302 15.156 76.4862 15.516 76.2702 15.516C75.9642 15.516 75.3522 14.652 75.3522 14.346C75.3522 14.166 75.4242 14.04 75.5142 13.878C76.4142 12.186 77.0622 10.26 77.4762 8.37V8.244C77.4762 8.01 77.3322 7.902 77.1162 7.902C76.8102 7.884 76.4862 7.938 76.1802 7.938C75.8202 7.938 75.8382 7.668 75.8382 7.11C75.8382 6.498 75.8022 6.228 76.1982 6.228C76.4502 6.228 76.9182 6.282 77.3502 6.264C77.7102 6.264 77.8182 6.102 77.8542 5.76V4.95C77.8542 4.428 77.8362 3.834 77.7822 3.402C77.7822 3.348 77.7642 3.294 77.7642 3.24C77.7642 3.042 77.9082 3.006 78.0702 3.006C78.2682 3.006 79.3302 3.114 79.5642 3.132C79.7262 3.15 80.0142 3.168 80.0142 3.366C80.0142 3.51 79.8882 3.546 79.7622 3.636C79.5642 3.762 79.5462 4.068 79.5462 4.68V5.76C79.5462 6.084 79.6722 6.228 79.9962 6.264C80.1582 6.246 80.6622 6.228 80.8062 6.228C81.2022 6.228 81.1662 6.48 81.1662 7.074C81.1662 7.704 81.2022 7.938 80.8062 7.938C80.7702 7.938 80.0862 7.902 79.9962 7.902C79.7082 7.92 79.5822 8.028 79.5462 8.334C79.5462 8.406 79.5642 8.46 79.6182 8.55ZM103.702 4.338C103.702 4.428 103.594 4.464 103.54 4.482C103.252 4.572 103.288 4.59 103.126 5.148C103.036 5.454 102.568 6.894 102.478 7.128C102.406 7.272 102.316 7.416 102.136 7.416C101.938 7.416 101.218 7.254 101.218 6.984C101.218 6.894 101.272 6.732 101.308 6.642C101.506 6.12 101.956 4.644 102.064 4.104C102.082 3.978 102.118 3.816 102.28 3.816C102.442 3.816 103.702 4.104 103.702 4.338ZM99.0762 6.876C99.0762 7.182 98.3382 7.326 98.1222 7.326C97.8702 7.326 97.8162 7.128 97.7622 6.93C97.6002 6.192 97.4022 5.472 97.1502 4.77C97.1142 4.68 97.0782 4.554 97.0782 4.464C97.0782 4.14 97.8522 3.996 97.9782 3.996C98.2482 3.996 98.3742 4.428 98.7342 5.598C98.7882 5.778 99.0762 6.732 99.0762 6.876ZM101.11 11.898C101.074 11.862 101.056 11.826 101.002 11.826C100.894 11.826 100.876 11.916 100.876 11.988V12.906C100.876 13.662 100.912 14.436 100.912 15.192C100.912 15.696 100.75 15.714 100.102 15.714C99.4542 15.714 99.2922 15.696 99.2922 15.192C99.2922 14.418 99.3282 13.662 99.3282 12.906V11.79C99.3282 11.736 99.3102 11.682 99.2562 11.682C99.2202 11.682 99.2022 11.718 99.1842 11.736C99.0042 12.24 97.9062 15.066 97.4382 15.066C97.2942 15.066 96.9882 14.85 96.8622 14.742C96.8082 14.724 96.7722 14.706 96.7182 14.706C96.6102 14.706 96.5742 14.796 96.5562 14.886V15.858C96.5562 16.218 96.7182 16.362 97.0602 16.362H100.102C100.786 16.362 101.452 16.326 102.136 16.326C102.424 16.326 102.532 16.434 102.532 16.722C102.532 16.83 102.55 16.974 102.676 16.974C102.748 16.974 102.802 16.902 102.838 16.848C102.946 16.524 103.054 16.2 103.144 15.876C103.648 14.094 103.864 11.556 103.864 9.72V7.164C103.864 6.534 103.846 5.904 103.846 5.274C103.846 4.446 104.404 4.464 105.034 4.374C106.06 4.248 108.058 3.852 108.94 3.366C109.012 3.312 109.084 3.276 109.174 3.276C109.354 3.276 109.606 3.546 109.822 3.852C110.002 4.086 110.524 4.608 110.524 4.878C110.524 5.004 110.398 5.094 110.29 5.094C110.2 5.094 110.092 5.058 110.02 5.022C109.93 5.004 109.822 4.968 109.732 4.968C109.66 4.968 109.57 4.986 109.498 5.004C108.274 5.382 107.32 5.58 106.06 5.778C105.484 5.868 105.52 6.03 105.52 6.714V8.154C105.556 8.514 105.682 8.658 106.024 8.658H108.274C108.85 8.658 109.426 8.622 110.002 8.622C110.416 8.622 110.398 8.82 110.398 9.504C110.398 10.17 110.416 10.386 110.002 10.386C109.804 10.386 109.588 10.368 109.39 10.368C109.048 10.386 108.922 10.53 108.922 10.854V16.092C108.922 16.902 108.976 17.712 108.976 18.504C108.976 19.116 108.778 19.116 108.076 19.116C107.356 19.116 107.176 19.098 107.176 18.504C107.176 17.712 107.23 16.902 107.23 16.092V10.854C107.23 10.494 107.068 10.35 106.726 10.35H106.024C105.7 10.35 105.538 10.476 105.52 10.8C105.448 13.068 105.034 16.218 104.206 18.288C104.116 18.54 103.99 18.846 103.666 18.846C103.378 18.846 102.82 18.522 102.604 18.324C102.37 18.126 102.154 18.054 101.92 18.054C101.83 18.054 101.182 18.018 100.804 18.018H97.0242C96.7542 18.018 96.6282 18.126 96.6102 18.414C96.5922 18.936 96.5022 18.972 95.7642 18.972C95.0622 18.972 94.9002 18.954 94.9002 18.45C94.9002 17.586 94.9362 16.704 94.9362 15.822V4.986C94.9362 4.536 94.9182 4.068 94.8822 3.708C94.8822 3.654 94.8642 3.582 94.8642 3.528C94.8642 3.33 95.0082 3.294 95.1702 3.294C95.4402 3.294 96.2502 3.366 96.5562 3.384C96.7002 3.402 96.9702 3.402 96.9702 3.6C96.9702 3.726 96.8802 3.762 96.7722 3.852C96.5742 3.996 96.5562 4.374 96.5562 5.058V13.41C96.5742 13.5 96.5922 13.59 96.7002 13.59C96.7722 13.59 96.8082 13.554 96.8442 13.518C97.6182 12.366 98.1582 11.214 98.6622 9.918C98.6802 9.846 98.6982 9.828 98.6982 9.756C98.6982 9.54 98.5362 9.468 98.3562 9.45C98.1222 9.468 97.5282 9.486 97.3842 9.486C97.0422 9.486 97.0602 9.27 97.0602 8.694C97.0602 8.136 97.0422 7.92 97.3842 7.92C97.7622 7.92 98.3022 7.974 98.8422 7.956C99.1842 7.956 99.3282 7.812 99.3282 7.452V4.626C99.3282 4.212 99.3282 3.78 99.2742 3.348V3.15C99.2742 2.97 99.3642 2.898 99.5442 2.898C99.7422 2.898 100.786 3.006 101.02 3.042C101.146 3.06 101.29 3.096 101.29 3.258C101.29 3.384 101.164 3.456 101.056 3.528C100.894 3.618 100.876 3.798 100.876 4.302V7.452C100.876 7.812 101.02 7.956 101.362 7.956H101.434C101.956 7.956 102.496 7.92 102.856 7.92C103.198 7.92 103.18 8.136 103.18 8.694C103.18 9.27 103.198 9.486 102.856 9.486C102.532 9.486 101.974 9.45 101.488 9.45C101.326 9.468 101.182 9.522 101.182 9.702C101.182 9.774 101.2 9.81 101.236 9.864C101.848 10.782 102.244 11.304 103.036 12.096C103.126 12.168 103.198 12.24 103.198 12.366C103.198 12.636 102.64 13.392 102.334 13.392C102.046 13.392 101.272 12.168 101.11 11.898ZM121.45 14.076H120.856C120.406 14.076 120.316 13.986 120.298 13.536L120.172 8.982C120.136 7.902 120.01 5.49 120.01 5.13C120.01 4.824 120.118 4.752 120.514 4.752H121.774C122.17 4.752 122.278 4.824 122.278 5.13C122.278 5.49 122.152 7.902 122.116 9.09L122.008 13.536C121.99 13.986 121.9 14.076 121.45 14.076ZM121.216 15.48C121.936 15.48 122.476 15.984 122.476 16.722C122.476 17.46 121.99 18.108 121.072 18.108C120.352 18.108 119.83 17.622 119.83 16.92C119.83 16.128 120.334 15.48 121.216 15.48ZM4.518 30.046C4.518 30.262 4.302 30.316 4.122 30.37C3.906 30.442 3.546 30.532 3.312 30.532C3.006 30.532 2.988 30.496 2.808 29.938C2.754 29.758 2.682 29.56 2.574 29.254C2.556 29.182 2.502 29.056 2.502 29.002C2.502 28.696 3.456 28.498 3.708 28.498C3.978 28.498 4.032 28.66 4.266 29.254C4.32 29.398 4.518 29.92 4.518 30.046ZM12.798 32.44H12.294C11.952 32.44 11.808 32.584 11.79 32.926C11.718 34.996 11.376 36.976 10.494 38.866C10.206 39.496 9.846 40.126 9.432 40.666C9.342 40.792 9.234 40.882 9.072 40.882C8.766 40.882 7.668 40.432 7.668 40.09C7.668 39.928 7.83 39.748 7.92 39.64C9.594 37.534 9.99 34.96 9.99 32.35V27.472C9.99 26.716 10.224 26.626 11.196 26.518C12.186 26.41 14.616 25.924 15.462 25.474C15.534 25.438 15.57 25.42 15.66 25.42C15.912 25.42 16.308 25.996 16.47 26.23C16.596 26.41 16.956 26.77 16.956 26.986C16.956 27.148 16.83 27.202 16.704 27.202C16.614 27.202 16.524 27.166 16.434 27.148C16.344 27.112 16.236 27.094 16.128 27.094C16.056 27.094 15.984 27.112 15.912 27.13C14.904 27.436 13.518 27.778 12.474 27.886C11.826 27.958 11.79 28.048 11.79 28.948V30.262C11.79 30.622 11.934 30.766 12.294 30.766H14.85C15.426 30.766 16.02 30.73 16.506 30.73C16.974 30.73 16.956 30.982 16.956 31.612C16.956 32.26 16.974 32.494 16.506 32.494C16.2 32.494 15.894 32.458 15.57 32.458C15.228 32.476 15.102 32.62 15.102 32.944V38.614C15.102 39.28 15.156 39.964 15.156 40.63C15.156 41.17 14.958 41.188 14.202 41.188C13.464 41.188 13.248 41.17 13.248 40.63C13.248 39.964 13.302 39.28 13.302 38.614V32.944C13.302 32.602 13.158 32.44 12.798 32.44ZM6.102 26.356C6.12 26.698 6.264 26.824 6.606 26.824H6.984C7.506 26.824 8.01 26.788 8.532 26.788C8.964 26.788 8.964 27.022 8.964 27.58C8.964 28.138 8.964 28.372 8.532 28.372C8.01 28.372 7.506 28.336 6.984 28.336H3.456C2.934 28.336 2.43 28.372 1.908 28.372C1.458 28.372 1.476 28.12 1.476 27.58C1.476 27.04 1.458 26.788 1.908 26.788C2.43 26.788 2.934 26.824 3.456 26.824H3.762C4.104 26.824 4.248 26.698 4.266 26.338C4.266 26.068 4.248 25.744 4.194 25.474V25.312C4.194 25.114 4.338 25.078 4.5 25.078C4.734 25.078 5.76 25.168 6.048 25.204C6.372 25.24 6.516 25.294 6.516 25.438C6.516 25.546 6.408 25.6 6.3 25.69C6.102 25.834 6.102 26.032 6.102 26.356ZM3.51 35.644C3.528 35.572 3.546 35.536 3.546 35.464C3.546 35.284 3.402 35.23 3.24 35.212C2.844 35.212 2.214 35.248 1.836 35.248C1.386 35.248 1.404 35.032 1.404 34.42C1.404 33.79 1.386 33.574 1.836 33.574C2.412 33.574 2.988 33.628 3.582 33.628H3.816C4.122 33.628 4.302 33.484 4.302 33.16C4.302 33.052 4.284 32.89 4.266 32.782C4.248 32.746 4.248 32.674 4.248 32.62C4.248 32.404 4.428 32.404 4.554 32.404C4.86 32.404 5.67 32.458 5.994 32.476C6.138 32.476 6.426 32.494 6.426 32.692C6.426 32.8 6.354 32.836 6.228 32.926C6.12 32.998 6.066 33.088 6.066 33.214C6.066 33.502 6.3 33.628 6.552 33.628H6.714C7.308 33.628 7.884 33.574 8.46 33.574C8.91 33.574 8.892 33.826 8.892 34.42C8.892 35.014 8.91 35.248 8.46 35.248C7.956 35.248 7.452 35.212 6.966 35.212C6.822 35.212 6.696 35.266 6.696 35.428C6.696 35.5 6.714 35.536 6.75 35.59C7.182 36.148 7.65 36.67 8.172 37.138C8.262 37.21 8.334 37.264 8.334 37.39C8.334 37.696 7.704 38.542 7.38 38.542C7.11 38.542 6.48 37.624 6.318 37.39C6.264 37.354 6.228 37.318 6.174 37.318C6.084 37.318 6.048 37.408 6.048 37.498V38.668C6.048 39.334 6.084 40 6.084 40.684C6.084 41.188 5.904 41.188 5.184 41.188C4.464 41.188 4.266 41.188 4.266 40.684C4.266 40.018 4.32 39.334 4.32 38.668V37.786C4.302 37.714 4.284 37.642 4.194 37.642C4.14 37.642 4.104 37.66 4.086 37.696C3.87 38.056 2.79 39.892 2.448 39.892C2.16 39.892 1.26 39.19 1.26 38.83C1.26 38.668 1.368 38.596 1.476 38.488C2.232 37.714 2.988 36.598 3.51 35.644ZM3.312 30.676H5.076C5.436 30.676 5.598 30.604 5.778 30.28C6.048 29.74 6.21 29.326 6.39 28.732C6.426 28.606 6.444 28.48 6.606 28.48C6.858 28.48 8.226 28.84 8.226 29.092C8.226 29.218 8.082 29.272 7.992 29.308C7.866 29.344 7.776 29.434 7.74 29.542C7.686 29.668 7.398 30.298 7.398 30.406C7.398 30.604 7.542 30.658 7.722 30.676C7.848 30.676 8.82 30.64 8.928 30.64C9.378 30.64 9.36 30.874 9.36 31.432C9.36 32.026 9.378 32.224 8.91 32.224C8.28 32.224 7.65 32.188 7.038 32.188H3.312C2.682 32.188 2.052 32.224 1.422 32.224C0.954 32.224 0.972 31.99 0.972 31.432C0.972 30.856 0.972 30.64 1.422 30.64C2.052 30.64 2.682 30.676 3.312 30.676ZM26.838 28.696C26.856 28.516 26.856 28.354 26.856 28.174C26.856 27.544 26.856 27.382 26.352 27.382H25.11C24.678 27.382 24.246 27.418 23.814 27.418C23.346 27.418 23.364 27.184 23.364 26.482C23.364 25.798 23.346 25.582 23.814 25.582C24.228 25.582 24.678 25.618 25.11 25.618H27.072C27.378 25.618 27.666 25.6 27.954 25.6C28.692 25.6 28.854 25.978 28.854 26.662V27.868C28.854 32.728 31.356 36.868 35.532 39.298C35.676 39.388 35.784 39.46 35.784 39.64C35.784 40.09 35.1 41.098 34.614 41.098C34.308 41.098 32.85 39.928 32.544 39.676C30.492 37.93 28.872 35.662 27.9 33.142C27.864 33.07 27.81 32.998 27.72 32.998C27.648 32.998 27.594 33.07 27.558 33.142C26.334 36.112 24.192 38.686 21.528 40.486C21.096 40.774 20.844 40.918 20.664 40.918C20.196 40.918 19.692 39.892 19.692 39.478C19.692 39.334 19.818 39.28 19.998 39.172C22.014 38.02 23.886 36.112 25.056 34.114C26.028 32.458 26.64 30.586 26.838 28.696ZM43.038 28.642H44.946C45.306 28.642 45.45 28.498 45.45 28.156V26.788C45.45 26.32 45.414 25.834 45.378 25.438C45.378 25.384 45.36 25.312 45.36 25.258C45.36 25.042 45.522 25.006 45.702 25.006C45.954 25.006 47.124 25.114 47.412 25.15C47.574 25.168 47.88 25.186 47.88 25.402C47.88 25.528 47.79 25.564 47.646 25.672C47.448 25.834 47.43 26.176 47.43 26.806V28.156C47.43 28.498 47.592 28.642 47.934 28.642H50.994C51.732 28.642 52.47 28.606 53.208 28.606C53.676 28.606 53.64 28.84 53.64 29.542C53.64 30.244 53.676 30.478 53.208 30.478C52.47 30.478 51.732 30.442 50.994 30.442H47.934C47.592 30.442 47.43 30.586 47.43 30.946V32.872C47.43 33.232 47.592 33.376 47.934 33.376H50.22C50.94 33.376 51.66 33.322 52.38 33.322C52.866 33.322 52.848 33.574 52.848 34.24C52.848 34.924 52.866 35.176 52.38 35.176C51.66 35.176 50.94 35.122 50.22 35.122H47.934C47.592 35.122 47.43 35.266 47.43 35.626V38.236C47.43 38.578 47.592 38.722 47.934 38.722H51.66C52.398 38.722 53.154 38.686 53.91 38.686C54.396 38.686 54.36 38.92 54.36 39.622C54.36 40.324 54.378 40.558 53.91 40.558C53.154 40.558 52.416 40.522 51.66 40.522H41.148C40.41 40.522 39.654 40.558 38.898 40.558C38.43 40.558 38.448 40.324 38.448 39.622C38.448 38.902 38.43 38.686 38.898 38.686C39.654 38.686 40.41 38.722 41.148 38.722H44.946C45.306 38.722 45.45 38.578 45.45 38.236V35.626C45.45 35.266 45.306 35.122 44.946 35.122H42.714C41.994 35.122 41.292 35.176 40.572 35.176C40.068 35.176 40.086 34.942 40.086 34.24C40.086 33.556 40.068 33.322 40.572 33.322C41.292 33.322 41.994 33.376 42.714 33.376H44.946C45.306 33.376 45.45 33.232 45.45 32.872V30.946C45.45 30.586 45.306 30.442 44.946 30.442H42.318C41.958 30.442 41.814 30.532 41.634 30.856C41.382 31.342 40.212 33.628 39.69 33.628C39.366 33.628 38.322 33.178 38.322 32.782C38.322 32.62 38.502 32.422 38.592 32.314C40.05 30.406 40.878 28.408 41.364 26.068C41.4 25.87 41.418 25.6 41.652 25.6C41.778 25.6 42.372 25.762 42.534 25.798C43.398 26.032 43.704 26.068 43.704 26.284C43.704 26.464 43.506 26.554 43.38 26.608C43.092 26.752 43.056 26.878 42.894 27.472C42.84 27.652 42.768 27.904 42.678 28.192C42.66 28.246 42.66 28.282 42.66 28.336C42.66 28.57 42.822 28.642 43.038 28.642ZM60.93 37.678H60.48C60.228 37.678 60.048 37.858 60.048 38.11V38.344C60.048 38.596 60.228 38.776 60.48 38.776H60.93C61.182 38.776 61.362 38.596 61.362 38.344V38.11C61.362 37.858 61.182 37.678 60.93 37.678ZM60.93 35.464H60.48C60.228 35.464 60.048 35.626 60.048 35.896V36.094C60.048 36.346 60.228 36.526 60.48 36.526H60.93C61.182 36.526 61.362 36.346 61.362 36.094V35.896C61.362 35.626 61.182 35.464 60.93 35.464ZM60.93 33.232H60.48C60.228 33.232 60.048 33.412 60.048 33.664V33.88C60.048 34.132 60.228 34.294 60.48 34.294H60.93C61.182 34.294 61.362 34.132 61.362 33.88V33.664C61.362 33.412 61.182 33.232 60.93 33.232ZM61.578 30.514H61.362C61.056 30.514 60.912 30.568 60.768 30.856C60.642 31.09 60.534 31.342 60.408 31.576C60.39 31.63 60.372 31.684 60.372 31.738C60.372 31.936 60.516 31.99 60.678 32.008H60.984C61.362 32.008 61.506 31.918 61.686 31.576L61.902 31.018C61.92 30.946 61.938 30.91 61.938 30.838C61.938 30.586 61.776 30.532 61.578 30.514ZM68.148 27.994C68.13 28.048 68.13 28.084 68.13 28.138C68.13 28.354 68.292 28.426 68.49 28.444H70.434C70.92 28.444 71.388 28.426 71.874 28.426C72.468 28.426 72.972 29.092 72.972 29.38C72.972 29.812 72.558 31.162 72.396 31.612C72.054 32.638 71.892 33.16 71.532 33.16C71.154 33.16 70.272 32.818 70.272 32.53C70.272 32.458 70.398 32.26 70.452 32.188C70.632 31.882 71.118 30.694 71.118 30.388C71.118 30.208 70.92 30.172 70.776 30.172H70.038C69.696 30.172 69.57 30.298 69.534 30.658C69.516 31.018 69.516 31.396 69.48 31.756V32.098C69.48 32.188 69.48 32.278 69.498 32.368C69.822 35.194 71.1 37.552 73.134 39.496C73.278 39.64 73.422 39.73 73.422 39.928C73.422 40.324 72.612 40.972 72.306 40.972C72.126 40.972 71.928 40.756 71.802 40.63C70.434 39.172 69.66 37.948 69.048 36.04C69.03 35.968 68.994 35.932 68.922 35.932C68.85 35.932 68.796 35.986 68.778 36.04C68.238 37.75 67.446 39.424 66.132 40.666C66.006 40.792 65.754 41.026 65.592 41.026C65.34 41.026 64.998 40.684 64.836 40.486C64.602 40.27 64.458 40.144 64.116 40.126C63.63 40.108 63.126 40.108 62.64 40.108H60.498C60.246 40.108 60.084 40.216 60.084 40.504V40.648C60.084 41.17 59.886 41.188 59.238 41.188C58.554 41.188 58.374 41.17 58.374 40.612C58.374 39.892 58.428 39.19 58.428 38.47V35.068C58.41 34.978 58.374 34.888 58.284 34.888C58.23 34.888 58.194 34.906 58.14 34.96C58.068 35.032 57.96 35.14 57.834 35.14C57.51 35.14 56.844 34.438 56.844 34.15C56.844 34.024 56.934 33.916 57.006 33.826C57.834 32.962 58.482 31.99 59.058 30.946C59.076 30.892 59.112 30.838 59.112 30.766C59.112 30.586 58.968 30.514 58.806 30.514C58.482 30.514 57.888 30.55 57.6 30.55C57.168 30.55 57.204 30.316 57.204 29.776C57.204 29.236 57.186 29.038 57.618 29.038C58.212 29.038 58.806 29.074 59.4 29.074H59.454C59.814 29.074 59.976 28.984 60.12 28.642C60.156 28.534 60.21 28.426 60.246 28.318C60.264 28.264 60.264 28.228 60.264 28.174C60.264 27.958 60.084 27.886 59.904 27.868H59.742C59.418 27.868 59.292 27.94 59.112 28.21C58.842 28.624 58.698 28.858 58.518 28.858C58.23 28.858 57.294 28.462 57.294 28.156C57.294 28.048 57.474 27.85 57.528 27.778C57.978 27.184 58.752 25.834 58.968 25.15C59.004 25.042 59.022 24.916 59.184 24.916C59.256 24.916 59.652 25.024 59.742 25.06C60.57 25.276 60.84 25.348 60.84 25.51C60.84 25.636 60.696 25.672 60.588 25.69C60.408 25.744 60.39 25.834 60.3 26.032C60.282 26.086 60.264 26.122 60.264 26.176C60.264 26.356 60.39 26.41 60.552 26.41H62.73C63.324 26.41 63.918 26.374 64.53 26.374C64.908 26.374 64.908 26.554 64.908 27.148C64.908 27.742 64.908 27.904 64.548 27.904C63.936 27.904 63.324 27.868 62.73 27.868H62.442C62.082 27.868 61.92 27.958 61.794 28.318L61.686 28.624C61.686 28.678 61.668 28.714 61.668 28.768C61.668 29.074 61.956 29.074 62.028 29.074H62.964C63.576 29.074 64.17 29.038 64.764 29.038C65.196 29.038 65.178 29.254 65.178 29.794C65.178 30.352 65.178 30.55 64.764 30.55C64.35 30.55 63.792 30.514 63.36 30.514C63.324 30.514 63.306 30.532 63.306 30.568C63.306 30.604 63.324 30.622 63.342 30.622C63.486 30.676 63.864 30.766 63.864 30.946C63.864 31.054 63.756 31.09 63.666 31.108C63.522 31.144 63.432 31.18 63.342 31.306C63.306 31.396 63.27 31.486 63.216 31.576C63.216 31.612 63.198 31.666 63.198 31.72C63.198 31.918 63.342 31.99 63.522 31.99C63.792 31.99 64.062 31.972 64.35 31.972C64.692 31.972 64.71 32.116 64.71 32.62C64.71 33.124 64.692 33.268 64.35 33.268C64.008 33.268 63.666 33.25 63.342 33.232C63.036 33.25 62.91 33.358 62.91 33.664V33.88C62.91 34.15 63.036 34.276 63.324 34.294C63.522 34.276 63.882 34.276 64.08 34.276C64.386 34.276 64.404 34.402 64.404 34.888C64.404 35.374 64.368 35.5 64.08 35.5C63.81 35.5 63.558 35.482 63.306 35.464C63.018 35.482 62.91 35.608 62.91 35.896V36.094C62.91 36.382 63.036 36.508 63.324 36.508C63.558 36.508 63.792 36.49 64.044 36.49C64.368 36.49 64.386 36.616 64.386 37.102C64.386 37.57 64.368 37.714 64.044 37.714C63.792 37.714 63.558 37.696 63.306 37.696C63.036 37.714 62.91 37.822 62.91 38.11V38.344C62.91 38.614 63 38.776 63.288 38.776C63.702 38.794 64.098 38.74 64.512 38.74C64.8 38.74 64.836 38.848 64.854 39.1C64.854 39.154 64.89 39.208 64.944 39.208C64.98 39.208 64.998 39.19 65.016 39.172C67.284 36.922 67.716 33.682 67.824 30.64C67.842 30.37 67.716 30.208 67.428 30.172C67.302 30.19 67.248 30.244 67.194 30.352C66.942 30.91 66.672 31.45 66.366 31.99C66.276 32.152 66.114 32.404 65.898 32.404C65.682 32.404 64.746 31.9 64.746 31.576C64.746 31.468 64.926 31.162 64.998 31.054C65.88 29.506 66.942 27.022 67.23 25.276C67.248 25.132 67.284 24.988 67.482 24.988C67.644 24.988 68.472 25.24 68.688 25.312C68.886 25.366 69.264 25.456 69.264 25.654C69.264 25.78 69.084 25.87 68.976 25.924C68.796 26.014 68.742 26.14 68.562 26.752C68.472 27.04 68.346 27.436 68.148 27.994ZM80.262 28.498C80.262 28.804 79.506 29.398 79.164 29.398C78.984 29.398 78.894 29.236 78.786 29.11C78.12 28.228 77.346 27.346 76.536 26.59C76.428 26.482 76.302 26.374 76.302 26.23C76.302 25.924 77.094 25.294 77.382 25.294C77.544 25.294 77.67 25.438 77.778 25.546C78.21 25.96 78.624 26.392 79.038 26.842C79.272 27.094 80.262 28.228 80.262 28.498ZM79.128 39.316C79.038 39.208 78.948 39.118 78.786 39.118C78.696 39.118 78.624 39.154 78.552 39.208C78.102 39.568 77.67 39.928 77.22 40.252C77.022 40.396 76.986 40.45 76.95 40.684C76.932 40.81 76.824 40.9 76.716 40.9C76.554 40.9 76.5 40.792 76.284 40.36C76.194 40.162 76.086 39.982 75.996 39.784C75.87 39.514 75.672 39.19 75.672 38.992C75.672 38.794 76.032 38.65 76.356 38.506C76.68 38.362 77.364 37.948 77.688 37.732C78.03 37.516 78.102 37.39 78.102 36.976V33.772C78.102 33.43 77.958 33.268 77.598 33.268H77.364C77.058 33.268 76.752 33.322 76.464 33.322C76.032 33.322 76.05 33.088 76.05 32.44C76.05 31.792 76.032 31.558 76.446 31.558C76.752 31.558 77.058 31.594 77.364 31.594H77.796C78.156 31.594 78.516 31.558 78.876 31.558C79.506 31.558 79.884 31.72 79.884 32.404C79.884 32.908 79.848 33.394 79.848 33.898V34.312C79.848 34.546 79.938 34.708 80.19 34.708H80.316C80.388 34.69 80.478 34.672 80.568 34.654C80.928 34.546 81 34.402 81.036 34.042V28.66C81.036 28.174 81.018 27.688 81.018 27.202C81.018 26.554 81.144 26.32 81.792 26.176C82.602 25.996 83.79 25.6 84.456 25.132C84.546 25.078 84.636 25.006 84.744 25.006C84.924 25.006 85.248 25.438 85.446 25.726C85.5 25.798 85.554 25.87 85.59 25.906C85.806 26.176 86.004 26.194 86.328 26.194H86.436C86.868 26.194 87.3 26.23 87.732 26.23H89.136C89.55 26.23 89.946 26.194 90.342 26.194C90.99 26.194 91.332 26.356 91.332 27.058C91.332 27.562 91.296 28.066 91.296 28.57V33.178C91.296 33.592 91.332 34.024 91.332 34.438C91.332 35.662 90.936 36.292 88.902 36.292C88.38 36.292 87.876 36.31 87.876 35.032C87.876 34.618 87.966 34.546 88.308 34.546C88.488 34.546 88.722 34.564 89.064 34.564C89.586 34.564 89.55 34.258 89.55 33.664V28.444C89.55 28.084 89.406 27.94 89.064 27.94H87.804C87.462 27.94 87.318 28.084 87.318 28.444V35.572C87.318 36.382 87.354 37.192 87.354 38.002C87.354 38.56 87.174 38.56 86.418 38.56C85.68 38.56 85.464 38.56 85.464 38.02C85.464 37.21 85.518 36.382 85.518 35.572V28.642C85.518 28.192 85.5 27.742 85.5 27.292C85.482 27.112 85.41 26.932 85.194 26.932C85.14 26.932 85.104 26.932 85.032 26.968C84.888 27.022 83.322 27.634 82.962 27.742C82.8 27.796 82.782 27.958 82.782 28.282V33.556C82.782 33.754 82.854 33.934 83.088 33.934C83.142 33.934 83.178 33.916 83.232 33.916C83.304 33.898 83.448 33.844 83.646 33.772C84.078 33.61 84.69 33.394 84.744 33.394C85.086 33.394 85.104 33.952 85.104 34.204C85.104 34.888 84.942 34.96 84.33 35.194C84.204 35.248 84.078 35.302 83.916 35.356C82.98 35.698 82.206 35.95 81.324 36.202C80.928 36.328 80.928 36.346 80.856 36.526C80.82 36.634 80.73 36.778 80.586 36.778C80.46 36.778 80.37 36.562 80.208 36.166C80.154 36.022 80.1 35.878 80.028 35.716C80.01 35.68 79.974 35.644 79.938 35.644C79.866 35.644 79.848 35.68 79.848 35.752V36.526C79.848 37.516 79.83 38.38 81.09 38.758C82.08 39.064 83.664 39.1 84.978 39.1H85.95C87.246 39.1 88.56 39.1 89.856 39.064C90.126 39.046 91.368 38.992 91.512 38.992C91.854 38.992 91.854 39.208 91.854 39.514C91.854 40.648 91.548 40.738 90.81 40.738H85.608C83.934 40.738 80.154 40.864 79.128 39.316ZM104.076 30.964V37.912C104.076 38.704 104.112 39.496 104.112 40.27C104.112 40.756 103.878 40.81 103.212 40.81C102.222 40.81 102.042 40.756 102.042 40.288C102.042 39.514 102.078 38.74 102.078 37.966V33.07C102.078 32.962 102.132 32.566 101.79 32.566C101.61 32.566 101.232 32.872 101.088 32.98C100.548 33.376 97.686 35.284 97.218 35.284C96.912 35.284 95.814 34.186 95.814 33.844C95.814 33.664 95.976 33.592 96.102 33.538C98.46 32.548 101.358 30.532 103.176 28.768C104.112 27.85 104.958 26.842 105.624 25.726C105.678 25.636 105.786 25.456 105.912 25.456C106.038 25.456 106.596 25.834 107.136 26.194C107.334 26.32 107.838 26.626 107.838 26.842C107.838 26.95 107.748 26.986 107.658 27.022C107.262 27.13 107.208 27.148 106.956 27.454C106.092 28.498 105.444 29.2 104.49 30.154C104.22 30.424 104.076 30.55 104.076 30.964ZM125.45 28.462C125.45 28.246 126.08 27.688 126.296 27.688C126.476 27.688 128.06 29.164 128.06 29.398C128.06 29.65 127.448 30.244 127.214 30.244C127.124 30.244 126.98 30.082 126.818 29.902C126.764 29.848 126.728 29.794 126.674 29.74C126.35 29.38 125.99 29.038 125.63 28.714C125.558 28.642 125.45 28.57 125.45 28.462ZM124.55 29.074C124.748 29.074 126.314 30.568 126.314 30.802C126.314 31.054 125.702 31.63 125.468 31.63C125.36 31.63 125.27 31.522 125.216 31.45C124.82 30.982 124.334 30.514 123.884 30.082C123.812 30.01 123.704 29.938 123.704 29.83C123.704 29.632 124.352 29.074 124.55 29.074ZM119.654 29.326C120.716 29.326 121.49 30.19 122.174 30.892C123.866 32.62 125.612 34.366 127.628 35.716C127.754 35.806 127.916 35.914 127.916 36.076C127.916 36.4 126.98 37.66 126.458 37.66C126.17 37.66 125.486 37.03 125.234 36.796C123.614 35.302 122.084 33.7 120.572 32.098C120.338 31.864 120.014 31.468 119.654 31.468C119.204 31.468 118.61 32.008 118.286 32.296C117.458 33.034 116.414 34.042 115.658 34.852C115.568 34.96 115.424 35.086 115.262 35.086C114.92 35.086 113.732 33.682 113.732 33.43C113.732 33.25 114.074 33.07 114.2 32.998C115.514 32.242 116.792 31.036 117.944 30.046C118.376 29.668 119.06 29.326 119.654 29.326ZM147.065 29.596C147.425 29.596 148.073 30.928 148.073 31.198C148.073 31.504 147.353 32.206 147.119 32.44C144.203 35.446 141.143 37.462 137.345 39.226C136.751 39.514 136.733 39.532 136.589 39.838C136.553 39.91 136.499 39.946 136.409 39.946C136.211 39.946 135.833 39.226 135.707 39.01C135.599 38.83 135.167 38.11 135.167 37.93C135.167 37.732 135.491 37.696 135.725 37.624C139.703 36.454 144.203 33.052 146.759 29.794C146.831 29.704 146.939 29.596 147.065 29.596ZM136.427 26.716C136.715 26.716 138.443 27.976 138.785 28.228C139.019 28.39 139.883 28.984 139.883 29.254C139.883 29.668 139.037 30.64 138.695 30.64C138.551 30.64 138.209 30.37 137.975 30.154C137.471 29.704 136.229 28.876 135.581 28.48C135.437 28.39 135.293 28.3 135.293 28.138C135.293 27.868 136.013 26.716 136.427 26.716ZM159.503 31.144C159.629 31 159.827 30.748 160.025 30.748C160.385 30.748 162.185 32.17 162.545 32.476C162.797 32.692 163.805 33.466 163.805 33.772C163.805 34.078 162.959 35.014 162.599 35.014C162.455 35.014 162.311 34.888 162.203 34.78C161.231 33.916 160.655 33.43 159.593 32.674C159.539 32.638 159.485 32.602 159.413 32.602C159.251 32.602 159.197 32.746 159.197 32.89V37.804C159.197 38.524 159.233 39.226 159.233 39.946C159.233 40.774 159.215 40.882 158.117 40.882C157.397 40.882 157.091 40.864 157.091 40.27C157.091 39.46 157.145 38.65 157.145 37.84V27.58C157.145 27.112 157.109 26.626 157.091 26.176C157.091 26.086 157.073 25.924 157.073 25.852C157.073 25.672 157.127 25.582 157.307 25.582C157.415 25.582 157.793 25.636 157.919 25.654C158.729 25.762 159.467 25.834 159.467 26.086C159.467 26.158 159.413 26.266 159.377 26.32C159.215 26.518 159.179 26.788 159.179 27.274C159.179 27.544 159.197 27.886 159.197 28.336V31.036C159.197 31.18 159.287 31.216 159.341 31.216C159.413 31.216 159.449 31.198 159.503 31.144Z" fill="#F9004B"/>
</svg>
