<svg width="312" height="86" viewBox="0 0 312 86" fill="none" xmlns="http://www.w3.org/2000/svg">
<rect x="3" y="26" width="309" height="32" fill="#00F9AE"/>
<rect x="3" y="70" width="132" height="16" fill="#F9004B"/>
<path d="M4.162 82.118V80.802L8.432 78.744C8.60933 78.66 8.77733 78.59 8.936 78.534C9.09467 78.4687 9.216 78.4267 9.3 78.408C9.216 78.3893 9.09 78.352 8.922 78.296C8.754 78.2307 8.59067 78.156 8.432 78.072L4.162 76V74.642L10.238 77.638V79.122L4.162 82.118Z" fill="#EAEAEA"/>
<path d="M28.84 74.432C28.424 74.8 28.344 74.912 28.12 75.216C27.224 77.888 26.872 78.56 26.472 79.264C27.032 79.664 27.384 79.968 27.896 80.4L26.808 81.744C26.44 81.328 26.024 80.96 25.592 80.608C23.544 83.344 21.016 84.304 19.544 84.784L18.344 83.456C19.096 83.312 20.744 83.008 22.728 81.392C23.336 80.912 23.88 80.352 24.36 79.728C23.72 79.344 22.648 78.72 21.24 78.096L22.04 77.088C22.888 77.376 24.776 78.256 25.176 78.464C25.784 77.408 26.184 76.24 26.456 75.04H21.896C20.568 76.976 19.976 77.6 18.76 78.56L17.224 77.632C17.848 77.264 19.048 76.56 20.456 74.496C20.856 73.92 21.464 72.928 21.816 72C21.96 71.616 22.008 71.392 22.056 71.136L23.8 71.824C23.896 71.856 24.072 71.968 24.072 72.112C24.072 72.336 23.72 72.448 23.432 72.48C23.304 72.672 22.712 73.728 22.664 73.808H24.616C24.904 73.808 25.864 73.76 26.6 73.632C27.08 73.552 27.416 73.392 27.656 73.28L28.84 74.432ZM45.496 72.432C45.496 72.736 45.208 72.736 44.712 72.768C43.128 74.384 42.584 74.928 41.512 75.824V80.112C41.512 81.248 41.56 81.392 41.592 82.736C41.608 83.728 41.656 84.096 41.704 84.544H39.992C40.024 84.208 40.056 83.856 40.056 83.792C40.056 83.184 40.088 80.528 40.088 79.984V76.912C38.712 77.856 37.24 78.688 35.704 79.344L34.168 78.112C35.096 77.84 37.032 77.28 39.64 75.344C41.272 74.144 42.728 72.72 43.88 71.056L45.336 72.144C45.432 72.224 45.496 72.336 45.496 72.432ZM64.232 83.248L62.696 84.016C62.52 83.328 62.408 83.024 61.928 81.904C58.728 82.304 57.736 82.432 54.984 82.752C54.392 82.816 52.616 83.04 52.184 83.216C51.752 83.408 51.704 83.424 51.592 83.424C51.448 83.424 51.464 83.376 51.368 82.992L50.984 81.44C51.512 81.472 51.992 81.472 53.464 81.376C54.28 79.648 56.472 73.552 56.84 71.616L58.6 72.16C58.904 72.256 59.032 72.288 59.032 72.48C59.032 72.72 58.824 72.768 58.584 72.816C58.296 73.456 57.544 75.024 56.696 77.152C55.928 79.088 55.848 79.296 55 81.264C58.056 81.008 58.392 80.992 61.32 80.656C61.224 80.496 60.248 78.832 59.288 77.952L60.696 77.152C61.656 78.08 63.32 80.512 64.232 83.248ZM78.92 73.504C77.736 73.36 76.296 73.36 76.168 73.36H73.496C72.648 73.36 71.592 73.408 70.776 73.504V71.728C71.672 71.84 73.064 71.872 73.496 71.872H76.168C76.312 71.872 77.848 71.872 78.92 71.728V73.504ZM81.208 77.504C79.784 77.392 78.36 77.36 76.936 77.36H76.168C76.168 78.016 76.008 80.96 74.52 82.624C73.368 83.904 71.8 84.432 71.16 84.64L69.688 83.376C70.424 83.28 71.752 83.104 73.176 81.68C73.736 81.136 74.52 80.08 74.52 77.36H72.776C71.368 77.36 69.96 77.392 68.552 77.504V75.84C69.976 75.952 72.136 75.984 72.776 75.984H76.936C77.08 75.984 79.48 75.984 81.208 75.84V77.504ZM98.12 78.784C96.728 78.608 94.856 78.592 93.912 78.592H90.248C90.04 78.592 87.64 78.592 86.04 78.784V77.04C87.24 77.216 88.68 77.232 90.248 77.232H93.912C95.32 77.232 96.728 77.216 98.12 77.04V78.784ZM116.92 71.504L116.104 72.256C115.912 71.984 115.336 71.408 114.936 70.992C114.84 70.896 114.76 70.832 114.616 70.752L115.432 70C116.2 70.496 116.52 70.864 116.92 71.504ZM114.28 71.6L113.512 72.448C112.968 71.904 112.6 71.648 111.816 71.136L112.552 70.256C113.192 70.592 113.816 71.024 114.28 71.6ZM114.984 73.84C114.744 74.208 114.696 74.272 114.584 74.656C113.8 77.36 113.064 79.776 110.744 82.016C109.544 83.152 108.152 84.048 106.616 84.624L105.32 83.232C107.688 82.464 109.032 81.584 110.376 80C112.088 77.984 112.568 76.224 112.872 74.528H107.048C106.552 74.528 104.776 74.656 104.12 74.704C104.024 74.704 103.864 74.72 103.816 74.72V73.04C104.664 73.168 106.232 73.2 107.064 73.2H110.392C111.192 73.2 112.824 73.104 112.968 73.072C113.144 73.04 113.224 72.992 113.576 72.752L114.984 73.84ZM133.976 77.872C131.928 81.104 129.448 82.592 128.056 83.424L126.92 82.576C126.984 82.24 127.016 81.2 127.016 80.8C127.032 80.272 127.048 79.408 127.048 78.896V75.632C127.048 75.376 126.968 72.656 126.936 72.16L128.728 72.352C128.936 72.368 129.16 72.448 129.16 72.672C129.16 72.8 129.096 72.88 128.984 72.96C128.84 73.072 128.824 73.088 128.712 73.184C128.616 73.888 128.6 75.936 128.6 76.704V81.152C129.016 80.928 130.04 80.368 131.288 78.992C132.088 78.112 132.456 77.472 132.904 76.592L133.976 77.872ZM125.208 73.024C125.208 73.136 125.176 73.2 125.112 73.264C125.048 73.312 124.728 73.504 124.68 73.552C124.664 78.496 124.04 81.76 120.728 83.616L119.464 82.272C120.088 82 121.368 81.472 122.312 79.44C122.6 78.816 122.792 78.08 122.888 77.136C122.984 76.304 122.984 75.648 122.984 75.264C122.984 73.728 122.872 72.944 122.792 72.432L124.68 72.688C125.08 72.736 125.208 72.768 125.208 73.024Z" fill="#EAEAEA"/>
<path d="M19.0938 15.5938V57H11.8125V15.5938H0.71875V8.75H30.1562V15.5938H19.0938ZM45.4512 26.5625V57H38.42V26.5625H45.4512ZM37.3575 13.9062C37.3575 12.6771 37.8054 11.6146 38.7012 10.7188C39.5971 9.82292 40.67 9.375 41.92 9.375C43.1908 9.375 44.2742 9.82292 45.17 10.7188C46.0658 11.5938 46.5137 12.6667 46.5137 13.9375C46.5137 15.2083 46.0658 16.2917 45.17 17.1875C44.295 18.0833 43.2221 18.5312 41.9512 18.5312C40.6804 18.5312 39.5971 18.0833 38.7012 17.1875C37.8054 16.2917 37.3575 15.1979 37.3575 13.9062ZM56.2775 26.5625H63.3088V29.375C64.6629 27.9583 65.8192 27 66.7775 26.5C67.7983 25.9792 69.0796 25.7188 70.6213 25.7188C74.0588 25.7188 76.7775 27.2188 78.7775 30.2188C80.9858 27.2188 83.9754 25.7188 87.7463 25.7188C94.6004 25.7188 98.0275 29.875 98.0275 38.1875V57H90.965V40.0938C90.965 37.1771 90.6108 35.1146 89.9025 33.9062C89.1733 32.6771 87.9754 32.0625 86.3088 32.0625C84.3713 32.0625 82.9546 32.7917 82.0588 34.25C81.1838 35.7083 80.7463 38.0521 80.7463 41.2812V57H73.6838V40.1875C73.6838 34.7708 72.1213 32.0625 68.9963 32.0625C67.0171 32.0625 65.5692 32.8021 64.6525 34.2812C63.7567 35.7604 63.3088 38.0938 63.3088 41.2812V57H56.2775V26.5625ZM136.541 43.4375H114.729C114.916 45.9375 115.729 47.9271 117.166 49.4062C118.604 50.8646 120.448 51.5938 122.698 51.5938C124.448 51.5938 125.895 51.1771 127.041 50.3438C128.166 49.5104 129.448 47.9688 130.885 45.7188L136.823 49.0312C135.906 50.5938 134.937 51.9375 133.916 53.0625C132.895 54.1667 131.802 55.0833 130.635 55.8125C129.468 56.5208 128.208 57.0417 126.854 57.375C125.5 57.7083 124.031 57.875 122.448 57.875C117.906 57.875 114.26 56.4167 111.51 53.5C108.76 50.5625 107.385 46.6667 107.385 41.8125C107.385 37 108.718 33.1042 111.385 30.125C114.073 27.1875 117.635 25.7188 122.073 25.7188C126.552 25.7188 130.093 27.1458 132.698 30C135.281 32.8333 136.573 36.7604 136.573 41.7812L136.541 43.4375ZM129.323 37.6875C128.343 33.9375 125.979 32.0625 122.229 32.0625C121.375 32.0625 120.573 32.1979 119.823 32.4688C119.073 32.7188 118.385 33.0938 117.76 33.5938C117.156 34.0729 116.635 34.6562 116.198 35.3438C115.76 36.0312 115.427 36.8125 115.198 37.6875H129.323ZM153.992 33.125V57H146.961V33.125H143.961V26.5625H146.961V15.4062H153.992V26.5625H159.461V33.125H153.992ZM189.163 26.5625H196.225V57H189.163V53.8125C186.267 56.5208 183.152 57.875 179.819 57.875C175.61 57.875 172.131 56.3542 169.381 53.3125C166.652 50.2083 165.288 46.3333 165.288 41.6875C165.288 37.125 166.652 33.3229 169.381 30.2812C172.11 27.2396 175.527 25.7188 179.631 25.7188C183.173 25.7188 186.35 27.1771 189.163 30.0938V26.5625ZM172.475 41.6875C172.475 44.6042 173.256 46.9792 174.819 48.8125C176.423 50.6667 178.444 51.5938 180.881 51.5938C183.485 51.5938 185.59 50.6979 187.194 48.9062C188.798 47.0521 189.6 44.6979 189.6 41.8438C189.6 38.9896 188.798 36.6354 187.194 34.7812C185.59 32.9688 183.506 32.0625 180.944 32.0625C178.527 32.0625 176.506 32.9792 174.881 34.8125C173.277 36.6667 172.475 38.9583 172.475 41.6875ZM214.051 4.21875V30.0938C216.864 27.1771 220.051 25.7188 223.614 25.7188C227.718 25.7188 231.135 27.25 233.864 30.3125C236.593 33.3542 237.958 37.1458 237.958 41.6875C237.958 46.375 236.583 50.25 233.833 53.3125C231.103 56.3542 227.655 57.875 223.489 57.875C219.968 57.875 216.822 56.5208 214.051 53.8125V57H207.02V4.21875H214.051ZM230.77 42C230.77 39.0833 229.978 36.7083 228.395 34.875C226.791 33 224.78 32.0625 222.364 32.0625C219.78 32.0625 217.676 32.9688 216.051 34.7812C214.447 36.5729 213.645 38.9062 213.645 41.7812C213.645 44.7396 214.437 47.1042 216.02 48.875C217.603 50.6875 219.687 51.5938 222.27 51.5938C224.708 51.5938 226.728 50.6875 228.333 48.875C229.958 47.0417 230.77 44.75 230.77 42ZM254.346 4.21875V57H247.315V4.21875H254.346ZM292.891 43.4375H271.079C271.266 45.9375 272.079 47.9271 273.516 49.4062C274.954 50.8646 276.797 51.5938 279.047 51.5938C280.797 51.5938 282.245 51.1771 283.391 50.3438C284.516 49.5104 285.797 47.9688 287.235 45.7188L293.172 49.0312C292.256 50.5938 291.287 51.9375 290.266 53.0625C289.245 54.1667 288.152 55.0833 286.985 55.8125C285.818 56.5208 284.558 57.0417 283.204 57.375C281.85 57.7083 280.381 57.875 278.797 57.875C274.256 57.875 270.61 56.4167 267.86 53.5C265.11 50.5625 263.735 46.6667 263.735 41.8125C263.735 37 265.068 33.1042 267.735 30.125C270.422 27.1875 273.985 25.7188 278.422 25.7188C282.902 25.7188 286.443 27.1458 289.047 30C291.631 32.8333 292.922 36.7604 292.922 41.7812L292.891 43.4375ZM285.672 37.6875C284.693 33.9375 282.329 32.0625 278.579 32.0625C277.725 32.0625 276.922 32.1979 276.172 32.4688C275.422 32.7188 274.735 33.0938 274.11 33.5938C273.506 34.0729 272.985 34.6562 272.547 35.3438C272.11 36.0312 271.777 36.8125 271.547 37.6875H285.672Z" fill="black"/>
</svg>
