<svg width="293" height="86" viewBox="0 0 293 86" fill="none" xmlns="http://www.w3.org/2000/svg">
<rect x="3" y="26" width="290" height="32" fill="#00F9AE"/>
<rect x="3" y="70" width="155" height="16" fill="#F9004B"/>
<path d="M4.162 82.118V80.802L8.432 78.744C8.60933 78.66 8.77733 78.59 8.936 78.534C9.09467 78.4687 9.216 78.4267 9.3 78.408C9.216 78.3893 9.09 78.352 8.922 78.296C8.754 78.2307 8.59067 78.156 8.432 78.072L4.162 76V74.642L10.238 77.638V79.122L4.162 82.118Z" fill="#EAEAEA"/>
<path d="M30.328 83.216C29.72 84.816 29.576 85.152 27.736 85.152H24.04C23.096 85.152 22.648 84.912 22.376 84.528C22.184 84.272 22.184 84.016 22.184 82.88H18.984H18.904C18.888 82.992 18.904 83.312 18.904 83.36H17.272C17.368 82.864 17.4 81.616 17.4 81.472V79.968C17.4 78.64 17.4 78.304 17.336 77.392C18.408 77.44 18.712 77.504 21.352 77.504H24.312C24.632 77.504 24.808 77.504 26.328 77.472C28.056 77.44 28.248 77.424 28.52 77.424C28.52 77.792 28.44 79.552 28.44 79.76V81.072C28.44 81.36 28.504 82.64 28.536 82.992C26.616 82.88 26.408 82.88 25.304 82.88H23.656V83.312C23.656 83.984 24.04 84 24.392 84H27.4C28.68 84 28.728 83.856 29.256 82.304L30.328 83.216ZM26.968 79.616V78.592H23.656V79.616H26.968ZM26.968 81.76V80.688H23.656V81.76H26.968ZM22.184 79.616V78.592H18.904V79.616H22.184ZM22.184 81.76V80.688H18.904V81.76H22.184ZM30.152 75.84H28.648C28.696 75.392 28.712 74.256 28.712 73.792H23.656V75.28C23.656 75.584 23.72 76.96 23.736 77.232H22.104C22.152 76.528 22.184 75.568 22.184 75.28V73.792H17.416C17.432 74.128 17.432 75.552 17.464 75.84H15.816C15.864 75.328 15.896 74.736 15.896 74.08C15.896 73.472 15.864 73.04 15.832 72.688C17.352 72.704 19.864 72.736 20.392 72.736H20.632H22.184V72.08H21.08C20.376 72.08 18.488 72.128 17.128 72.176V70.832C18.344 70.88 20.136 70.912 21.08 70.912H25.032C25.864 70.912 27.672 70.88 28.984 70.832V72.176C27.768 72.128 25.816 72.08 25.032 72.08H23.656V72.736H25.448C26.2 72.736 29.496 72.656 30.152 72.656C30.12 73.008 30.104 73.296 30.104 74.224C30.104 75.184 30.136 75.488 30.152 75.84ZM21.528 75.36C21.16 75.312 20.568 75.264 20.296 75.264H19.016C18.792 75.264 18.216 75.296 17.784 75.36V74.288C18.168 74.336 18.648 74.368 19.016 74.368H20.296C20.36 74.368 20.776 74.368 21.528 74.288V75.36ZM28.072 75.36C27.704 75.312 27.112 75.264 26.84 75.264H25.56C25.336 75.264 24.76 75.296 24.328 75.36V74.288C24.728 74.336 25.208 74.368 25.56 74.368H26.84C26.888 74.368 27.336 74.368 28.072 74.288V75.36ZM21.528 76.832C21.16 76.784 20.568 76.736 20.296 76.736H19.016C18.792 76.736 18.216 76.768 17.784 76.832V75.76C18.168 75.808 18.648 75.84 19.016 75.84H20.296C20.36 75.84 20.776 75.84 21.528 75.744V76.832ZM28.072 76.832C27.704 76.784 27.112 76.736 26.84 76.736H25.56C25.336 76.736 24.76 76.768 24.328 76.832V75.744C24.728 75.792 25.208 75.84 25.56 75.84H26.84C26.888 75.84 27.336 75.84 28.072 75.744V76.832ZM47.32 78.752C45.272 78.608 42.744 78.608 42.568 78.608H41.24V80.608C41.24 81.024 41.304 82.832 41.304 83.216C41.304 84.176 41.288 85.088 39.08 85.088C38.712 85.088 38.2 85.088 37.816 84.992L37.256 83.104C37.992 83.248 38.616 83.312 38.84 83.312C38.984 83.312 39.352 83.312 39.544 83.008C39.608 82.912 39.608 82.32 39.608 82.144V78.608H37.928C36.36 78.608 34.792 78.64 33.224 78.752V77.072C34.84 77.184 37.208 77.2 37.928 77.2H39.608V74.688L40.392 74.896C41.144 74.256 41.864 73.584 42.504 72.848H37.736C37.384 72.848 35.144 72.976 34.648 73.088V71.344C35.8 71.424 36.84 71.472 38.232 71.472H40.952C41.432 71.472 43.56 71.376 43.992 71.344C44.472 71.296 44.792 71.264 45.064 71.216L45.832 72.272C45.08 72.784 44.088 73.616 43.96 73.728C42.264 75.184 42.072 75.344 41.24 75.984V77.2H42.568C44.152 77.2 45.736 77.184 47.32 77.072V78.752ZM65.304 72.24C65.304 73.2 64.52 73.968 63.56 73.968C62.6 73.968 61.832 73.2 61.832 72.24C61.832 71.28 62.6 70.496 63.56 70.496C64.52 70.496 65.304 71.28 65.304 72.24ZM64.344 72.208C64.344 71.776 63.992 71.456 63.576 71.456C63.16 71.456 62.808 71.792 62.808 72.224C62.808 72.64 63.144 73.024 63.576 73.024C64.024 73.024 64.344 72.624 64.344 72.208ZM64.376 81.872L62.616 82.464C62.44 81.376 62.168 79.856 61.304 78.032C61.144 77.696 60.024 75.472 58.872 74.048L60.2 73.2C61.144 74.384 61.768 75.36 62.68 77.136C63.672 79.072 64.008 80.064 64.376 81.872ZM56.472 73.936C56.472 74.144 56.232 74.24 55.848 74.384C55.704 74.768 55.288 76.32 55.144 76.848C54.616 78.848 53.544 81.216 51.928 83.056L50.296 82.288C51.272 81.264 52.104 80.176 52.888 78.384C53.608 76.72 54.104 74.96 54.232 73.136L56.072 73.632C56.168 73.664 56.472 73.76 56.472 73.936ZM73.816 73.888L72.904 75.312C71.848 74.304 70.2 73.44 69.416 73.104L70.296 71.664C72.68 72.8 73.4 73.488 73.816 73.888ZM81.064 76.768C77.928 80.464 72.888 82.624 70.68 83.568C70.648 83.632 70.568 83.888 70.536 83.936C70.504 84 70.44 84.032 70.36 84.032C70.248 84.032 70.2 83.968 70.024 83.648L69.16 81.984C71.624 81.648 77.384 79.136 80.424 75.216L81.064 76.768ZM97.656 73.2C97.544 73.424 97.464 73.568 97.192 74.096C96.664 76.208 96.088 78.512 93.72 81.024C91.928 82.912 90.072 83.664 89.272 83.984L87.8 82.608C89.208 82.256 91.944 81.552 94.184 77.808C95.4 75.792 95.496 74.48 95.56 73.792H91.736C90.84 73.792 87.656 73.936 86.504 74.016V72.432C87.576 72.528 89.672 72.56 90.552 72.56H93.24C93.448 72.56 94.664 72.544 95.496 72.432C95.928 72.384 96.056 72.24 96.232 72.064L97.656 73.2ZM115.512 77.696C113.288 80.528 109.096 82.832 105.848 83.696L104.856 82.96C104.888 82.592 104.92 82.32 104.936 81.376C104.936 81.088 104.92 79.872 104.92 79.616V75.712C104.92 74.944 104.888 72.752 104.808 72.064L106.648 72.352C106.872 72.384 107.096 72.432 107.096 72.752C107.096 72.928 107.048 72.96 106.68 73.232C106.584 74.048 106.536 74.352 106.536 77.072V81.552C108.6 81.248 112.728 78.88 115 75.808L115.512 77.696ZM127.432 77.696L126.232 78.08C126.008 77.456 125.656 76.512 124.872 75.52L126.072 75.104C126.776 76.096 127.128 76.896 127.432 77.696ZM131.736 75.968C131.736 76.08 131.656 76.128 131.544 76.16C131.384 76.208 131.304 76.272 131.24 76.352C131.192 76.432 130.728 77.984 130.616 78.288C129 82.432 126.6 83.744 124.824 84.624L123.768 83.648C124.872 83.184 126.664 82.432 128.136 80.336C129.512 78.368 129.8 76.352 129.992 75.152L131.24 75.616C131.56 75.728 131.736 75.84 131.736 75.968ZM124.296 78.32L123.096 78.768C122.84 78.16 122.44 77.216 121.688 76.24L122.888 75.84C123.48 76.656 123.88 77.36 124.296 78.32ZM149.112 79.248L148.056 80.512C147.192 79.648 145.752 78.208 143.32 77.2V79.856C143.32 80.8 143.384 83.6 143.496 84.416H141.56C141.672 83.616 141.688 82.4 141.688 82.064C141.704 81.696 141.752 80.08 141.752 79.744V75.568C141.752 74.944 141.704 73.232 141.656 72.64C141.624 72.224 141.576 71.936 141.496 71.584L143.624 71.728C143.72 71.728 143.928 71.76 143.928 71.968C143.928 72.128 143.752 72.24 143.4 72.448C143.336 73.44 143.32 74.432 143.32 75.408V77.184L144.072 75.76C146.28 76.768 148.424 78.384 149.112 79.248Z" fill="#EAEAEA"/>
<path d="M13.0625 37.4062V57H5.78125V8.75H14.0312C18.0729 8.75 21.125 9.03125 23.1875 9.59375C25.2708 10.1562 27.1042 11.2188 28.6875 12.7812C31.4583 15.4896 32.8438 18.9062 32.8438 23.0312C32.8438 27.4479 31.3646 30.9479 28.4062 33.5312C25.4479 36.1146 21.4583 37.4062 16.4375 37.4062H13.0625ZM13.0625 30.6562H15.7812C22.4688 30.6562 25.8125 28.0833 25.8125 22.9375C25.8125 17.9583 22.3646 15.4688 15.4688 15.4688H13.0625V30.6562Z" fill="#F9004B"/>
<path d="M61.6075 26.5625H68.67V57H61.6075V53.8125C58.7117 56.5208 55.5971 57.875 52.2637 57.875C48.0554 57.875 44.5762 56.3542 41.8262 53.3125C39.0971 50.2083 37.7325 46.3333 37.7325 41.6875C37.7325 37.125 39.0971 33.3229 41.8262 30.2812C44.5554 27.2396 47.9721 25.7188 52.0762 25.7188C55.6179 25.7188 58.795 27.1771 61.6075 30.0938V26.5625ZM44.92 41.6875C44.92 44.6042 45.7012 46.9792 47.2637 48.8125C48.8679 50.6667 50.8887 51.5938 53.3262 51.5938C55.9304 51.5938 58.0346 50.6979 59.6387 48.9062C61.2429 47.0521 62.045 44.6979 62.045 41.8438C62.045 38.9896 61.2429 36.6354 59.6387 34.7812C58.0346 32.9688 55.9512 32.0625 53.3887 32.0625C50.9721 32.0625 48.9512 32.9792 47.3262 34.8125C45.7221 36.6667 44.92 38.9583 44.92 41.6875ZM79.465 26.5625H86.4962V29.375C87.8504 27.9583 89.0067 27 89.965 26.5C90.9858 25.9792 92.2671 25.7188 93.8087 25.7188C97.2462 25.7188 99.965 27.2188 101.965 30.2188C104.173 27.2188 107.163 25.7188 110.934 25.7188C117.788 25.7188 121.215 29.875 121.215 38.1875V57H114.152V40.0938C114.152 37.1771 113.798 35.1146 113.09 33.9062C112.361 32.6771 111.163 32.0625 109.496 32.0625C107.559 32.0625 106.142 32.7917 105.246 34.25C104.371 35.7083 103.934 38.0521 103.934 41.2812V57H96.8712V40.1875C96.8712 34.7708 95.3087 32.0625 92.1837 32.0625C90.2046 32.0625 88.7567 32.8021 87.84 34.2812C86.9442 35.7604 86.4962 38.0938 86.4962 41.2812V57H79.465V26.5625ZM139.854 73.5625H132.822V26.5625H139.854V29.875C142.625 27.1042 145.77 25.7188 149.291 25.7188C153.479 25.7188 156.927 27.2604 159.635 30.3438C162.385 33.4062 163.76 37.2708 163.76 41.9375C163.76 46.5 162.395 50.3021 159.666 53.3438C156.958 56.3646 153.541 57.875 149.416 57.875C145.854 57.875 142.666 56.4479 139.854 53.5938V73.5625ZM156.572 41.9688C156.572 39.0521 155.781 36.6771 154.197 34.8438C152.593 32.9896 150.572 32.0625 148.135 32.0625C145.552 32.0625 143.458 32.9583 141.854 34.75C140.25 36.5417 139.447 38.8958 139.447 41.8125C139.447 44.6667 140.25 47.0208 141.854 48.875C143.437 50.6875 145.52 51.5938 148.104 51.5938C150.541 51.5938 152.552 50.6771 154.135 48.8438C155.76 47.0104 156.572 44.7188 156.572 41.9688ZM173.117 4.21875H180.149V29.0938C182.649 26.8438 185.409 25.7188 188.43 25.7188C191.867 25.7188 194.617 26.8333 196.68 29.0625C198.43 31 199.305 34.0938 199.305 38.3438V57H192.274V39C192.274 36.5625 191.836 34.8021 190.961 33.7188C190.107 32.6146 188.722 32.0625 186.805 32.0625C184.347 32.0625 182.617 32.8229 181.617 34.3438C180.638 35.8854 180.149 38.5312 180.149 42.2812V57H173.117V4.21875ZM217.194 4.21875V57H210.163V4.21875H217.194ZM255.739 43.4375H233.926C234.114 45.9375 234.926 47.9271 236.364 49.4062C237.801 50.8646 239.645 51.5938 241.895 51.5938C243.645 51.5938 245.093 51.1771 246.239 50.3438C247.364 49.5104 248.645 47.9688 250.083 45.7188L256.02 49.0312C255.103 50.5938 254.135 51.9375 253.114 53.0625C252.093 54.1667 250.999 55.0833 249.833 55.8125C248.666 56.5208 247.405 57.0417 246.051 57.375C244.697 57.7083 243.228 57.875 241.645 57.875C237.103 57.875 233.458 56.4167 230.708 53.5C227.958 50.5625 226.583 46.6667 226.583 41.8125C226.583 37 227.916 33.1042 230.583 30.125C233.27 27.1875 236.833 25.7188 241.27 25.7188C245.749 25.7188 249.291 27.1458 251.895 30C254.478 32.8333 255.77 36.7604 255.77 41.7812L255.739 43.4375ZM248.52 37.6875C247.541 33.9375 245.176 32.0625 241.426 32.0625C240.572 32.0625 239.77 32.1979 239.02 32.4688C238.27 32.7188 237.583 33.0938 236.958 33.5938C236.353 34.0729 235.833 34.6562 235.395 35.3438C234.958 36.0312 234.624 36.8125 234.395 37.6875H248.52ZM273.19 33.125V57H266.159V33.125H263.159V26.5625H266.159V15.4062H273.19V26.5625H278.659V33.125H273.19Z" fill="black"/>
</svg>
