<svg width="156" height="86" viewBox="0 0 156 86" fill="none" xmlns="http://www.w3.org/2000/svg">
<rect x="3" y="26" width="153" height="32" fill="#00F9AE"/>
<path d="M4.09375 57L14.25 5.125L30.8125 42.625L47.9688 5.125L57.0938 57H49.625L44.9688 27.875L30.6875 59.2188L16.8125 27.8438L11.625 57H4.09375Z" fill="#F9004B"/>
<path d="M90.3575 26.5625H97.42V57H90.3575V53.8125C87.4617 56.5208 84.3471 57.875 81.0137 57.875C76.8054 57.875 73.3262 56.3542 70.5762 53.3125C67.8471 50.2083 66.4825 46.3333 66.4825 41.6875C66.4825 37.125 67.8471 33.3229 70.5762 30.2812C73.3054 27.2396 76.7221 25.7188 80.8262 25.7188C84.3679 25.7188 87.545 27.1771 90.3575 30.0938V26.5625ZM73.67 41.6875C73.67 44.6042 74.4512 46.9792 76.0137 48.8125C77.6179 50.6667 79.6387 51.5938 82.0762 51.5938C84.6804 51.5938 86.7846 50.6979 88.3887 48.9062C89.9929 47.0521 90.795 44.6979 90.795 41.8438C90.795 38.9896 89.9929 36.6354 88.3887 34.7812C86.7846 32.9688 84.7012 32.0625 82.1387 32.0625C79.7221 32.0625 77.7012 32.9792 76.0762 34.8125C74.4721 36.6667 73.67 38.9583 73.67 41.6875ZM115.246 73.5625H108.215V26.5625H115.246V29.875C118.017 27.1042 121.163 25.7188 124.684 25.7188C128.871 25.7188 132.319 27.2604 135.027 30.3438C137.777 33.4062 139.152 37.2708 139.152 41.9375C139.152 46.5 137.788 50.3021 135.059 53.3438C132.35 56.3646 128.934 57.875 124.809 57.875C121.246 57.875 118.059 56.4479 115.246 53.5938V73.5625ZM131.965 41.9688C131.965 39.0521 131.173 36.6771 129.59 34.8438C127.986 32.9896 125.965 32.0625 123.527 32.0625C120.944 32.0625 118.85 32.9583 117.246 34.75C115.642 36.5417 114.84 38.8958 114.84 41.8125C114.84 44.6667 115.642 47.0208 117.246 48.875C118.83 50.6875 120.913 51.5938 123.496 51.5938C125.934 51.5938 127.944 50.6771 129.527 48.8438C131.152 47.0104 131.965 44.7188 131.965 41.9688Z" fill="black"/>
<rect x="3" y="70" width="124" height="16" fill="#F9004B"/>
<path d="M4.162 82.118V80.802L8.432 78.744C8.60933 78.66 8.77733 78.59 8.936 78.534C9.09467 78.4687 9.216 78.4267 9.3 78.408C9.216 78.3893 9.09 78.352 8.922 78.296C8.754 78.2307 8.59067 78.156 8.432 78.072L4.162 76V74.642L10.238 77.638V79.122L4.162 82.118Z" fill="#EAEAEA"/>
<path d="M28.536 73.2C28.424 73.424 28.344 73.568 28.072 74.096C27.544 76.208 26.968 78.512 24.6 81.024C22.808 82.912 20.952 83.664 20.152 83.984L18.68 82.608C20.088 82.256 22.824 81.552 25.064 77.808C26.28 75.792 26.376 74.48 26.44 73.792H22.616C21.72 73.792 18.536 73.936 17.384 74.016V72.432C18.456 72.528 20.552 72.56 21.432 72.56H24.12C24.328 72.56 25.544 72.544 26.376 72.432C26.808 72.384 26.936 72.24 27.112 72.064L28.536 73.2ZM46.088 83.2H44.088C44.152 82.864 44.152 82.8 44.2 82.24H36.408C36.408 82.48 36.408 82.896 36.44 83.168H34.616C34.664 82.752 34.744 82.064 34.744 81.088C34.76 79.536 34.76 79.36 34.76 79.184V75.856C34.76 75.36 34.712 72.912 34.68 72.496C35.624 72.592 37.624 72.624 38.616 72.624H42.056C43.192 72.624 44.888 72.608 45.992 72.544C45.928 73.376 45.896 75.264 45.896 76.16V79.328C45.896 79.648 45.944 81.024 45.944 81.312C45.96 82.448 46.024 82.832 46.088 83.2ZM44.264 80.816V74.096H36.392V80.816H44.264ZM64.44 73.568C64.088 73.728 63.976 73.776 63.288 74.736C61.88 76.704 61.272 77.552 59.768 78.832L58.504 77.696C60.008 76.8 61.192 75.376 62.2 73.648H55.832C54.6 73.648 52.696 73.696 51.128 73.76V72.304C52.392 72.384 54.328 72.416 55.752 72.416H59.576C60.6 72.416 61.912 72.304 63.256 72.112L64.44 73.568ZM58.696 74.992C58.696 75.152 58.648 75.168 58.264 75.392C58.008 78.128 57.704 81.344 54.008 84.128L52.44 83.12C54.248 82.096 55.208 80.608 55.4 80.304C56.328 78.864 56.568 77.456 56.568 75.616C56.568 75.264 56.568 75.008 56.536 74.464L58.264 74.64C58.616 74.672 58.696 74.88 58.696 74.992ZM81.448 74.448C80.296 74.992 79.208 76.224 78.76 76.752C78.296 77.296 76.328 79.696 75.896 80.176C76.536 80.912 76.92 81.392 77.416 82.08L76.024 83.12C75 81.52 73.704 79.824 71.48 78.32L72.6 77.152C73.432 77.76 74.216 78.432 74.952 79.152C75.464 78.576 77 76.736 78.008 75.008H72.92C71.976 75.008 70.072 75.072 68.488 75.152V73.488C69.88 73.632 71.432 73.664 72.856 73.664H76.664C79.224 73.664 79.56 73.552 80.184 73.248L81.448 74.448ZM92.872 77.696L91.672 78.08C91.448 77.456 91.096 76.512 90.312 75.52L91.512 75.104C92.216 76.096 92.568 76.896 92.872 77.696ZM97.176 75.968C97.176 76.08 97.096 76.128 96.984 76.16C96.824 76.208 96.744 76.272 96.68 76.352C96.632 76.432 96.168 77.984 96.056 78.288C94.44 82.432 92.04 83.744 90.264 84.624L89.208 83.648C90.312 83.184 92.104 82.432 93.576 80.336C94.952 78.368 95.24 76.352 95.432 75.152L96.68 75.616C97 75.728 97.176 75.84 97.176 75.968ZM89.736 78.32L88.536 78.768C88.28 78.16 87.88 77.216 87.128 76.24L88.328 75.84C88.92 76.656 89.32 77.36 89.736 78.32ZM117.064 72.048C117.064 73.008 116.28 73.776 115.32 73.776C114.36 73.776 113.592 73.008 113.592 72.048C113.592 71.088 114.36 70.304 115.32 70.304C116.28 70.304 117.064 71.088 117.064 72.048ZM116.088 72.048C116.088 71.616 115.736 71.28 115.304 71.28C114.888 71.28 114.552 71.616 114.552 72.032C114.552 72.464 114.888 72.832 115.336 72.832C115.784 72.832 116.088 72.448 116.088 72.048ZM114.2 74.368C113.976 74.592 113.864 74.832 113.736 75.28C112.888 78.064 112.504 79.264 111.016 81.152C109.624 82.896 107.832 84.304 105.72 85.008L104.264 83.648C109.112 82.496 111.608 78.288 112.088 74.96H106.296C105.592 74.96 104.2 74.992 103.016 75.136V73.472C103.672 73.632 105.576 73.632 106.328 73.632H109.592C109.912 73.632 111.688 73.616 111.976 73.568C112.296 73.52 112.312 73.504 112.776 73.2L114.2 74.368Z" fill="#EAEAEA"/>
</svg>
