<svg width="312" height="86" viewBox="0 0 312 86" fill="none" xmlns="http://www.w3.org/2000/svg">
<rect x="3" y="26" width="309" height="32" fill="#00F9AE"/>
<rect x="3" y="70" width="115" height="16" fill="#F9004B"/>
<path d="M4.162 82.118V80.802L8.432 78.744C8.60933 78.66 8.77733 78.59 8.936 78.534C9.09467 78.4687 9.216 78.4267 9.3 78.408C9.216 78.3893 9.09 78.352 8.922 78.296C8.754 78.2307 8.59067 78.156 8.432 78.072L4.162 76V74.642L10.238 77.638V79.122L4.162 82.118Z" fill="#EAEAEA"/>
<path d="M29.672 79.44C29.672 79.584 29.624 79.616 29.208 79.936C29.192 80.16 29.16 81.152 29.16 81.36V83.2C29.16 83.472 29.224 84.672 29.224 84.912H27.56C27.544 84.704 27.576 83.744 27.576 83.536H18.44C18.456 83.76 18.472 84.64 18.472 84.912H16.824C16.856 84.432 16.888 83.776 16.888 83.264V81.488C16.888 81.04 16.824 79.616 16.808 79.152L18.6 79.232C18.776 79.232 18.936 79.328 18.936 79.536C18.936 79.728 18.84 79.792 18.696 79.872C18.632 79.904 18.568 79.952 18.488 80C18.472 80.336 18.44 80.784 18.44 81.328V82.112H22.28V77.392H19.784C18.936 77.392 18.808 77.392 17.208 77.456C17.24 77.072 17.272 76.576 17.272 75.712V74.112C17.272 73.584 17.208 72.752 17.208 72.224L18.968 72.368C19.112 72.384 19.32 72.432 19.32 72.656C19.32 72.848 19.208 72.896 18.856 73.088C18.824 73.504 18.808 73.872 18.808 74.272V76.032H22.28C22.264 72.752 22.264 72.352 22.184 70.912L24.072 71.072C24.152 71.072 24.392 71.104 24.392 71.312C24.392 71.504 24.328 71.52 23.816 71.776C23.784 73.056 23.784 73.568 23.784 76.032H27.272V74.624C27.272 73.808 27.24 72.72 27.208 72.208L29 72.352C29.304 72.384 29.352 72.576 29.352 72.64C29.352 72.8 29.288 72.832 28.808 73.12C28.792 73.328 28.776 74.288 28.776 74.48V75.712C28.776 76 28.824 77.2 28.824 77.456C28.28 77.44 27.272 77.392 26.312 77.392H23.784V82.112H27.576V81.104C27.576 80.448 27.544 79.488 27.528 79.072L29.368 79.232C29.48 79.248 29.672 79.264 29.672 79.44ZM47.4 83.44L46.44 85.104C45.144 84.752 43.496 84.272 41.848 83.04L41.656 83.888C40.008 84.448 36.584 84.96 36.52 84.96C36.488 85.072 36.408 85.36 36.168 85.36C36.056 85.36 35.992 85.248 35.96 85.12L35.576 83.584C36.424 83.568 36.76 83.536 37.688 83.408V80.16C37.544 80.176 36.872 80.192 36.28 80.24V78.8C37.288 78.88 38.408 78.912 38.856 78.912V77.472C37.592 77.488 37.48 77.504 36.952 77.552V76.112C37.544 76.176 37.56 76.176 38.856 76.224V74.944H36.056V76.864C36.056 77.744 36.056 79.68 35.432 81.68C35.128 82.672 34.776 83.616 34.248 84.448L32.6 83.824C34.28 81.584 34.552 79.248 34.552 76.816V72.704C34.552 71.888 34.52 71.488 34.472 71.12C35.832 71.2 37.624 71.216 39 71.216H42.216C43.288 71.216 45.544 71.168 46.536 71.072C46.52 71.328 46.488 71.968 46.488 72.352V73.632C46.488 74.096 46.504 74.56 46.552 75.024C45.704 74.96 44.68 74.944 43.816 74.96V76.24C44.088 76.24 45.288 76.208 46.28 76.112V77.552C45.528 77.472 45.08 77.472 43.816 77.456V78.928C45.72 78.896 46.248 78.88 47.272 78.8V80.24C46.648 80.192 46.456 80.192 44.792 80.144L45.928 80.8C45.992 80.848 46.04 80.912 46.04 80.976C46.04 81.264 45.8 81.264 45.336 81.264C44.968 81.552 44.392 82 43.528 82.464C44.152 82.816 45.336 83.312 47.4 83.44ZM42.312 78.928V77.456H40.36V78.928H42.312ZM42.312 76.24V74.944H41H40.36V76.24H42.312ZM45.032 73.84V72.416H36.056V73.84H45.032ZM41.512 82.768C40.648 82.048 39.96 81.216 39.608 80.144H39.112V83.2C39.912 83.104 40.712 82.944 41.512 82.768ZM44.232 80.144H41.112C41.4 80.688 41.88 81.232 42.44 81.712C43.128 81.296 43.8 80.768 44.232 80.144ZM64.232 85.136H62.424C62.44 85.04 62.488 84.592 62.488 84.496H52.536C52.568 84.784 52.584 84.88 52.616 85.12H51.016C51.128 83.2 51.176 80.896 51.176 80.672V76.16C51.176 74.128 51.16 72.064 51.048 70.944C51.8 71.056 54.52 71.088 55.528 71.088H59.432C61.016 71.088 62.68 71.024 64.12 70.928C64.008 72.096 64.008 74.32 64.008 75.584V80.384C64.008 81.648 64.072 83.968 64.232 85.136ZM62.408 83.216V72.336H52.632V83.216H62.408ZM62.072 76.384C61.304 76.32 60.6 76.288 60.296 76.288V77.84C60.296 78.064 60.328 79.04 60.328 79.232C60.328 80.368 60.328 81.808 60.312 81.888C60.184 82.512 59.592 82.704 58.664 82.704C58.328 82.704 58.088 82.688 57.864 82.656L56.92 81.04C57.16 81.104 57.496 81.184 57.992 81.184C58.856 81.184 58.856 81.056 58.856 80.288V76.256H56.104C56.04 76.256 53.96 76.272 53.144 76.384V74.896C53.864 74.992 55.736 75.024 56.104 75.024H58.856V74.208C58.856 74.016 58.84 73.168 58.808 72.64L60.296 72.704C60.536 72.72 60.696 72.72 60.696 72.944C60.696 73.056 60.648 73.088 60.344 73.376C60.312 74.176 60.296 74.32 60.296 74.72V74.992C61.336 74.96 61.464 74.96 62.072 74.896V76.384ZM57.272 79.936L55.896 80.976C55.272 79.552 54.2 78.464 53.8 78.128L55 77.216C55.336 77.456 56.52 78.576 57.272 79.936ZM82.536 80.384L81.288 81.488C79.272 80.144 78.12 78.32 77.624 77.408V80.992H77.992C78.44 80.992 79.432 80.992 80.088 80.864V82.4C79.32 82.272 78.312 82.272 77.992 82.272H77.656C77.688 83.552 77.688 83.888 77.784 85.136H76.024C76.104 83.776 76.104 83.584 76.12 82.272H75.896C74.872 82.272 74.52 82.272 73.688 82.4V80.864C74.312 80.96 74.952 80.992 75.8 80.992H76.136V77.472C75.08 79.296 73.448 80.8 72.392 81.696L70.936 80.656C71.544 80.272 72.904 79.44 74.12 77.792C74.616 77.12 75.272 76.032 75.688 75.04H75.144C74.728 75.04 72.856 75.072 72.072 75.136V73.696C72.808 73.744 74.376 73.776 75.208 73.776H76.12C76.104 71.616 76.088 71.376 76.024 70.592L77.912 70.784C78.024 70.8 78.104 70.896 78.104 71.008C78.104 71.152 77.992 71.216 77.704 71.408C77.656 72.848 77.64 73.152 77.64 73.776H78.376C79.384 73.776 80.36 73.76 81.544 73.696V75.136C80.776 75.072 80.312 75.04 78.328 75.04H77.992C78.072 75.232 78.872 77.136 80.104 78.496C81.096 79.568 82.04 80.112 82.536 80.384ZM72.584 71.392C72.584 71.488 72.536 71.52 72.504 71.536C72.424 71.584 72.184 71.664 72.072 71.712C71.608 72.976 71.496 73.28 71.016 74.16C71.144 74.256 71.272 74.384 71.272 74.512C71.272 74.608 71.24 74.688 70.952 74.896C70.952 75.264 70.92 76.96 70.92 77.296V80.976C70.92 82.352 70.92 83.936 71.032 85.136H69.272C69.368 84.032 69.4 80.96 69.4 79.776V76.64C68.968 77.168 68.68 77.488 68.44 77.76L67.16 76.864C68.792 75.36 70.504 72.736 70.888 70.464L72.392 71.184C72.52 71.248 72.584 71.296 72.584 71.392ZM99.144 78.688C97.88 78.624 95.08 78.608 94.968 78.608H89.256C88.792 78.608 86.28 78.624 85.08 78.688V77.104C86.36 77.168 89.144 77.184 89.256 77.184H94.968C95.432 77.184 97.944 77.168 99.144 77.104V78.688ZM116.376 73.648C115 73.52 113.272 73.52 113.16 73.52H110.648C110.376 73.888 110.088 74.208 109.736 74.512L108.584 73.872V74.208C108.584 74.864 108.6 74.944 108.616 75.088C108.088 75.056 107.192 75.056 106.632 75.056V75.712C108.056 75.68 108.216 75.68 109.16 75.616V76.784C108.6 76.752 107.336 76.72 106.744 76.72H104.712C104.376 76.72 102.904 76.752 102.6 76.752C102.68 76.16 102.712 74.96 102.712 74.72V72.928C102.712 72.4 102.68 71.568 102.648 71.04C103.064 71.072 104.488 71.104 104.84 71.104H106.776C107.56 71.104 108.344 71.056 109.128 71.008V72.128C108.648 72.112 108.456 72.112 106.632 72.096V72.688C106.904 72.688 107.992 72.672 108.616 72.624C108.6 72.96 108.584 73.44 108.584 73.6C109.256 73.104 110.184 72.08 110.664 70.56L112.2 70.976C112.312 71.008 112.408 71.056 112.408 71.168C112.408 71.392 112.12 71.44 111.944 71.456C111.832 71.68 111.784 71.792 111.528 72.208H113.16C114.232 72.208 115.304 72.192 116.376 72.08V73.648ZM107.256 74.208V73.6H104.024V74.208H107.256ZM105.336 72.688V72.096H104.024V72.688H105.336ZM105.336 75.712V75.056H104.024V75.712H105.336ZM116.04 76.336C115.368 76.24 114.552 76.24 113.896 76.24H111.752C111.048 76.24 110.248 76.24 109.608 76.336V74.896C110.472 75.024 111.672 75.024 111.752 75.024H113.896C114.152 75.024 115.288 75.008 116.04 74.896V76.336ZM116.744 83.104C116.344 84.784 115.656 84.864 114.984 84.864H111.832C110.408 84.864 110.04 84.576 110.04 83.696V82.528H108.392C107.576 84.8 105.72 85.168 102.6 85.216L101.928 83.712C102.312 83.776 102.92 83.872 103.704 83.872C104.44 83.872 106.2 83.792 106.776 82.528C106.68 82.528 105.144 82.576 103.928 82.672C104.024 81.984 104.04 81.008 104.04 80.8V78.944C104.04 78.288 103.976 77.52 103.928 77.04C105.272 77.136 106.76 77.184 107.432 77.184H110.92C111.208 77.184 112.68 77.168 114.424 77.04C114.344 77.632 114.312 78.624 114.312 78.944V80.8C114.312 80.96 114.328 82 114.424 82.672C113.208 82.576 111.64 82.528 111.544 82.528V83.104C111.544 83.664 111.704 83.664 112.216 83.664H114.456C114.92 83.664 115.416 83.664 115.576 81.776L116.744 83.104ZM112.936 80.144V79.472H105.464V80.144H112.936ZM112.936 78.624V77.952H105.464V78.624H112.936ZM112.936 81.696V80.992H105.464V81.696H112.936Z" fill="#EAEAEA"/>
<path d="M32.4062 15.5938H13.0625V27.1875H31.8438V34.0312H13.0625V50.1562H32.4062V57H5.78125V8.75H32.4062V15.5938ZM51.9825 40.5312L41.045 26.5625H49.42L56.2012 35.4375L63.1075 26.5625H71.7325L60.4825 40.5312L73.5137 57H65.1387L56.2012 45.625L47.045 57H38.4512L51.9825 40.5312ZM80.215 4.21875H87.2462V29.0938C89.7462 26.8438 92.5067 25.7188 95.5275 25.7188C98.965 25.7188 101.715 26.8333 103.777 29.0625C105.527 31 106.402 34.0938 106.402 38.3438V57H99.3712V39C99.3712 36.5625 98.9337 34.8021 98.0587 33.7188C97.2046 32.6146 95.8192 32.0625 93.9025 32.0625C91.4442 32.0625 89.715 32.8229 88.715 34.3438C87.7358 35.8854 87.2462 38.5312 87.2462 42.2812V57H80.215V4.21875ZM124.291 26.5625V57H117.26V26.5625H124.291ZM116.198 13.9062C116.198 12.6771 116.645 11.6146 117.541 10.7188C118.437 9.82292 119.51 9.375 120.76 9.375C122.031 9.375 123.114 9.82292 124.01 10.7188C124.906 11.5938 125.354 12.6667 125.354 13.9375C125.354 15.2083 124.906 16.2917 124.01 17.1875C123.135 18.0833 122.062 18.5312 120.791 18.5312C119.52 18.5312 118.437 18.0833 117.541 17.1875C116.645 16.2917 116.198 15.1979 116.198 13.9062ZM142.149 4.21875V30.0938C144.961 27.1771 148.149 25.7188 151.711 25.7188C155.815 25.7188 159.232 27.25 161.961 30.3125C164.69 33.3542 166.055 37.1458 166.055 41.6875C166.055 46.375 164.68 50.25 161.93 53.3125C159.201 56.3542 155.753 57.875 151.586 57.875C148.065 57.875 144.92 56.5208 142.149 53.8125V57H135.117V4.21875H142.149ZM158.867 42C158.867 39.0833 158.076 36.7083 156.492 34.875C154.888 33 152.878 32.0625 150.461 32.0625C147.878 32.0625 145.774 32.9688 144.149 34.7812C142.545 36.5729 141.742 38.9062 141.742 41.7812C141.742 44.7396 142.534 47.1042 144.117 48.875C145.701 50.6875 147.784 51.5938 150.367 51.5938C152.805 51.5938 154.826 50.6875 156.43 48.875C158.055 47.0417 158.867 44.75 158.867 42ZM182.444 26.5625V57H175.413V26.5625H182.444ZM174.35 13.9062C174.35 12.6771 174.798 11.6146 175.694 10.7188C176.59 9.82292 177.663 9.375 178.913 9.375C180.183 9.375 181.267 9.82292 182.163 10.7188C183.058 11.5938 183.506 12.6667 183.506 13.9375C183.506 15.2083 183.058 16.2917 182.163 17.1875C181.288 18.0833 180.215 18.5312 178.944 18.5312C177.673 18.5312 176.59 18.0833 175.694 17.1875C174.798 16.2917 174.35 15.1979 174.35 13.9062ZM200.52 33.125V57H193.489V33.125H190.489V26.5625H193.489V15.4062H200.52V26.5625H205.989V33.125H200.52ZM211.69 41.5625C211.69 37.1667 213.263 33.4271 216.409 30.3438C219.555 27.2604 223.388 25.7188 227.909 25.7188C232.45 25.7188 236.305 27.2708 239.471 30.375C242.596 33.4792 244.159 37.2917 244.159 41.8125C244.159 46.375 242.586 50.1979 239.44 53.2812C236.273 56.3438 232.388 57.875 227.784 57.875C223.221 57.875 219.398 56.3125 216.315 53.1875C213.232 50.1042 211.69 46.2292 211.69 41.5625ZM218.878 41.6875C218.878 44.7292 219.69 47.1354 221.315 48.9062C222.982 50.6979 225.18 51.5938 227.909 51.5938C230.659 51.5938 232.857 50.7083 234.503 48.9375C236.148 47.1667 236.971 44.8021 236.971 41.8438C236.971 38.8854 236.148 36.5208 234.503 34.75C232.836 32.9583 230.638 32.0625 227.909 32.0625C225.221 32.0625 223.044 32.9583 221.378 34.75C219.711 36.5417 218.878 38.8542 218.878 41.6875ZM253.548 26.5625H260.579V29.2812C261.87 27.9271 263.016 27 264.016 26.5C265.037 25.9792 266.245 25.7188 267.641 25.7188C269.495 25.7188 271.433 26.3229 273.454 27.5312L270.235 33.9688C268.902 33.0104 267.6 32.5312 266.329 32.5312C262.495 32.5312 260.579 35.4271 260.579 41.2188V57H253.548V26.5625ZM297.092 31.75L291.28 34.8438C290.363 32.9688 289.228 32.0312 287.874 32.0312C287.228 32.0312 286.676 32.25 286.217 32.6875C285.759 33.1042 285.53 33.6458 285.53 34.3125C285.53 35.4792 286.884 36.6354 289.592 37.7812C293.322 39.3854 295.832 40.8646 297.124 42.2188C298.415 43.5729 299.061 45.3958 299.061 47.6875C299.061 50.625 297.978 53.0833 295.811 55.0625C293.707 56.9375 291.165 57.875 288.186 57.875C283.082 57.875 279.467 55.3854 277.342 50.4062L283.342 47.625C284.176 49.0833 284.811 50.0104 285.249 50.4062C286.103 51.1979 287.124 51.5938 288.311 51.5938C290.686 51.5938 291.874 50.5104 291.874 48.3438C291.874 47.0938 290.957 45.9271 289.124 44.8438C288.415 44.4896 287.707 44.1458 286.999 43.8125C286.29 43.4792 285.572 43.1354 284.842 42.7812C282.801 41.7812 281.363 40.7812 280.53 39.7812C279.467 38.5104 278.936 36.875 278.936 34.875C278.936 32.2292 279.842 30.0417 281.655 28.3125C283.509 26.5833 285.759 25.7188 288.405 25.7188C292.301 25.7188 295.197 27.7292 297.092 31.75Z" fill="black"/>
</svg>
