<svg width="97" height="49" viewBox="0 0 97 49" fill="none" xmlns="http://www.w3.org/2000/svg">
<path d="M0.996 45.244V44.116L4.656 42.352C4.808 42.28 4.952 42.22 5.088 42.172C5.224 42.116 5.328 42.08 5.4 42.064C5.328 42.048 5.22 42.016 5.076 41.968C4.932 41.912 4.792 41.848 4.656 41.776L0.996 40V38.836L6.204 41.404V42.676L0.996 45.244Z" fill="black"/>
<path d="M25.314 38.026C23.942 37.942 22.304 37.914 21.8 37.914V38.11C21.8 38.46 21.814 38.894 21.842 39.244H20.47C20.498 38.838 20.512 38.264 20.512 37.914H17.53C17.53 38.376 17.544 38.796 17.558 39.244H16.186C16.228 38.936 16.256 38.278 16.256 37.914C15.78 37.914 14.128 37.942 12.7 38.026V36.668C14.044 36.738 14.296 36.752 16.256 36.766C16.256 36.556 16.242 35.842 16.2 35.296L17.6 35.422C17.754 35.436 17.852 35.464 17.852 35.576C17.852 35.716 17.684 35.786 17.558 35.842C17.53 36.136 17.53 36.206 17.53 36.78H20.512C20.512 36.318 20.484 35.702 20.456 35.296L21.884 35.422C21.996 35.436 22.122 35.464 22.122 35.562C22.122 35.716 21.926 35.814 21.828 35.856C21.8 36.192 21.8 36.654 21.8 36.766C23.83 36.738 24.054 36.738 25.314 36.668V38.026ZM25.328 41.498C23.844 41.414 22.234 41.386 21.072 41.386H18.692C18.412 41.904 18.09 42.394 17.698 42.828H20.68C21.072 42.828 22.794 42.786 23.144 42.772C23.438 42.758 23.592 42.758 24.012 42.73C23.956 43.57 23.942 44.312 23.942 44.55V46.216C23.942 46.51 23.998 47.56 24.026 47.938H22.528C22.556 47.7 22.556 47.672 22.57 47.35H17.292C17.306 47.616 17.306 47.686 17.32 47.91H15.808C15.85 47.364 15.934 46.468 15.934 45.67V44.536C14.842 45.418 13.876 45.796 13.26 46.02L12.098 44.928C13.288 44.62 15.5 44.032 17.208 41.386H16.942C15.528 41.386 14.1 41.414 12.686 41.498V40.182C14.212 40.28 15.92 40.294 16.942 40.294H17.74C17.964 39.622 18.09 39.09 18.216 38.334L19.7 38.712C19.812 38.74 19.882 38.782 19.882 38.866C19.882 39.034 19.644 39.076 19.56 39.09C19.434 39.496 19.336 39.79 19.154 40.294H21.072C22.36 40.294 23.83 40.266 25.328 40.182V41.498ZM22.598 46.216V43.976H17.264V46.216H22.598ZM40.434 37.522C39.244 37.452 38.6 37.438 36.976 37.41L36.99 37.998L38.264 38.166C38.348 38.18 38.488 38.194 38.488 38.348C38.488 38.46 38.334 38.53 38.194 38.586C38.18 38.838 38.18 38.908 38.18 38.992C39.356 38.95 39.482 38.95 40.336 38.894V40.154C39.608 40.112 39.468 40.112 38.166 40.084V40.574C38.166 40.966 38.18 41.344 38.208 41.736C37.816 41.708 37.214 41.68 36.822 41.68H35.156C35.086 41.68 33.924 41.694 33.462 41.722C33.504 41.33 33.518 40.952 33.518 40.56V40.084H32.034H31.292V42.156H34.778C35.898 42.156 38.054 42.128 39.16 42.086V43.206C39.048 43.206 35.436 43.178 34.75 43.178V43.794H36.206C37.592 43.794 38.964 43.752 40.336 43.668V44.928C39.356 44.872 38.74 44.844 36.206 44.844H35.8C36.304 45.348 37.984 46.44 40.196 46.72L39.468 47.868C38.796 47.7 37.718 47.378 36.458 46.65C35.898 46.328 35.268 45.908 34.75 45.39V45.866C34.75 46.496 34.764 47.406 34.778 48.036H33.42C33.448 47.532 33.476 46.468 33.476 45.936V45.39C32.888 45.908 32.244 46.356 31.558 46.706C31.11 46.93 29.808 47.49 28.716 47.826L27.694 46.776C28.8 46.552 29.444 46.384 30.564 45.908C31.754 45.39 32.174 45.026 32.384 44.844H32.02C29.836 44.844 29.122 44.858 27.904 44.928V43.668C29.738 43.794 31.684 43.794 32.02 43.794H33.476V43.178H32.482C32.258 43.178 31.194 43.178 30.004 43.234C30.06 41.596 30.074 41.414 30.074 40.896V40.084C28.786 40.112 28.632 40.112 27.932 40.154V38.894C28.744 38.95 28.87 38.95 30.06 38.992C30.06 38.628 30.046 38.264 30.032 37.9L31.348 37.998C31.362 37.914 31.376 37.508 31.376 37.41C30.984 37.424 29.458 37.438 29.136 37.452C28.548 37.466 28.31 37.494 27.82 37.522V36.15C28.772 36.206 29.038 36.22 31.404 36.262C31.39 35.758 31.376 35.562 31.348 35.31L32.706 35.408C32.748 35.408 32.93 35.422 32.93 35.576C32.93 35.66 32.902 35.674 32.65 35.814C32.65 35.926 32.636 36.178 32.636 36.262H35.632C35.632 35.716 35.618 35.52 35.604 35.254L37.046 35.38C37.088 35.38 37.256 35.394 37.256 35.548C37.256 35.66 37.144 35.716 36.962 35.8C36.948 36.052 36.948 36.122 36.948 36.262C38.11 36.262 39.272 36.22 40.434 36.15V37.522ZM36.822 39.006C36.822 38.908 36.808 38.488 36.808 38.39H35.576C35.604 38.068 35.618 37.872 35.618 37.41H32.664C32.678 38.026 32.692 38.096 32.692 38.39H31.348C31.348 38.488 31.32 38.922 31.32 39.006C31.432 39.006 31.922 39.02 32.034 39.02H33.518C33.518 38.866 33.49 38.166 33.476 37.872L34.82 37.984C34.946 37.998 35.044 38.026 35.044 38.138C35.044 38.278 34.876 38.334 34.778 38.376C34.764 38.642 34.764 38.684 34.764 39.02H36.234C36.332 39.02 36.738 39.006 36.822 39.006ZM36.836 40.756V40.084H36.234H34.764V40.756H36.836ZM55.764 40.658L54.882 41.82C54.364 41.624 53.552 41.344 52.502 40.588V41.652C51.718 41.582 50.934 41.54 50.15 41.54H47.924C47.182 41.54 46.426 41.568 45.684 41.652V41.106C45.026 41.54 44.424 41.792 43.766 42.016L42.702 40.91C44.046 40.728 44.536 40.434 45.082 40.028C45.012 39.93 44.536 39.286 44.13 38.95L44.942 38.32C45.348 38.67 45.572 38.894 45.992 39.426L46.272 39.132C45.964 38.768 45.586 38.418 45.18 38.124L45.964 37.466C46.468 37.83 46.748 38.124 47.028 38.446C47.588 37.746 47.728 37.508 47.868 37.284H45.586C44.718 38.138 44.186 38.502 43.668 38.824L42.688 37.844C43.5 37.508 43.85 37.27 44.452 36.71C45.236 35.968 45.432 35.548 45.614 35.17L46.874 35.702C47.056 35.786 47.07 35.828 47.07 35.884C47.07 36.08 46.72 36.08 46.566 36.08C46.468 36.22 46.44 36.276 46.412 36.318H47.28C47.84 36.318 48.092 36.304 48.75 36.22L49.352 37.13C48.806 37.984 47.854 39.412 46.678 40.378C47.014 40.392 47.546 40.406 47.924 40.406H50.15C50.374 40.406 51.326 40.392 52.138 40.322C50.85 39.328 49.66 37.648 49.044 35.786L50.402 35.114C50.752 36.906 51.186 37.746 52.334 38.796C52.74 38.194 52.81 38.096 53.496 37.116C53.09 37.102 51.634 37.144 51.144 37.158V36.038C51.606 36.08 52.152 36.08 52.404 36.08H53.58C53.986 36.08 54.616 36.038 55.022 35.94L55.512 36.57C55.162 36.934 55.064 37.004 54.42 37.872L53.552 39.034C53.37 39.286 53.3 39.356 53.188 39.496C53.986 40.056 54.364 40.21 55.764 40.658ZM54.686 46.734L53.664 47.728C52.866 46.776 52.04 45.824 50.99 45.152L51.984 44.256C52.824 44.858 53.58 45.502 54.686 46.734ZM55.386 43.822C54.49 43.766 52.446 43.766 51.466 43.766H49.94V45.334C49.94 46.972 49.968 47.154 49.898 47.364C49.688 48.05 48.638 48.05 48.372 48.05C48.092 48.05 47.868 48.036 47.658 48.008L47.014 46.622C47.588 46.734 47.924 46.79 48.288 46.79C48.582 46.79 48.582 46.594 48.582 46.482V43.766H47.322C46.888 43.766 46.706 43.78 45.012 43.808C43.668 43.836 43.514 43.85 42.94 43.864V42.674C43.752 42.716 46.468 42.716 47.35 42.716H50.808C52.25 42.716 53.93 42.674 55.386 42.576V43.822ZM47.168 45.264C47.168 45.46 46.972 45.502 46.594 45.488C45.852 46.356 45.11 47.028 44.074 47.588L42.87 46.496C43.276 46.384 43.92 46.188 44.69 45.614C45.39 45.082 45.684 44.578 45.852 44.284L47.028 45.068C47.14 45.166 47.168 45.208 47.168 45.264ZM68.938 39.958C67.258 40.266 64.934 40.966 63.646 41.652C62.876 42.072 61.266 43.01 61.266 44.55C61.266 45.348 62.092 45.782 62.414 45.894C63.254 46.174 64.15 46.216 64.892 46.216C66.18 46.216 67.468 46.174 68.672 45.712L68.714 47.224C67.622 47.406 66.516 47.434 65.41 47.434C63.408 47.434 59.95 47.378 59.95 44.634C59.95 42.142 62.414 40.98 63.114 40.644C62.694 40.252 62.554 40.014 62.47 39.146C62.302 37.214 62.204 36.528 62.008 35.604L63.548 35.576C63.968 35.562 64.094 35.576 64.094 35.758C64.094 35.968 63.842 36.15 63.688 36.248C63.674 36.542 63.66 36.85 63.66 37.27C63.66 38.418 63.73 38.824 63.842 39.272C63.94 39.692 64.108 39.818 64.374 40.028C64.822 39.818 65.354 39.58 66.53 39.174C67.874 38.726 68.196 38.558 68.546 38.376L68.938 39.958ZM85.15 44.942L84.576 46.23C84.156 45.796 83.442 45.278 82.672 45.026C82.826 46.636 81.552 47.07 80.46 47.07C78.878 47.07 77.786 46.314 77.786 45.25C77.786 44.424 78.472 43.892 78.92 43.738C79.774 43.43 80.81 43.43 80.936 43.43C81.146 43.43 81.244 43.444 81.37 43.458C81.272 42.352 81.272 42.016 81.258 39.706C80.432 39.79 80.054 39.832 79.368 39.832C78.864 39.832 78.542 39.804 78.276 39.776V38.544C78.598 38.614 79.228 38.726 79.928 38.726C80.292 38.726 80.684 38.698 81.258 38.628C81.258 38.39 81.3 37.018 81.314 36.668C81.314 36.43 81.314 36.346 81.3 36.108L83.008 36.29C83.064 36.29 83.218 36.304 83.218 36.486C83.218 36.612 83.176 36.64 82.84 36.85C82.728 37.298 82.644 37.634 82.602 38.418C83.008 38.334 83.694 38.194 84.352 37.914V39.076C83.386 39.398 82.644 39.51 82.532 39.538C82.532 39.664 82.518 40.602 82.518 40.686C82.518 41.666 82.56 42.73 82.658 43.71C83.386 43.92 84.324 44.284 85.15 44.942ZM81.328 44.62C81.118 44.592 80.838 44.55 80.488 44.55C79.606 44.55 79.074 44.816 79.074 45.208C79.074 45.614 79.578 45.894 80.222 45.894C80.726 45.894 81.132 45.684 81.272 45.362C81.356 45.152 81.342 44.928 81.328 44.62ZM76.932 36.71C76.932 36.878 76.89 36.892 76.484 37.13C75.462 39.622 75.364 42.254 75.364 42.898C75.364 43.85 75.476 44.424 75.56 44.886C75.686 44.634 75.798 44.396 75.938 43.934C76.106 43.346 76.134 43.29 76.19 43.108L76.89 43.724C76.778 44.018 76.12 45.908 75.938 47.028L74.86 47.21C74.356 45.446 74.244 43.85 74.244 42.632C74.244 41.428 74.328 40.588 74.734 38.432C74.916 37.438 75.042 36.836 75.196 36.206L76.736 36.514C76.834 36.528 76.932 36.584 76.932 36.71Z" fill="black"/>
<path d="M90.83 23.36C89.1873 23.36 87.8753 22.8907 86.894 21.952C85.934 20.992 85.454 19.7013 85.454 18.08V9.37599H80.59V5.75999H85.454V0.799988H89.486V5.75999H96.494V9.37599H89.486V17.984C89.486 18.496 89.6246 18.9227 89.902 19.264C90.2006 19.584 90.606 19.744 91.118 19.744H96.334V23.36H90.83Z" fill="black"/>
<path d="M96.334 19.744V23.36H90.83C89.1873 23.36 87.8753 22.8906 86.894 21.952C85.934 20.992 85.454 19.7013 85.454 18.08V9.37598H89.486V17.984C89.486 18.496 89.6246 18.9226 89.902 19.264C90.2006 19.584 90.606 19.744 91.118 19.744H96.334Z" fill="black"/>
<path d="M89.486 9.37601H85.454H80.59V5.76001H85.454H89.486H96.494V9.37601H89.486Z" fill="#F9004B"/>
<path d="M89.486 5.75999H85.454V0.799988H89.486V5.75999Z" fill="black"/>
<path d="M68.9225 23.68C66.6825 23.68 64.9225 23.0613 63.6425 21.824C62.3625 20.5653 61.7225 18.8587 61.7225 16.704V5.76001H65.7225V16.672C65.7225 17.7813 65.9999 18.6453 66.5545 19.264C67.1092 19.8827 67.8985 20.192 68.9225 20.192C69.9252 20.192 70.7039 19.8827 71.2585 19.264C71.8345 18.6453 72.1225 17.7813 72.1225 16.672V5.76001H76.1225V16.704C76.1225 18.8587 75.4719 20.5653 74.1705 21.824C72.8692 23.0613 71.1199 23.68 68.9225 23.68Z" fill="black"/>
<path d="M48.775 23.648C46.5137 23.648 44.7217 23.0187 43.399 21.76C42.0764 20.48 41.415 18.7627 41.415 16.608V12.512C41.415 10.336 42.0764 8.61865 43.399 7.35999C44.7217 6.10132 46.5137 5.47198 48.775 5.47198C51.0364 5.47198 52.8284 6.10132 54.151 7.35999C55.4737 8.61865 56.135 10.336 56.135 12.512V16.608C56.135 18.7627 55.4737 20.48 54.151 21.76C52.8284 23.0187 51.0364 23.648 48.775 23.648ZM48.775 20.16C49.8417 20.16 50.663 19.872 51.239 19.296C51.8364 18.6987 52.135 17.8453 52.135 16.736V12.384C52.135 11.2747 51.8364 10.432 51.239 9.85598C50.663 9.25865 49.8417 8.95998 48.775 8.95998C47.7084 8.95998 46.8764 9.25865 46.279 9.85598C45.703 10.432 45.415 11.2747 45.415 12.384V16.736C45.415 17.8453 45.703 18.6987 46.279 19.296C46.8764 19.872 47.7084 20.16 48.775 20.16Z" fill="black"/>
<path d="M30.2275 23.68C28.9902 23.68 27.9555 23.3707 27.1235 22.752C26.2915 22.1333 25.7155 21.2693 25.3955 20.16V23.36H21.4915V0H25.4915V4.928L25.3635 8.96C25.7048 7.85067 26.2915 6.98667 27.1235 6.368C27.9768 5.74933 29.0115 5.44 30.2275 5.44C31.9555 5.44 33.3422 6.048 34.3875 7.264C35.4328 8.48 35.9555 10.1227 35.9555 12.192V16.96C35.9555 19.008 35.4222 20.64 34.3555 21.856C33.3102 23.072 31.9342 23.68 30.2275 23.68ZM28.7235 20.224C29.7475 20.224 30.5368 19.9467 31.0915 19.392C31.6675 18.8373 31.9555 17.984 31.9555 16.832V12.288C31.9555 11.136 31.6675 10.2827 31.0915 9.728C30.5368 9.17333 29.7475 8.896 28.7235 8.896C27.6995 8.896 26.8995 9.20533 26.3235 9.824C25.7688 10.4427 25.4915 11.3173 25.4915 12.448V16.672C25.4915 17.8027 25.7688 18.6773 26.3235 19.296C26.8995 19.9147 27.6995 20.224 28.7235 20.224Z" fill="black"/>
<path d="M0 23.36L5.888 0H11.04L16.96 23.36H12.864L11.584 17.696H5.376L4.096 23.36H0ZM6.112 14.432H10.848L9.44 8.16C9.20533 7.11467 9.00267 6.176 8.832 5.344C8.66133 4.49067 8.544 3.872 8.48 3.488C8.416 3.872 8.29867 4.49067 8.128 5.344C7.95733 6.176 7.75467 7.104 7.52 8.128L6.112 14.432Z" fill="black"/>
<path d="M4.096 23.36H0L5.888 0H9.23068L4.096 23.36Z" fill="#F9004B"/>
</svg>
