<svg width="95" height="49" viewBox="0 0 95 49" fill="none" xmlns="http://www.w3.org/2000/svg">
<path d="M0.996 45.244V44.116L4.656 42.352C4.808 42.28 4.952 42.22 5.088 42.172C5.224 42.116 5.328 42.08 5.4 42.064C5.328 42.048 5.22 42.016 5.076 41.968C4.932 41.912 4.792 41.848 4.656 41.776L0.996 40V38.836L6.204 41.404V42.676L0.996 45.244Z" fill="black"/>
<path d="M25.678 40.28L24.656 41.47C23.144 40.994 20.372 39.748 18.846 37.088C18.188 38.138 17.306 39.034 16.34 39.818C14.954 40.952 13.876 41.442 13.148 41.764L12.126 40.56C13.022 40.252 14.296 39.776 15.71 38.614C17.446 37.172 18.02 35.87 18.272 35.296L19.63 35.758C19.952 35.87 20.022 35.94 20.022 36.052C20.022 36.178 19.91 36.262 19.798 36.332C20.414 37.298 21.24 38.11 22.192 38.754C22.906 39.244 23.998 39.832 25.678 40.28ZM24.978 47.7C23.844 47.63 22.542 47.588 20.89 47.588H16.9C15.766 47.588 14.338 47.602 12.854 47.7V46.328C14.086 46.412 14.422 46.412 15.094 46.426V43.808C15.094 42.968 15.08 42.646 15.024 41.652L16.522 41.82C16.872 41.862 16.984 41.918 16.984 42.058C16.984 42.24 16.886 42.268 16.522 42.422V46.44H16.9H18.272V42.156C18.272 41.232 18.258 40.896 18.174 39.552L19.63 39.706C20.022 39.748 20.162 39.762 20.162 39.958C20.162 40.112 20.12 40.14 19.686 40.364V42.282H21.394C21.772 42.282 21.954 42.268 22.276 42.254L23.06 42.226V43.57C22.248 43.542 21.996 43.528 21.422 43.528H19.672V46.44H20.89C22.262 46.44 23.62 46.412 24.978 46.328V47.7ZM40.42 37.018C39.23 36.948 38.068 36.934 36.276 36.934H34.652V38.46H35.758C35.996 38.46 37.06 38.432 37.27 38.418C37.242 39.104 37.242 40.056 37.242 40.658V43.052C37.242 43.696 37.242 43.976 37.27 44.788C36.836 44.76 36.052 44.732 35.38 44.732H32.496C32.062 44.732 31.894 44.732 30.9 44.788C30.9 44.55 30.956 43.528 30.956 43.318V41.064C30.956 39.776 30.942 39.72 30.872 38.432C31.418 38.46 31.964 38.46 32.23 38.46H33.504V36.934H31.964C30.648 36.934 30.172 36.864 27.82 37.018V35.758C29.5 35.87 31.81 35.884 31.964 35.884H36.276C37.662 35.884 39.048 35.856 40.42 35.758V37.018ZM36.052 41.05V39.566H34.652V41.05H36.052ZM33.504 41.05V39.566H32.118V41.05H33.504ZM36.052 43.64V42.128H34.652V43.64H36.052ZM33.504 43.64V42.128H32.118V43.64H33.504ZM40.126 38.614C40.126 38.796 39.944 38.88 39.748 38.992C39.72 39.72 39.706 40.462 39.706 41.204V43.052C39.706 43.794 39.748 47.406 39.79 47.952H38.348C38.39 47.644 38.418 47.336 38.418 47.028H29.766C29.766 47.182 29.78 47.826 29.794 47.952H28.366C28.422 47.28 28.492 45.614 28.492 45.068V41.512V39.916C28.492 39.37 28.492 38.642 28.464 38.292L29.766 38.376C30.06 38.39 30.186 38.404 30.186 38.572C30.186 38.698 30.158 38.726 29.822 38.936C29.78 39.986 29.766 40.392 29.766 40.952V45.922H38.432V41.288C38.432 40.812 38.404 39.258 38.39 38.334L39.706 38.404C39.944 38.418 40.126 38.432 40.126 38.614ZM55.386 42.352C54.28 42.296 51.83 42.282 51.732 42.282H46.734C46.328 42.282 44.13 42.296 43.08 42.352V40.966C44.2 41.022 46.636 41.036 46.734 41.036H51.732C52.138 41.036 54.336 41.022 55.386 40.966V42.352ZM70.464 37.942C69.26 37.83 67.748 37.83 67.65 37.83H65.452C65.214 38.152 64.962 38.432 64.654 38.698L63.646 38.138V38.432C63.646 39.006 63.66 39.076 63.674 39.202C63.212 39.174 62.428 39.174 61.938 39.174V39.748C63.184 39.72 63.324 39.72 64.15 39.664V40.686C63.66 40.658 62.554 40.63 62.036 40.63H60.258C59.964 40.63 58.676 40.658 58.41 40.658C58.48 40.14 58.508 39.09 58.508 38.88V37.312C58.508 36.85 58.48 36.122 58.452 35.66C58.816 35.688 60.062 35.716 60.37 35.716H62.064C62.75 35.716 63.436 35.674 64.122 35.632V36.612C63.702 36.598 63.534 36.598 61.938 36.584V37.102C62.176 37.102 63.128 37.088 63.674 37.046C63.66 37.34 63.646 37.76 63.646 37.9C64.234 37.466 65.046 36.57 65.466 35.24L66.81 35.604C66.908 35.632 66.992 35.674 66.992 35.772C66.992 35.968 66.74 36.01 66.586 36.024C66.488 36.22 66.446 36.318 66.222 36.682H67.65C68.588 36.682 69.526 36.668 70.464 36.57V37.942ZM62.484 38.432V37.9H59.656V38.432H62.484ZM60.804 37.102V36.584H59.656V37.102H60.804ZM60.804 39.748V39.174H59.656V39.748H60.804ZM70.17 40.294C69.582 40.21 68.868 40.21 68.294 40.21H66.418C65.802 40.21 65.102 40.21 64.542 40.294V39.034C65.298 39.146 66.348 39.146 66.418 39.146H68.294C68.518 39.146 69.512 39.132 70.17 39.034V40.294ZM70.786 46.216C70.436 47.686 69.834 47.756 69.246 47.756H66.488C65.242 47.756 64.92 47.504 64.92 46.734V45.712H63.478C62.764 47.7 61.14 48.022 58.41 48.064L57.822 46.748C58.158 46.804 58.69 46.888 59.376 46.888C60.02 46.888 61.56 46.818 62.064 45.712C61.98 45.712 60.636 45.754 59.572 45.838C59.656 45.236 59.67 44.382 59.67 44.2V42.576C59.67 42.002 59.614 41.33 59.572 40.91C60.748 40.994 62.05 41.036 62.638 41.036H65.69C65.942 41.036 67.23 41.022 68.756 40.91C68.686 41.428 68.658 42.296 68.658 42.576V44.2C68.658 44.34 68.672 45.25 68.756 45.838C67.692 45.754 66.32 45.712 66.236 45.712V46.216C66.236 46.706 66.376 46.706 66.824 46.706H68.784C69.19 46.706 69.624 46.706 69.764 45.054L70.786 46.216ZM67.454 43.626V43.038H60.916V43.626H67.454ZM67.454 42.296V41.708H60.916V42.296H67.454ZM67.454 44.984V44.368H60.916V44.984H67.454Z" fill="black"/>
<path d="M80.59 23.36V0H84.59V5.76L84.494 9.024C84.7073 7.91467 85.23 7.04 86.062 6.4C86.894 5.76 87.95 5.44 89.23 5.44C90.958 5.44 92.334 6.016 93.358 7.168C94.4033 8.32 94.926 9.86667 94.926 11.808V23.36H90.926V12.288C90.926 11.2 90.638 10.368 90.062 9.792C89.5073 9.19467 88.75 8.896 87.79 8.896C86.7873 8.896 85.998 9.19467 85.422 9.792C84.8673 10.3893 84.59 11.2427 84.59 12.352V23.36H80.59Z" fill="black"/>
<path d="M69.3385 23.3601C67.6958 23.3601 66.3838 22.8907 65.4025 21.952C64.4425 20.992 63.9625 19.7014 63.9625 18.08V9.37605H59.0985V5.76005H63.9625V0.800049H67.9945V5.76005H75.0025V9.37605H67.9945V17.9841C67.9945 18.4961 68.1332 18.9227 68.4105 19.264C68.7092 19.584 69.1145 19.744 69.6265 19.744H74.8425V23.3601H69.3385Z" fill="black"/>
<path d="M74.8425 19.744V23.36H69.3385C67.6959 23.36 66.3839 22.8906 65.4025 21.952C64.4425 20.992 63.9625 19.7013 63.9625 18.08V9.37598H67.9945V17.984C67.9945 18.496 68.1332 18.9226 68.4105 19.264C68.7092 19.584 69.1145 19.744 69.6265 19.744H74.8425Z" fill="black"/>
<path d="M67.9945 9.37601H63.9625H59.0985V5.76001H63.9625H67.9945H75.0025V9.37601H67.9945Z" fill="#F9004B"/>
<path d="M67.9945 5.76005H63.9625V0.800049H67.9945V5.76005Z" fill="black"/>
<path d="M47.431 23.6479C45.1697 23.6479 43.3777 23.0186 42.055 21.7599C40.7324 20.4799 40.071 18.7626 40.071 16.6079V12.5119C40.071 10.3359 40.7324 8.61859 42.055 7.35992C43.3777 6.10126 45.1697 5.47192 47.431 5.47192C49.6924 5.47192 51.4844 6.10126 52.807 7.35992C54.1297 8.61859 54.791 10.3359 54.791 12.5119V16.6079C54.791 18.7626 54.1297 20.4799 52.807 21.7599C51.4844 23.0186 49.6924 23.6479 47.431 23.6479ZM47.431 20.1599C48.4977 20.1599 49.319 19.8719 49.895 19.2959C50.4924 18.6986 50.791 17.8453 50.791 16.7359V12.3839C50.791 11.2746 50.4924 10.4319 49.895 9.85592C49.319 9.25859 48.4977 8.95992 47.431 8.95992C46.3644 8.95992 45.5324 9.25859 44.935 9.85592C44.359 10.4319 44.071 11.2746 44.071 12.3839V16.7359C44.071 17.8453 44.359 18.6986 44.935 19.2959C45.5324 19.8719 46.3644 20.1599 47.431 20.1599Z" fill="black"/>
<path d="M27.2835 23.6479C25.0222 23.6479 23.2302 23.0186 21.9075 21.7599C20.5849 20.4799 19.9235 18.7626 19.9235 16.6079V12.5119C19.9235 10.3359 20.5849 8.61859 21.9075 7.35992C23.2302 6.10126 25.0222 5.47192 27.2835 5.47192C29.5449 5.47192 31.3369 6.10126 32.6595 7.35992C33.9822 8.61859 34.6435 10.3359 34.6435 12.5119V16.6079C34.6435 18.7626 33.9822 20.4799 32.6595 21.7599C31.3369 23.0186 29.5449 23.6479 27.2835 23.6479ZM27.2835 20.1599C28.3502 20.1599 29.1715 19.8719 29.7475 19.2959C30.3449 18.6986 30.6435 17.8453 30.6435 16.7359V12.3839C30.6435 11.2746 30.3449 10.4319 29.7475 9.85592C29.1715 9.25859 28.3502 8.95992 27.2835 8.95992C26.2169 8.95992 25.3849 9.25859 24.7875 9.85592C24.2115 10.4319 23.9235 11.2746 23.9235 12.3839V16.7359C23.9235 17.8453 24.2115 18.6986 24.7875 19.2959C25.3849 19.8719 26.2169 20.1599 27.2835 20.1599Z" fill="black"/>
<path d="M0 23.36V0H7.168C9.408 0 11.1893 0.544 12.512 1.632C13.856 2.72 14.528 4.18133 14.528 6.016C14.528 7.296 14.1547 8.39467 13.408 9.312C12.6827 10.2293 11.7333 10.784 10.56 10.976V11.04C11.4347 11.1467 12.2133 11.4667 12.896 12C13.5787 12.512 14.112 13.184 14.496 14.016C14.88 14.8267 15.072 15.7227 15.072 16.704C15.072 18.048 14.7627 19.2213 14.144 20.224C13.5253 21.2267 12.6507 22.0053 11.52 22.56C10.3893 23.0933 9.056 23.36 7.52 23.36H0ZM3.904 9.632H7.104C8.14933 9.632 8.98133 9.35467 9.6 8.8C10.2187 8.224 10.528 7.44533 10.528 6.464C10.528 5.504 10.2187 4.74667 9.6 4.192C9.00267 3.616 8.17067 3.328 7.104 3.328H3.904V9.632ZM3.904 20.032H7.296C8.46933 20.032 9.38667 19.7227 10.048 19.104C10.7307 18.464 11.072 17.6 11.072 16.512C11.072 15.424 10.7307 14.5493 10.048 13.888C9.38667 13.2053 8.46933 12.864 7.296 12.864H3.904V20.032Z" fill="black"/>
<path d="M3.904 0V3.328V9.632V12.864V20.032V23.36H0V0H3.904Z" fill="#F9004B"/>
</svg>
