<svg width="102" height="49" viewBox="0 0 102 49" fill="none" xmlns="http://www.w3.org/2000/svg">
<path d="M0.996061 45.244V44.116L4.65606 42.352C4.80806 42.28 4.95206 42.22 5.08806 42.172C5.22406 42.116 5.32806 42.08 5.40006 42.064C5.32806 42.048 5.22006 42.016 5.07606 41.968C4.93206 41.912 4.79206 41.848 4.65606 41.776L0.996061 40V38.836L6.20406 41.404V42.676L0.996061 45.244Z" fill="black"/>
<path d="M24.2641 45.488L23.6481 47C21.7721 45.502 20.4141 45.152 19.7841 44.998C19.7841 45.586 19.7701 46.272 19.3641 46.678C18.7761 47.252 17.5581 47.448 16.8021 47.448C15.6121 47.448 13.6381 46.944 13.6381 45.404C13.6381 44.018 15.2621 43.318 17.0541 43.318C17.5721 43.318 18.1321 43.346 18.3841 43.36C18.2721 42.114 18.2441 40.7 18.2301 39.356C18.2021 36.864 18.2021 36.598 18.1461 35.814L20.0501 35.982C20.1481 35.996 20.3021 36.01 20.3021 36.192C20.3021 36.318 20.2461 36.36 19.7701 36.766C19.6861 37.424 19.6021 38.11 19.5881 38.81C20.3721 38.824 22.1641 38.852 23.6761 38.25V39.608C22.5141 39.972 20.8481 39.972 19.5601 39.972C19.5601 41.848 19.5601 42.394 19.6441 43.584C20.5401 43.78 21.3941 44.074 22.2341 44.424C22.8081 44.676 23.5921 45.11 24.2641 45.488ZM18.3981 44.662C18.0901 44.592 17.6281 44.508 17.0261 44.508C16.3821 44.508 15.7241 44.62 15.3601 44.816C15.1921 44.9 14.9541 45.068 14.9541 45.432C14.9541 46.202 16.3961 46.272 16.6761 46.272C18.5241 46.272 18.4401 45.25 18.3981 44.662ZM37.0181 47.224L35.7161 48.232C35.2821 47.35 33.9801 45.6 33.0561 44.718C32.3981 44.088 31.2501 43.038 30.7041 42.632C30.2001 42.268 29.9901 42.044 29.9901 41.54C29.9901 41.092 30.2001 40.868 30.7741 40.28C31.0401 40.014 32.2161 38.838 32.4541 38.6C33.5181 37.494 34.7081 36.276 35.4081 35.1L36.6681 35.912C36.7801 35.982 36.9061 36.066 36.9061 36.234C36.9061 36.318 36.8641 36.388 36.7941 36.43C36.7101 36.472 36.2901 36.584 36.2061 36.612C35.2541 37.55 34.5821 38.222 33.1681 39.622C32.8461 39.944 32.2581 40.504 31.9921 40.77C31.7121 41.036 31.6421 41.218 31.6421 41.372C31.6421 41.638 31.8241 41.848 32.0201 42.03C34.3301 44.06 34.5261 44.256 35.4501 45.334C35.9961 45.978 36.6401 46.762 37.0181 47.224ZM54.4341 43.682C54.4341 45.194 53.2021 47.098 50.5841 47.714L49.7301 46.608C51.7321 46.328 53.1321 45.18 53.1321 43.64C53.1321 43.262 52.9921 41.764 51.3681 41.484C50.9061 42.814 50.1501 44.018 49.2261 45.082C49.2961 45.348 49.3241 45.404 49.5621 45.95L48.4141 46.72C48.2321 46.3 48.2041 46.244 48.1341 46.02C47.6301 46.44 46.8321 47.07 45.8101 47.07C44.8441 47.07 44.0741 46.496 44.0741 45.152C44.0741 43.206 45.5301 41.47 47.4761 40.798C47.4341 40.294 47.5181 39.594 47.5741 39.244C46.1881 39.37 45.7961 39.37 45.2501 39.37L44.7461 38.026C45.1101 38.124 45.5161 38.222 46.6221 38.222C47.0561 38.222 47.3361 38.208 47.6721 38.18C47.8261 36.822 47.8401 36.668 48.0501 35.576L49.5061 35.968C49.7581 36.038 49.7861 36.052 49.7861 36.15C49.7861 36.304 49.7441 36.332 49.3661 36.57C49.2541 36.976 49.1841 37.256 49.0301 37.998C50.7661 37.746 51.6341 37.48 52.9361 36.934L52.8381 38.264C51.3541 38.656 50.5281 38.824 48.8201 39.118C48.6941 39.748 48.6801 40 48.6661 40.448C49.1001 40.294 49.3941 40.224 50.4301 40.238C50.5421 39.748 50.5561 39.65 50.5561 39.398L51.9701 39.594C51.9141 39.804 51.8861 39.86 51.7181 40.42C52.1661 40.532 52.9641 40.77 53.6361 41.526C54.2661 42.254 54.4341 43.108 54.4341 43.682ZM50.1221 41.288C49.4641 41.274 49.1561 41.33 48.6241 41.512C48.7081 42.73 48.7501 43.024 48.8481 43.696C49.5061 42.828 49.8981 42.016 50.1221 41.288ZM47.7841 44.816C47.5741 43.85 47.4621 42.478 47.4341 41.974C47.0281 42.184 46.7341 42.338 46.2301 42.898C45.7821 43.416 45.3341 44.074 45.3341 44.998C45.3341 45.726 45.9221 45.796 46.1041 45.796C46.3561 45.796 46.6641 45.684 46.8881 45.558C47.3221 45.32 47.5601 45.054 47.7841 44.816ZM69.1201 43.15C69.1201 45.46 67.0061 47.308 64.4861 47.308C63.2821 47.308 61.5741 46.762 61.5741 45.418C61.5741 44.27 62.7221 43.556 63.7861 43.556C64.4301 43.556 65.2421 43.808 65.9421 44.424C66.3201 44.76 66.5021 45.068 66.6701 45.348C67.0201 45.082 67.7621 44.522 67.7621 43.388C67.7621 43.192 67.7201 42.254 67.1461 41.694C66.5861 41.148 65.7601 41.092 65.3961 41.092C64.4021 41.092 63.4081 41.484 62.6381 42.03C62.0221 42.464 61.5461 42.968 60.4681 44.13L59.3061 43.206C60.6781 42.184 63.6181 39.202 64.9341 37.452C64.0101 37.648 63.5621 37.746 62.6101 37.872C62.3441 37.9 61.1821 38.012 60.9441 38.04L60.6501 36.682C60.8881 36.71 61.1401 36.738 61.5741 36.738C63.4361 36.738 65.7881 36.262 66.5581 35.954L67.3981 36.934C66.7261 37.354 66.5721 37.508 65.8441 38.25C64.8641 39.244 64.6961 39.426 63.9261 40.364C64.3181 40.182 64.8641 39.93 65.7181 39.93C67.7761 39.93 69.1201 41.54 69.1201 43.15ZM65.5501 45.992C65.4241 45.712 65.2841 45.362 64.9901 45.11C64.7101 44.872 64.2061 44.718 63.7861 44.718C63.0861 44.718 62.7921 45.11 62.7921 45.362C62.7921 45.894 63.6321 46.174 64.4441 46.174C65.0041 46.174 65.2981 46.076 65.5501 45.992ZM85.1781 46.972L84.5621 48.162C83.1481 48.092 81.8181 47.518 80.6561 46.72L81.3001 46.146H77.6461L78.1781 46.566C78.2201 46.594 78.2901 46.664 78.2901 46.762C78.2901 47.028 77.8001 46.986 77.7021 46.972C76.1761 47.896 75.2241 48.106 74.5381 48.218L73.6841 47.042C75.3221 46.832 75.9941 46.524 76.5821 46.174C76.0921 46.188 75.3361 46.202 75.1261 46.216C75.2241 45.628 75.2381 44.774 75.2381 44.284V42.296C75.2381 41.638 75.1961 40.98 75.1261 40.336C75.7981 40.378 77.3241 40.42 78.0381 40.42H80.8381C81.6221 40.42 81.9021 40.42 82.4481 40.392C83.4281 40.35 83.5401 40.35 83.8481 40.336C83.7921 40.868 83.7641 41.918 83.7641 42.464V44.354C83.7641 44.83 83.7781 45.698 83.8481 46.216C83.3721 46.188 82.5601 46.174 82.0421 46.16C82.7701 46.608 83.7781 46.944 85.1781 46.972ZM82.5461 43.668V42.94H76.5121V43.668H82.5461ZM82.5461 42.058V41.316H76.5121V42.058H82.5461ZM82.5461 45.278V44.564H76.5121V45.278H82.5461ZM85.4721 38.362C85.2481 38.334 85.1641 38.32 84.6461 38.32H83.5821V39.076C83.5821 39.342 83.6241 39.832 83.6521 40H82.2521C82.3221 39.566 82.3361 39.174 82.3361 39.16V38.348H81.1461C81.0201 38.74 80.7121 39.706 79.9561 40.252L78.9201 39.552C79.4101 39.244 80.1801 38.754 80.1801 36.626C80.1801 36.262 80.1521 35.968 80.1381 35.716C80.6421 35.772 81.1321 35.814 81.5521 35.814C82.7281 35.814 84.0441 35.422 84.4501 35.226L85.2901 36.122C85.3181 36.15 85.3321 36.206 85.3321 36.248C85.3321 36.388 85.2341 36.43 85.1221 36.43C84.9821 36.43 84.8841 36.374 84.7581 36.304C83.6101 36.682 82.1681 36.85 81.2861 36.864L81.2581 37.41H83.0641C83.4421 37.41 85.1781 37.284 85.4721 37.242V38.362ZM79.2421 36.29C79.2421 36.444 79.1161 36.472 79.0181 36.472C78.9201 36.472 78.8361 36.444 78.6681 36.388C77.7301 36.696 76.5821 36.808 75.6581 36.836L75.6441 37.424H77.3661C77.7161 37.424 78.9201 37.368 79.2141 37.326V38.39C78.8501 38.348 78.0241 38.334 77.7721 38.348V39.076C77.7721 39.384 77.7861 39.804 77.8281 40.056H76.5541C76.5961 39.79 76.6381 39.244 76.6381 39.146V38.348H75.5461C75.2661 39.804 74.9021 40.336 74.2021 40.994L73.0961 40.238C73.5161 39.916 74.5101 39.174 74.5101 36.864C74.5101 36.318 74.4541 36.01 74.3981 35.688C75.3641 35.786 75.4621 35.786 75.7001 35.786C76.4141 35.786 77.3521 35.674 78.4161 35.268L79.1721 36.136C79.2141 36.178 79.2421 36.234 79.2421 36.29ZM100.452 35.576C100.424 36.458 100.41 37.354 100.41 37.48V46.566C100.41 48.008 99.5281 48.008 98.9401 48.008C98.5481 48.008 98.1701 47.994 97.7921 47.952L97.3441 46.496C97.7081 46.58 98.4361 46.692 98.5481 46.692C99.0241 46.692 99.1221 46.314 99.1221 45.978V40.378H97.1761C96.8401 40.378 96.3781 40.406 96.0701 40.406C95.5941 40.406 95.2581 40.42 95.0621 40.42C95.1321 39.916 95.1461 39.216 95.1461 38.81V37.228C95.1461 36.612 95.1461 36.43 95.1041 35.562C95.5381 35.59 96.3921 35.632 96.8401 35.632H98.5481C98.8421 35.632 100.088 35.59 100.452 35.576ZM99.1221 37.508V36.612H96.4341V37.508H99.1221ZM99.1221 39.384V38.474H96.4341V39.384H99.1221ZM94.0121 40.434C93.6061 40.406 92.3601 40.378 91.9401 40.378H90.0361V44.872C90.0361 45.908 90.0781 46.93 90.1201 47.952H88.6781C88.7061 47.252 88.7481 46.02 88.7481 44.914V37.452C88.7481 36.836 88.7201 36.122 88.6921 35.506C89.1261 35.562 89.7841 35.632 90.5121 35.632H92.1361C92.7661 35.632 93.3821 35.59 93.9981 35.548C93.9841 35.814 93.9561 37.046 93.9561 37.326V38.712C93.9561 38.782 94.0121 40.154 94.0121 40.434ZM92.6681 37.508V36.612H90.0361V37.508H92.6681ZM92.6681 39.384V38.474H90.0361V39.384H92.6681ZM97.3861 41.232C97.3301 41.778 97.3301 42.52 97.3301 43.15V43.99C97.3301 44.312 97.3301 44.844 97.3441 45.81C96.8541 45.782 96.1541 45.74 95.4401 45.74H93.0041C92.9901 45.922 93.0321 46.398 93.0601 46.566H91.5901C91.6881 46.034 91.7021 45.39 91.7021 44.578V42.982C91.7021 42.492 91.6881 41.652 91.6461 41.232C92.1221 41.274 93.2281 41.316 93.7181 41.316H95.4401C95.7761 41.316 97.0921 41.274 97.3861 41.232ZM96.0281 44.634V42.408H92.9761V44.634H96.0281Z" fill="black"/>
<path d="M50.823 29.44L47.527 24C47.463 24 47.399 24 47.335 24C45.8417 24 44.5403 23.712 43.431 23.136C42.3217 22.56 41.4577 21.7493 40.839 20.704C40.2203 19.6587 39.911 18.432 39.911 17.024V6.976C39.911 5.568 40.2097 4.34133 40.807 3.296C41.4257 2.25067 42.2897 1.44 43.399 0.863998C44.5297 0.287999 45.8417 0 47.335 0C48.8283 0 50.1297 0.287999 51.239 0.863998C52.3483 1.44 53.2123 2.25067 53.831 3.296C54.4497 4.34133 54.759 5.568 54.759 6.976V17.024C54.759 18.432 54.4497 19.6693 53.831 20.736C53.2337 21.7813 52.3803 22.5813 51.271 23.136L55.143 29.44H50.823ZM47.335 20.48C48.4443 20.48 49.287 20.1813 49.863 19.584C50.4603 18.9653 50.759 18.112 50.759 17.024V6.976C50.759 5.888 50.4497 5.03467 49.831 4.416C49.2337 3.79733 48.4017 3.488 47.335 3.488C46.2683 3.488 45.4257 3.79733 44.807 4.416C44.2097 5.03467 43.911 5.888 43.911 6.976V17.024C43.911 18.112 44.199 18.9653 44.775 19.584C45.3723 20.1813 46.2257 20.48 47.335 20.48Z" fill="black"/>
<path d="M55.143 29.44H50.823L47.527 24C47.463 24 47.399 24 47.335 24L51.271 23.136L55.143 29.44Z" fill="#F9004B"/>
<path d="M18.7075 23.6801L24.5955 0.320068H29.7475L35.6675 23.6801H31.5715L30.2915 18.0161H24.0835L22.8035 23.6801H18.7075ZM24.8195 14.7521H29.5555L28.1475 8.48007C27.9128 7.43473 27.7101 6.49607 27.5395 5.66407C27.3688 4.81073 27.2515 4.19207 27.1875 3.80807C27.1235 4.19207 27.0061 4.81073 26.8355 5.66407C26.6648 6.49607 26.4621 7.42407 26.2275 8.44807L24.8195 14.7521Z" fill="black"/>
<path d="M0 23.6801V0.320068H14.528V4.03207H3.936V10.2721H13.696V13.9841H4V23.6801H0Z" fill="black"/>
<path d="M4.00006 23.6801H6.10352e-05V0.320068H3.93606L3.95345 4.03207H3.93606V10.2721H3.98267L4.00006 13.9841V23.6801Z" fill="#F9004B"/>
</svg>
