<svg width="132" height="49" viewBox="0 0 132 49" fill="none" xmlns="http://www.w3.org/2000/svg">
<path d="M0.996 45.244V44.116L4.656 42.352C4.808 42.28 4.952 42.22 5.088 42.172C5.224 42.116 5.328 42.08 5.4 42.064C5.328 42.048 5.22 42.016 5.076 41.968C4.932 41.912 4.792 41.848 4.656 41.776L0.996 40V38.836L6.204 41.404V42.676L0.996 45.244Z" fill="black"/>
<path d="M25.132 47.63C24.656 47.574 24.012 47.574 23.284 47.574C23.032 47.574 21.856 47.546 21.604 47.546H16.228C15.374 47.546 13.652 47.574 12.84 47.63V46.146C13.792 46.216 14.828 46.286 16.102 46.286H18.314V43.332H17.04C16.704 43.332 15.234 43.346 14.94 43.36C14.604 43.374 14.366 43.388 14.128 43.416V41.932C14.31 41.946 15.878 42.044 17.04 42.044H18.314V39.622H17.32C16.284 39.622 14.086 39.65 13.12 39.72V38.264C13.638 38.348 14.226 38.39 15.276 38.39C15.598 38.39 17.04 38.418 17.334 38.418H19.14C18.888 38.124 18.286 37.508 18.048 37.298C17.53 36.836 16.914 36.556 16.564 36.388L17.544 35.282C18.58 35.8 19.686 36.71 20.246 37.452L19.308 38.418H21.352C22.262 38.418 23.956 38.334 24.838 38.236V39.72C24.11 39.65 22.15 39.622 21.352 39.622H19.616V42.044H21.338C21.856 42.044 23.48 41.988 23.858 41.932V43.416C23.298 43.374 22.864 43.346 22.57 43.346C21.702 43.346 21.604 43.332 21.24 43.332H19.616V46.286H21.492C22.934 46.286 24.362 46.23 25.132 46.146V47.63ZM40.406 47.574C40.252 47.574 37.354 47.462 36.78 47.462H33.56C33.574 47.532 33.588 47.868 33.588 47.924H32.314C32.328 47.49 32.426 45.488 32.426 45.194V42.814C32.062 43.206 31.908 43.304 31.726 43.43L30.592 42.534C32.272 41.554 33.308 39.692 33.532 38.824C33.35 38.824 32.622 38.852 31.936 38.88C31.978 37.844 31.978 37.802 31.992 36.192C31.922 36.206 31.698 36.234 31.572 36.248C31.362 37.004 30.914 38.026 30.69 38.376C30.942 38.6 30.97 38.614 30.97 38.698C30.97 38.796 30.928 38.824 30.634 39.006C30.564 39.468 30.536 40.798 30.536 40.952V44.648C30.536 44.984 30.536 46.482 30.55 46.79C30.578 47.266 30.606 47.574 30.634 47.98H29.136C29.192 47.63 29.29 47.14 29.332 46.16C29.388 44.9 29.402 44.774 29.402 44.522V40.672C29.192 41.092 28.856 41.596 28.604 41.89L27.302 41.092C29.024 39.58 29.92 37.396 30.48 35.184L31.978 35.814C31.95 35.73 31.936 35.688 31.908 35.562L33.154 35.716C33.448 35.758 33.616 35.786 33.616 35.926C33.616 36.122 33.364 36.206 33.196 36.248C33.168 36.5 33.154 36.626 33.154 37.06V37.76H35.352V36.738C35.352 36.416 35.31 35.324 35.31 35.254L36.78 35.436C36.92 35.45 37.018 35.562 37.018 35.646C37.018 35.758 36.976 35.786 36.626 36.024C36.598 36.234 36.598 36.682 36.598 37.004V37.76H38.656V36.99C38.656 36.808 38.656 36.276 38.614 35.716L39.958 35.87C40.084 35.884 40.322 35.94 40.322 36.094C40.322 36.234 40.112 36.36 39.958 36.43C39.916 36.906 39.916 36.976 39.916 37.284V37.55C39.916 38.334 39.944 38.418 39.958 38.88C39.468 38.852 38.866 38.824 38.012 38.824H36.57L37.676 39.3C37.718 39.314 37.9 39.398 37.9 39.566C37.9 39.762 37.746 39.776 37.452 39.818C37.34 40.042 37.242 40.238 36.99 40.63C37.928 40.63 39.202 40.588 40.126 40.518V41.778C39.65 41.75 39.09 41.722 36.864 41.694V42.618C37.9 42.59 38.642 42.562 39.734 42.534V43.64C39.356 43.612 39.146 43.598 38.194 43.598C37.228 43.598 37.116 43.598 36.864 43.584V44.522C37.634 44.508 37.844 44.508 39.734 44.438V45.6C39.272 45.6 37.27 45.516 36.864 45.516V46.51C37.634 46.51 37.914 46.496 40.406 46.398V47.574ZM35.66 42.632V41.68H33.56V42.632H35.66ZM35.66 44.536V43.57H33.56V44.536H35.66ZM36.528 38.824H33.77L34.778 39.342C34.89 39.398 35.016 39.482 35.016 39.608C35.016 39.79 34.862 39.804 34.512 39.818C34.372 40.112 34.288 40.28 34.092 40.63H35.632C35.856 40.294 36.332 39.454 36.528 38.824ZM35.66 46.51V45.516H33.56V46.51H35.66ZM55.078 47.994H53.496C53.51 47.91 53.552 47.518 53.552 47.434H44.844C44.872 47.686 44.886 47.77 44.914 47.98H43.514C43.612 46.3 43.654 44.284 43.654 44.088V40.14C43.654 38.362 43.64 36.556 43.542 35.576C44.2 35.674 46.58 35.702 47.462 35.702H50.878C52.264 35.702 53.72 35.646 54.98 35.562C54.882 36.584 54.882 38.53 54.882 39.636V43.836C54.882 44.942 54.938 46.972 55.078 47.994ZM53.482 46.314V36.794H44.928V46.314H53.482ZM53.188 40.336C52.516 40.28 51.9 40.252 51.634 40.252V41.61C51.634 41.806 51.662 42.66 51.662 42.828C51.662 43.822 51.662 45.082 51.648 45.152C51.536 45.698 51.018 45.866 50.206 45.866C49.912 45.866 49.702 45.852 49.506 45.824L48.68 44.41C48.89 44.466 49.184 44.536 49.618 44.536C50.374 44.536 50.374 44.424 50.374 43.752V40.224H47.966C47.91 40.224 46.09 40.238 45.376 40.336V39.034C46.006 39.118 47.644 39.146 47.966 39.146H50.374V38.432C50.374 38.264 50.36 37.522 50.332 37.06L51.634 37.116C51.844 37.13 51.984 37.13 51.984 37.326C51.984 37.424 51.942 37.452 51.676 37.704C51.648 38.404 51.634 38.53 51.634 38.88V39.118C52.544 39.09 52.656 39.09 53.188 39.034V40.336ZM48.988 43.444L47.784 44.354C47.238 43.108 46.3 42.156 45.95 41.862L47 41.064C47.294 41.274 48.33 42.254 48.988 43.444ZM71.094 43.836L70.002 44.802C68.238 43.626 67.23 42.03 66.796 41.232V44.368H67.118C67.51 44.368 68.378 44.368 68.952 44.256V45.6C68.28 45.488 67.398 45.488 67.118 45.488H66.824C66.852 46.608 66.852 46.902 66.936 47.994H65.396C65.466 46.804 65.466 46.636 65.48 45.488H65.284C64.388 45.488 64.08 45.488 63.352 45.6V44.256C63.898 44.34 64.458 44.368 65.2 44.368H65.494V41.288C64.57 42.884 63.142 44.2 62.218 44.984L60.944 44.074C61.476 43.738 62.666 43.01 63.73 41.568C64.164 40.98 64.738 40.028 65.102 39.16H64.626C64.262 39.16 62.624 39.188 61.938 39.244V37.984C62.582 38.026 63.954 38.054 64.682 38.054H65.48C65.466 36.164 65.452 35.954 65.396 35.268L67.048 35.436C67.146 35.45 67.216 35.534 67.216 35.632C67.216 35.758 67.118 35.814 66.866 35.982C66.824 37.242 66.81 37.508 66.81 38.054H67.454C68.336 38.054 69.19 38.04 70.226 37.984V39.244C69.554 39.188 69.148 39.16 67.412 39.16H67.118C67.188 39.328 67.888 40.994 68.966 42.184C69.834 43.122 70.66 43.598 71.094 43.836ZM62.386 35.968C62.386 36.052 62.344 36.08 62.316 36.094C62.246 36.136 62.036 36.206 61.938 36.248C61.532 37.354 61.434 37.62 61.014 38.39C61.126 38.474 61.238 38.586 61.238 38.698C61.238 38.782 61.21 38.852 60.958 39.034C60.958 39.356 60.93 40.84 60.93 41.134V44.354C60.93 45.558 60.93 46.944 61.028 47.994H59.488C59.572 47.028 59.6 44.34 59.6 43.304V40.56C59.222 41.022 58.97 41.302 58.76 41.54L57.64 40.756C59.068 39.44 60.566 37.144 60.902 35.156L62.218 35.786C62.33 35.842 62.386 35.884 62.386 35.968ZM84.352 38.138C82.21 38.656 80.348 38.698 79.676 38.698C79.41 38.698 79.214 38.684 78.85 38.656L78.808 37.298C79.228 37.368 79.746 37.452 80.516 37.452C82.336 37.452 83.414 37.102 84.352 36.78V38.138ZM85.038 44.536L84.898 46.048C83.372 46.258 82.308 46.272 81.958 46.272C80.796 46.272 78.122 46.258 78.332 43.122L79.578 43.248C79.452 44.83 80.628 44.998 81.846 44.998C83.05 44.998 84.156 44.746 85.038 44.536ZM77.114 43.43C76.61 44.83 76.414 45.74 76.302 46.874L75.392 47.126C74.552 45.39 74.314 43.178 74.314 42.072C74.314 41.106 74.468 39.65 74.566 39.118C74.678 38.516 75.028 36.626 75.126 36.164L76.554 36.598C76.778 36.668 76.89 36.71 76.89 36.85C76.89 37.046 76.68 37.144 76.456 37.256C75.826 38.74 75.56 40.476 75.56 42.1C75.56 43.388 75.742 44.06 75.84 44.368C76.106 43.668 76.26 43.276 76.61 42.506L77.114 43.43ZM100.466 41.05C100.466 43.416 98.016 45.992 93.886 46.286L93.158 44.844C94.726 44.886 96.308 44.578 97.61 43.71C98.408 43.178 99.08 42.24 99.08 41.092C99.08 38.922 96.896 38.586 96.14 38.586C95.272 38.586 94.194 38.95 93.424 39.216C92.878 39.398 90.484 40.28 89.994 40.448C89.84 40.826 89.784 40.98 89.602 40.98C89.532 40.98 89.49 40.98 89.294 40.602L88.538 39.16C89.182 39.062 90.008 38.936 91.492 38.516C94.754 37.578 95.314 37.424 96.392 37.424C97.61 37.424 98.604 37.732 99.486 38.67C100.256 39.496 100.466 40.322 100.466 41.05ZM115.614 43.136L114.06 43.612C114.018 42.408 113.724 41.232 113.206 40.14C112.478 38.614 112.156 38.222 111.89 37.9L113.164 37.298C114.606 39.048 115.53 41.89 115.614 43.136ZM109.118 43.29C108.838 44.55 108.278 46.524 107.214 46.524C106.472 46.524 105.842 45.838 105.59 45.544C104.54 44.298 104.078 42.898 104.078 40.658C104.078 40.112 104.106 39.86 104.358 37.592C104.372 37.536 104.386 37.284 104.4 37.228L105.674 37.676C105.954 37.774 106.108 37.83 106.108 37.97C106.108 38.096 105.954 38.166 105.758 38.264C105.646 38.698 105.436 39.538 105.436 40.756C105.436 43.052 106.388 44.774 107.06 44.774C107.732 44.774 108.152 43.192 108.306 42.436L109.118 43.29ZM130.216 37.494C127.374 37.55 125.162 39.832 124.462 41.554C124.308 41.932 124.14 42.478 124.14 43.08C124.14 44.676 125.708 45.544 126.744 45.852C127.36 46.034 127.794 46.02 128.2 46.02L127.766 47.504C126.128 47.196 124.91 46.804 123.916 45.81C123.118 45.026 122.754 44.088 122.754 43.094C122.754 42.002 123.286 40.826 123.958 39.902C124.756 38.81 125.582 38.25 126.142 37.872C124.532 38.026 121.508 38.32 119.492 38.908L119.31 37.326C120.794 37.326 121.998 37.284 124.714 36.948C126.562 36.71 128.424 36.458 130.216 35.996V37.494Z" fill="black"/>
<path d="M69.3385 23.3601C67.6958 23.3601 66.3838 22.8907 65.4025 21.952C64.4425 20.992 63.9625 19.7014 63.9625 18.08V9.37605H59.0985V5.76005H63.9625V0.800049H67.9945V5.76005H75.0025V9.37605H67.9945V17.9841C67.9945 18.4961 68.1332 18.9227 68.4105 19.264C68.7092 19.584 69.1145 19.744 69.6265 19.744H74.8425V23.3601H69.3385Z" fill="black"/>
<path d="M67.9945 9.37601H63.9625H59.0985V5.76001H63.9625H67.9945H75.0025V9.37601H67.9945Z" fill="#F9004B"/>
<path d="M46.695 23.6479C44.6043 23.6479 42.951 23.1786 41.735 22.2399C40.519 21.2799 39.911 19.9893 39.911 18.3679H43.847C43.847 19.0506 44.0923 19.5733 44.583 19.9359C45.095 20.2986 45.799 20.4799 46.695 20.4799H48.103C49.063 20.4799 49.799 20.2986 50.311 19.9359C50.8443 19.5733 51.111 19.0506 51.111 18.3679C51.111 17.7279 50.9297 17.2586 50.567 16.9599C50.2043 16.6399 49.6497 16.4266 48.903 16.3199L44.519 15.7439C43.111 15.5519 42.023 15.0079 41.255 14.1119C40.5083 13.2159 40.135 12.0533 40.135 10.6239C40.135 8.95992 40.6897 7.69059 41.799 6.81592C42.9083 5.91992 44.5083 5.47192 46.599 5.47192H48.071C50.0337 5.47192 51.6123 5.91992 52.807 6.81592C54.0017 7.71192 54.6203 8.90659 54.663 10.3999H50.695C50.6737 9.84526 50.4283 9.40792 49.959 9.08792C49.4897 8.74659 48.8603 8.57592 48.071 8.57592H46.599C45.7457 8.57592 45.095 8.75726 44.647 9.11992C44.199 9.46126 43.975 9.93059 43.975 10.5279C43.975 11.0613 44.135 11.4559 44.455 11.7119C44.7963 11.9679 45.287 12.1279 45.927 12.1919L50.055 12.7679C51.6763 12.9599 52.8923 13.5359 53.703 14.4959C54.535 15.4346 54.951 16.7039 54.951 18.3039C54.951 20.0106 54.3643 21.3333 53.191 22.2719C52.039 23.1893 50.343 23.6479 48.103 23.6479H46.695Z" fill="black"/>
<path d="M27.2835 23.6479C25.0222 23.6479 23.2302 23.0186 21.9075 21.7599C20.5849 20.4799 19.9235 18.7626 19.9235 16.6079V12.5119C19.9235 10.3359 20.5849 8.61859 21.9075 7.35992C23.2302 6.10126 25.0222 5.47192 27.2835 5.47192C29.5449 5.47192 31.3369 6.10126 32.6595 7.35992C33.9822 8.61859 34.6435 10.3359 34.6435 12.5119V16.6079C34.6435 18.7626 33.9822 20.4799 32.6595 21.7599C31.3369 23.0186 29.5449 23.6479 27.2835 23.6479ZM27.2835 20.1599C28.3502 20.1599 29.1715 19.8719 29.7475 19.2959C30.3449 18.6986 30.6435 17.8453 30.6435 16.7359V12.3839C30.6435 11.2746 30.3449 10.4319 29.7475 9.85592C29.1715 9.25859 28.3502 8.95992 27.2835 8.95992C26.2169 8.95992 25.3849 9.25859 24.7875 9.85592C24.2115 10.4319 23.9235 11.2746 23.9235 12.3839V16.7359C23.9235 17.8453 24.2115 18.6986 24.7875 19.2959C25.3849 19.8719 26.2169 20.1599 27.2835 20.1599Z" fill="black"/>
<path d="M0 23.36V0H4V9.472H10.272V0H14.272V23.36H10.272V13.088H4V23.36H0Z" fill="black"/>
<path d="M4 23.36H0V0H4V9.472V13.088V23.36Z" fill="#F9004B"/>
</svg>
