<svg width="1216" height="786" viewBox="0 0 1216 786" fill="none" xmlns="http://www.w3.org/2000/svg">
<g id="floor-B1">
<rect id="bg" width="1216" height="786" fill="white"/>
<rect id="toilet" x="148" y="598" width="186" height="133" fill="#CDCDCD"/>
<g id="elevator">
<path d="M12 598H88V674H12V598Z" fill="#CDCDCD"/>
<path d="M12 598H88V674H12V598Z" fill="#CDCDCD"/>
<path d="M12 598H88V674H12V598Z" fill="#CDCDCD"/>
<path d="M12 598H88V674H12V598Z" fill="#CDCDCD"/>
</g>
<line id="Line 32" x1="537.015" y1="482.495" x2="746.015" y2="482.495" stroke="black"/>
<line id="Line 38" x1="542.377" y1="51.6711" x2="804.377" y2="351.671" stroke="black"/>
<line id="Line 36" x1="610" y1="410.5" x2="738" y2="410.5" stroke="black"/>
<line id="Line 37" x1="668" y1="464.5" x2="754" y2="464.5" stroke="black"/>
<line id="Line 33" x1="564.015" y1="568.495" x2="804.015" y2="568.495" stroke="black"/>
<line id="Line 34" x1="745.427" y1="482.712" x2="804.427" y2="568.712" stroke="black"/>
<line id="Line 35" x1="564.54" y1="568.15" x2="536.525" y2="482.155" stroke="black"/>
<line id="Line 16" x1="12" y1="595.5" x2="1160" y2="595.5" stroke="black"/>
<line id="Line 21" x1="11.5" y1="596" x2="11.5" y2="569" stroke="black"/>
<line id="Line 26" x1="363" y1="569.5" x2="12" y2="569.5" stroke="black"/>
<line id="Line 27" x1="362.5" y1="569" x2="362.5" y2="200" stroke="black"/>
<line id="Line 28" x1="430" y1="200.5" x2="363" y2="200.5" stroke="black"/>
<line id="Line 29" x1="429.525" y1="200.156" x2="380.525" y2="51.1562" stroke="black"/>
<path id="booth-boardgame" d="M405 80H548.579L777 341.299L716.865 393H511.286L405 80Z" fill="#00FFB2"/>
<line id="Line 30" x1="543" y1="51.5" x2="381" y2="51.5" stroke="black"/>
<path id="Line 31" d="M724.738 51.3228L1008 388" stroke="black"/>
<path id="Line 32_2" d="M724.738 51.3228L1008.4 387.663" stroke="black"/>
<line id="Line 33_2" x1="889" y1="387.5" x2="1008" y2="387.5" stroke="black"/>
<line id="Line 39" x1="889" y1="473.5" x2="1058" y2="473.5" stroke="black"/>
<path id="Line 40" d="M1160 595L1056.92 473.992" stroke="black"/>
<path id="booth-pingpong" d="M889 484H1053L1140 588H889V484Z" fill="#EBFF51"/>
<path id="B2F" d="M715.84 149.78C715.84 151.96 714.34 154 711.28 154H704.84V139.4H711.16C713.18 139.4 715.2 140.44 715.2 142.98C715.2 145.22 713.66 145.9 713.02 146.18C713.68 146.34 715.84 146.9 715.84 149.78ZM712.88 143.36C712.88 141.78 711.6 141.4 710.5 141.4H707.06V145.34H710.5C711.82 145.34 712.88 144.82 712.88 143.36ZM713.54 149.64C713.54 148.34 712.64 147.34 711 147.34H707.06V152H711C712.5 152 713.54 151.14 713.54 149.64ZM728.751 143.26C728.751 145.42 727.651 146.36 724.731 148.5C722.671 150 721.791 150.7 721.331 152.06H728.691V154H718.971C719.271 150.62 719.891 149.88 723.531 147.06C725.951 145.18 726.571 144.54 726.571 143.24C726.571 142.12 725.891 140.88 724.031 140.88C721.571 140.88 721.491 143.06 721.451 144.16H719.331C719.411 142.96 719.511 141.9 720.271 140.78C721.311 139.26 723.071 138.94 724.171 138.94C726.791 138.94 728.751 140.68 728.751 143.26ZM742.585 141.4H734.865V145.5H741.585V147.5H734.865V154H732.645V139.4H742.585V141.4Z" fill="black"/>
<path id="1F" d="M665.22 446H663.1V435.56H659.98V434.16C663.12 434.02 663.56 432.48 663.84 431.4H665.22V446ZM682.293 433.4H674.573V437.5H681.293V439.5H674.573V446H672.353V431.4H682.293V433.4Z" fill="black"/>
<g id="arrows">
<path id="Vector" d="M742.502 174.33L759.346 176.398L758.975 179.416L745.149 177.718L743.451 191.544L740.433 191.174L742.502 174.33Z" fill="#1F1F1F"/>
<path id="Vector_2" d="M736.13 166.174L752.974 168.242L752.603 171.26L738.777 169.563L737.079 183.389L734.061 183.018L736.13 166.174Z" fill="#1F1F1F"/>
</g>
<g id="arrows_2">
<path id="Vector_3" d="M701.2 437L713.2 425L715.35 427.15L705.5 437L715.35 446.85L713.2 449L701.2 437Z" fill="#1F1F1F"/>
<path id="Vector_4" d="M690.85 437L702.85 425L705 427.15L695.15 437L705 446.85L702.85 449L690.85 437Z" fill="#1F1F1F"/>
</g>
</g>
</svg>
