<svg width="1216" height="786" viewBox="0 0 1216 786" fill="none" xmlns="http://www.w3.org/2000/svg">
<g id="map-B2F">
<rect id="bg" width="1216" height="786" fill="white"/>
<line id="Line 7" x1="60.5" y1="340" x2="60.5" y2="617" stroke="black"/>
<line id="Line 8" x1="352" y1="49.5" x2="782" y2="49.5" stroke="black"/>
<line id="Line 26" x1="352.5" y1="50" x2="352.5" y2="340" stroke="black"/>
<line id="Line 27" x1="60" y1="339.5" x2="352" y2="339.5" stroke="black"/>
<line id="Line 14" x1="782.384" y1="49.6794" x2="970.384" y2="274.679" stroke="black"/>
<line id="Line 21" x1="687.377" y1="150.671" x2="886.377" y2="378.671" stroke="black"/>
<line id="Line 22" x1="886" y1="378.5" x2="945" y2="378.5" stroke="black"/>
<line id="Line 23" x1="944.5" y1="477" x2="944.5" y2="379" stroke="black"/>
<line id="Line 24" x1="1086" y1="477.5" x2="945" y2="477.5" stroke="black"/>
<line id="Line 25" x1="1016.5" y1="476" x2="1016.5" y2="617" stroke="black"/>
<line id="Line 10" x1="626" y1="616.5" x2="1086" y2="616.5" stroke="black"/>
<line id="Line 11" x1="60" y1="616.5" x2="490" y2="616.5" stroke="black"/>
<line id="Line 20" x1="60" y1="562.5" x2="351" y2="562.5" stroke="black"/>
<line id="Line 19" x1="490" y1="755.5" x2="626" y2="755.5" stroke="black"/>
<line id="Line 12" x1="626.5" y1="617" x2="626.5" y2="756" stroke="black"/>
<line id="Line 28" x1="591" y1="482.5" x2="800" y2="482.5" stroke="black"/>
<line id="Line 30" x1="618" y1="568.5" x2="858" y2="568.5" stroke="black"/>
<line id="Line 31" x1="799.412" y1="482.717" x2="858.412" y2="568.717" stroke="black"/>
<line id="Line 29" x1="618.525" y1="568.155" x2="590.51" y2="482.16" stroke="black"/>
<line id="Line 18" x1="490.5" y1="617" x2="490.5" y2="756" stroke="black"/>
<g id="elevator">
<path d="M60 617H131V688H60V617Z" fill="#B4B4B4"/>
<path d="M60 617H131V688H60V617Z" fill="#B4B4B4"/>
<path d="M60 617H131V688H60V617Z" fill="#B4B4B4"/>
<path d="M60 617H131V688H60V617Z" fill="#B4B4B4"/>
</g>
<rect id="toilet" x="213" y="617" width="171" height="122" fill="#B4B4B4"/>
<rect id="circle-booth-1" x="679.053" y="174" width="65.9845" height="55.2418" transform="rotate(48 679.053 174)" fill="#FA9E9E"/>
<rect id="circle-booth-2" x="723.053" y="223" width="65.9845" height="55.2418" transform="rotate(48 723.053 223)" fill="#FA9E9E"/>
<rect id="circle-booth-3" x="767.053" y="272" width="65.9845" height="55.2418" transform="rotate(48 767.053 272)" fill="#FA9E9E"/>
<rect id="circle-booth-4" x="696" y="400" width="65.9845" height="55.2418" fill="#FA9E9E"/>
<rect id="circle-booth-5" x="630" y="400" width="65.9845" height="55.2418" fill="#FA9E9E"/>
<rect id="circle-booth-6" x="564" y="400" width="65.9845" height="55.2418" fill="#FA9E9E"/>
<rect id="circle-booth-7" x="270" y="503" width="65.9845" height="55.2418" fill="#FA9E9E"/>
<rect id="circle-booth-8" x="501" y="67" width="65.9845" height="55.2418" fill="#FA9E9E"/>
<rect id="circle-booth-9" x="435" y="67" width="65.9845" height="55.2418" fill="#FA9E9E"/>
<rect id="circle-booth-10" x="366" y="187.984" width="65.9845" height="55.2418" transform="rotate(-90 366 187.984)" fill="#FA9E9E"/>
<rect id="circle-booth-11" x="366" y="253.984" width="65.9845" height="55.2418" transform="rotate(-90 366 253.984)" fill="#FA9E9E"/>
<rect id="circle-booth-12" x="366" y="319.984" width="65.9845" height="55.2418" transform="rotate(-90 366 319.984)" fill="#FA9E9E"/>
<rect id="circle-booth-13" x="307" y="344" width="65.9845" height="55.2418" fill="#FA9E9E"/>
<rect id="circle-booth-14" x="241" y="344" width="65.9845" height="55.2418" fill="#FA9E9E"/>
<rect id="circle-booth-15" x="133" y="344" width="65.9845" height="55.2418" fill="#FA9E9E"/>
<rect id="circle-booth-16" x="65" y="451.984" width="65.9845" height="55.2418" transform="rotate(-90 65 451.984)" fill="#FA9E9E"/>
<rect id="circle-booth-17" x="65" y="517.984" width="65.9845" height="55.2418" transform="rotate(-90 65 517.984)" fill="#FA9E9E"/>
<rect id="circle-booth-18" x="138" y="503" width="65.9845" height="55.2418" fill="#FA9E9E"/>
<rect id="circle-booth-19" x="204" y="503" width="65.9845" height="55.2418" fill="#FA9E9E"/>
</g>
</svg>
