<svg width="1216" height="786" viewBox="0 0 1216 786" fill="none" xmlns="http://www.w3.org/2000/svg">
<g id="floor-1">
<rect id="bg" width="1216" height="786" fill="white"/>
<line id="Line 41" x1="531" y1="37.5" x2="594" y2="37.5" stroke="black"/>
<line id="Line 44" x1="486.5" y1="38" x2="486.5" y2="525" stroke="black"/>
<line id="Line 45" x1="486" y1="525.5" x2="224" y2="525.5" stroke="black"/>
<line id="Line 48" x1="223.5" y1="573" x2="223.5" y2="525" stroke="black"/>
<line id="Line 46" x1="521" y1="573.5" x2="223" y2="573.5" stroke="black"/>
<line id="Line 47" x1="520.5" y1="709" x2="520.5" y2="573" stroke="black"/>
<line id="Line 42" x1="704.625" y1="374.979" x2="592.785" y2="38.3617" stroke="black"/>
<line id="Line 43" x1="790.15" y1="650.193" x2="716.686" y2="427.609" stroke="black"/>
<line id="Line 44_2" x1="808" y1="708.5" x2="521" y2="708.5" stroke="black"/>
<line id="Line 45_2" x1="847" y1="428.5" x2="716" y2="428.5" stroke="black"/>
<line id="Line 47_2" x1="527.5" y1="402" x2="527.5" y2="313" stroke="black"/>
<line id="Line 48_2" x1="562.5" y1="402" x2="562.5" y2="313" stroke="black"/>
<line id="Line 46_2" x1="836" y1="375.5" x2="704" y2="375.5" stroke="black"/>
<rect id="toilet" x="330" y="577" width="179" height="128" fill="#CDCDCD"/>
<rect id="reception" x="698" y="507.18" width="32.943" height="99.6737" transform="rotate(-18 698 507.18)" fill="#AEC5FF"/>
<rect id="reception_2" x="493" y="168.608" width="34.8347" height="105.397" transform="rotate(-1 493 168.608)" fill="#AEC5FF"/>
<g id="elevator">
<path d="M224 577H288V641H224V577Z" fill="#CDCDCD"/>
<path d="M224 577H288V641H224V577Z" fill="#CDCDCD"/>
<path d="M224 577H288V641H224V577Z" fill="#CDCDCD"/>
<path d="M224 577H288V641H224V577Z" fill="#CDCDCD"/>
</g>
<path id="B1F" d="M803.84 407.78C803.84 409.96 802.34 412 799.28 412H792.84V397.4H799.16C801.18 397.4 803.2 398.44 803.2 400.98C803.2 403.22 801.66 403.9 801.02 404.18C801.68 404.34 803.84 404.9 803.84 407.78ZM800.88 401.36C800.88 399.78 799.6 399.4 798.5 399.4H795.06V403.34H798.5C799.82 403.34 800.88 402.82 800.88 401.36ZM801.54 407.64C801.54 406.34 800.64 405.34 799 405.34H795.06V410H799C800.5 410 801.54 409.14 801.54 407.64ZM812.311 412H810.191V401.56H807.071V400.16C810.211 400.02 810.651 398.48 810.931 397.4H812.311V412ZM828.185 399.4H820.465V403.5H827.185V405.5H820.465V412H818.245V397.4H828.185V399.4Z" fill="black"/>
<path id="2F" d="M543.368 346.408C543.368 348.136 542.488 348.888 540.152 350.6C538.504 351.8 537.8 352.36 537.432 353.448H543.32V355H535.544C535.784 352.296 536.28 351.704 539.192 349.448C541.128 347.944 541.624 347.432 541.624 346.392C541.624 345.496 541.08 344.504 539.592 344.504C537.624 344.504 537.56 346.248 537.528 347.128H535.832C535.896 346.168 535.976 345.32 536.584 344.424C537.416 343.208 538.824 342.952 539.704 342.952C541.8 342.952 543.368 344.344 543.368 346.408ZM553.475 344.92H547.299V348.2H552.675V349.8H547.299V355H545.523V343.32H553.475V344.92Z" fill="black"/>
<g id="arrows">
<path id="Vector" d="M767.667 404L757.667 414L755.875 412.208L764.083 404L755.875 395.792L757.667 394L767.667 404Z" fill="#1F1F1F"/>
<path id="Vector_2" d="M776.292 404L766.292 414L764.5 412.208L772.708 404L764.5 395.792L766.292 394L776.292 404Z" fill="#1F1F1F"/>
</g>
<g id="arrows_2">
<path id="Vector_3" d="M545.5 369.542L554.25 378.292L552.682 379.859L545.5 372.677L538.318 379.859L536.75 378.292L545.5 369.542Z" fill="#1F1F1F"/>
<path id="Vector_4" d="M545.5 361.995L554.25 370.745L552.682 372.312L545.5 365.13L538.318 372.312L536.75 370.745L545.5 361.995Z" fill="#1F1F1F"/>
</g>
<path id="Polygon 2" d="M665.412 566.786L556.329 531.899L655.585 482.763L665.412 566.786Z" stroke="black"/>
</g>
</svg>
