<svg width="1216" height="707" viewBox="0 0 1216 707" fill="none" xmlns="http://www.w3.org/2000/svg">
<g id="map-B2F">
<line id="Line 7" x1="0.5" y1="291" x2="0.500012" y2="568" stroke="black"/>
<line id="Line 8" x1="292" y1="0.5" x2="722" y2="0.499962" stroke="black"/>
<line id="Line 26" x1="292.5" y1="1" x2="292.5" y2="291" stroke="black"/>
<line id="Line 27" x1="4.37114e-08" y1="290.5" x2="292" y2="290.5" stroke="black"/>
<line id="Line 14" x1="722.384" y1="0.679405" x2="910.384" y2="225.679" stroke="black"/>
<line id="Line 21" x1="627.377" y1="101.671" x2="826.377" y2="329.671" stroke="black"/>
<line id="Line 22" x1="826" y1="329.5" x2="885" y2="329.5" stroke="black"/>
<line id="Line 23" x1="884.5" y1="428" x2="884.5" y2="330" stroke="black"/>
<line id="Line 24" x1="1026" y1="428.5" x2="885" y2="428.5" stroke="black"/>
<line id="Line 25" x1="1026.5" y1="427" x2="1026.5" y2="568" stroke="black"/>
<line id="Line 10" x1="566" y1="567.5" x2="1026" y2="567.5" stroke="black"/>
<line id="Line 11" x1="4.37114e-08" y1="567.5" x2="430" y2="567.5" stroke="black"/>
<line id="Line 20" x1="4.37114e-08" y1="513.5" x2="291" y2="513.5" stroke="black"/>
<line id="Line 19" x1="430" y1="706.5" x2="566" y2="706.5" stroke="black"/>
<line id="Line 12" x1="566.5" y1="568" x2="566.5" y2="707" stroke="black"/>
<line id="Line 28" x1="531" y1="433.5" x2="740" y2="433.5" stroke="black"/>
<line id="Line 30" x1="558" y1="519.5" x2="798" y2="519.5" stroke="black"/>
<line id="Line 31" x1="739.412" y1="433.717" x2="798.412" y2="519.717" stroke="black"/>
<line id="Line 29" x1="558.525" y1="519.155" x2="530.51" y2="433.16" stroke="black"/>
<line id="Line 18" x1="430.5" y1="568" x2="430.5" y2="707" stroke="black"/>
<g id="elevator">
<path d="M0 568H71V639H0V568Z" fill="#B4B4B4"/>
<path d="M0 568H71V639H0V568Z" fill="#B4B4B4"/>
<path d="M0 568H71V639H0V568Z" fill="#B4B4B4"/>
<path d="M0 568H71V639H0V568Z" fill="#B4B4B4"/>
</g>
<rect id="toilet" x="153" y="568" width="171" height="122" fill="#B4B4B4"/>
<rect id="circle-booth-1" x="619.053" y="125" width="65.9845" height="55.2418" transform="rotate(48 619.053 125)" fill="#FA9E9E"/>
<rect id="circle-booth-2" x="663.053" y="174" width="65.9845" height="55.2418" transform="rotate(48 663.053 174)" fill="#FA9E9E"/>
<rect id="circle-booth-3" x="707.053" y="223" width="65.9845" height="55.2418" transform="rotate(48 707.053 223)" fill="#FA9E9E"/>
<rect id="circle-booth-4" x="636" y="351" width="65.9845" height="55.2418" fill="#FA9E9E"/>
<rect id="circle-booth-5" x="570" y="351" width="65.9845" height="55.2418" fill="#FA9E9E"/>
<rect id="circle-booth-6" x="504" y="351" width="65.9845" height="55.2418" fill="#FA9E9E"/>
<rect id="circle-booth-7" x="210" y="458" width="65.9845" height="55.2418" fill="#FA9E9E"/>
<rect id="circle-booth-8" x="441" y="18" width="65.9845" height="55.2418" fill="#FA9E9E"/>
<rect id="circle-booth-9" x="375" y="18" width="65.9845" height="55.2418" fill="#FA9E9E"/>
<rect id="circle-booth-10" x="306" y="138.984" width="65.9845" height="55.2418" transform="rotate(-90 306 138.984)" fill="#FA9E9E"/>
<rect id="circle-booth-11" x="306" y="204.984" width="65.9845" height="55.2418" transform="rotate(-90 306 204.984)" fill="#FA9E9E"/>
<rect id="circle-booth-12" x="306" y="270.984" width="65.9845" height="55.2418" transform="rotate(-90 306 270.984)" fill="#FA9E9E"/>
<rect id="circle-booth-13" x="247" y="291" width="65.9845" height="55.2418" fill="#FA9E9E"/>
<rect id="circle-booth-14" x="181" y="291" width="65.9845" height="55.2418" fill="#FA9E9E"/>
<rect id="circle-booth-15" x="73" y="291" width="65.9845" height="55.2418" fill="#FA9E9E"/>
<rect id="circle-booth-16" x="1" y="402.984" width="65.9845" height="55.2418" transform="rotate(-90 1 402.984)" fill="#FA9E9E"/>
<rect id="circle-booth-17" x="1" y="468.984" width="65.9845" height="55.2418" transform="rotate(-90 1 468.984)" fill="#FA9E9E"/>
<rect id="circle-booth-18" x="78" y="458" width="65.9845" height="55.2418" fill="#FA9E9E"/>
<rect id="circle-booth-19" x="144" y="458" width="65.9845" height="55.2418" fill="#FA9E9E"/>
</g>
</svg>
