<svg width="210" height="82" viewBox="0 0 210 82" fill="none" xmlns="http://www.w3.org/2000/svg">
<path d="M143.248 44.936C147.28 40.392 152.016 33.544 154.192 28.744C154.832 27.336 155.216 26.312 155.408 24.904C155.536 23.944 155.728 23.688 156.048 23.688C156.304 23.688 156.688 23.88 157.072 24.072C158.608 24.776 160.336 25.48 161.808 26.248C162.256 26.504 162.832 26.696 162.832 27.272C162.832 27.72 162.448 27.976 162 28.04C161.232 28.168 160.784 28.296 160.208 29.128L159.504 30.088C159.056 30.792 159.44 31.176 160.144 31.176H165.136C165.968 31.176 166.48 30.984 166.8 30.6L167.312 30.024C168.144 29 168.464 28.616 168.912 28.616C169.808 28.616 173.904 32.712 173.904 34.12C173.904 34.696 173.712 35.08 172.304 35.464C171.408 35.656 171.088 36.168 169.68 38.28C165.072 45 161.744 49.096 156.368 53.448C152.08 56.904 147.408 59.208 142.672 60.552C142.032 60.744 141.52 60.808 141.392 60.808C141.2 60.808 141.072 60.744 141.072 60.552C141.072 60.36 141.328 60.168 141.712 59.976C146 57.608 149.52 54.792 152.464 52.04C153.616 50.888 154.832 49.992 153.36 49.224C152.656 48.84 152.272 48.072 151.952 46.792C151.632 45.384 150.864 43.464 150.416 42.76C149.712 41.672 148.816 41.928 148.176 42.504C146.704 43.784 145.04 44.936 143.696 45.832C142.992 46.28 142.608 46.408 142.416 46.408C142.288 46.408 142.224 46.28 142.224 46.216C142.224 46.088 142.288 46.024 143.248 44.936ZM201.552 55.304C198.992 56.136 197.008 57.48 195.792 58.888C195.472 59.336 195.28 59.528 194.96 59.528C194.64 59.528 194.32 59.336 193.616 58.824C183.056 50.632 176.656 41.288 172.88 26.312C172.496 24.776 172.56 24.392 172.88 24.392C173.2 24.392 173.392 24.648 173.968 25.992C176.976 32.904 180.112 38.088 183.312 41.928C184.016 42.76 184.912 42.696 185.552 41.8C187.472 39.368 189.2 36.872 190.672 33.992C191.184 33.032 190.672 32.52 189.648 32.52H186.768C185.68 32.52 182.864 32.712 181.52 32.84C180.944 32.904 180.752 32.904 180.56 32.904C180.304 32.904 180.048 32.584 179.856 32.328L178.832 31.112C178.576 30.792 178.448 30.6 178.448 30.536C178.448 30.408 178.64 30.408 178.704 30.408H178.832C180.496 30.6 184.08 30.856 186.256 30.856H189.072C189.904 30.856 190.48 30.536 190.992 29.896L191.376 29.384C192.336 28.04 192.848 27.464 193.296 27.464C193.616 27.464 194.192 27.848 194.832 28.296L198.416 30.984C199.376 31.752 200.592 32.776 200.592 33.544C200.592 34.376 200.08 34.76 198.48 34.824C197.136 34.824 196.56 35.144 195.408 36.104C194.448 36.872 192.4 38.664 190.16 40.456L186.896 43.144C185.488 44.36 186.256 45 187.472 45.96C191.888 49.672 196.432 52.552 201.68 54.152C202.512 54.408 202.576 54.536 202.576 54.728C202.576 54.984 202.32 55.048 201.552 55.304ZM165.904 34.44C166.416 33.352 166.16 32.84 165.136 32.84H158.608C157.776 32.84 157.2 33.096 156.624 33.8C155.92 34.632 156.688 34.888 157.904 35.272C159.696 35.848 161.488 36.936 162.064 38.6C162.384 39.368 162.64 40.072 163.216 39.176C164.112 37.832 165.072 36.168 165.904 34.44ZM157.904 46.152C158.48 45.512 159.312 44.488 159.568 44.168C160.4 43.144 160.272 42.696 159.312 42.184C158.608 41.8 158.096 40.904 157.648 39.432C157.328 38.28 156.944 37.256 156.368 36.488C155.728 35.656 155.024 35.72 154.192 36.616C153.488 37.32 152.784 38.088 152.08 38.856L150.864 40.072C149.968 40.968 151.056 41.288 152.336 41.864C154.704 42.888 156.24 44.488 156.624 45.896C156.88 46.792 157.2 46.984 157.904 46.152ZM179.664 52.04H171.024C169.296 52.04 164.816 52.104 164.176 52.232L163.28 52.36C163.024 52.36 162.832 52.104 162.704 51.912L161.488 50.504C161.296 50.312 161.168 50.184 161.168 50.12C161.168 49.992 161.296 49.928 161.424 49.928H161.552C164.688 50.312 169.04 50.376 171.152 50.376H172.432C174.032 50.376 174.48 49.928 175.44 48.52C176.464 46.984 177.104 46.28 177.552 46.28C178.384 46.28 183.056 49.8 183.056 51.08C183.056 51.976 182.096 52.04 179.664 52.04ZM174.8 62.984V70.024L174.864 74.696C174.864 77.064 174.8 78.728 173.584 79.944C172.368 81.16 170.384 81.928 168.528 81.928C167.632 81.928 167.376 81.608 167.056 80.84C166.096 78.472 164.496 77.576 161.68 76.552C161.232 76.36 161.104 76.232 161.104 76.04C161.104 75.848 161.36 75.784 161.552 75.784C162.064 75.784 164.56 76.104 166.032 76.104C169.36 76.104 169.616 75.336 169.616 72.008V62.984C169.616 61.96 169.04 61.384 168.016 61.384H161.808C159.888 61.384 155.536 61.448 154.384 61.576L153.168 61.704C152.912 61.704 152.784 61.576 152.592 61.32L151.312 59.848C151.184 59.72 151.056 59.528 151.056 59.4C151.056 59.272 151.12 59.272 151.312 59.272H151.44C153.808 59.528 159.824 59.72 162.896 59.72H180.048C181.712 59.72 182.096 59.272 183.12 57.864C184.592 55.944 185.168 55.368 185.616 55.368C186.512 55.368 191.44 59.656 191.44 60.552C191.44 61.384 190.032 61.384 188.048 61.384H176.4C175.376 61.384 174.8 61.96 174.8 62.984ZM144.784 78.984C148.752 76.232 153.04 72.328 155.92 68.232C156.816 66.952 156.944 66.568 157.136 65.288C157.2 64.904 157.392 64.52 157.776 64.52C158.032 64.52 158.416 64.776 158.992 65.16C159.824 65.736 162 67.208 162.768 67.784C163.6 68.36 164.048 68.552 164.048 69.32C164.048 69.896 163.664 70.216 162.96 70.344C162 70.536 161.296 71.112 160.272 71.88C155.728 75.272 151.184 77.704 146.064 79.56C145.36 79.816 144.4 80.072 144.144 80.072C143.952 80.072 143.888 79.944 143.888 79.816C143.888 79.688 144.144 79.432 144.784 78.984ZM190.736 69.576C195.152 72.008 196.176 74.504 196.176 76.488C196.176 78.024 195.472 79.88 193.36 79.88C191.888 79.88 191.184 79.304 189.84 77.192C186.512 72.072 183.696 69.448 178.832 66.184C178.384 65.864 178.256 65.736 178.256 65.672C178.256 65.544 178.384 65.416 178.576 65.416C178.832 65.416 179.344 65.544 180.24 65.736C184.72 66.824 187.92 67.976 190.736 69.576Z" fill="black"/>
<path fill-rule="evenodd" clip-rule="evenodd" d="M183.312 41.928C183.412 42.0456 183.515 42.1453 183.621 42.2273L186.27 44.7952C186.483 45.1726 186.934 45.5349 187.472 45.96C191.888 49.672 196.432 52.552 201.68 54.152C202.512 54.408 202.576 54.536 202.576 54.728C202.576 54.9648 202.357 55.0373 201.716 55.2494C201.664 55.2666 201.61 55.2848 201.552 55.304C198.992 56.136 197.008 57.48 195.792 58.888C195.472 59.336 195.28 59.528 194.96 59.528C194.64 59.528 194.32 59.336 193.616 58.824C183.056 50.632 176.656 41.288 172.88 26.312C172.496 24.776 172.56 24.392 172.88 24.392C173.2 24.392 173.392 24.648 173.968 25.992C176.976 32.904 180.112 38.088 183.312 41.928Z" fill="#F9004B"/>
<path d="M144.784 78.984C148.752 76.232 153.04 72.328 155.92 68.232C156.816 66.952 156.944 66.568 157.136 65.288C157.2 64.904 157.392 64.52 157.776 64.52C158.032 64.52 158.416 64.776 158.992 65.16C159.21 65.3111 159.521 65.5238 159.875 65.7659C160.869 66.4466 162.202 67.3592 162.768 67.784C162.872 67.8559 162.97 67.9219 163.062 67.9837C163.705 68.4168 164.048 68.648 164.048 69.32C164.048 69.896 163.664 70.216 162.96 70.344C162.076 70.5209 161.408 71.0239 160.508 71.7026C160.431 71.7605 160.353 71.8197 160.272 71.88C155.728 75.272 151.184 77.704 146.064 79.56C145.36 79.816 144.4 80.072 144.144 80.072C143.952 80.072 143.888 79.944 143.888 79.816C143.888 79.688 144.144 79.432 144.784 78.984Z" fill="#F9004B"/>
<path d="M95.1359 37.512C93.4079 37.512 93.0879 36.936 93.0879 34.824V33.352C93.0879 32.392 92.6399 31.88 91.7439 31.88H88.6079C86.4959 31.88 81.0559 31.88 78.6879 32.136L77.9199 32.2C77.7279 32.2 77.5999 32.136 77.3439 31.816L76.2559 30.536C75.8719 30.088 75.8079 30.024 75.8079 29.896C75.8079 29.768 75.9359 29.768 76.0639 29.768H76.3199C80.6079 30.152 84.7039 30.216 88.8639 30.216H91.7439C93.0239 30.216 93.3439 29.768 93.3439 28.744C93.3439 27.72 93.0239 25.608 92.7039 24.648C92.5759 24.264 92.4479 23.816 92.4479 23.624C92.4479 23.112 92.7679 22.984 93.2159 22.984C93.7919 22.984 100.384 24.52 100.384 25.8C100.384 26.248 100.256 26.44 99.6799 26.824C98.7199 27.464 98.5279 27.72 98.5279 28.36V28.872C98.5279 29.768 98.9759 30.216 99.9999 30.216H108.064C109.088 30.216 109.664 29.896 109.664 28.808C109.664 27.848 109.408 25.992 109.216 24.904C109.152 24.52 109.024 23.944 109.024 23.688C109.024 23.304 109.28 23.112 109.6 23.112C110.048 23.112 112.288 23.624 114.144 24.072C116.064 24.52 116.64 24.712 116.64 25.352C116.64 25.672 116.64 25.928 116 26.248C115.168 26.696 114.912 27.016 114.912 27.72V28.808C114.912 29.832 115.488 30.216 116.512 30.216H122.464C124.896 30.216 125.088 30.088 126.112 28.552C127.328 26.76 127.904 25.992 128.416 25.992C129.12 25.992 133.856 30.152 133.856 30.984C133.856 31.88 132.64 31.88 130.464 31.88H116.64C115.36 31.88 115.04 32.52 115.104 33.608C115.168 35.208 115.104 36.872 111.456 36.872C109.728 36.872 109.536 35.656 109.536 34.504V33.48C109.536 32.456 108.96 31.88 107.936 31.88H100.128C99.1039 31.88 98.5279 32.456 98.5279 33.48V33.608C98.5279 36.296 97.8879 37.512 95.1359 37.512ZM90.3359 59.848C88.7359 59.848 88.0959 59.144 88.0959 57.864C88.0959 57.608 88.0959 57.16 88.1599 55.752C88.2879 53.832 88.3519 49.544 88.4159 46.728C88.4799 45.704 87.9039 45.128 86.7519 45.128C81.6959 45.128 79.5839 45.192 78.3039 45.448C77.9199 45.512 77.7919 45.512 77.7279 45.512C77.5999 45.512 77.4719 45.448 77.1519 45.064L75.9999 43.72C75.6799 43.336 75.6799 43.272 75.6799 43.208C75.6799 43.08 75.7439 43.016 75.8719 43.016H76.0639C78.6239 43.272 82.3999 43.464 86.8159 43.464C87.9039 43.464 88.4799 42.888 88.4159 41.8C88.2879 40.52 88.1599 39.24 87.9679 38.152C87.9039 37.768 87.8399 37.192 87.8399 37C87.8399 36.552 88.0319 36.424 88.4799 36.424C88.6719 36.424 91.5519 37.192 93.3439 37.896C94.4319 38.344 95.0079 38.6 95.0079 39.048C95.0079 39.368 94.8799 39.688 94.5599 39.88C93.5999 40.456 93.2799 40.84 93.2799 41.352V41.992C93.2799 42.952 93.7919 43.464 94.8159 43.464H99.2319C100.256 43.464 100.768 42.888 100.768 41.864C100.704 40.584 100.576 39.368 100.192 38.408C100.064 38.024 99.9359 37.64 99.9359 37.32C99.9359 37 100.192 36.744 100.704 36.744C101.152 36.744 103.968 37.384 105.248 37.768C106.848 38.216 107.424 38.6 107.424 38.984C107.424 39.432 107.232 39.752 106.656 40.264C105.888 40.968 105.76 41.16 105.76 42.12C105.76 43.016 106.272 43.464 107.232 43.464H112.16C113.184 43.464 113.76 42.888 113.76 41.864V41.288C113.76 40.328 113.632 38.984 113.376 38.024C113.312 37.768 113.312 37.704 113.312 37.512C113.312 37 113.696 36.872 114.08 36.872C114.656 36.872 116 37.192 117.664 37.64C119.584 38.216 120.608 38.856 120.608 39.368C120.608 39.816 120.288 40.136 119.52 40.648C118.944 41.032 118.816 41.224 118.816 42.056C118.816 43.016 119.328 43.464 120.352 43.464H123.104C124.96 43.464 125.344 43.272 125.984 42.44C127.264 40.776 127.968 39.816 128.48 39.816C129.248 39.816 133.152 43.528 133.152 44.232C133.152 45.192 132 45.128 129.76 45.128H120.416C119.392 45.128 118.816 45.704 118.816 46.728C118.88 47.624 118.88 48.52 118.944 49.288C119.008 50.504 119.008 51.4 119.008 51.848C119.008 53.512 117.28 54.152 115.36 54.152C114.336 54.152 113.824 53.896 113.568 53.064C113.376 52.488 113.184 51.72 111.968 51.72H107.296C106.08 51.72 105.952 52.36 105.568 52.936C104.928 53.832 103.776 54.472 102.688 54.472C101.216 54.472 100.512 54.024 100.512 52.68C100.512 52.36 100.512 51.784 100.576 50.952C100.704 49.8 100.768 48.52 100.768 46.792C100.768 45.704 100.192 45.128 99.1679 45.128H94.8799C93.8559 45.128 93.2799 45.704 93.2799 46.728V53.896C93.2799 54.92 93.8559 55.496 94.8799 55.496H117.536C119.456 55.496 119.904 55.368 121.056 53.832C122.272 52.296 122.784 51.784 123.168 51.784C124.256 51.784 128.48 55.112 128.48 56.264C128.48 57.224 127.264 57.16 125.088 57.16H95.1999C94.3039 57.16 93.9199 57.48 93.5359 58.12C92.8959 59.016 91.8079 59.848 90.3359 59.848ZM107.36 50.056H112.16C113.184 50.056 113.76 49.48 113.76 48.456V46.728C113.76 45.704 113.184 45.128 112.16 45.128H107.36C106.336 45.128 105.76 45.704 105.76 46.728V48.456C105.76 49.48 106.336 50.056 107.36 50.056ZM103.968 81.992C102.048 81.992 101.792 80.776 101.792 79.304C101.792 78.664 101.792 77.768 101.856 76.296C101.92 74.76 102.048 71.752 102.048 70.28C102.048 69.256 101.6 69.128 100.96 69.768C97.3759 73.096 93.9839 75.336 90.2079 77.128C86.2399 78.984 82.1439 80.136 77.4079 81.032C76.4479 81.224 75.7439 81.288 75.4879 81.288C75.2959 81.288 75.2319 81.16 75.2319 81.032C75.2319 80.904 75.4239 80.776 76.3199 80.392C81.1199 78.344 85.3439 75.976 88.9279 73.416C91.4239 71.752 93.5359 69.96 95.9039 67.656C96.7359 66.824 96.4799 66.056 95.3279 66.056H88.1599C84.1279 66.056 79.7119 66.12 78.3679 66.312C77.9839 66.376 77.7919 66.376 77.7279 66.376C77.5359 66.376 77.3439 66.248 77.0879 65.928L76.3839 65.096C75.6159 64.264 75.6159 64.2 75.6159 64.072C75.6159 63.944 75.8079 63.944 75.8719 63.944H76.1279C79.5199 64.264 85.0879 64.392 88.5439 64.392H100.32C101.472 64.392 102.048 63.816 102.048 62.792V62.152C102.048 60.936 101.728 59.72 101.344 58.632C101.28 58.44 101.216 58.248 101.216 58.12C101.216 57.736 101.6 57.544 101.92 57.544C102.56 57.544 106.4 58.248 107.744 58.632C108.384 58.824 108.704 58.952 108.704 59.528C108.704 59.976 108.512 60.168 107.936 60.616C107.36 61.064 106.976 61.704 106.976 63.048C106.976 64.008 107.552 64.392 108.576 64.392H121.376C124 64.392 124.192 64.328 125.344 63.048C126.816 61.384 127.456 60.744 127.904 60.744C128.672 60.744 133.024 64.456 133.024 65.16C133.024 65.992 132 66.056 129.632 66.056H111.328C110.112 66.056 109.856 66.888 110.816 67.656C116 71.816 124.384 74.376 131.552 74.376C133.216 74.376 134.944 74.056 135.264 74.056C135.392 74.056 135.52 74.12 135.52 74.312C135.52 74.44 135.392 74.504 134.688 74.952C133.088 75.848 132.128 76.296 131.168 77.192C130.272 78.024 129.632 78.984 129.12 80.456C128.864 81.096 128.48 81.288 127.84 81.288C127.072 81.288 124 80.264 121.248 78.92C117.792 77.32 114.4 74.824 111.712 72.008C110.752 71.112 109.216 69.32 108.192 67.848C107.488 66.952 106.976 67.144 106.976 68.36C106.976 71.368 107.168 73.288 107.36 75.976C107.424 76.936 107.488 78.28 107.488 78.856C107.488 80.84 106.272 81.992 103.968 81.992Z" fill="black"/>
<path fill-rule="evenodd" clip-rule="evenodd" d="M88.416 46.728C88.4024 47.3231 88.3889 47.9839 88.3748 48.6742C88.3221 51.2505 88.2609 54.2377 88.16 55.752C88.096 57.16 88.096 57.608 88.096 57.864C88.096 59.144 88.736 59.848 90.336 59.848C91.808 59.848 92.896 59.016 93.536 58.12C93.92 57.48 94.304 57.16 95.2 57.16H125.088C125.22 57.16 125.348 57.1602 125.472 57.1605C127.407 57.164 128.48 57.166 128.48 56.264C128.48 55.112 124.256 51.784 123.168 51.784C122.784 51.784 122.272 52.296 121.056 53.832C119.904 55.368 119.456 55.496 117.536 55.496H94.88C93.856 55.496 93.28 54.92 93.28 53.896V46.728V41.992V41.352C93.28 40.84 93.6 40.456 94.56 39.88C94.88 39.688 95.008 39.368 95.008 39.048C95.008 38.6 94.432 38.344 93.344 37.896C91.552 37.192 88.672 36.424 88.48 36.424C88.032 36.424 87.84 36.552 87.84 37C87.84 37.192 87.904 37.768 87.968 38.152C88.16 39.24 88.288 40.52 88.416 41.8C88.4224 41.9095 88.4224 42.0139 88.416 42.113V46.4334C88.4224 46.527 88.4224 46.6253 88.416 46.728Z" fill="#F9004B"/>
<path d="M97 66L102.048 66.056L101.5 69C101 70 101.6 69.128 100.96 69.768C97.3759 73.096 93.9839 75.336 90.2079 77.128C86.2399 78.984 82.1439 80.136 77.4079 81.032C76.4479 81.224 75.7439 81.288 75.4879 81.288C75.2959 81.288 75.2319 81.16 75.2319 81.032C75.2319 80.904 75.4239 80.776 76.3199 80.392C81.1199 78.344 85.3439 75.976 88.9279 73.416C91.4239 71.752 93.5359 69.96 95.9039 67.656C96.7359 66.824 97 66.5 97 66Z" fill="#F9004B"/>
<path d="M46.192 42.504C44.144 42.504 44.144 41.224 44.144 40.328C44.144 39.816 44.208 38.92 44.272 38.152C44.336 37.448 44.336 36.168 44.4 34.696C44.4 33.672 43.824 33.096 42.8 33.096H32.752C31.728 33.096 31.152 33.672 31.152 34.696V40.008C31.152 41.48 28.848 42.248 27.312 42.248C25.776 42.248 25.456 41.352 25.456 40.136C25.456 39.624 25.456 39.496 25.52 38.664L25.712 34.696C25.712 33.672 25.136 33.096 24.112 33.096H19.76C16.432 33.096 12.4 33.16 11.184 33.352L10.288 33.48C10.096 33.48 9.96799 33.352 9.71199 33.032L8.43199 31.496C8.30399 31.368 8.23999 31.24 8.23999 31.176C8.23999 31.048 8.30399 30.984 8.43199 30.984H8.55999C11.696 31.304 13.552 31.432 20.08 31.432H24.112C25.136 31.432 25.712 30.856 25.648 29.768C25.52 27.4 25.264 25.864 24.88 24.968C24.688 24.52 24.624 24.264 24.624 24.136C24.624 23.752 24.944 23.624 25.2 23.624C26.544 23.624 33.392 24.392 33.392 25.672C33.392 26.12 33.008 26.312 32.368 26.824C31.536 27.528 31.152 27.976 31.152 29.704V29.832C31.152 30.856 31.728 31.432 32.752 31.432H42.8C43.824 31.432 44.4 30.856 44.4 29.832V27.784C44.4 25.864 44.272 25.352 43.696 24.136C43.632 24.008 43.568 23.88 43.568 23.688C43.568 23.432 43.888 23.368 44.144 23.368C44.336 23.368 47.024 23.816 47.856 23.944C50.864 24.392 51.952 24.584 51.952 25.352C51.952 25.608 51.888 25.864 51.12 26.44C50.224 27.144 50.032 27.272 50.032 29.32V29.832C50.032 30.856 50.608 31.432 51.632 31.432H55.408C57.328 31.432 57.584 31.24 58.928 29.512C59.888 28.168 60.464 27.656 60.912 27.656C61.808 27.656 67.44 31.496 67.44 32.264C67.44 33.096 66.16 33.096 64.048 33.096H51.632C50.608 33.096 50.032 33.672 50.032 34.696V39.88C50.032 40.136 49.904 40.712 49.456 41.16C48.752 41.864 47.536 42.504 46.192 42.504ZM25.648 81.672C23.856 81.672 23.344 81.096 23.344 79.944C23.344 79.432 23.536 77.064 23.664 75.528C23.92 72.712 23.92 69.32 23.92 67.976C23.92 66.12 23.92 64.648 23.856 63.112C23.792 61.704 23.152 61.448 22 62.344C18.544 64.968 14.896 67.272 11.504 69C10.352 69.576 8.87999 70.152 8.43199 70.152C8.30399 70.152 8.23999 70.088 8.23999 69.96C8.23999 69.832 8.36799 69.704 8.94399 69.256C15.216 64.84 22.96 56.712 27.056 51.272C27.696 50.44 27.376 49.864 26.352 49.864H20.592C15.344 49.864 13.104 50.056 11.888 50.184L11.184 50.248C11.056 50.248 10.864 50.12 10.608 49.8L9.32799 48.264C9.19999 48.136 9.13599 48.008 9.13599 47.944C9.13599 47.816 9.19999 47.816 9.32799 47.816H9.58399C12.72 48.136 17.712 48.2 20.912 48.2H27.824C28.784 48.2 29.488 47.752 30.128 46.92C31.344 45.192 32.368 43.4 32.944 41.736C33.328 40.712 33.584 39.688 33.648 38.792C33.712 38.216 33.776 37.96 34.096 37.96C34.48 37.96 36.4 38.792 37.104 39.112C38 39.496 41.392 41.096 41.392 42.056C41.392 42.696 40.432 43.144 39.664 43.4C38.768 43.72 38.512 44.04 37.936 44.872L36.72 46.664C35.952 47.752 36.272 48.2 37.552 48.2H54.576C56.624 48.2 56.88 48.072 57.968 46.664C59.248 44.936 59.824 44.424 60.336 44.424C61.104 44.424 66.736 48.2 66.736 49.032C66.736 49.864 65.392 49.864 63.344 49.864H36.144C34.992 49.864 34.224 50.12 33.264 51.272C32.048 52.68 30.576 54.408 28.912 56.136C28.144 56.904 28.08 57.544 28.656 58.12C29.232 58.696 29.872 58.952 30.64 58.952H48.368C49.2 58.952 49.776 58.632 50.352 57.928C51.376 56.584 52.016 55.816 52.464 55.816C53.424 55.816 58.672 59.528 58.672 60.552C58.672 61.064 58.416 61.256 57.52 61.704C56.304 62.28 55.984 62.472 55.984 63.176C55.984 63.624 56.176 70.28 56.432 73.032C56.56 74.568 56.752 76.744 56.752 77.256C56.752 80.2 52.912 80.776 51.888 80.776C50.288 80.776 50.288 79.56 50.288 78.792V77.512C50.288 76.488 49.712 75.912 48.688 75.912H31.28C30.256 75.912 29.68 76.488 29.68 77.512V77.896C29.68 80.328 28.464 81.672 25.648 81.672ZM31.152 74.248H48.816C49.84 74.248 50.416 73.672 50.416 72.648V62.216C50.416 61.192 49.84 60.616 48.816 60.616H31.152C30.128 60.616 29.552 61.192 29.552 62.216V72.648C29.552 73.672 30.128 74.248 31.152 74.248Z" fill="black"/>
<path fill-rule="evenodd" clip-rule="evenodd" d="M44.144 40.328C44.144 41.224 44.144 42.504 46.192 42.504C47.536 42.504 48.752 41.864 49.456 41.16C49.904 40.712 50.032 40.136 50.032 39.88V34.696V29.832V29.32C50.032 27.2945 50.2198 27.147 51.0907 26.463L51.12 26.44C51.888 25.864 51.952 25.608 51.952 25.352C51.952 24.584 50.864 24.392 47.856 23.944C47.597 23.9041 47.1582 23.8333 46.6708 23.7546C45.5924 23.5805 44.2762 23.368 44.144 23.368C43.888 23.368 43.568 23.432 43.568 23.688C43.568 23.88 43.632 24.008 43.696 24.136C44.272 25.352 44.4 25.864 44.4 27.784V29.832V34.696C44.3727 35.324 44.357 35.917 44.3431 36.4453C44.3243 37.1553 44.3087 37.7483 44.272 38.152C44.208 38.92 44.144 39.816 44.144 40.328Z" fill="#F9004B"/>
<path d="M27.056 51.272C22.96 56.712 15.216 64.84 8.94399 69.256C8.36799 69.704 8.23999 69.832 8.23999 69.96C8.23999 70.088 8.30399 70.152 8.43199 70.152C8.87999 70.152 10.352 69.576 11.504 69C14.896 67.272 18.544 64.968 22 62.344C22.224 62.1697 22.4287 62.039 22.6136 61.9519L29.8529 55.1384C30.9849 53.9148 32.0131 52.7224 32.914 51.6776L33.264 51.272C33.279 51.254 33.2939 51.2362 33.3088 51.2186L36.72 46.664L37.936 44.872C38.512 44.04 38.768 43.72 39.664 43.4C40.432 43.144 41.392 42.696 41.392 42.056C41.392 41.096 38 39.496 37.104 39.112C36.4 38.792 34.48 37.96 34.096 37.96C33.776 37.96 33.712 38.216 33.648 38.792C33.584 39.688 33.328 40.712 32.944 41.736C32.368 43.4 31.344 45.192 30.128 46.92L27.1742 51.1044C27.1393 51.159 27.0999 51.2149 27.056 51.272Z" fill="#F9004B"/>
<rect y="1" width="210" height="13" fill="#F9004B"/>
<path d="M8.284 12L7.24 3.24H8.236L8.92 9.72C8.952 9.984 8.976 10.26 8.992 10.548C9.008 10.828 9.02 11.052 9.028 11.22C9.044 11.052 9.064 10.828 9.088 10.548C9.12 10.26 9.152 9.984 9.184 9.72L10.048 3.24H11.212L12.004 9.72C12.036 9.984 12.068 10.26 12.1 10.548C12.132 10.828 12.156 11.052 12.172 11.22C12.188 11.052 12.204 10.828 12.22 10.548C12.244 10.26 12.272 9.984 12.304 9.72L13.012 3.24H13.96L12.892 12H11.536L10.744 5.4C10.712 5.128 10.688 4.864 10.672 4.608C10.656 4.344 10.64 4.14 10.624 3.996C10.608 4.14 10.592 4.344 10.576 4.608C10.56 4.864 10.532 5.128 10.492 5.4L9.64 12H8.284ZM23.4353 12L25.7153 3.24H27.1673L29.4353 12H28.3433L27.7673 9.672H25.1153L24.5393 12H23.4353ZM25.3313 8.76H27.5393L26.8673 6.06C26.7393 5.548 26.6393 5.12 26.5673 4.776C26.4953 4.432 26.4513 4.208 26.4353 4.104C26.4193 4.208 26.3753 4.432 26.3033 4.776C26.2313 5.12 26.1313 5.544 26.0033 6.048L25.3313 8.76ZM39.7746 12V3.24H40.8546V7.008H42.1506L44.0946 3.24H45.2706L43.0986 7.464L45.3906 12H44.1546L42.1146 7.956H40.8546V12H39.7746ZM55.1059 12L57.3859 3.24H58.8379L61.1059 12H60.0139L59.4379 9.672H56.7859L56.2099 12H55.1059ZM57.0019 8.76H59.2099L58.5379 6.06C58.4099 5.548 58.3099 5.12 58.2379 4.776C58.1659 4.432 58.1219 4.208 58.1059 4.104C58.0899 4.208 58.0459 4.432 57.9739 4.776C57.9019 5.12 57.8019 5.544 57.6739 6.048L57.0019 8.76ZM71.4573 12V3.24H73.9413C74.7413 3.24 75.3653 3.44 75.8133 3.84C76.2693 4.24 76.4973 4.796 76.4973 5.508C76.4973 5.956 76.3533 6.36 76.0653 6.72C75.7853 7.08 75.4173 7.304 74.9613 7.392V7.428C75.3053 7.468 75.6053 7.588 75.8613 7.788C76.1253 7.988 76.3293 8.244 76.4733 8.556C76.6253 8.86 76.7013 9.196 76.7013 9.564C76.7013 10.316 76.4693 10.912 76.0053 11.352C75.5493 11.784 74.9213 12 74.1213 12H71.4573ZM72.5133 6.972H73.9293C74.3933 6.972 74.7573 6.848 75.0213 6.6C75.2933 6.352 75.4293 6.016 75.4293 5.592C75.4293 5.168 75.2973 4.832 75.0333 4.584C74.7693 4.336 74.4053 4.212 73.9413 4.212H72.5133V6.972ZM72.5133 11.028H74.0013C74.5053 11.028 74.9013 10.896 75.1893 10.632C75.4853 10.36 75.6333 9.992 75.6333 9.528C75.6333 9.048 75.4853 8.66 75.1893 8.364C74.9013 8.06 74.5053 7.908 74.0013 7.908H72.5133V11.028ZM86.7766 12L89.0566 3.24H90.5086L92.7766 12H91.6846L91.1086 9.672H88.4566L87.8806 12H86.7766ZM88.6726 8.76H90.8806L90.2086 6.06C90.0806 5.548 89.9806 5.12 89.9086 4.776C89.8366 4.432 89.7926 4.208 89.7766 4.104C89.7606 4.208 89.7166 4.432 89.6446 4.776C89.5726 5.12 89.4726 5.544 89.3446 6.048L88.6726 8.76ZM105.66 12.12C104.812 12.12 104.136 11.896 103.632 11.448C103.128 11 102.876 10.384 102.876 9.6H103.956C103.956 10.088 104.112 10.472 104.424 10.752C104.736 11.024 105.148 11.16 105.66 11.16C106.156 11.16 106.552 11.016 106.848 10.728C107.144 10.44 107.292 10.064 107.292 9.6C107.292 9.248 107.196 8.944 107.004 8.688C106.82 8.424 106.552 8.244 106.2 8.148L104.868 7.776C104.316 7.616 103.88 7.332 103.56 6.924C103.248 6.508 103.092 6.02 103.092 5.46C103.092 4.996 103.196 4.588 103.404 4.236C103.612 3.884 103.904 3.612 104.28 3.42C104.656 3.22 105.088 3.12 105.576 3.12C106.072 3.12 106.508 3.22 106.884 3.42C107.268 3.612 107.568 3.884 107.784 4.236C108 4.58 108.108 4.98 108.108 5.436H107.028C107.028 5.036 106.892 4.712 106.62 4.464C106.348 4.208 106 4.08 105.576 4.08C105.152 4.08 104.808 4.208 104.544 4.464C104.28 4.712 104.148 5.036 104.148 5.436C104.148 5.756 104.232 6.032 104.4 6.264C104.576 6.488 104.82 6.644 105.132 6.732L106.5 7.116C107.084 7.276 107.536 7.58 107.856 8.028C108.184 8.468 108.348 8.992 108.348 9.6C108.348 10.368 108.104 10.98 107.616 11.436C107.128 11.892 106.476 12.12 105.66 12.12ZM118.447 12L120.727 3.24H122.179L124.447 12H123.355L122.779 9.672H120.127L119.551 12H118.447ZM120.343 8.76H122.551L121.879 6.06C121.751 5.548 121.651 5.12 121.579 4.776C121.507 4.432 121.463 4.208 121.447 4.104C121.431 4.208 121.387 4.432 121.315 4.776C121.243 5.12 121.143 5.544 121.015 6.048L120.343 8.76ZM134.943 12V11.016H136.731V4.224H134.943V3.24H139.623V4.224H137.835V11.016H139.623V12H134.943ZM150.55 12V11.004L153.466 7.884C153.89 7.436 154.19 7.036 154.366 6.684C154.542 6.332 154.63 5.988 154.63 5.652C154.63 5.172 154.49 4.792 154.21 4.512C153.938 4.224 153.566 4.08 153.094 4.08C152.606 4.08 152.218 4.228 151.93 4.524C151.65 4.812 151.51 5.204 151.51 5.7H150.43C150.454 4.908 150.706 4.28 151.186 3.816C151.666 3.352 152.302 3.12 153.094 3.12C153.902 3.12 154.542 3.348 155.014 3.804C155.494 4.26 155.734 4.88 155.734 5.664C155.734 6.08 155.618 6.52 155.386 6.984C155.162 7.448 154.774 7.968 154.222 8.544L151.858 11.016H155.842V12H150.55ZM168.953 12.12C168.145 12.12 167.501 11.888 167.021 11.424C166.549 10.952 166.313 10.324 166.313 9.54V5.7C166.313 4.916 166.549 4.292 167.021 3.828C167.501 3.356 168.145 3.12 168.953 3.12C169.761 3.12 170.401 3.356 170.873 3.828C171.353 4.292 171.593 4.916 171.593 5.7V9.54C171.593 10.06 171.485 10.516 171.269 10.908C171.053 11.292 170.745 11.592 170.345 11.808C169.953 12.016 169.489 12.12 168.953 12.12ZM168.953 11.196C169.433 11.196 169.817 11.044 170.105 10.74C170.401 10.428 170.549 10.028 170.549 9.54V5.7C170.549 5.212 170.401 4.816 170.105 4.512C169.817 4.2 169.433 4.044 168.953 4.044C168.473 4.044 168.085 4.2 167.789 4.512C167.501 4.816 167.357 5.212 167.357 5.7V9.54C167.357 10.028 167.501 10.428 167.789 10.74C168.085 11.044 168.473 11.196 168.953 11.196ZM168.953 8.28C168.737 8.28 168.561 8.22 168.425 8.1C168.297 7.98 168.233 7.808 168.233 7.584C168.233 7.368 168.297 7.204 168.425 7.092C168.561 6.972 168.737 6.912 168.953 6.912C169.169 6.912 169.341 6.972 169.469 7.092C169.605 7.204 169.673 7.368 169.673 7.584C169.673 7.808 169.605 7.98 169.469 8.1C169.341 8.22 169.169 8.28 168.953 8.28ZM182.22 12V11.004L185.136 7.884C185.56 7.436 185.86 7.036 186.036 6.684C186.212 6.332 186.3 5.988 186.3 5.652C186.3 5.172 186.16 4.792 185.88 4.512C185.608 4.224 185.236 4.08 184.764 4.08C184.276 4.08 183.888 4.228 183.6 4.524C183.32 4.812 183.18 5.204 183.18 5.7H182.1C182.124 4.908 182.376 4.28 182.856 3.816C183.336 3.352 183.972 3.12 184.764 3.12C185.572 3.12 186.212 3.348 186.684 3.804C187.164 4.26 187.404 4.88 187.404 5.664C187.404 6.08 187.288 6.52 187.056 6.984C186.832 7.448 186.444 7.968 185.892 8.544L183.528 11.016H187.512V12H182.22ZM200.636 12.12C200.076 12.12 199.58 12.004 199.148 11.772C198.724 11.532 198.392 11.204 198.152 10.788C197.912 10.364 197.792 9.876 197.792 9.324C197.792 8.94 197.864 8.548 198.008 8.148C198.152 7.74 198.348 7.316 198.596 6.876L200.624 3.24H201.824L199.664 6.996L199.7 7.02C199.804 6.884 199.96 6.78 200.168 6.708C200.376 6.636 200.604 6.6 200.852 6.6C201.372 6.6 201.824 6.716 202.208 6.948C202.6 7.172 202.904 7.484 203.12 7.884C203.344 8.284 203.456 8.748 203.456 9.276C203.456 9.836 203.336 10.332 203.096 10.764C202.856 11.188 202.524 11.52 202.1 11.76C201.684 12 201.196 12.12 200.636 12.12ZM200.624 11.16C201.144 11.16 201.564 10.988 201.884 10.644C202.212 10.3 202.376 9.852 202.376 9.3C202.376 8.748 202.212 8.3 201.884 7.956C201.564 7.612 201.144 7.44 200.624 7.44C200.104 7.44 199.68 7.612 199.352 7.956C199.032 8.3 198.872 8.748 198.872 9.3C198.872 9.852 199.032 10.3 199.352 10.644C199.68 10.988 200.104 11.16 200.624 11.16Z" fill="white"/>
</svg>
