<svg width="132" height="56" viewBox="0 0 132 56" fill="none" xmlns="http://www.w3.org/2000/svg">
<path d="M23.0667 27.425C21.8914 27.425 21.8914 26.6861 21.8914 26.1688C21.8914 25.8732 21.9281 25.3559 21.9648 24.9125C22.0015 24.5061 22.0015 23.7671 22.0383 22.9173C22.0383 22.3262 21.7077 21.9936 21.12 21.9936H15.3533C14.7657 21.9936 14.4351 22.3262 14.4351 22.9173V25.9841C14.4351 26.8339 13.1128 27.2772 12.2313 27.2772C11.3497 27.2772 11.1661 26.76 11.1661 26.0579C11.1661 25.7624 11.1661 25.6885 11.2028 25.2081L11.313 22.9173C11.313 22.3262 10.9824 21.9936 10.3947 21.9936H7.89706C5.98708 21.9936 3.67306 22.0306 2.97518 22.1414L2.46096 22.2153C2.35077 22.2153 2.27731 22.1414 2.13038 21.9567L1.39577 21.0699C1.32231 20.996 1.28558 20.9221 1.28558 20.8852C1.28558 20.8113 1.32231 20.7743 1.39577 20.7743H1.46924C3.26903 20.9591 4.33421 21.033 8.08071 21.033H10.3947C10.9824 21.033 11.313 20.7004 11.2763 20.0723C11.2028 18.7052 11.0559 17.8184 10.8355 17.3012C10.7253 17.0425 10.6886 16.8947 10.6886 16.8208C10.6886 16.5991 10.8722 16.5252 11.0191 16.5252C11.7905 16.5252 15.7206 16.9686 15.7206 17.7076C15.7206 17.9662 15.5003 18.0771 15.133 18.3727C14.6555 18.7791 14.4351 19.0377 14.4351 20.0353V20.1092C14.4351 20.7004 14.7657 21.033 15.3533 21.033H21.12C21.7077 21.033 22.0383 20.7004 22.0383 20.1092V18.9269C22.0383 17.8184 21.9648 17.5229 21.6342 16.8208C21.5975 16.7469 21.5608 16.673 21.5608 16.5622C21.5608 16.4144 21.7444 16.3775 21.8914 16.3775C22.0015 16.3775 23.5442 16.6361 24.0217 16.71C25.7481 16.9686 26.3725 17.0795 26.3725 17.5229C26.3725 17.6706 26.3357 17.8184 25.895 18.151C25.3807 18.5574 25.2706 18.6313 25.2706 19.8137V20.1092C25.2706 20.7004 25.6011 21.033 26.1888 21.033H28.3559C29.4578 21.033 29.6047 20.9221 30.3761 19.9245C30.927 19.1486 31.2576 18.853 31.5147 18.853C32.029 18.853 35.2612 21.0699 35.2612 21.5133C35.2612 21.9936 34.5266 21.9936 33.3145 21.9936H26.1888C25.6011 21.9936 25.2706 22.3262 25.2706 22.9173V25.9102C25.2706 26.0579 25.1971 26.3905 24.94 26.6491C24.5359 27.0556 23.8381 27.425 23.0667 27.425ZM11.2763 50.0375C10.2478 50.0375 9.95397 49.705 9.95397 49.0399C9.95397 48.7443 10.0642 47.3772 10.1376 46.4904C10.2845 44.8647 10.2845 42.9064 10.2845 42.1305C10.2845 41.059 10.2845 40.2092 10.2478 39.3224C10.2111 38.5096 9.84377 38.3618 9.18263 38.8791C7.19918 40.3939 5.10555 41.7241 3.15884 42.7217C2.49769 43.0542 1.65289 43.3868 1.39577 43.3868C1.32231 43.3868 1.28558 43.3498 1.28558 43.2759C1.28558 43.202 1.35904 43.1281 1.68962 42.8695C5.2892 40.32 9.73358 35.6276 12.0843 32.487C12.4516 32.0066 12.268 31.6741 11.6803 31.6741H8.37456C5.36266 31.6741 4.0771 31.785 3.37922 31.8589L2.97518 31.8958C2.90172 31.8958 2.79153 31.8219 2.64461 31.6372L1.91 30.7504C1.83654 30.6765 1.79981 30.6026 1.79981 30.5657C1.79981 30.4918 1.83654 30.4918 1.91 30.4918H2.05692C3.85671 30.6765 6.72169 30.7135 8.55821 30.7135H12.5251C13.0761 30.7135 13.4801 30.4548 13.8474 29.9745C14.5453 28.9769 15.133 27.9423 15.4635 26.9817C15.6839 26.3905 15.8308 25.7993 15.8676 25.282C15.9043 24.9495 15.941 24.8017 16.1247 24.8017C16.3451 24.8017 17.447 25.282 17.851 25.4668C18.3652 25.6885 20.3119 26.6122 20.3119 27.1664C20.3119 27.5359 19.761 27.7945 19.3202 27.9423C18.806 28.1271 18.6591 28.3118 18.3285 28.7921L17.6306 29.8267C17.1899 30.4548 17.3735 30.7135 18.1081 30.7135H27.8784C29.0538 30.7135 29.2007 30.6396 29.8251 29.8267C30.5597 28.8291 30.8903 28.5335 31.1842 28.5335C31.6249 28.5335 34.8572 30.7135 34.8572 31.1938C34.8572 31.6741 34.0859 31.6741 32.9105 31.6741H17.3001C16.6389 31.6741 16.1981 31.8219 15.6472 32.487C14.9493 33.2998 14.1045 34.2975 13.1495 35.2951C12.7087 35.7384 12.672 36.1079 13.0026 36.4405C13.3332 36.773 13.7005 36.9208 14.1412 36.9208H24.3156C24.7931 36.9208 25.1236 36.736 25.4542 36.3296C26.0419 35.5537 26.4092 35.1103 26.6663 35.1103C27.2173 35.1103 30.2292 37.2533 30.2292 37.8445C30.2292 38.1401 30.0822 38.2509 29.568 38.5096C28.8701 38.8421 28.6865 38.953 28.6865 39.3594C28.6865 39.618 28.7967 43.4607 28.9436 45.0494C29.0171 45.9362 29.1273 47.1925 29.1273 47.488C29.1273 49.1877 26.9234 49.5202 26.3357 49.5202C25.4175 49.5202 25.4175 48.8182 25.4175 48.3748V47.6358C25.4175 47.0447 25.0869 46.7121 24.4992 46.7121H14.5085C13.9209 46.7121 13.5903 47.0447 13.5903 47.6358V47.8575C13.5903 49.2616 12.8924 50.0375 11.2763 50.0375ZM14.4351 45.7515H24.5727C25.1604 45.7515 25.4909 45.4189 25.4909 44.8278V38.8052C25.4909 38.214 25.1604 37.8814 24.5727 37.8814H14.4351C13.8474 37.8814 13.5168 38.214 13.5168 38.8052V44.8278C13.5168 45.4189 13.8474 45.7515 14.4351 45.7515ZM56.8955 24.5431C55.9037 24.5431 55.7201 24.2105 55.7201 22.9912V22.1414C55.7201 21.5872 55.463 21.2916 54.9488 21.2916H53.149C51.9369 21.2916 48.8148 21.2916 47.4557 21.4394L47.015 21.4763C46.9048 21.4763 46.8313 21.4394 46.6844 21.2546L46.06 20.5157C45.8396 20.257 45.8029 20.2201 45.8029 20.1462C45.8029 20.0723 45.8763 20.0723 45.9498 20.0723H46.0967C48.5577 20.294 50.9084 20.3309 53.2959 20.3309H54.9488C55.6834 20.3309 55.867 20.0723 55.867 19.4811C55.867 18.8899 55.6834 17.6706 55.4997 17.1164C55.4262 16.8947 55.3528 16.6361 55.3528 16.5252C55.3528 16.2297 55.5364 16.1558 55.7936 16.1558C56.1241 16.1558 59.9074 17.0425 59.9074 17.7815C59.9074 18.0401 59.8339 18.151 59.5033 18.3727C58.9524 18.7422 58.8422 18.8899 58.8422 19.2594V19.555C58.8422 20.0723 59.0993 20.3309 59.687 20.3309H64.315C64.9027 20.3309 65.2333 20.1462 65.2333 19.5181C65.2333 18.9638 65.0864 17.8923 64.9762 17.2642C64.9394 17.0425 64.866 16.71 64.866 16.5622C64.866 16.3405 65.0129 16.2297 65.1965 16.2297C65.4537 16.2297 66.7392 16.5252 67.8044 16.7839C68.9063 17.0425 69.2369 17.1534 69.2369 17.5229C69.2369 17.7076 69.2369 17.8554 68.8696 18.0401C68.3921 18.2988 68.2452 18.4835 68.2452 18.8899V19.5181C68.2452 20.1092 68.5757 20.3309 69.1634 20.3309H72.5794C73.9751 20.3309 74.0853 20.257 74.673 19.3703C75.3709 18.3357 75.7014 17.8923 75.9953 17.8923C76.3993 17.8923 79.1174 20.294 79.1174 20.7743C79.1174 21.2916 78.4195 21.2916 77.1707 21.2916H69.2369C68.5023 21.2916 68.3186 21.6611 68.3554 22.2892C68.3921 23.2129 68.3554 24.1736 66.2617 24.1736C65.27 24.1736 65.1598 23.4716 65.1598 22.8065V22.2153C65.1598 21.6241 64.8292 21.2916 64.2415 21.2916H59.7604C59.1727 21.2916 58.8422 21.6241 58.8422 22.2153V22.2892C58.8422 23.841 58.4749 24.5431 56.8955 24.5431ZM54.1407 37.4381C53.2224 37.4381 52.8551 37.0316 52.8551 36.2927C52.8551 36.1449 52.8551 35.8862 52.8918 35.0734C52.9653 33.9649 53.002 31.4894 53.0388 29.8636C53.0755 29.2725 52.7449 28.9399 52.0838 28.9399C49.1821 28.9399 47.97 28.9769 47.2354 29.1247C47.015 29.1616 46.9415 29.1616 46.9048 29.1616C46.8313 29.1616 46.7579 29.1247 46.5742 28.903L45.9131 28.1271C45.7294 27.9054 45.7294 27.8684 45.7294 27.8315C45.7294 27.7576 45.7661 27.7206 45.8396 27.7206H45.9498C47.419 27.8684 49.5861 27.9793 52.1205 27.9793C52.7449 27.9793 53.0755 27.6467 53.0388 27.0186C52.9653 26.2796 52.8918 25.5407 52.7817 24.9125C52.7449 24.6909 52.7082 24.3583 52.7082 24.2475C52.7082 23.9888 52.8184 23.9149 53.0755 23.9149C53.1857 23.9149 54.8386 24.3583 55.867 24.7648C56.4914 25.0234 56.822 25.1712 56.822 25.4298C56.822 25.6146 56.7485 25.7993 56.5649 25.9102C56.0139 26.2427 55.8303 26.4644 55.8303 26.76V27.1295C55.8303 27.6837 56.1241 27.9793 56.7118 27.9793H59.2462C59.8339 27.9793 60.1277 27.6467 60.1277 27.0556C60.091 26.3166 60.0176 25.6146 59.7972 25.0603C59.7237 24.8386 59.6502 24.617 59.6502 24.4322C59.6502 24.2475 59.7972 24.0997 60.091 24.0997C60.3481 24.0997 61.9643 24.4692 62.6989 24.6909C63.6171 24.9495 63.9477 25.1712 63.9477 25.3929C63.9477 25.6515 63.8375 25.8363 63.5069 26.1318C63.0662 26.5383 62.9927 26.6491 62.9927 27.2033C62.9927 27.7206 63.2866 27.9793 63.8375 27.9793H66.6658C67.2534 27.9793 67.584 27.6467 67.584 27.0556V26.723C67.584 26.1688 67.5106 25.3929 67.3636 24.8386C67.3269 24.6909 67.3269 24.6539 67.3269 24.5431C67.3269 24.2475 67.5473 24.1736 67.7677 24.1736C68.0982 24.1736 68.8696 24.3583 69.8246 24.617C70.9265 24.9495 71.5142 25.319 71.5142 25.6146C71.5142 25.8732 71.3305 26.0579 70.8898 26.3535C70.5592 26.5752 70.4857 26.6861 70.4857 27.1664C70.4857 27.7206 70.7796 27.9793 71.3673 27.9793H72.9467C74.0118 27.9793 74.2322 27.8684 74.5995 27.3881C75.3341 26.4274 75.7382 25.8732 76.032 25.8732C76.4728 25.8732 78.7133 28.0162 78.7133 28.4226C78.7133 28.9769 78.0522 28.9399 76.7666 28.9399H71.404C70.8163 28.9399 70.4857 29.2725 70.4857 29.8636C70.5225 30.3809 70.5225 30.8982 70.5592 31.3416C70.5959 32.0436 70.5959 32.5609 70.5959 32.8195C70.5959 33.7802 69.6042 34.1497 68.5023 34.1497C67.9146 34.1497 67.6207 34.0019 67.4738 33.5215C67.3636 33.189 67.2534 32.7456 66.5556 32.7456H63.8742C63.1764 32.7456 63.1029 33.1151 62.8825 33.4476C62.5152 33.9649 61.8541 34.3344 61.2297 34.3344C60.3849 34.3344 59.9808 34.0758 59.9808 33.2998C59.9808 33.1151 59.9808 32.7826 60.0175 32.3022C60.091 31.6372 60.1277 30.8982 60.1277 29.9006C60.1277 29.2725 59.7972 28.9399 59.2095 28.9399H56.7485C56.1609 28.9399 55.8303 29.2725 55.8303 29.8636V34.0019C55.8303 34.593 56.1609 34.9256 56.7485 34.9256H69.7511C70.853 34.9256 71.1101 34.8517 71.7713 33.9649C72.4692 33.0782 72.763 32.7826 72.9834 32.7826C73.6078 32.7826 76.032 34.7039 76.032 35.369C76.032 35.9232 75.3341 35.8862 74.0853 35.8862H56.9322C56.418 35.8862 56.1976 36.071 55.9772 36.4405C55.6099 36.9577 54.9855 37.4381 54.1407 37.4381ZM63.911 31.785H66.6658C67.2534 31.785 67.584 31.4524 67.584 30.8612V29.8636C67.584 29.2725 67.2534 28.9399 66.6658 28.9399H63.911C63.3233 28.9399 62.9927 29.2725 62.9927 29.8636V30.8612C62.9927 31.4524 63.3233 31.785 63.911 31.785ZM61.9643 50.2222C60.8624 50.2222 60.7154 49.5202 60.7154 48.6704C60.7154 48.3009 60.7154 47.7836 60.7522 46.9338C60.7889 46.0471 60.8623 44.3105 60.8623 43.4607C60.8623 42.8695 60.6052 42.7956 60.2379 43.1651C58.181 45.0864 56.2343 46.3796 54.0672 47.4142C51.7899 48.4857 49.4392 49.1507 46.7211 49.668C46.1702 49.7789 45.7661 49.8158 45.6192 49.8158C45.509 49.8158 45.4723 49.7419 45.4723 49.668C45.4723 49.5941 45.5825 49.5202 46.0967 49.2985C48.8515 48.1162 51.2757 46.7491 53.3326 45.2711C54.7651 44.3105 55.9772 43.2759 57.3362 41.9458C57.8137 41.4654 57.6668 41.0221 57.0057 41.0221H52.8918C50.5778 41.0221 48.0434 41.059 47.2721 41.1699C47.0517 41.2068 46.9415 41.2068 46.9048 41.2068C46.7946 41.2068 46.6844 41.1329 46.5375 40.9482L46.1334 40.4678C45.6927 39.9875 45.6927 39.9506 45.6927 39.8767C45.6927 39.8028 45.8029 39.8028 45.8396 39.8028H45.9865C47.9332 39.9875 51.1288 40.0614 53.1122 40.0614H59.8706C60.5318 40.0614 60.8623 39.7289 60.8623 39.1377V38.7682C60.8623 38.0662 60.6787 37.3642 60.4583 36.7361C60.4216 36.6252 60.3849 36.5144 60.3849 36.4405C60.3849 36.2188 60.6052 36.1079 60.7889 36.1079C61.1562 36.1079 63.36 36.5144 64.1314 36.7361C64.4987 36.8469 64.6823 36.9208 64.6823 37.2533C64.6823 37.512 64.5721 37.6228 64.2415 37.8814C63.911 38.1401 63.6906 38.5096 63.6906 39.2855C63.6906 39.8397 64.0212 40.0614 64.6089 40.0614H71.9549C73.4609 40.0614 73.5711 40.0245 74.2322 39.2855C75.077 38.3248 75.4443 37.9553 75.7014 37.9553C76.1422 37.9553 78.6399 40.0984 78.6399 40.5048C78.6399 40.9851 78.0522 41.0221 76.6932 41.0221H66.1883C65.4904 41.0221 65.3435 41.5024 65.8944 41.9458C68.8696 44.3474 73.6813 45.8254 77.7951 45.8254C78.7501 45.8254 79.7418 45.6406 79.9254 45.6406C79.9989 45.6406 80.0724 45.6776 80.0724 45.7884C80.0724 45.8623 79.9989 45.8993 79.5949 46.1579C78.6766 46.6752 78.1256 46.9338 77.5747 47.4511C77.0605 47.9314 76.6932 48.4857 76.3993 49.3355C76.2524 49.705 76.032 49.8158 75.6647 49.8158C75.2239 49.8158 73.4609 49.2246 71.8815 48.4487C69.898 47.525 67.9513 46.084 66.4086 44.4583C65.8577 43.941 64.9762 42.9064 64.3885 42.0566C63.9844 41.5393 63.6906 41.6502 63.6906 42.3522C63.6906 44.0888 63.8008 45.1972 63.911 46.7491C63.9477 47.3033 63.9844 48.0792 63.9844 48.4118C63.9844 49.5572 63.2866 50.2222 61.9643 50.2222ZM90.2467 28.8291C92.5607 26.2057 95.2788 22.2523 96.5276 19.4811C96.8949 18.6683 97.1153 18.0771 97.2255 17.2642C97.2989 16.71 97.4091 16.5622 97.5928 16.5622C97.7397 16.5622 97.9601 16.673 98.1805 16.7839C99.062 17.1903 100.054 17.5968 100.899 18.0401C101.156 18.1879 101.486 18.2988 101.486 18.6313C101.486 18.8899 101.266 19.0377 101.009 19.0747C100.568 19.1486 100.311 19.2225 99.9803 19.7028L99.5762 20.257C99.3191 20.6635 99.5395 20.8852 99.9435 20.8852H102.809C103.286 20.8852 103.58 20.7743 103.763 20.5526L104.057 20.2201C104.535 19.6289 104.718 19.4072 104.976 19.4072C105.49 19.4072 107.841 21.7719 107.841 22.5848C107.841 22.9173 107.73 23.139 106.922 23.3607C106.408 23.4716 106.224 23.7671 105.416 24.9864C102.772 28.866 100.862 31.2307 97.7764 33.7432C95.3155 35.7384 92.6342 37.0686 89.9161 37.8445C89.5488 37.9553 89.255 37.9923 89.1815 37.9923C89.0713 37.9923 88.9979 37.9553 88.9979 37.8445C88.9979 37.7337 89.1448 37.6228 89.3652 37.512C91.8261 36.1449 93.8463 34.5191 95.5359 32.9304C96.197 32.2653 96.8949 31.748 96.0501 31.3046C95.6461 31.0829 95.4257 30.6396 95.242 29.9006C95.0584 29.0877 94.6176 27.9793 94.3605 27.5728C93.9565 26.9447 93.4422 27.0925 93.0749 27.425C92.2301 28.164 91.2751 28.8291 90.5038 29.3464C90.0998 29.605 89.8794 29.6789 89.7692 29.6789C89.6957 29.6789 89.659 29.605 89.659 29.568C89.659 29.4942 89.6957 29.4572 90.2467 28.8291ZM123.708 34.8147C122.239 35.2951 121.1 36.071 120.402 36.8838C120.219 37.1425 120.109 37.2533 119.925 37.2533C119.741 37.2533 119.558 37.1425 119.154 36.8469C113.093 32.1175 109.42 26.723 107.253 18.0771C107.033 17.1903 107.069 16.9686 107.253 16.9686C107.437 16.9686 107.547 17.1164 107.877 17.8923C109.604 21.8828 111.403 24.8756 113.24 27.0925C113.644 27.5728 114.158 27.5359 114.526 27.0186C115.627 25.6146 116.619 24.1736 117.464 22.5109C117.758 21.9567 117.464 21.6611 116.876 21.6611H115.223C114.599 21.6611 112.983 21.7719 112.211 21.8458C111.881 21.8828 111.771 21.8828 111.661 21.8828C111.514 21.8828 111.367 21.698 111.257 21.5502L110.669 20.8482C110.522 20.6635 110.448 20.5526 110.448 20.5157C110.448 20.4418 110.559 20.4418 110.595 20.4418H110.669C111.624 20.5526 113.681 20.7004 114.93 20.7004H116.546C117.023 20.7004 117.354 20.5157 117.648 20.1462L117.868 19.8506C118.419 19.0747 118.713 18.7422 118.97 18.7422C119.154 18.7422 119.484 18.9638 119.851 19.2225L121.908 20.7743C122.459 21.2177 123.157 21.8089 123.157 22.2523C123.157 22.7326 122.863 22.9543 121.945 22.9912C121.174 22.9912 120.843 23.176 120.182 23.7302C119.631 24.1736 118.456 25.2081 117.17 26.2427L115.297 27.7945C114.489 28.4965 114.93 28.866 115.627 29.4203C118.162 31.5633 120.77 33.2259 123.782 34.1497C124.259 34.2975 124.296 34.3713 124.296 34.4822C124.296 34.63 124.149 34.6669 123.708 34.8147ZM103.249 22.7695C103.543 22.1414 103.396 21.8458 102.809 21.8458H99.062C98.5845 21.8458 98.2539 21.9936 97.9233 22.4001C97.5193 22.8804 97.9601 23.0282 98.658 23.2499C99.6864 23.5824 100.715 24.2105 101.045 25.1712C101.229 25.6146 101.376 26.021 101.707 25.5037C102.221 24.7278 102.772 23.7671 103.249 22.7695ZM98.658 29.5311C98.9885 29.1616 99.466 28.5704 99.6129 28.3857C100.09 27.7945 100.017 27.5359 99.466 27.2403C99.062 27.0186 98.7682 26.5013 98.511 25.6515C98.3274 24.9864 98.107 24.3953 97.7764 23.9519C97.4091 23.4716 97.0051 23.5085 96.5276 24.0258C96.1236 24.4322 95.7195 24.8756 95.3155 25.319L94.6176 26.021C94.1034 26.5383 94.7278 26.723 95.4624 27.0556C96.8214 27.6467 97.703 28.5704 97.9233 29.3833C98.0703 29.9006 98.2539 30.0114 98.658 29.5311ZM111.146 32.9304H106.188C105.196 32.9304 102.625 32.9673 102.258 33.0412L101.743 33.1151C101.596 33.1151 101.486 32.9673 101.413 32.8565L100.715 32.0436C100.605 31.9328 100.531 31.8589 100.531 31.8219C100.531 31.748 100.605 31.7111 100.678 31.7111H100.752C102.551 31.9328 105.049 31.9697 106.261 31.9697H106.996C107.914 31.9697 108.171 31.7111 108.722 30.8982C109.31 30.0114 109.677 29.605 109.934 29.605C110.412 29.605 113.093 31.6372 113.093 32.3761C113.093 32.8934 112.542 32.9304 111.146 32.9304ZM108.355 39.2485V43.3129L108.392 46.0101C108.392 47.3772 108.355 48.3379 107.657 49.0399C106.959 49.7419 105.82 50.1853 104.755 50.1853C104.241 50.1853 104.094 50.0005 103.91 49.5572C103.359 48.1901 102.441 47.6728 100.825 47.0816C100.568 46.9708 100.494 46.8969 100.494 46.786C100.494 46.6752 100.641 46.6382 100.752 46.6382C101.045 46.6382 102.478 46.823 103.323 46.823C105.233 46.823 105.38 46.3796 105.38 44.4583V39.2485C105.38 38.6574 105.049 38.3248 104.461 38.3248H100.899C99.7966 38.3248 97.2989 38.3618 96.6378 38.4357L95.9399 38.5096C95.793 38.5096 95.7195 38.4357 95.6093 38.2879L94.8747 37.4381C94.8013 37.3642 94.7278 37.2533 94.7278 37.1794C94.7278 37.1055 94.7645 37.1055 94.8747 37.1055H94.9482C96.3072 37.2533 99.7599 37.3642 101.523 37.3642H111.367C112.322 37.3642 112.542 37.1055 113.13 36.2927C113.975 35.1842 114.305 34.8517 114.562 34.8517C115.076 34.8517 117.905 37.3272 117.905 37.8445C117.905 38.3248 117.097 38.3248 115.958 38.3248H109.273C108.685 38.3248 108.355 38.6574 108.355 39.2485ZM91.1282 48.4857C93.4055 46.8969 95.8664 44.643 97.5193 42.2783C98.0335 41.5393 98.107 41.3177 98.2172 40.5787C98.2539 40.357 98.3641 40.1353 98.5845 40.1353C98.7314 40.1353 98.9518 40.2831 99.2824 40.5048C99.7599 40.8373 101.009 41.6871 101.449 42.0197C101.927 42.3522 102.184 42.4631 102.184 42.9064C102.184 43.239 101.964 43.4237 101.56 43.4976C101.009 43.6085 100.605 43.941 100.017 44.3844C97.4091 46.3426 94.8013 47.7467 91.8628 48.8182C91.4588 48.966 90.9078 49.1138 90.7609 49.1138C90.6507 49.1138 90.614 49.0399 90.614 48.966C90.614 48.8921 90.7609 48.7443 91.1282 48.4857ZM117.501 43.0542C120.035 44.4583 120.623 45.8993 120.623 47.0447C120.623 47.9314 120.219 49.0029 119.007 49.0029C118.162 49.0029 117.758 48.6704 116.986 47.4511C115.076 44.4952 113.46 42.9803 110.669 41.096C110.412 40.9112 110.338 40.8373 110.338 40.8004C110.338 40.7265 110.412 40.6526 110.522 40.6526C110.669 40.6526 110.963 40.7265 111.477 40.8373C114.048 41.4655 115.885 42.1305 117.501 43.0542Z" fill="white"/>
<path d="M132 1.15454H0V8.6597H132V1.15454Z" fill="white"/>
<path d="M4.1804 6.92787L3.58124 1.87055H4.15286L4.54541 5.61158C4.56378 5.76399 4.57755 5.92333 4.58673 6.0896C4.59592 6.25125 4.6028 6.38057 4.60739 6.47756C4.61658 6.38057 4.62806 6.25125 4.64183 6.0896C4.66019 5.92333 4.67856 5.76399 4.69692 5.61158L5.19279 1.87055H5.86082L6.31536 5.61158C6.33372 5.76399 6.35209 5.92333 6.37046 6.0896C6.38882 6.25125 6.40259 6.38057 6.41178 6.47756C6.42096 6.38057 6.43014 6.25125 6.43933 6.0896C6.4531 5.92333 6.46917 5.76399 6.48753 5.61158L6.89386 1.87055H7.43793L6.82499 6.92787H6.04677L5.59223 3.11756C5.57386 2.96053 5.56009 2.80811 5.55091 2.66032C5.54172 2.50791 5.53254 2.39014 5.52336 2.307C5.51418 2.39014 5.50499 2.50791 5.49581 2.66032C5.48663 2.80811 5.47056 2.96053 5.4476 3.11756L4.95863 6.92787H4.1804ZM13.7712 6.92787L15.0798 1.87055H15.9131L17.2147 6.92787H16.588L16.2574 5.58387H14.7354L14.4048 6.92787H13.7712ZM14.8594 5.05735H16.1266L15.7409 3.49859C15.6674 3.203 15.6101 2.95591 15.5687 2.75731C15.5274 2.55871 15.5022 2.42939 15.493 2.36935C15.4838 2.42939 15.4585 2.55871 15.4172 2.75731C15.3759 2.95591 15.3185 3.20069 15.245 3.49166L14.8594 5.05735ZM24.0439 6.92787V1.87055H24.6637V4.04589H25.4075L26.5232 1.87055H27.1981L25.9516 4.30915L27.267 6.92787H26.5576L25.3868 4.59319H24.6637V6.92787H24.0439ZM33.738 6.92787L35.0465 1.87055H35.8799L37.1815 6.92787H36.5548L36.2242 5.58387H34.7022L34.3716 6.92787H33.738ZM34.8262 5.05735H36.0934L35.7077 3.49859C35.6342 3.203 35.5768 2.95591 35.5355 2.75731C35.4942 2.55871 35.4689 2.42939 35.4598 2.36935C35.4506 2.42939 35.4253 2.55871 35.384 2.75731C35.3427 2.95591 35.2853 3.20069 35.2118 3.49166L34.8262 5.05735ZM44.0176 6.92787V1.87055H45.4432C45.9023 1.87055 46.2605 1.98601 46.5176 2.21694C46.7793 2.44787 46.9101 2.76886 46.9101 3.17991C46.9101 3.43855 46.8275 3.67178 46.6622 3.87962C46.5015 4.08745 46.2903 4.21677 46.0286 4.26758V4.28836C46.226 4.31146 46.3982 4.38073 46.5451 4.4962C46.6966 4.61166 46.8137 4.75945 46.8964 4.93958C46.9836 5.11508 47.0272 5.30906 47.0272 5.52152C47.0272 5.95566 46.8941 6.29974 46.6278 6.55376C46.3661 6.80317 46.0056 6.92787 45.5465 6.92787H44.0176ZM44.6237 4.0251H45.4363C45.7026 4.0251 45.9115 3.95352 46.063 3.81034C46.2191 3.66717 46.2972 3.47319 46.2972 3.2284C46.2972 2.98362 46.2214 2.78964 46.0699 2.64647C45.9184 2.50329 45.7095 2.4317 45.4432 2.4317H44.6237V4.0251ZM44.6237 6.36671H45.4776C45.7669 6.36671 45.9942 6.29051 46.1594 6.13809C46.3293 5.98106 46.4143 5.76861 46.4143 5.50073C46.4143 5.22362 46.3293 4.99962 46.1594 4.82873C45.9942 4.65323 45.7669 4.56548 45.4776 4.56548H44.6237V6.36671ZM53.7049 6.92787L55.0134 1.87055H55.8467L57.1483 6.92787H56.5216L56.191 5.58387H54.669L54.3385 6.92787H53.7049ZM54.793 5.05735H56.0602L55.6745 3.49859C55.6011 3.203 55.5437 2.95591 55.5023 2.75731C55.461 2.55871 55.4358 2.42939 55.4266 2.36935C55.4174 2.42939 55.3922 2.55871 55.3508 2.75731C55.3095 2.95591 55.2521 3.20069 55.1787 3.49166L54.793 5.05735ZM65.4376 6.99715C64.9509 6.99715 64.5629 6.86783 64.2737 6.60919C63.9844 6.35055 63.8398 5.99492 63.8398 5.5423H64.4596C64.4596 5.82403 64.5492 6.04572 64.7282 6.20737C64.9073 6.3644 65.1437 6.44292 65.4376 6.44292C65.7222 6.44292 65.9495 6.35978 66.1194 6.19352C66.2893 6.02725 66.3742 5.81018 66.3742 5.5423C66.3742 5.33908 66.3191 5.16358 66.2089 5.01578C66.1033 4.86337 65.9495 4.75945 65.7475 4.70403L64.983 4.48927C64.6662 4.3969 64.416 4.23294 64.2324 3.99739C64.0533 3.75723 63.9638 3.4755 63.9638 3.1522C63.9638 2.88432 64.0235 2.64877 64.1428 2.44556C64.2622 2.24234 64.4298 2.08531 64.6456 1.97447C64.8614 1.859 65.1093 1.80127 65.3894 1.80127C65.674 1.80127 65.9243 1.859 66.1401 1.97447C66.3604 2.08531 66.5326 2.24234 66.6566 2.44556C66.7805 2.64416 66.8425 2.87508 66.8425 3.13834H66.2227C66.2227 2.90741 66.1446 2.72036 65.9885 2.57719C65.8324 2.42939 65.6327 2.3555 65.3894 2.3555C65.146 2.3555 64.9486 2.42939 64.7971 2.57719C64.6456 2.72036 64.5698 2.90741 64.5698 3.13834C64.5698 3.32308 64.618 3.48242 64.7145 3.61636C64.8155 3.74568 64.9555 3.83574 65.1346 3.88655L65.9197 4.10824C66.2548 4.20061 66.5142 4.37611 66.6979 4.63475C66.8861 4.88877 66.9803 5.19129 66.9803 5.5423C66.9803 5.98568 66.8402 6.339 66.5602 6.60226C66.2801 6.86552 65.9059 6.99715 65.4376 6.99715ZM73.6715 6.92787L74.98 1.87055H75.8134L77.115 6.92787H76.4883L76.1577 5.58387H74.6357L74.3051 6.92787H73.6715ZM74.7597 5.05735H76.0269L75.6412 3.49859C75.5677 3.203 75.5103 2.95591 75.469 2.75731C75.4277 2.55871 75.4024 2.42939 75.3933 2.36935C75.3841 2.42939 75.3588 2.55871 75.3175 2.75731C75.2762 2.95591 75.2188 3.20069 75.1453 3.49166L74.7597 5.05735ZM84.0341 6.92787V6.35978H85.0602V2.43863H84.0341V1.87055H86.72V2.43863H85.6938V6.35978H86.72V6.92787H84.0341ZM93.8864 6.92787V6.35286L95.56 4.55162C95.8033 4.29298 95.9755 4.06205 96.0765 3.85884C96.1775 3.65562 96.228 3.45702 96.228 3.26304C96.228 2.98593 96.1477 2.76655 95.987 2.6049C95.8309 2.43863 95.6174 2.3555 95.3465 2.3555C95.0664 2.3555 94.8437 2.44094 94.6785 2.61183C94.5178 2.77809 94.4374 3.0044 94.4374 3.29075H93.8176C93.8314 2.83352 93.976 2.47096 94.2515 2.20308C94.5269 1.93521 94.8919 1.80127 95.3465 1.80127C95.8102 1.80127 96.1775 1.9329 96.4484 2.19616C96.7239 2.45941 96.8616 2.81735 96.8616 3.26997C96.8616 3.51014 96.795 3.76416 96.6619 4.03203C96.5333 4.29991 96.3107 4.60011 95.9939 4.93265L94.6371 6.35978H96.9236V6.92787H93.8864ZM105.343 6.99715C104.88 6.99715 104.51 6.86321 104.235 6.59533C103.964 6.32284 103.828 5.96028 103.828 5.50766V3.29075C103.828 2.83814 103.964 2.47789 104.235 2.21001C104.51 1.93752 104.88 1.80127 105.343 1.80127C105.807 1.80127 106.175 1.93752 106.445 2.21001C106.721 2.47789 106.859 2.83814 106.859 3.29075V5.50766C106.859 5.80787 106.797 6.07113 106.673 6.29743C106.549 6.51913 106.372 6.69232 106.142 6.81702C105.917 6.9371 105.651 6.99715 105.343 6.99715ZM105.343 6.4637C105.619 6.4637 105.839 6.37595 106.005 6.20044C106.175 6.02032 106.259 5.78939 106.259 5.50766V3.29075C106.259 3.00902 106.175 2.7804 106.005 2.6049C105.839 2.42477 105.619 2.33471 105.343 2.33471C105.068 2.33471 104.845 2.42477 104.675 2.6049C104.51 2.7804 104.428 3.00902 104.428 3.29075V5.50766C104.428 5.78939 104.51 6.02032 104.675 6.20044C104.845 6.37595 105.068 6.4637 105.343 6.4637ZM105.343 4.78024C105.22 4.78024 105.118 4.7456 105.04 4.67632C104.967 4.60704 104.93 4.50774 104.93 4.37842C104.93 4.25372 104.967 4.15904 105.04 4.09438C105.118 4.0251 105.22 3.99047 105.343 3.99047C105.467 3.99047 105.566 4.0251 105.64 4.09438C105.718 4.15904 105.757 4.25372 105.757 4.37842C105.757 4.50774 105.718 4.60704 105.64 4.67632C105.566 4.7456 105.467 4.78024 105.343 4.78024ZM113.853 6.92787V6.35286L115.526 4.55162C115.77 4.29298 115.942 4.06205 116.043 3.85884C116.144 3.65562 116.194 3.45702 116.194 3.26304C116.194 2.98593 116.114 2.76655 115.953 2.6049C115.797 2.43863 115.584 2.3555 115.313 2.3555C115.033 2.3555 114.81 2.44094 114.645 2.61183C114.484 2.77809 114.404 3.0044 114.404 3.29075H113.784C113.798 2.83352 113.942 2.47096 114.218 2.20308C114.493 1.93521 114.858 1.80127 115.313 1.80127C115.777 1.80127 116.144 1.9329 116.415 2.19616C116.69 2.45941 116.828 2.81735 116.828 3.26997C116.828 3.51014 116.761 3.76416 116.628 4.03203C116.5 4.29991 116.277 4.60011 115.96 4.93265L114.604 6.35978H116.89V6.92787H113.853ZM125.317 6.99715C124.996 6.99715 124.711 6.93018 124.463 6.79624C124.22 6.65768 124.03 6.46832 123.892 6.22816C123.754 5.98337 123.685 5.70164 123.685 5.38296C123.685 5.16127 123.726 4.93496 123.809 4.70403C123.892 4.46849 124.004 4.2237 124.147 3.96968L125.31 1.87055H125.999L124.76 4.03896L124.78 4.05282C124.84 3.9743 124.929 3.91426 125.049 3.87269C125.168 3.83113 125.299 3.81034 125.441 3.81034C125.74 3.81034 125.999 3.87731 126.22 4.01125C126.445 4.14057 126.619 4.32069 126.743 4.55162C126.872 4.78255 126.936 5.05042 126.936 5.35525C126.936 5.67855 126.867 5.9649 126.729 6.2143C126.591 6.45908 126.401 6.65075 126.158 6.78931C125.919 6.92787 125.639 6.99715 125.317 6.99715ZM125.31 6.44292C125.609 6.44292 125.85 6.34362 126.034 6.14502C126.222 5.94642 126.316 5.68778 126.316 5.3691C126.316 5.05042 126.222 4.79178 126.034 4.59319C125.85 4.39459 125.609 4.29529 125.31 4.29529C125.012 4.29529 124.769 4.39459 124.58 4.59319C124.397 4.79178 124.305 5.05042 124.305 5.3691C124.305 5.68778 124.397 5.94642 124.58 6.14502C124.769 6.34362 125.012 6.44292 125.31 6.44292Z" fill="#F9004B"/>
</svg>
