<svg width="230" height="97" viewBox="0 0 230 97" fill="none" xmlns="http://www.w3.org/2000/svg">
<path d="M40.192 47.504C38.144 47.504 38.144 46.224 38.144 45.328C38.144 44.816 38.208 43.92 38.272 43.152C38.336 42.448 38.336 41.168 38.4 39.696C38.4 38.672 37.824 38.096 36.8 38.096H26.752C25.728 38.096 25.152 38.672 25.152 39.696V45.008C25.152 46.48 22.848 47.248 21.312 47.248C19.776 47.248 19.456 46.352 19.456 45.136C19.456 44.624 19.456 44.496 19.52 43.664L19.712 39.696C19.712 38.672 19.136 38.096 18.112 38.096H13.76C10.432 38.096 6.4 38.16 5.184 38.352L4.288 38.48C4.096 38.48 3.968 38.352 3.712 38.032L2.432 36.496C2.304 36.368 2.24 36.24 2.24 36.176C2.24 36.048 2.304 35.984 2.432 35.984H2.56C5.696 36.304 7.552 36.432 14.08 36.432H18.112C19.136 36.432 19.712 35.856 19.648 34.768C19.52 32.4 19.264 30.864 18.88 29.968C18.688 29.52 18.624 29.264 18.624 29.136C18.624 28.752 18.944 28.624 19.2 28.624C20.544 28.624 27.392 29.392 27.392 30.672C27.392 31.12 27.008 31.312 26.368 31.824C25.536 32.528 25.152 32.976 25.152 34.704V34.832C25.152 35.856 25.728 36.432 26.752 36.432H36.8C37.824 36.432 38.4 35.856 38.4 34.832V32.784C38.4 30.864 38.272 30.352 37.696 29.136C37.632 29.008 37.568 28.88 37.568 28.688C37.568 28.432 37.888 28.368 38.144 28.368C38.336 28.368 41.024 28.816 41.856 28.944C44.864 29.392 45.952 29.584 45.952 30.352C45.952 30.608 45.888 30.864 45.12 31.44C44.224 32.144 44.032 32.272 44.032 34.32V34.832C44.032 35.856 44.608 36.432 45.632 36.432H49.408C51.328 36.432 51.584 36.24 52.928 34.512C53.888 33.168 54.464 32.656 54.912 32.656C55.808 32.656 61.44 36.496 61.44 37.264C61.44 38.096 60.16 38.096 58.048 38.096H45.632C44.608 38.096 44.032 38.672 44.032 39.696V44.88C44.032 45.136 43.904 45.712 43.456 46.16C42.752 46.864 41.536 47.504 40.192 47.504ZM19.648 86.672C17.856 86.672 17.344 86.096 17.344 84.944C17.344 84.432 17.536 82.064 17.664 80.528C17.92 77.712 17.92 74.32 17.92 72.976C17.92 71.12 17.92 69.648 17.856 68.112C17.792 66.704 17.152 66.448 16 67.344C12.544 69.968 8.896 72.272 5.504 74C4.352 74.576 2.88 75.152 2.432 75.152C2.304 75.152 2.24 75.088 2.24 74.96C2.24 74.832 2.368 74.704 2.944 74.256C9.216 69.84 16.96 61.712 21.056 56.272C21.696 55.44 21.376 54.864 20.352 54.864H14.592C9.344 54.864 7.104 55.056 5.888 55.184L5.184 55.248C5.056 55.248 4.864 55.12 4.608 54.8L3.328 53.264C3.2 53.136 3.136 53.008 3.136 52.944C3.136 52.816 3.2 52.816 3.328 52.816H3.584C6.72 53.136 11.712 53.2 14.912 53.2H21.824C22.784 53.2 23.488 52.752 24.128 51.92C25.344 50.192 26.368 48.4 26.944 46.736C27.328 45.712 27.584 44.688 27.648 43.792C27.712 43.216 27.776 42.96 28.096 42.96C28.48 42.96 30.4 43.792 31.104 44.112C32 44.496 35.392 46.096 35.392 47.056C35.392 47.696 34.432 48.144 33.664 48.4C32.768 48.72 32.512 49.04 31.936 49.872L30.72 51.664C29.952 52.752 30.272 53.2 31.552 53.2H48.576C50.624 53.2 50.88 53.072 51.968 51.664C53.248 49.936 53.824 49.424 54.336 49.424C55.104 49.424 60.736 53.2 60.736 54.032C60.736 54.864 59.392 54.864 57.344 54.864H30.144C28.992 54.864 28.224 55.12 27.264 56.272C26.048 57.68 24.576 59.408 22.912 61.136C22.144 61.904 22.08 62.544 22.656 63.12C23.232 63.696 23.872 63.952 24.64 63.952H42.368C43.2 63.952 43.776 63.632 44.352 62.928C45.376 61.584 46.016 60.816 46.464 60.816C47.424 60.816 52.672 64.528 52.672 65.552C52.672 66.064 52.416 66.256 51.52 66.704C50.304 67.28 49.984 67.472 49.984 68.176C49.984 68.624 50.176 75.28 50.432 78.032C50.56 79.568 50.752 81.744 50.752 82.256C50.752 85.2 46.912 85.776 45.888 85.776C44.288 85.776 44.288 84.56 44.288 83.792V82.512C44.288 81.488 43.712 80.912 42.688 80.912H25.28C24.256 80.912 23.68 81.488 23.68 82.512V82.896C23.68 85.328 22.464 86.672 19.648 86.672ZM25.152 79.248H42.816C43.84 79.248 44.416 78.672 44.416 77.648V67.216C44.416 66.192 43.84 65.616 42.816 65.616H25.152C24.128 65.616 23.552 66.192 23.552 67.216V77.648C23.552 78.672 24.128 79.248 25.152 79.248ZM99.136 42.512C97.408 42.512 97.088 41.936 97.088 39.824V38.352C97.088 37.392 96.64 36.88 95.744 36.88H92.608C90.496 36.88 85.056 36.88 82.688 37.136L81.92 37.2C81.728 37.2 81.6 37.136 81.344 36.816L80.256 35.536C79.872 35.088 79.808 35.024 79.808 34.896C79.808 34.768 79.936 34.768 80.064 34.768H80.32C84.608 35.152 88.704 35.216 92.864 35.216H95.744C97.024 35.216 97.344 34.768 97.344 33.744C97.344 32.72 97.024 30.608 96.704 29.648C96.576 29.264 96.448 28.816 96.448 28.624C96.448 28.112 96.768 27.984 97.216 27.984C97.792 27.984 104.384 29.52 104.384 30.8C104.384 31.248 104.256 31.44 103.68 31.824C102.72 32.464 102.528 32.72 102.528 33.36V33.872C102.528 34.768 102.976 35.216 104 35.216H112.064C113.088 35.216 113.664 34.896 113.664 33.808C113.664 32.848 113.408 30.992 113.216 29.904C113.152 29.52 113.024 28.944 113.024 28.688C113.024 28.304 113.28 28.112 113.6 28.112C114.048 28.112 116.288 28.624 118.144 29.072C120.064 29.52 120.64 29.712 120.64 30.352C120.64 30.672 120.64 30.928 120 31.248C119.168 31.696 118.912 32.016 118.912 32.72V33.808C118.912 34.832 119.488 35.216 120.512 35.216H126.464C128.896 35.216 129.088 35.088 130.112 33.552C131.328 31.76 131.904 30.992 132.416 30.992C133.12 30.992 137.856 35.152 137.856 35.984C137.856 36.88 136.64 36.88 134.464 36.88H120.64C119.36 36.88 119.04 37.52 119.104 38.608C119.168 40.208 119.104 41.872 115.456 41.872C113.728 41.872 113.536 40.656 113.536 39.504V38.48C113.536 37.456 112.96 36.88 111.936 36.88H104.128C103.104 36.88 102.528 37.456 102.528 38.48V38.608C102.528 41.296 101.888 42.512 99.136 42.512ZM94.336 64.848C92.736 64.848 92.096 64.144 92.096 62.864C92.096 62.608 92.096 62.16 92.16 60.752C92.288 58.832 92.352 54.544 92.416 51.728C92.48 50.704 91.904 50.128 90.752 50.128C85.696 50.128 83.584 50.192 82.304 50.448C81.92 50.512 81.792 50.512 81.728 50.512C81.6 50.512 81.472 50.448 81.152 50.064L80 48.72C79.68 48.336 79.68 48.272 79.68 48.208C79.68 48.08 79.744 48.016 79.872 48.016H80.064C82.624 48.272 86.4 48.464 90.816 48.464C91.904 48.464 92.48 47.888 92.416 46.8C92.288 45.52 92.16 44.24 91.968 43.152C91.904 42.768 91.84 42.192 91.84 42C91.84 41.552 92.032 41.424 92.48 41.424C92.672 41.424 95.552 42.192 97.344 42.896C98.432 43.344 99.008 43.6 99.008 44.048C99.008 44.368 98.88 44.688 98.56 44.88C97.6 45.456 97.28 45.84 97.28 46.352V46.992C97.28 47.952 97.792 48.464 98.816 48.464H103.232C104.256 48.464 104.768 47.888 104.768 46.864C104.704 45.584 104.576 44.368 104.192 43.408C104.064 43.024 103.936 42.64 103.936 42.32C103.936 42 104.192 41.744 104.704 41.744C105.152 41.744 107.968 42.384 109.248 42.768C110.848 43.216 111.424 43.6 111.424 43.984C111.424 44.432 111.232 44.752 110.656 45.264C109.888 45.968 109.76 46.16 109.76 47.12C109.76 48.016 110.272 48.464 111.232 48.464H116.16C117.184 48.464 117.76 47.888 117.76 46.864V46.288C117.76 45.328 117.632 43.984 117.376 43.024C117.312 42.768 117.312 42.704 117.312 42.512C117.312 42 117.696 41.872 118.08 41.872C118.656 41.872 120 42.192 121.664 42.64C123.584 43.216 124.608 43.856 124.608 44.368C124.608 44.816 124.288 45.136 123.52 45.648C122.944 46.032 122.816 46.224 122.816 47.056C122.816 48.016 123.328 48.464 124.352 48.464H127.104C128.96 48.464 129.344 48.272 129.984 47.44C131.264 45.776 131.968 44.816 132.48 44.816C133.248 44.816 137.152 48.528 137.152 49.232C137.152 50.192 136 50.128 133.76 50.128H124.416C123.392 50.128 122.816 50.704 122.816 51.728C122.88 52.624 122.88 53.52 122.944 54.288C123.008 55.504 123.008 56.4 123.008 56.848C123.008 58.512 121.28 59.152 119.36 59.152C118.336 59.152 117.824 58.896 117.568 58.064C117.376 57.488 117.184 56.72 115.968 56.72H111.296C110.08 56.72 109.952 57.36 109.568 57.936C108.928 58.832 107.776 59.472 106.688 59.472C105.216 59.472 104.512 59.024 104.512 57.68C104.512 57.36 104.512 56.784 104.576 55.952C104.704 54.8 104.768 53.52 104.768 51.792C104.768 50.704 104.192 50.128 103.168 50.128H98.88C97.856 50.128 97.28 50.704 97.28 51.728V58.896C97.28 59.92 97.856 60.496 98.88 60.496H121.536C123.456 60.496 123.904 60.368 125.056 58.832C126.272 57.296 126.784 56.784 127.168 56.784C128.256 56.784 132.48 60.112 132.48 61.264C132.48 62.224 131.264 62.16 129.088 62.16H99.2C98.304 62.16 97.92 62.48 97.536 63.12C96.896 64.016 95.808 64.848 94.336 64.848ZM111.36 55.056H116.16C117.184 55.056 117.76 54.48 117.76 53.456V51.728C117.76 50.704 117.184 50.128 116.16 50.128H111.36C110.336 50.128 109.76 50.704 109.76 51.728V53.456C109.76 54.48 110.336 55.056 111.36 55.056ZM107.968 86.992C106.048 86.992 105.792 85.776 105.792 84.304C105.792 83.664 105.792 82.768 105.856 81.296C105.92 79.76 106.048 76.752 106.048 75.28C106.048 74.256 105.6 74.128 104.96 74.768C101.376 78.096 97.984 80.336 94.208 82.128C90.24 83.984 86.144 85.136 81.408 86.032C80.448 86.224 79.744 86.288 79.488 86.288C79.296 86.288 79.232 86.16 79.232 86.032C79.232 85.904 79.424 85.776 80.32 85.392C85.12 83.344 89.344 80.976 92.928 78.416C95.424 76.752 97.536 74.96 99.904 72.656C100.736 71.824 100.48 71.056 99.328 71.056H92.16C88.128 71.056 83.712 71.12 82.368 71.312C81.984 71.376 81.792 71.376 81.728 71.376C81.536 71.376 81.344 71.248 81.088 70.928L80.384 70.096C79.616 69.264 79.616 69.2 79.616 69.072C79.616 68.944 79.808 68.944 79.872 68.944H80.128C83.52 69.264 89.088 69.392 92.544 69.392H104.32C105.472 69.392 106.048 68.816 106.048 67.792V67.152C106.048 65.936 105.728 64.72 105.344 63.632C105.28 63.44 105.216 63.248 105.216 63.12C105.216 62.736 105.6 62.544 105.92 62.544C106.56 62.544 110.4 63.248 111.744 63.632C112.384 63.824 112.704 63.952 112.704 64.528C112.704 64.976 112.512 65.168 111.936 65.616C111.36 66.064 110.976 66.704 110.976 68.048C110.976 69.008 111.552 69.392 112.576 69.392H125.376C128 69.392 128.192 69.328 129.344 68.048C130.816 66.384 131.456 65.744 131.904 65.744C132.672 65.744 137.024 69.456 137.024 70.16C137.024 70.992 136 71.056 133.632 71.056H115.328C114.112 71.056 113.856 71.888 114.816 72.656C120 76.816 128.384 79.376 135.552 79.376C137.216 79.376 138.944 79.056 139.264 79.056C139.392 79.056 139.52 79.12 139.52 79.312C139.52 79.44 139.392 79.504 138.688 79.952C137.088 80.848 136.128 81.296 135.168 82.192C134.272 83.024 133.632 83.984 133.12 85.456C132.864 86.096 132.48 86.288 131.84 86.288C131.072 86.288 128 85.264 125.248 83.92C121.792 82.32 118.4 79.824 115.712 77.008C114.752 76.112 113.216 74.32 112.192 72.848C111.488 71.952 110.976 72.144 110.976 73.36C110.976 76.368 111.168 78.288 111.36 80.976C111.424 81.936 111.488 83.28 111.488 83.856C111.488 85.84 110.272 86.992 107.968 86.992ZM157.248 49.936C161.28 45.392 166.016 38.544 168.192 33.744C168.832 32.336 169.216 31.312 169.408 29.904C169.536 28.944 169.728 28.688 170.048 28.688C170.304 28.688 170.688 28.88 171.072 29.072C172.608 29.776 174.336 30.48 175.808 31.248C176.256 31.504 176.832 31.696 176.832 32.272C176.832 32.72 176.448 32.976 176 33.04C175.232 33.168 174.784 33.296 174.208 34.128L173.504 35.088C173.056 35.792 173.44 36.176 174.144 36.176H179.136C179.968 36.176 180.48 35.984 180.8 35.6L181.312 35.024C182.144 34 182.464 33.616 182.912 33.616C183.808 33.616 187.904 37.712 187.904 39.12C187.904 39.696 187.712 40.08 186.304 40.464C185.408 40.656 185.088 41.168 183.68 43.28C179.072 50 175.744 54.096 170.368 58.448C166.08 61.904 161.408 64.208 156.672 65.552C156.032 65.744 155.52 65.808 155.392 65.808C155.2 65.808 155.072 65.744 155.072 65.552C155.072 65.36 155.328 65.168 155.712 64.976C160 62.608 163.52 59.792 166.464 57.04C167.616 55.888 168.832 54.992 167.36 54.224C166.656 53.84 166.272 53.072 165.952 51.792C165.632 50.384 164.864 48.464 164.416 47.76C163.712 46.672 162.816 46.928 162.176 47.504C160.704 48.784 159.04 49.936 157.696 50.832C156.992 51.28 156.608 51.408 156.416 51.408C156.288 51.408 156.224 51.28 156.224 51.216C156.224 51.088 156.288 51.024 157.248 49.936ZM215.552 60.304C212.992 61.136 211.008 62.48 209.792 63.888C209.472 64.336 209.28 64.528 208.96 64.528C208.64 64.528 208.32 64.336 207.616 63.824C197.056 55.632 190.656 46.288 186.88 31.312C186.496 29.776 186.56 29.392 186.88 29.392C187.2 29.392 187.392 29.648 187.968 30.992C190.976 37.904 194.112 43.088 197.312 46.928C198.016 47.76 198.912 47.696 199.552 46.8C201.472 44.368 203.2 41.872 204.672 38.992C205.184 38.032 204.672 37.52 203.648 37.52H200.768C199.68 37.52 196.864 37.712 195.52 37.84C194.944 37.904 194.752 37.904 194.56 37.904C194.304 37.904 194.048 37.584 193.856 37.328L192.832 36.112C192.576 35.792 192.448 35.6 192.448 35.536C192.448 35.408 192.64 35.408 192.704 35.408H192.832C194.496 35.6 198.08 35.856 200.256 35.856H203.072C203.904 35.856 204.48 35.536 204.992 34.896L205.376 34.384C206.336 33.04 206.848 32.464 207.296 32.464C207.616 32.464 208.192 32.848 208.832 33.296L212.416 35.984C213.376 36.752 214.592 37.776 214.592 38.544C214.592 39.376 214.08 39.76 212.48 39.824C211.136 39.824 210.56 40.144 209.408 41.104C208.448 41.872 206.4 43.664 204.16 45.456L200.896 48.144C199.488 49.36 200.256 50 201.472 50.96C205.888 54.672 210.432 57.552 215.68 59.152C216.512 59.408 216.576 59.536 216.576 59.728C216.576 59.984 216.32 60.048 215.552 60.304ZM179.904 39.44C180.416 38.352 180.16 37.84 179.136 37.84H172.608C171.776 37.84 171.2 38.096 170.624 38.8C169.92 39.632 170.688 39.888 171.904 40.272C173.696 40.848 175.488 41.936 176.064 43.6C176.384 44.368 176.64 45.072 177.216 44.176C178.112 42.832 179.072 41.168 179.904 39.44ZM171.904 51.152C172.48 50.512 173.312 49.488 173.568 49.168C174.4 48.144 174.272 47.696 173.312 47.184C172.608 46.8 172.096 45.904 171.648 44.432C171.328 43.28 170.944 42.256 170.368 41.488C169.728 40.656 169.024 40.72 168.192 41.616C167.488 42.32 166.784 43.088 166.08 43.856L164.864 45.072C163.968 45.968 165.056 46.288 166.336 46.864C168.704 47.888 170.24 49.488 170.624 50.896C170.88 51.792 171.2 51.984 171.904 51.152ZM193.664 57.04H185.024C183.296 57.04 178.816 57.104 178.176 57.232L177.28 57.36C177.024 57.36 176.832 57.104 176.704 56.912L175.488 55.504C175.296 55.312 175.168 55.184 175.168 55.12C175.168 54.992 175.296 54.928 175.424 54.928H175.552C178.688 55.312 183.04 55.376 185.152 55.376H186.432C188.032 55.376 188.48 54.928 189.44 53.52C190.464 51.984 191.104 51.28 191.552 51.28C192.384 51.28 197.056 54.8 197.056 56.08C197.056 56.976 196.096 57.04 193.664 57.04ZM188.8 67.984V75.024L188.864 79.696C188.864 82.064 188.8 83.728 187.584 84.944C186.368 86.16 184.384 86.928 182.528 86.928C181.632 86.928 181.376 86.608 181.056 85.84C180.096 83.472 178.496 82.576 175.68 81.552C175.232 81.36 175.104 81.232 175.104 81.04C175.104 80.848 175.36 80.784 175.552 80.784C176.064 80.784 178.56 81.104 180.032 81.104C183.36 81.104 183.616 80.336 183.616 77.008V67.984C183.616 66.96 183.04 66.384 182.016 66.384H175.808C173.888 66.384 169.536 66.448 168.384 66.576L167.168 66.704C166.912 66.704 166.784 66.576 166.592 66.32L165.312 64.848C165.184 64.72 165.056 64.528 165.056 64.4C165.056 64.272 165.12 64.272 165.312 64.272H165.44C167.808 64.528 173.824 64.72 176.896 64.72H194.048C195.712 64.72 196.096 64.272 197.12 62.864C198.592 60.944 199.168 60.368 199.616 60.368C200.512 60.368 205.44 64.656 205.44 65.552C205.44 66.384 204.032 66.384 202.048 66.384H190.4C189.376 66.384 188.8 66.96 188.8 67.984ZM158.784 83.984C162.752 81.232 167.04 77.328 169.92 73.232C170.816 71.952 170.944 71.568 171.136 70.288C171.2 69.904 171.392 69.52 171.776 69.52C172.032 69.52 172.416 69.776 172.992 70.16C173.824 70.736 176 72.208 176.768 72.784C177.6 73.36 178.048 73.552 178.048 74.32C178.048 74.896 177.664 75.216 176.96 75.344C176 75.536 175.296 76.112 174.272 76.88C169.728 80.272 165.184 82.704 160.064 84.56C159.36 84.816 158.4 85.072 158.144 85.072C157.952 85.072 157.888 84.944 157.888 84.816C157.888 84.688 158.144 84.432 158.784 83.984ZM204.736 74.576C209.152 77.008 210.176 79.504 210.176 81.488C210.176 83.024 209.472 84.88 207.36 84.88C205.888 84.88 205.184 84.304 203.84 82.192C200.512 77.072 197.696 74.448 192.832 71.184C192.384 70.864 192.256 70.736 192.256 70.672C192.256 70.544 192.384 70.416 192.576 70.416C192.832 70.416 193.344 70.544 194.24 70.736C198.72 71.824 201.92 72.976 204.736 74.576Z" fill="black"/>
<rect y="2" width="230" height="13" fill="#F9004B"/>
<path d="M7.284 12L6.24 3.24H7.236L7.92 9.72C7.952 9.984 7.976 10.26 7.992 10.548C8.008 10.828 8.02 11.052 8.028 11.22C8.044 11.052 8.064 10.828 8.088 10.548C8.12 10.26 8.152 9.984 8.184 9.72L9.048 3.24H10.212L11.004 9.72C11.036 9.984 11.068 10.26 11.1 10.548C11.132 10.828 11.156 11.052 11.172 11.22C11.188 11.052 11.204 10.828 11.22 10.548C11.244 10.26 11.272 9.984 11.304 9.72L12.012 3.24H12.96L11.892 12H10.536L9.744 5.4C9.712 5.128 9.688 4.864 9.672 4.608C9.656 4.344 9.64 4.14 9.624 3.996C9.608 4.14 9.592 4.344 9.576 4.608C9.56 4.864 9.532 5.128 9.492 5.4L8.64 12H7.284ZM23.9953 12L26.2753 3.24H27.7273L29.9953 12H28.9033L28.3273 9.672H25.6753L25.0993 12H23.9953ZM25.8913 8.76H28.0993L27.4273 6.06C27.2993 5.548 27.1993 5.12 27.1273 4.776C27.0553 4.432 27.0113 4.208 26.9953 4.104C26.9793 4.208 26.9353 4.432 26.8633 4.776C26.7913 5.12 26.6913 5.544 26.5633 6.048L25.8913 8.76ZM41.8946 12V3.24H42.9746V7.008H44.2706L46.2146 3.24H47.3906L45.2186 7.464L47.5106 12H46.2746L44.2346 7.956H42.9746V12H41.8946ZM58.7859 12L61.0659 3.24H62.5179L64.7859 12H63.6939L63.1179 9.672H60.4659L59.8899 12H58.7859ZM60.6819 8.76H62.8899L62.2179 6.06C62.0899 5.548 61.9899 5.12 61.9179 4.776C61.8459 4.432 61.8019 4.208 61.7859 4.104C61.7699 4.208 61.7259 4.432 61.6539 4.776C61.5819 5.12 61.4819 5.544 61.3539 6.048L60.6819 8.76ZM76.6973 12V3.24H79.1813C79.9813 3.24 80.6053 3.44 81.0533 3.84C81.5093 4.24 81.7373 4.796 81.7373 5.508C81.7373 5.956 81.5933 6.36 81.3053 6.72C81.0253 7.08 80.6573 7.304 80.2013 7.392V7.428C80.5453 7.468 80.8453 7.588 81.1013 7.788C81.3653 7.988 81.5693 8.244 81.7133 8.556C81.8653 8.86 81.9413 9.196 81.9413 9.564C81.9413 10.316 81.7093 10.912 81.2453 11.352C80.7893 11.784 80.1613 12 79.3613 12H76.6973ZM77.7533 6.972H79.1693C79.6333 6.972 79.9973 6.848 80.2613 6.6C80.5333 6.352 80.6693 6.016 80.6693 5.592C80.6693 5.168 80.5373 4.832 80.2733 4.584C80.0093 4.336 79.6453 4.212 79.1813 4.212H77.7533V6.972ZM77.7533 11.028H79.2413C79.7453 11.028 80.1413 10.896 80.4293 10.632C80.7253 10.36 80.8733 9.992 80.8733 9.528C80.8733 9.048 80.7253 8.66 80.4293 8.364C80.1413 8.06 79.7453 7.908 79.2413 7.908H77.7533V11.028ZM93.5766 12L95.8566 3.24H97.3086L99.5766 12H98.4846L97.9086 9.672H95.2566L94.6806 12H93.5766ZM95.4726 8.76H97.6806L97.0086 6.06C96.8806 5.548 96.7806 5.12 96.7086 4.776C96.6366 4.432 96.5926 4.208 96.5766 4.104C96.5606 4.208 96.5166 4.432 96.4446 4.776C96.3726 5.12 96.2726 5.544 96.1446 6.048L95.4726 8.76ZM114.02 12.12C113.172 12.12 112.496 11.896 111.992 11.448C111.488 11 111.236 10.384 111.236 9.6H112.316C112.316 10.088 112.472 10.472 112.784 10.752C113.096 11.024 113.508 11.16 114.02 11.16C114.516 11.16 114.912 11.016 115.208 10.728C115.504 10.44 115.652 10.064 115.652 9.6C115.652 9.248 115.556 8.944 115.364 8.688C115.18 8.424 114.912 8.244 114.56 8.148L113.228 7.776C112.676 7.616 112.24 7.332 111.92 6.924C111.608 6.508 111.452 6.02 111.452 5.46C111.452 4.996 111.556 4.588 111.764 4.236C111.972 3.884 112.264 3.612 112.64 3.42C113.016 3.22 113.448 3.12 113.936 3.12C114.432 3.12 114.868 3.22 115.244 3.42C115.628 3.612 115.928 3.884 116.144 4.236C116.36 4.58 116.468 4.98 116.468 5.436H115.388C115.388 5.036 115.252 4.712 114.98 4.464C114.708 4.208 114.36 4.08 113.936 4.08C113.512 4.08 113.168 4.208 112.904 4.464C112.64 4.712 112.508 5.036 112.508 5.436C112.508 5.756 112.592 6.032 112.76 6.264C112.936 6.488 113.18 6.644 113.492 6.732L114.86 7.116C115.444 7.276 115.896 7.58 116.216 8.028C116.544 8.468 116.708 8.992 116.708 9.6C116.708 10.368 116.464 10.98 115.976 11.436C115.488 11.892 114.836 12.12 114.02 12.12ZM128.367 12L130.647 3.24H132.099L134.367 12H133.275L132.699 9.672H130.047L129.471 12H128.367ZM130.263 8.76H132.471L131.799 6.06C131.671 5.548 131.571 5.12 131.499 4.776C131.427 4.432 131.383 4.208 131.367 4.104C131.351 4.208 131.307 4.432 131.235 4.776C131.163 5.12 131.063 5.544 130.935 6.048L130.263 8.76ZM146.423 12V11.016H148.211V4.224H146.423V3.24H151.103V4.224H149.315V11.016H151.103V12H146.423ZM163.59 12V11.004L166.506 7.884C166.93 7.436 167.23 7.036 167.406 6.684C167.582 6.332 167.67 5.988 167.67 5.652C167.67 5.172 167.53 4.792 167.25 4.512C166.978 4.224 166.606 4.08 166.134 4.08C165.646 4.08 165.258 4.228 164.97 4.524C164.69 4.812 164.55 5.204 164.55 5.7H163.47C163.494 4.908 163.746 4.28 164.226 3.816C164.706 3.352 165.342 3.12 166.134 3.12C166.942 3.12 167.582 3.348 168.054 3.804C168.534 4.26 168.774 4.88 168.774 5.664C168.774 6.08 168.658 6.52 168.426 6.984C168.202 7.448 167.814 7.968 167.262 8.544L164.898 11.016H168.882V12H163.59ZM183.553 12.12C182.745 12.12 182.101 11.888 181.621 11.424C181.149 10.952 180.913 10.324 180.913 9.54V5.7C180.913 4.916 181.149 4.292 181.621 3.828C182.101 3.356 182.745 3.12 183.553 3.12C184.361 3.12 185.001 3.356 185.473 3.828C185.953 4.292 186.193 4.916 186.193 5.7V9.54C186.193 10.06 186.085 10.516 185.869 10.908C185.653 11.292 185.345 11.592 184.945 11.808C184.553 12.016 184.089 12.12 183.553 12.12ZM183.553 11.196C184.033 11.196 184.417 11.044 184.705 10.74C185.001 10.428 185.149 10.028 185.149 9.54V5.7C185.149 5.212 185.001 4.816 184.705 4.512C184.417 4.2 184.033 4.044 183.553 4.044C183.073 4.044 182.685 4.2 182.389 4.512C182.101 4.816 181.957 5.212 181.957 5.7V9.54C181.957 10.028 182.101 10.428 182.389 10.74C182.685 11.044 183.073 11.196 183.553 11.196ZM183.553 8.28C183.337 8.28 183.161 8.22 183.025 8.1C182.897 7.98 182.833 7.808 182.833 7.584C182.833 7.368 182.897 7.204 183.025 7.092C183.161 6.972 183.337 6.912 183.553 6.912C183.769 6.912 183.941 6.972 184.069 7.092C184.205 7.204 184.273 7.368 184.273 7.584C184.273 7.808 184.205 7.98 184.069 8.1C183.941 8.22 183.769 8.28 183.553 8.28ZM198.38 12V11.004L201.296 7.884C201.72 7.436 202.02 7.036 202.196 6.684C202.372 6.332 202.46 5.988 202.46 5.652C202.46 5.172 202.32 4.792 202.04 4.512C201.768 4.224 201.396 4.08 200.924 4.08C200.436 4.08 200.048 4.228 199.76 4.524C199.48 4.812 199.34 5.204 199.34 5.7H198.26C198.284 4.908 198.536 4.28 199.016 3.816C199.496 3.352 200.132 3.12 200.924 3.12C201.732 3.12 202.372 3.348 202.844 3.804C203.324 4.26 203.564 4.88 203.564 5.664C203.564 6.08 203.448 6.52 203.216 6.984C202.992 7.448 202.604 7.968 202.052 8.544L199.688 11.016H203.672V12H198.38ZM218.356 12.12C217.796 12.12 217.3 12.004 216.868 11.772C216.444 11.532 216.112 11.204 215.872 10.788C215.632 10.364 215.512 9.876 215.512 9.324C215.512 8.94 215.584 8.548 215.728 8.148C215.872 7.74 216.068 7.316 216.316 6.876L218.344 3.24H219.544L217.384 6.996L217.42 7.02C217.524 6.884 217.68 6.78 217.888 6.708C218.096 6.636 218.324 6.6 218.572 6.6C219.092 6.6 219.544 6.716 219.928 6.948C220.32 7.172 220.624 7.484 220.84 7.884C221.064 8.284 221.176 8.748 221.176 9.276C221.176 9.836 221.056 10.332 220.816 10.764C220.576 11.188 220.244 11.52 219.82 11.76C219.404 12 218.916 12.12 218.356 12.12ZM218.344 11.16C218.864 11.16 219.284 10.988 219.604 10.644C219.932 10.3 220.096 9.852 220.096 9.3C220.096 8.748 219.932 8.3 219.604 7.956C219.284 7.612 218.864 7.44 218.344 7.44C217.824 7.44 217.4 7.612 217.072 7.956C216.752 8.3 216.592 8.748 216.592 9.3C216.592 9.852 216.752 10.3 217.072 10.644C217.4 10.988 217.824 11.16 218.344 11.16Z" fill="white"/>
</svg>
