<svg width="54" height="12" viewBox="0 0 54 12" fill="none" xmlns="http://www.w3.org/2000/svg">
<path d="M5.53797 1.87198C4.28997 3.44498 2.91197 4.74498 1.26097 5.87598C1.13097 5.96698 0.935973 6.09698 0.779973 6.09698C0.467973 6.09698 -2.73213e-05 5.42098 -2.73213e-05 5.21298C-2.73213e-05 5.08298 0.246973 4.91398 0.363973 4.86198C1.71597 4.01698 3.05497 2.88598 4.06897 1.66398C4.35497 1.31298 4.92697 0.57198 5.12197 0.19498C5.17397 0.10398 5.21297 -2.00272e-05 5.32997 -2.00272e-05C5.49897 -2.00272e-05 6.01897 0.15598 6.33097 0.22098C6.72097 0.29898 6.81197 0.35098 6.81197 0.49398C6.81197 0.58498 6.74697 0.61098 6.66897 0.64998C6.62997 0.66298 6.59097 0.70198 6.59097 0.74098C6.59097 0.76698 6.60397 0.77998 6.61697 0.79298C7.73497 2.33998 9.58097 3.83498 11.258 4.75798C11.596 4.93998 11.648 4.99198 11.648 5.12198C11.648 5.39498 11.115 6.05798 10.855 6.05798C10.569 6.05798 9.33397 5.10898 9.04797 4.88798C7.91697 4.01698 6.82497 3.01598 5.96697 1.89798C5.91497 1.81998 5.84997 1.76798 5.74597 1.76798C5.65497 1.76798 5.60297 1.81998 5.53797 1.87198ZM8.20297 7.60498H7.08497C6.83797 7.60498 6.72097 7.70898 6.72097 7.96898V9.73698C6.72097 9.98398 6.83797 10.088 7.08497 10.088H9.61997C10.153 10.088 10.686 10.062 11.219 10.062C11.531 10.062 11.531 10.192 11.531 10.699C11.531 11.18 11.531 11.323 11.232 11.323C10.686 11.323 10.153 11.297 9.61997 11.297H1.94997C1.41697 11.297 0.870973 11.323 0.337973 11.323C0.0259727 11.323 0.0389727 11.167 0.0389727 10.699C0.0389727 10.218 0.0259727 10.062 0.337973 10.062C0.844973 10.062 1.33897 10.101 1.83297 10.088C2.09297 10.075 2.19697 9.98398 2.19697 9.73698V7.05898C2.19697 6.73398 2.19697 6.39598 2.15797 6.12298C2.14497 6.08398 2.14497 6.04498 2.14497 5.99298C2.14497 5.84998 2.23597 5.82398 2.36597 5.82398C2.66497 5.82398 2.95097 5.86298 3.24997 5.87598C3.57497 5.90198 3.80897 5.91498 3.80897 6.07098C3.80897 6.18798 3.71797 6.21398 3.63997 6.26598C3.48397 6.36998 3.47097 6.56498 3.47097 7.05898V9.73698C3.47097 9.98398 3.57497 10.088 3.83497 10.088H5.06997C5.31697 10.088 5.42097 9.98398 5.42097 9.73698V4.97898C5.42097 4.74498 5.40797 4.51098 5.38197 4.27698C5.38197 4.23798 5.36897 4.18598 5.36897 4.14698C5.36897 4.00398 5.47297 3.97798 5.60297 3.97798C5.84997 3.97798 6.44797 4.02998 6.75997 4.04298C6.87697 4.05598 7.03297 4.06898 7.03297 4.21198C7.03297 4.30298 6.98097 4.32898 6.87697 4.39398C6.73397 4.48498 6.72097 4.79698 6.72097 5.08298V6.07098C6.72097 6.31798 6.83797 6.42198 7.08497 6.42198H8.20297C8.65797 6.42198 9.11297 6.39598 9.56797 6.39598C9.86697 6.39598 9.86697 6.52598 9.86697 7.01998C9.86697 7.48798 9.86697 7.63098 9.56797 7.63098C9.11297 7.63098 8.65797 7.60498 8.20297 7.60498ZM23.751 9.34698V4.25098C23.751 3.88698 23.725 3.49698 23.699 3.15898C23.699 3.11998 23.686 3.06798 23.686 3.02898C23.686 2.87298 23.816 2.85998 23.933 2.85998C24.167 2.85998 24.752 2.89898 25.025 2.91198C25.129 2.92498 25.35 2.92498 25.35 3.08098C25.35 3.17198 25.298 3.19798 25.194 3.26298C25.051 3.37998 25.038 3.66598 25.038 4.09498V9.47698C25.038 10.075 25.077 10.66 25.077 11.258C25.077 11.661 24.934 11.674 24.401 11.674C23.803 11.674 23.725 11.648 23.712 11.232C23.699 11.024 23.621 10.933 23.413 10.933H16.185C15.977 10.933 15.886 11.024 15.886 11.232V11.31C15.886 11.7 15.704 11.7 15.197 11.7C14.664 11.7 14.521 11.687 14.521 11.284C14.521 10.699 14.56 10.127 14.56 9.54198V4.23798C14.56 3.87398 14.534 3.47098 14.508 3.15898C14.508 3.10698 14.495 3.06798 14.495 3.02898C14.495 2.87298 14.612 2.85998 14.729 2.85998C14.963 2.85998 15.574 2.89898 15.821 2.91198C15.938 2.92498 16.159 2.92498 16.159 3.08098C16.159 3.17198 16.094 3.21098 16.003 3.26298C15.86 3.36698 15.847 3.63998 15.847 4.06898V9.34698C15.847 9.60698 15.951 9.71098 16.211 9.71098H23.387C23.647 9.71098 23.751 9.60698 23.751 9.34698ZM18.369 5.22598H18.837C19.058 5.19998 19.175 5.08298 19.201 4.86198V4.53698C19.175 4.31598 19.058 4.18598 18.837 4.18598H18.369C18.148 4.18598 18.018 4.31598 18.018 4.53698V4.86198C18.018 5.08298 18.148 5.19998 18.369 5.22598ZM19.201 7.11098V6.60398C19.175 6.38298 19.058 6.26598 18.837 6.23998H18.369C18.148 6.26598 18.018 6.38298 18.018 6.60398V7.11098C18.018 7.33198 18.148 7.44898 18.369 7.47498H18.837C19.058 7.44898 19.175 7.33198 19.201 7.11098ZM21.268 6.23998H20.774C20.553 6.26598 20.436 6.38298 20.41 6.60398V7.11098C20.436 7.33198 20.553 7.44898 20.774 7.47498H21.268C21.489 7.44898 21.619 7.33198 21.619 7.11098V6.60398C21.593 6.38298 21.489 6.26598 21.268 6.23998ZM20.41 4.53698V4.86198C20.436 5.08298 20.553 5.19998 20.774 5.22598H21.268C21.489 5.19998 21.619 5.08298 21.619 4.86198V4.53698C21.593 4.31598 21.489 4.18598 21.268 4.18598H20.774C20.553 4.18598 20.436 4.31598 20.41 4.53698ZM20.878 3.05498H21.32C21.606 3.05498 21.892 3.02898 22.178 3.02898C22.581 3.02898 22.776 3.14598 22.776 3.57498C22.776 3.83498 22.763 4.09498 22.763 4.36798V7.29298C22.763 7.55298 22.776 7.82598 22.776 8.08598C22.776 8.50198 22.594 8.63198 22.204 8.63198C21.905 8.63198 21.606 8.60598 21.32 8.60598H18.278C17.992 8.60598 17.706 8.63198 17.42 8.63198C17.017 8.63198 16.822 8.51498 16.822 8.08598C16.822 7.81298 16.848 7.55298 16.848 7.29298V4.36798C16.848 4.10798 16.822 3.84798 16.822 3.57498C16.822 3.15898 17.004 3.02898 17.407 3.02898C17.693 3.02898 17.992 3.05498 18.278 3.05498H18.772C19.032 3.05498 19.136 2.95098 19.136 2.69098V2.06698C19.136 1.81998 19.032 1.70298 18.772 1.70298H15.99C15.457 1.70298 14.924 1.74198 14.378 1.74198C14.066 1.74198 14.066 1.57298 14.066 1.10498C14.066 0.62398 14.066 0.45498 14.378 0.45498C14.924 0.45498 15.457 0.48098 15.99 0.48098H23.647C24.18 0.48098 24.726 0.45498 25.259 0.45498C25.584 0.45498 25.571 0.62398 25.571 1.10498C25.571 1.57298 25.571 1.74198 25.259 1.74198C24.726 1.74198 24.193 1.70298 23.647 1.70298H20.878C20.618 1.70298 20.514 1.81998 20.514 2.06698V2.69098C20.514 2.95098 20.618 3.05498 20.878 3.05498ZM37.388 6.60398H30.316C29.731 6.60398 29.146 6.64298 28.574 6.64298C28.21 6.64298 28.236 6.43498 28.236 5.87598C28.236 5.32998 28.21 5.10898 28.574 5.10898C29.146 5.10898 29.731 5.14798 30.316 5.14798H37.388C37.973 5.14798 38.558 5.10898 39.13 5.10898C39.494 5.10898 39.468 5.31698 39.468 5.87598C39.468 6.44798 39.494 6.64298 39.13 6.64298C38.545 6.64298 37.973 6.60398 37.388 6.60398ZM51.766 4.21198H49.92C49.556 4.21198 49.192 4.23798 48.828 4.23798C48.555 4.23798 48.568 4.05598 48.568 3.74398C48.568 3.34098 48.568 3.26298 48.919 3.26298C49.127 3.26298 49.439 3.28898 49.92 3.28898H51.766C52.247 3.28898 52.559 3.26298 52.767 3.26298C53.118 3.26298 53.118 3.34098 53.118 3.74398C53.118 4.08198 53.131 4.23798 52.845 4.23798C52.481 4.23798 52.117 4.21198 51.766 4.21198ZM49.257 2.39198C49.153 2.58698 48.919 3.14598 48.685 3.14598C48.477 3.14598 47.749 2.85998 47.749 2.63898C47.749 2.57398 47.814 2.48298 47.853 2.43098C48.256 1.79398 48.646 0.92298 48.828 0.18198C48.854 0.0779797 48.867 0.0129798 48.971 0.0129798C49.062 0.0129798 49.543 0.14298 49.66 0.16898C49.751 0.19498 49.829 0.22098 49.894 0.23398C50.167 0.31198 50.271 0.32498 50.271 0.44198C50.271 0.54598 50.128 0.58498 50.05 0.61098C49.972 0.63698 49.946 0.71498 49.92 0.79298C49.907 0.81898 49.907 0.87098 49.907 0.90998C49.907 1.06598 50.024 1.11798 50.167 1.13098H52.091C52.533 1.13098 52.975 1.10498 53.417 1.10498C53.677 1.10498 53.677 1.20898 53.677 1.61198C53.677 2.00198 53.677 2.11898 53.417 2.11898C52.975 2.11898 52.533 2.09298 52.091 2.09298H49.764C49.491 2.09298 49.374 2.15798 49.257 2.39198ZM45.175 8.43698V8.51498C45.188 8.63198 45.266 8.70998 45.383 8.70998H50.284C50.414 8.70998 50.479 8.63198 50.492 8.51498V8.43698C50.479 8.31998 50.414 8.24198 50.284 8.22898H45.383C45.266 8.24198 45.188 8.31998 45.175 8.43698ZM45.175 7.29298V7.37098C45.188 7.48798 45.266 7.56598 45.383 7.56598H50.284C50.414 7.56598 50.479 7.48798 50.492 7.37098V7.29298C50.479 7.17598 50.414 7.09798 50.284 7.08498H45.383C45.266 7.09798 45.188 7.17598 45.175 7.29298ZM45.383 6.43498H50.284C50.414 6.42198 50.479 6.34398 50.492 6.22698V6.14898C50.479 6.01898 50.414 5.95398 50.284 5.94098H45.383C45.266 5.95398 45.188 6.01898 45.175 6.14898V6.22698C45.188 6.34398 45.266 6.42198 45.383 6.43498ZM45.63 9.52898H45.292C45.227 9.52898 45.175 9.58098 45.123 9.61998C45.019 9.68498 44.785 9.69798 44.603 9.69798H44.46C44.135 9.69798 43.836 9.71098 43.836 9.29498C43.836 9.08698 43.862 8.82698 43.862 8.60598V6.33098C43.862 6.09698 43.836 5.84998 43.836 5.61598C43.836 5.13498 44.161 5.08298 44.551 5.08298C44.915 5.08298 45.266 5.09598 45.63 5.09598H50.037C50.388 5.09598 50.752 5.08298 51.116 5.08298C51.74 5.08298 51.844 5.27798 51.844 5.66798C51.844 5.84998 51.818 6.07098 51.818 6.33098V8.60598C51.818 8.85298 51.844 9.09998 51.844 9.29498C51.844 9.71098 51.532 9.69798 51.207 9.69798H51.077C50.895 9.69798 50.661 9.68498 50.544 9.61998C50.505 9.58098 50.453 9.52898 50.388 9.52898H49.92C49.66 9.52898 49.556 9.63298 49.556 9.89298V10.127C49.556 10.504 49.816 10.478 50.167 10.478H51.805C52.26 10.478 52.39 10.491 52.52 9.68498C52.546 9.55498 52.572 9.47698 52.793 9.47698C53.04 9.47698 53.69 9.59398 53.69 9.90598C53.69 10.205 53.391 10.855 53.222 11.089C52.949 11.492 52.585 11.479 51.727 11.479H49.621C49.01 11.479 48.269 11.466 48.269 10.673C48.269 10.491 48.282 10.309 48.282 10.127V9.89298C48.282 9.63298 48.178 9.52898 47.918 9.52898H46.969C46.93 9.52898 46.891 9.55498 46.891 9.59398C46.891 9.61998 46.904 9.64598 46.917 9.65898C47.125 9.78898 47.294 9.85398 47.294 9.98398C47.294 10.062 47.203 10.127 47.06 10.127C46.943 10.127 46.917 10.127 46.826 10.205C46.176 10.777 45.695 11.063 44.863 11.31C44.343 11.466 43.81 11.544 43.277 11.609C43.108 11.622 42.952 11.648 42.796 11.648C42.601 11.648 42.497 11.583 42.302 11.18C42.25 11.076 42.198 10.92 42.198 10.816C42.198 10.595 42.432 10.621 42.783 10.608C43.654 10.569 45.058 10.335 45.734 9.76298C45.76 9.73698 45.786 9.69798 45.786 9.65898C45.786 9.56798 45.708 9.54198 45.63 9.52898ZM44.031 2.75598H46.241C46.371 2.74298 46.436 2.67798 46.449 2.54798V2.45698C46.436 2.33998 46.371 2.26198 46.241 2.26198H44.031C43.914 2.26198 43.836 2.33998 43.836 2.45698V2.54798C43.836 2.67798 43.914 2.74298 44.031 2.75598ZM44.941 3.69198V3.61398C44.941 3.49698 44.863 3.41898 44.733 3.40598H44.031C43.914 3.41898 43.836 3.49698 43.836 3.61398V3.69198C43.836 3.82198 43.914 3.89998 44.031 3.89998H44.733C44.863 3.89998 44.941 3.82198 44.941 3.69198ZM44.746 1.13098H44.031C43.914 1.13098 43.836 1.20898 43.836 1.32598V1.41698C43.836 1.53398 43.914 1.61198 44.031 1.61198H44.746C44.863 1.61198 44.941 1.53398 44.941 1.41698V1.32598C44.941 1.20898 44.863 1.13098 44.746 1.13098ZM46.046 1.32598V1.41698C46.059 1.55998 46.098 1.61198 46.254 1.61198H46.475C46.709 1.61198 46.93 1.59898 47.164 1.59898C47.398 1.59898 47.554 1.63798 47.554 1.91098C47.554 2.01498 47.541 2.18398 47.541 2.40498V2.61298C47.541 2.84698 47.554 3.01598 47.554 3.10698C47.554 3.39298 47.411 3.43198 47.164 3.43198C46.93 3.43198 46.709 3.40598 46.475 3.40598H46.254C46.098 3.40598 46.046 3.47098 46.046 3.61398V3.69198C46.046 3.84798 46.098 3.88698 46.241 3.89998H46.826C47.164 3.89998 47.502 3.88698 47.84 3.88698C48.048 3.88698 48.074 3.96498 48.074 4.28998C48.074 4.61498 48.048 4.67998 47.84 4.67998C47.502 4.67998 47.164 4.66698 46.826 4.66698H43.966C43.719 4.66698 43.485 4.67998 43.238 4.67998C42.887 4.67998 42.666 4.61498 42.666 4.22498C42.666 3.97798 42.679 3.74398 42.679 3.49698V1.57298C42.679 1.33898 42.666 1.09198 42.666 0.84498C42.666 0.48098 42.861 0.38998 43.199 0.38998C43.459 0.38998 43.719 0.40298 43.966 0.40298H46.826C47.164 0.40298 47.502 0.38998 47.84 0.38998C48.061 0.38998 48.074 0.48098 48.074 0.76698C48.074 1.05298 48.074 1.14398 47.84 1.14398C47.502 1.14398 47.164 1.13098 46.826 1.13098H46.254C46.098 1.13098 46.059 1.18298 46.046 1.32598Z" fill="#FFFBFB"/>
</svg>
