<svg width="82" height="12" viewBox="0 0 82 12" fill="none" xmlns="http://www.w3.org/2000/svg">
<path d="M2.49602 4.10804H4.23802C4.48502 4.10804 4.60202 4.00404 4.60202 3.74404V1.40404C4.60202 1.02704 4.60202 0.585041 4.55002 0.31204C4.53702 0.273041 4.53702 0.23404 4.53702 0.19504C4.53702 0.0520405 4.65402 0.0260408 4.77102 0.0260408C4.95302 0.0260408 5.66802 0.0910407 5.88902 0.11704C5.99302 0.13004 6.24002 0.13004 6.24002 0.286041C6.24002 0.36404 6.16202 0.403041 6.08402 0.468041C5.95402 0.559041 5.94102 0.741041 5.94102 1.10504V3.74404C5.94102 4.00404 6.04502 4.10804 6.29202 4.10804H8.03402C8.29402 4.10804 8.39802 4.00404 8.39802 3.74404V1.95004C8.39802 1.69004 8.38502 1.40404 8.35902 1.18304C8.35902 1.14404 8.34602 1.09204 8.34602 1.05304C8.34602 0.91004 8.46302 0.89704 8.58002 0.89704C8.73602 0.89704 9.73702 0.949041 9.84102 0.97504C9.93202 0.988041 10.01 1.02704 10.01 1.13104C10.01 1.20904 9.94502 1.24804 9.85402 1.31304C9.71102 1.41704 9.69802 1.61204 9.69802 1.92404V4.05604C9.69802 4.47204 9.72402 4.88804 9.72402 5.30404C9.72402 5.68104 9.58102 5.66804 9.04802 5.66804C8.64502 5.66804 8.52802 5.66804 8.42402 5.56404C8.34602 5.46004 8.28102 5.36904 8.15102 5.35604H6.29202C6.04502 5.35604 5.94102 5.47304 5.94102 5.72004V9.25604C5.94102 9.50304 6.04502 9.60704 6.29202 9.60704H8.78802C9.04802 9.60704 9.15202 9.50304 9.15202 9.25604V7.56604C9.15202 7.29304 9.15202 7.00704 9.11302 6.76004C9.10002 6.72104 9.10002 6.66904 9.10002 6.63004C9.10002 6.48704 9.21702 6.47404 9.33402 6.47404C9.55502 6.47404 10.192 6.51304 10.439 6.52604C10.556 6.53904 10.777 6.53904 10.777 6.70804C10.777 6.78604 10.712 6.82504 10.621 6.89004C10.439 7.02004 10.452 7.30604 10.452 7.96904V9.94504C10.452 10.413 10.491 10.881 10.491 11.336C10.491 11.726 10.348 11.726 9.78902 11.726C9.28202 11.726 9.12602 11.726 9.12602 11.349V11.193C9.12602 10.985 9.03502 10.894 8.82702 10.894H1.66402C1.46902 10.894 1.36502 10.985 1.36502 11.193V11.31C1.36502 11.687 1.20902 11.687 0.702015 11.687C0.182015 11.687 0.0130152 11.687 0.0130152 11.31C0.0130152 10.868 0.0520152 10.426 0.0520152 9.99704V7.56604C0.0520152 7.28004 0.0520152 7.00704 1.51917e-05 6.73404V6.60404C1.51917e-05 6.44804 0.117015 6.44804 0.234015 6.44804C0.442015 6.44804 1.07902 6.48704 1.31302 6.50004C1.43002 6.51304 1.63802 6.51304 1.63802 6.66904C1.63802 6.76004 1.57302 6.79904 1.49502 6.86404C1.33902 6.98104 1.32602 7.22804 1.32602 7.63104V9.25604C1.35202 9.50304 1.44302 9.60704 1.69002 9.60704H4.23802C4.48502 9.60704 4.60202 9.50304 4.60202 9.25604V5.72004C4.60202 5.47304 4.48502 5.35604 4.23802 5.35604H2.37902C2.23602 5.36904 2.18402 5.46004 2.10602 5.56404C2.01502 5.65504 1.89802 5.66804 1.65102 5.66804H1.48202C0.988015 5.66804 0.806015 5.68104 0.806015 5.30404C0.806015 4.87504 0.832015 4.43304 0.832015 4.00404V1.89804C0.832015 1.63804 0.819015 1.37804 0.793015 1.11804C0.793015 1.07904 0.780015 1.04004 0.780015 0.988041C0.780015 0.84504 0.897015 0.83204 1.01402 0.83204C1.23502 0.83204 1.87202 0.871041 2.11902 0.884041C2.22302 0.89704 2.44402 0.91004 2.44402 1.06604C2.44402 1.15704 2.36602 1.19604 2.28802 1.24804C2.14502 1.36504 2.13202 1.62504 2.13202 1.96304V3.74404C2.13202 4.00404 2.23602 4.10804 2.49602 4.10804ZM16.133 2.28804H22.672C22.906 2.26204 23.01 2.14504 23.036 1.92404V1.78104C23.01 1.56004 22.906 1.44304 22.672 1.41704H16.133C15.912 1.44304 15.795 1.56004 15.769 1.78104V1.92404C15.795 2.14504 15.912 2.26204 16.133 2.28804ZM19.344 5.88904V6.29204C19.37 6.51304 19.487 6.63004 19.708 6.65604H20.618C20.839 6.63004 20.956 6.51304 20.982 6.29204V5.88904C20.956 5.66804 20.839 5.55104 20.618 5.52504H19.708C19.487 5.55104 19.37 5.66804 19.344 5.88904ZM19.461 7.76104H18.928C18.668 7.76104 18.564 7.86504 18.564 8.12504V9.50304C18.564 9.65904 18.629 9.81504 18.824 9.81504C18.967 9.81504 19.123 9.77604 19.266 9.75004C19.656 9.69804 20.488 9.51604 20.592 9.51604C20.852 9.51604 20.852 9.98404 20.852 10.166C20.852 10.387 20.813 10.595 20.579 10.673C20.137 10.816 18.07 11.141 17.511 11.206C16.25 11.362 16.185 11.349 16.081 11.531C16.042 11.596 15.99 11.648 15.899 11.648C15.743 11.648 15.691 11.427 15.587 11.011C15.548 10.868 15.509 10.699 15.457 10.517C15.444 10.465 15.431 10.4 15.431 10.335C15.431 10.205 15.483 10.192 16.107 10.14C16.302 10.127 16.575 10.114 16.926 10.062C17.173 10.036 17.264 9.91904 17.264 9.67204V8.12504C17.264 7.89104 17.173 7.78704 16.939 7.76104C16.614 7.77404 16.289 7.78704 15.977 7.78704C15.743 7.81304 15.626 7.87804 15.587 8.11204C15.431 9.12604 15.184 10.049 14.729 10.972C14.573 11.31 14.482 11.583 14.248 11.583C14.001 11.583 13.273 11.297 13.273 10.959C13.273 10.855 13.351 10.699 13.403 10.595C13.884 9.63304 14.183 8.69704 14.287 7.61804C14.391 6.52604 14.417 5.42104 14.417 4.32904V1.98904C14.417 1.66404 14.391 1.32604 14.391 0.988041C14.391 0.455041 14.664 0.338041 15.145 0.338041C15.561 0.338041 15.977 0.36404 16.393 0.36404H22.36C22.776 0.36404 23.192 0.338041 23.608 0.338041C24.089 0.338041 24.362 0.455041 24.362 0.988041C24.362 1.22204 24.336 1.45604 24.336 1.69004V2.00204C24.336 2.22304 24.362 2.45704 24.362 2.67804C24.362 3.22404 24.115 3.35404 23.608 3.35404C23.192 3.35404 22.776 3.32804 22.36 3.32804H16.133C15.886 3.32804 15.769 3.43204 15.769 3.69204V4.25104C15.769 4.92704 15.756 5.60304 15.717 6.29204C15.73 6.52604 15.821 6.61704 16.055 6.63004C16.458 6.65604 16.861 6.65604 17.251 6.65604H17.693C17.94 6.65604 18.057 6.55204 18.057 6.29204V5.88904C18.057 5.62904 17.94 5.52504 17.693 5.52504C17.329 5.51204 16.978 5.55104 16.627 5.55104C16.315 5.55104 16.315 5.39504 16.315 4.97904C16.315 4.56304 16.315 4.40704 16.627 4.40704C16.952 4.40704 17.329 4.44604 17.693 4.43304C17.888 4.43304 18.031 4.36804 18.044 4.14704C18.031 4.05604 17.992 3.69204 17.992 3.66604C17.992 3.51004 18.096 3.48404 18.226 3.48404C18.395 3.48404 19.162 3.56204 19.37 3.58804C19.474 3.60104 19.656 3.61404 19.656 3.75704C19.656 3.83504 19.591 3.87404 19.5 3.93904C19.409 4.00404 19.37 4.09504 19.357 4.18604C19.396 4.38104 19.539 4.43304 19.708 4.43304H20.618C20.826 4.43304 20.956 4.35504 20.969 4.12104C20.956 4.01704 20.956 3.90004 20.93 3.78304C20.93 3.74404 20.917 3.70504 20.917 3.66604C20.917 3.51004 21.021 3.48404 21.151 3.48404C21.32 3.48404 22.074 3.56204 22.269 3.58804C22.386 3.60104 22.581 3.61404 22.581 3.75704C22.581 3.84804 22.529 3.87404 22.425 3.93904C22.334 4.00404 22.308 4.08204 22.295 4.18604C22.321 4.38104 22.477 4.43304 22.646 4.43304H22.841C23.27 4.43304 23.686 4.40704 24.102 4.40704C24.427 4.40704 24.414 4.57604 24.414 4.97904C24.414 5.39504 24.427 5.55104 24.115 5.55104C23.686 5.55104 23.27 5.52504 22.841 5.52504H22.633C22.386 5.52504 22.269 5.62904 22.269 5.88904V6.29204C22.269 6.55204 22.386 6.65604 22.633 6.65604H23.27C23.764 6.65604 24.258 6.63004 24.752 6.63004C25.051 6.63004 25.038 6.77304 25.038 7.20204C25.038 7.64404 25.051 7.78704 24.752 7.78704C24.258 7.78704 23.764 7.76104 23.27 7.76104H21.528C21.411 7.77404 21.294 7.81304 21.294 7.94304C21.294 7.99504 21.307 8.02104 21.333 8.07304C21.463 8.28104 21.606 8.46304 21.762 8.65804C21.827 8.73604 21.905 8.78804 22.022 8.78804C22.113 8.78804 22.178 8.76204 22.256 8.69704C22.581 8.43704 22.724 8.26804 22.997 7.96904C23.049 7.91704 23.101 7.85204 23.179 7.85204C23.322 7.85204 24.245 8.63204 24.245 8.76204C24.245 8.80104 24.206 8.87904 24.089 8.87904C24.05 8.87904 24.024 8.87904 23.985 8.86604C23.946 8.85304 23.92 8.84004 23.881 8.84004C23.816 8.84004 23.751 8.89204 23.712 8.91804C23.517 9.08704 23.322 9.24304 23.127 9.39904C23.062 9.45104 23.01 9.50304 23.01 9.59404C23.01 9.68504 23.075 9.73704 23.14 9.77604C23.647 10.062 24.154 10.257 24.7 10.426C24.869 10.478 25.09 10.53 25.09 10.699C25.09 10.907 24.739 11.635 24.427 11.635C24.115 11.635 22.919 11.037 22.607 10.855C21.463 10.192 20.54 9.26904 19.955 8.07304C19.838 7.83904 19.721 7.76104 19.461 7.76104ZM37.206 9.23004V2.18404C37.18 1.96304 37.076 1.85904 36.842 1.83304H29.874C29.653 1.83304 29.523 1.96304 29.523 2.18404V9.23004C29.523 9.45104 29.653 9.56804 29.874 9.59404H36.842C37.076 9.56804 37.18 9.45104 37.206 9.23004ZM36.868 10.803H29.848C29.64 10.803 29.549 10.894 29.549 11.102V11.18C29.549 11.544 29.393 11.544 28.847 11.544C28.288 11.544 28.132 11.544 28.132 11.18C28.132 10.634 28.171 10.088 28.171 9.54204V2.47004C28.171 2.06704 28.145 1.66404 28.145 1.26104C28.145 0.71504 28.418 0.59804 28.912 0.59804C29.341 0.59804 29.77 0.624041 30.186 0.624041H36.543C36.959 0.624041 37.388 0.59804 37.804 0.59804C38.298 0.59804 38.584 0.702041 38.584 1.26104C38.584 1.66404 38.558 2.06704 38.558 2.47004V9.56804C38.558 10.114 38.597 10.647 38.597 11.193C38.597 11.57 38.428 11.557 37.882 11.557C37.323 11.557 37.167 11.57 37.167 11.193C37.167 11.167 37.18 11.128 37.18 11.102C37.167 10.894 37.076 10.803 36.868 10.803ZM32.955 7.13704C32.955 7.37104 32.292 7.68304 32.11 7.68304C31.954 7.68304 31.889 7.55304 31.824 7.42304C31.512 6.78604 31.278 6.42204 30.888 5.83704C30.849 5.77204 30.771 5.66804 30.771 5.59004C30.771 5.38204 31.421 5.01804 31.577 5.01804C31.772 5.01804 32.175 5.72004 32.279 5.88904C32.396 6.07104 32.955 6.98104 32.955 7.13704ZM35.282 5.13504V7.20204C35.282 7.50104 35.308 7.78704 35.308 8.08604C35.308 9.16504 34.177 9.20404 33.371 9.20404C33.111 9.20404 32.877 9.20404 32.76 8.97004C32.682 8.78804 32.63 8.47604 32.63 8.28104C32.63 8.11204 32.708 8.02104 32.877 8.02104C32.942 8.02104 33.033 8.02104 33.098 8.03404C33.215 8.04704 33.345 8.04704 33.475 8.04704C34.099 8.04704 34.073 7.89104 34.073 7.25404V5.13504C34.073 4.88804 33.969 4.78404 33.722 4.78404H31.512C31.109 4.78404 30.693 4.81004 30.277 4.81004C29.965 4.81004 29.978 4.61504 29.978 4.23804C29.978 3.83504 29.978 3.67904 30.29 3.67904C30.706 3.67904 31.109 3.70504 31.512 3.70504H33.722C33.969 3.70504 34.073 3.60104 34.073 3.34104C34.086 3.06804 34.06 2.79504 34.034 2.52204C34.034 2.47004 34.021 2.43104 34.021 2.39204C34.021 2.24904 34.125 2.22304 34.242 2.22304C34.515 2.22304 34.983 2.27504 35.269 2.30104C35.373 2.31404 35.581 2.32704 35.581 2.48304C35.581 2.56104 35.516 2.60004 35.425 2.66504C35.269 2.76904 35.269 2.96404 35.282 3.38004C35.282 3.60104 35.399 3.69204 35.633 3.70504C35.854 3.69204 36.27 3.67904 36.465 3.67904C36.777 3.67904 36.764 3.84804 36.764 4.23804C36.764 4.61504 36.777 4.81004 36.465 4.81004C36.322 4.81004 35.815 4.78404 35.62 4.78404C35.373 4.79704 35.282 4.90104 35.282 5.13504ZM44.616 8.76204C44.59 8.73604 44.551 8.71004 44.512 8.71004C44.434 8.71004 44.408 8.77504 44.395 8.85304V9.64604C44.395 10.192 44.434 10.751 44.434 11.297C44.434 11.661 44.252 11.726 43.732 11.726C43.173 11.726 43.043 11.622 43.043 11.258C43.043 10.725 43.069 10.179 43.069 9.64604V5.77204C43.069 5.70704 43.043 5.64204 42.978 5.64204C42.926 5.64204 42.9 5.66804 42.874 5.69404C42.757 5.86304 42.367 6.42204 42.172 6.42204C41.951 6.42204 41.444 5.59004 41.444 5.38204C41.444 5.26504 41.535 5.17404 41.613 5.08304C42.653 3.83504 43.667 1.95004 44.018 0.35104C44.044 0.24704 44.057 0.0910407 44.2 0.0910407C44.317 0.0910407 44.941 0.31204 45.097 0.36404C45.422 0.48104 45.669 0.54604 45.669 0.71504C45.669 0.83204 45.539 0.89704 45.448 0.923041C45.227 1.00104 45.214 1.06604 45.123 1.32604C44.915 1.89804 44.499 2.84704 44.239 3.38004C44.226 3.41904 44.226 3.44504 44.226 3.47104C44.226 3.56204 44.291 3.61404 44.369 3.62704C44.512 3.65304 44.668 3.66604 44.668 3.83504C44.668 3.93904 44.616 3.96504 44.538 4.01704C44.382 4.14704 44.395 4.39404 44.395 5.20004V7.85204C44.408 7.94304 44.434 8.00804 44.538 8.00804C44.577 8.00804 44.616 7.98204 44.655 7.95604C45.851 6.86404 46.774 5.73304 47.515 4.29004C47.541 4.25104 47.554 4.22504 47.554 4.17304C47.554 3.99104 47.359 3.97804 47.307 3.97804H46.644C46.189 3.97804 45.747 4.00404 45.292 4.00404C44.98 4.00404 44.993 3.83504 44.993 3.35404C44.993 2.87304 44.967 2.69104 45.292 2.69104C45.747 2.69104 46.189 2.71704 46.644 2.71704H47.801C48.061 2.71704 48.165 2.61304 48.165 2.35304V1.28704C48.165 0.96204 48.165 0.66304 48.126 0.41604C48.113 0.37704 48.113 0.29904 48.113 0.260041C48.113 0.104041 48.217 0.0780401 48.347 0.0780401C48.542 0.0780401 49.335 0.156041 49.569 0.169041C49.66 0.18204 49.764 0.19504 49.764 0.325041C49.764 0.41604 49.686 0.442041 49.608 0.520041C49.465 0.637041 49.452 0.936041 49.452 1.40404V2.35304C49.478 2.61304 49.569 2.71704 49.816 2.71704H51.376C51.831 2.71704 52.273 2.69104 52.728 2.69104C53.04 2.69104 53.027 2.86004 53.027 3.35404C53.027 3.84804 53.04 4.00404 52.728 4.00404C52.273 4.00404 51.831 3.97804 51.376 3.97804H50.284C50.167 3.99104 50.063 4.03004 50.063 4.16004C50.063 4.21204 50.076 4.23804 50.102 4.27704C50.986 5.72004 51.818 6.74704 53.105 7.85204C53.196 7.93004 53.3 8.02104 53.3 8.13804C53.3 8.35904 52.793 9.07404 52.52 9.07404C52.364 9.07404 52.26 8.94404 51.662 8.34604C50.869 7.55304 50.193 6.63004 49.634 5.66804C49.608 5.64204 49.582 5.61604 49.543 5.61604C49.491 5.61604 49.465 5.68104 49.452 5.73304V8.00804C49.478 8.26804 49.569 8.37204 49.816 8.37204C50.115 8.38504 50.401 8.34604 50.687 8.34604C51.064 8.34604 51.051 8.54104 51.051 8.99604C51.051 9.45104 51.064 9.64604 50.7 9.64604C50.401 9.64604 50.115 9.60704 49.816 9.62004C49.582 9.62004 49.465 9.71104 49.465 9.95804C49.465 10.413 49.491 10.868 49.491 11.31C49.491 11.7 49.348 11.713 48.828 11.713C48.269 11.713 48.139 11.7 48.139 11.31C48.139 10.868 48.165 10.413 48.165 9.97104C48.165 9.71104 48.048 9.62004 47.801 9.62004C47.489 9.60704 47.177 9.64604 46.865 9.64604C46.501 9.64604 46.514 9.45104 46.514 8.99604C46.514 8.55404 46.501 8.34604 46.865 8.34604C47.177 8.34604 47.489 8.38504 47.801 8.37204C48.061 8.37204 48.165 8.26804 48.165 8.00804V5.82404C48.165 5.75904 48.139 5.72004 48.087 5.72004C48.048 5.72004 48.022 5.73304 47.996 5.77204C47.294 6.98104 46.579 7.85204 45.578 8.85304C45.474 8.95704 45.305 9.12604 45.162 9.12604C44.993 9.12604 44.733 8.87904 44.616 8.76204ZM64.974 6.59104H57.902C57.317 6.59104 56.732 6.63004 56.16 6.63004C55.796 6.63004 55.822 6.42204 55.822 5.86304C55.822 5.31704 55.796 5.09604 56.16 5.09604C56.732 5.09604 57.317 5.13504 57.902 5.13504H64.974C65.559 5.13504 66.144 5.09604 66.716 5.09604C67.08 5.09604 67.054 5.30404 67.054 5.86304C67.054 6.43504 67.08 6.63004 66.716 6.63004C66.131 6.63004 65.559 6.59104 64.974 6.59104ZM79.352 4.19904H77.506C77.142 4.19904 76.778 4.22504 76.414 4.22504C76.141 4.22504 76.154 4.04304 76.154 3.73104C76.154 3.32804 76.154 3.25004 76.505 3.25004C76.713 3.25004 77.025 3.27604 77.506 3.27604H79.352C79.833 3.27604 80.145 3.25004 80.353 3.25004C80.704 3.25004 80.704 3.32804 80.704 3.73104C80.704 4.06904 80.717 4.22504 80.431 4.22504C80.067 4.22504 79.703 4.19904 79.352 4.19904ZM76.843 2.37904C76.739 2.57404 76.505 3.13304 76.271 3.13304C76.063 3.13304 75.335 2.84704 75.335 2.62604C75.335 2.56104 75.4 2.47004 75.439 2.41804C75.842 1.78104 76.232 0.91004 76.414 0.169041C76.44 0.0650403 76.453 4.03523e-05 76.557 4.03523e-05C76.648 4.03523e-05 77.129 0.13004 77.246 0.156041C77.337 0.18204 77.415 0.208041 77.48 0.221041C77.753 0.29904 77.857 0.31204 77.857 0.42904C77.857 0.53304 77.714 0.572041 77.636 0.59804C77.558 0.624041 77.532 0.702041 77.506 0.78004C77.493 0.806041 77.493 0.858041 77.493 0.89704C77.493 1.05304 77.61 1.10504 77.753 1.11804H79.677C80.119 1.11804 80.561 1.09204 81.003 1.09204C81.263 1.09204 81.263 1.19604 81.263 1.59904C81.263 1.98904 81.263 2.10604 81.003 2.10604C80.561 2.10604 80.119 2.08004 79.677 2.08004H77.35C77.077 2.08004 76.96 2.14504 76.843 2.37904ZM72.761 8.42404V8.50204C72.774 8.61904 72.852 8.69704 72.969 8.69704H77.87C78 8.69704 78.065 8.61904 78.078 8.50204V8.42404C78.065 8.30704 78 8.22904 77.87 8.21604H72.969C72.852 8.22904 72.774 8.30704 72.761 8.42404ZM72.761 7.28004V7.35804C72.774 7.47504 72.852 7.55304 72.969 7.55304H77.87C78 7.55304 78.065 7.47504 78.078 7.35804V7.28004C78.065 7.16304 78 7.08504 77.87 7.07204H72.969C72.852 7.08504 72.774 7.16304 72.761 7.28004ZM72.969 6.42204H77.87C78 6.40904 78.065 6.33104 78.078 6.21404V6.13604C78.065 6.00604 78 5.94104 77.87 5.92804H72.969C72.852 5.94104 72.774 6.00604 72.761 6.13604V6.21404C72.774 6.33104 72.852 6.40904 72.969 6.42204ZM73.216 9.51604H72.878C72.813 9.51604 72.761 9.56804 72.709 9.60704C72.605 9.67204 72.371 9.68504 72.189 9.68504H72.046C71.721 9.68504 71.422 9.69804 71.422 9.28204C71.422 9.07404 71.448 8.81404 71.448 8.59304V6.31804C71.448 6.08404 71.422 5.83704 71.422 5.60304C71.422 5.12204 71.747 5.07004 72.137 5.07004C72.501 5.07004 72.852 5.08304 73.216 5.08304H77.623C77.974 5.08304 78.338 5.07004 78.702 5.07004C79.326 5.07004 79.43 5.26504 79.43 5.65504C79.43 5.83704 79.404 6.05804 79.404 6.31804V8.59304C79.404 8.84004 79.43 9.08704 79.43 9.28204C79.43 9.69804 79.118 9.68504 78.793 9.68504H78.663C78.481 9.68504 78.247 9.67204 78.13 9.60704C78.091 9.56804 78.039 9.51604 77.974 9.51604H77.506C77.246 9.51604 77.142 9.62004 77.142 9.88004V10.114C77.142 10.491 77.402 10.465 77.753 10.465H79.391C79.846 10.465 79.976 10.478 80.106 9.67204C80.132 9.54204 80.158 9.46404 80.379 9.46404C80.626 9.46404 81.276 9.58104 81.276 9.89304C81.276 10.192 80.977 10.842 80.808 11.076C80.535 11.479 80.171 11.466 79.313 11.466H77.207C76.596 11.466 75.855 11.453 75.855 10.66C75.855 10.478 75.868 10.296 75.868 10.114V9.88004C75.868 9.62004 75.764 9.51604 75.504 9.51604H74.555C74.516 9.51604 74.477 9.54204 74.477 9.58104C74.477 9.60704 74.49 9.63304 74.503 9.64604C74.711 9.77604 74.88 9.84104 74.88 9.97104C74.88 10.049 74.789 10.114 74.646 10.114C74.529 10.114 74.503 10.114 74.412 10.192C73.762 10.764 73.281 11.05 72.449 11.297C71.929 11.453 71.396 11.531 70.863 11.596C70.694 11.609 70.538 11.635 70.382 11.635C70.187 11.635 70.083 11.57 69.888 11.167C69.836 11.063 69.784 10.907 69.784 10.803C69.784 10.582 70.018 10.608 70.369 10.595C71.24 10.556 72.644 10.322 73.32 9.75004C73.346 9.72404 73.372 9.68504 73.372 9.64604C73.372 9.55504 73.294 9.52904 73.216 9.51604ZM71.617 2.74304H73.827C73.957 2.73004 74.022 2.66504 74.035 2.53504V2.44404C74.022 2.32704 73.957 2.24904 73.827 2.24904H71.617C71.5 2.24904 71.422 2.32704 71.422 2.44404V2.53504C71.422 2.66504 71.5 2.73004 71.617 2.74304ZM72.527 3.67904V3.60104C72.527 3.48404 72.449 3.40604 72.319 3.39304H71.617C71.5 3.40604 71.422 3.48404 71.422 3.60104V3.67904C71.422 3.80904 71.5 3.88704 71.617 3.88704H72.319C72.449 3.88704 72.527 3.80904 72.527 3.67904ZM72.332 1.11804H71.617C71.5 1.11804 71.422 1.19604 71.422 1.31304V1.40404C71.422 1.52104 71.5 1.59904 71.617 1.59904H72.332C72.449 1.59904 72.527 1.52104 72.527 1.40404V1.31304C72.527 1.19604 72.449 1.11804 72.332 1.11804ZM73.632 1.31304V1.40404C73.645 1.54704 73.684 1.59904 73.84 1.59904H74.061C74.295 1.59904 74.516 1.58604 74.75 1.58604C74.984 1.58604 75.14 1.62504 75.14 1.89804C75.14 2.00204 75.127 2.17104 75.127 2.39204V2.60004C75.127 2.83404 75.14 3.00304 75.14 3.09404C75.14 3.38004 74.997 3.41904 74.75 3.41904C74.516 3.41904 74.295 3.39304 74.061 3.39304H73.84C73.684 3.39304 73.632 3.45804 73.632 3.60104V3.67904C73.632 3.83504 73.684 3.87404 73.827 3.88704H74.412C74.75 3.88704 75.088 3.87404 75.426 3.87404C75.634 3.87404 75.66 3.95204 75.66 4.27704C75.66 4.60204 75.634 4.66704 75.426 4.66704C75.088 4.66704 74.75 4.65404 74.412 4.65404H71.552C71.305 4.65404 71.071 4.66704 70.824 4.66704C70.473 4.66704 70.252 4.60204 70.252 4.21204C70.252 3.96504 70.265 3.73104 70.265 3.48404V1.56004C70.265 1.32604 70.252 1.07904 70.252 0.83204C70.252 0.468041 70.447 0.37704 70.785 0.37704C71.045 0.37704 71.305 0.390041 71.552 0.390041H74.412C74.75 0.390041 75.088 0.37704 75.426 0.37704C75.647 0.37704 75.66 0.468041 75.66 0.754041C75.66 1.04004 75.66 1.13104 75.426 1.13104C75.088 1.13104 74.75 1.11804 74.412 1.11804H73.84C73.684 1.11804 73.645 1.17004 73.632 1.31304Z" fill="#FFFBFB"/>
</svg>
