<svg width="25" height="25" viewBox="0 0 25 25" fill="none" xmlns="http://www.w3.org/2000/svg">
<g clip-path="url(#clip0_169_1021)">
<path d="M7.32278 0.0879103C5.99278 0.15066 5.08453 0.36291 4.29053 0.67491C3.46878 0.99516 2.77228 1.42491 2.07928 2.12041C1.38628 2.81591 0.959526 3.51291 0.641526 4.33591C0.333776 5.13166 0.125276 6.04066 0.0665261 7.37141C0.00777614 8.70216 -0.00522387 9.12991 0.00127613 12.5244C0.00777613 15.9189 0.0227761 16.3444 0.0872761 17.6779C0.150776 19.0077 0.362276 19.9157 0.674276 20.7099C0.995026 21.5317 1.42428 22.2279 2.12003 22.9212C2.81578 23.6144 3.51228 24.0402 4.33728 24.3587C5.13228 24.6659 6.04153 24.8754 7.37203 24.9337C8.70253 24.9919 9.13078 25.0054 12.5243 24.9989C15.9178 24.9924 16.345 24.9774 17.6783 24.9142C19.0115 24.8509 19.9148 24.6379 20.7093 24.3274C21.531 24.0059 22.2278 23.5774 22.9205 22.8814C23.6133 22.1854 24.0398 21.4879 24.3575 20.6644C24.6655 19.8694 24.8748 18.9602 24.9325 17.6307C24.9908 16.2964 25.0045 15.8704 24.998 12.4764C24.9915 9.08241 24.9763 8.65691 24.913 7.32391C24.8498 5.99091 24.638 5.08566 24.3263 4.29091C24.005 3.46916 23.5763 2.77341 22.8808 2.07966C22.1853 1.38591 21.4873 0.95966 20.664 0.64266C19.8685 0.33491 18.9598 0.12516 17.6293 0.0676603C16.2988 0.0101603 15.8705 -0.0045897 12.4758 0.0019103C9.08103 0.00841029 8.65603 0.0229103 7.32278 0.0879103ZM7.46878 22.6849C6.25003 22.6319 5.58828 22.4294 5.14728 22.2599C4.56328 22.0349 4.14728 21.7629 3.70778 21.3277C3.26828 20.8924 2.99828 20.4749 2.77028 19.8922C2.59903 19.4512 2.39278 18.7902 2.33578 17.5714C2.27378 16.2542 2.26078 15.8587 2.25353 12.5214C2.24628 9.18416 2.25903 8.78916 2.31678 7.47141C2.36878 6.25366 2.57253 5.59116 2.74178 5.15041C2.96678 4.56566 3.23778 4.15041 3.67403 3.71116C4.11028 3.27191 4.52653 3.00141 5.10978 2.77341C5.55028 2.60141 6.21128 2.39691 7.42953 2.33891C8.74778 2.27641 9.14278 2.26391 12.4795 2.25666C15.8163 2.24941 16.2123 2.26191 17.531 2.31991C18.7488 2.37291 19.4115 2.57466 19.8518 2.74491C20.436 2.96991 20.8518 3.24016 21.291 3.67716C21.7303 4.11416 22.001 4.52891 22.229 5.11341C22.4013 5.55266 22.6058 6.21341 22.6633 7.43241C22.726 8.75066 22.7403 9.14591 22.7463 12.4824C22.7523 15.8189 22.7405 16.2152 22.6828 17.5324C22.6295 18.7512 22.4275 19.4132 22.2578 19.8547C22.0328 20.4384 21.7615 20.8547 21.325 21.2937C20.8885 21.7327 20.4728 22.0032 19.8893 22.2312C19.4493 22.4029 18.7875 22.6079 17.5703 22.6659C16.252 22.7279 15.857 22.7409 12.519 22.7482C9.18103 22.7554 8.78728 22.7419 7.46903 22.6849M17.659 5.81966C17.6595 6.11635 17.748 6.40623 17.9132 6.65264C18.0785 6.89905 18.3131 7.09092 18.5874 7.20398C18.8617 7.31704 19.1634 7.34621 19.4543 7.28781C19.7452 7.2294 20.0122 7.08605 20.2216 6.87587C20.431 6.66569 20.5734 6.39813 20.6307 6.10703C20.6881 5.81593 20.6578 5.51437 20.5437 5.24048C20.4297 4.96659 20.2369 4.73267 19.9899 4.56832C19.7429 4.40397 19.4527 4.31657 19.156 4.31716C18.7583 4.31795 18.3771 4.47668 18.0964 4.75844C17.8157 5.0402 17.6584 5.42192 17.659 5.81966ZM6.08153 12.5129C6.08853 16.0579 8.96753 18.9252 12.5118 18.9184C16.056 18.9117 18.9253 16.0329 18.9185 12.4879C18.9118 8.94291 16.032 6.07491 12.4873 6.08191C8.94253 6.08891 6.07478 8.96841 6.08153 12.5129ZM8.33303 12.5084C8.3314 11.6843 8.57418 10.8782 9.03067 10.1921C9.48716 9.50598 10.1369 8.97063 10.8976 8.65376C11.6584 8.33688 12.496 8.2527 13.3046 8.41188C14.1132 8.57105 14.8564 8.96643 15.4403 9.548C16.0241 10.1296 16.4225 10.8712 16.5848 11.6792C16.7472 12.4871 16.6664 13.3251 16.3525 14.0871C16.0386 14.8491 15.5059 15.5009 14.8216 15.9601C14.1372 16.4193 13.3321 16.6653 12.508 16.6669C11.9608 16.6681 11.4188 16.5614 10.9128 16.353C10.4068 16.1447 9.94682 15.8386 9.55912 15.4525C9.17143 15.0663 8.8636 14.6076 8.65322 14.1024C8.44285 13.5973 8.33404 13.0556 8.33303 12.5084Z" fill="white"/>
</g>
<defs>
<clipPath id="clip0_169_1021">
<rect width="25" height="25" fill="white"/>
</clipPath>
</defs>
</svg>
