<svg width="69" height="12" viewBox="0 0 69 12" fill="none" xmlns="http://www.w3.org/2000/svg">
<path d="M5.33004 8.28105C5.09604 8.77505 4.78404 9.39905 4.52404 9.86705C4.49804 9.90605 4.48504 9.93205 4.48504 9.98405C4.48504 10.114 4.57604 10.153 4.69304 10.153C5.70704 10.101 6.73404 10.023 7.76104 9.91905C7.86504 9.90605 7.94304 9.86705 7.94304 9.73705C7.94304 9.63305 7.89104 9.58105 7.82604 9.51605C7.64404 9.29505 7.25404 8.81405 7.25404 8.73605C7.25404 8.51505 8.02104 8.15105 8.24204 8.15105C8.37204 8.15105 8.46304 8.22905 8.54104 8.33305C8.87904 8.73605 9.28204 9.26905 9.58104 9.69805C9.75004 9.93205 10.647 11.193 10.647 11.375C10.647 11.622 9.81504 11.947 9.60704 11.947C9.45104 11.947 9.38604 11.843 9.19104 11.531C9.15204 11.466 9.10004 11.375 9.03504 11.284C8.93104 11.115 8.82704 11.011 8.61904 11.011C8.58004 11.011 8.55404 11.024 8.52804 11.024C7.46204 11.128 6.40904 11.232 5.34304 11.323C4.25104 11.414 3.35404 11.492 2.10604 11.583C1.98904 11.596 1.93704 11.635 1.85904 11.765C1.82004 11.817 1.78104 11.869 1.71604 11.869C1.57304 11.869 1.53404 11.687 1.44304 11.388C1.40404 11.284 1.23504 10.595 1.23504 10.491C1.23504 10.309 1.32604 10.348 1.88504 10.309L2.48304 10.27C2.75604 10.257 2.86004 10.192 2.99004 9.95805C3.35404 9.32105 3.65304 8.68405 3.96504 8.02105C3.97804 7.98205 3.99104 7.95605 3.99104 7.90405C3.99104 7.76105 3.87404 7.72205 3.74404 7.70905H2.71704C2.18404 7.70905 1.63804 7.73505 1.10504 7.73505C0.806035 7.73505 0.819035 7.50105 0.819035 7.09805C0.819035 6.66905 0.806035 6.44805 1.10504 6.44805C1.63804 6.44805 2.18404 6.47405 2.71704 6.47405H8.85304C9.39904 6.47405 9.93204 6.44805 10.478 6.44805C10.777 6.44805 10.764 6.68205 10.764 7.09805C10.764 7.50105 10.777 7.73505 10.478 7.73505C9.93204 7.73505 9.39904 7.70905 8.85304 7.70905H5.61604C5.57704 7.70905 5.56404 7.70905 5.56404 7.73505C5.56404 7.76105 5.59004 7.76105 5.62904 7.78705C5.73304 7.83905 5.78504 7.86505 5.78504 7.94305C5.78504 8.06005 5.66804 8.08605 5.59004 8.09905C5.44704 8.12505 5.39504 8.15105 5.33004 8.28105ZM6.04504 1.96305C5.99304 1.89805 5.91504 1.85905 5.82404 1.85905C5.73304 1.85905 5.68104 1.91105 5.61604 1.97605C5.00504 2.71705 4.40704 3.32805 3.67904 3.96505C3.64004 3.99105 3.62704 4.03005 3.62704 4.06905C3.62704 4.16005 3.69204 4.18605 3.75704 4.19905C4.04304 4.19905 4.32904 4.21205 4.61504 4.21205H6.99404C7.29304 4.21205 7.59204 4.21205 7.90404 4.19905C7.96904 4.18605 8.04704 4.16005 8.04704 4.06905C8.04704 4.03005 8.02104 3.99105 7.99504 3.96505C7.37104 3.43205 6.56504 2.58705 6.04504 1.96305ZM3.13304 4.83605V4.73205C3.12004 4.65405 3.09404 4.56305 2.99004 4.56305C2.93804 4.56305 2.91204 4.57605 2.87304 4.60205C2.52204 4.87505 1.07904 5.91505 0.702035 5.91505C0.416035 5.91505 3.51965e-05 5.26505 3.51965e-05 4.99205C3.51965e-05 4.83605 0.182035 4.77105 0.338035 4.69305C2.15804 3.73105 4.18604 2.10605 5.21304 0.299049C5.26504 0.208048 5.34304 0.0910481 5.46004 0.0910481C5.60304 0.0910481 6.59104 0.338048 6.79904 0.390048C6.89004 0.416049 6.99404 0.468049 6.99404 0.572048C6.99404 0.702048 6.85104 0.741048 6.74704 0.767049C6.70804 0.780049 6.68204 0.806048 6.68204 0.845048C6.68204 0.871048 6.68204 0.884048 6.69504 0.897049C7.91704 2.47005 9.51604 3.75705 11.31 4.60205C11.609 4.74505 11.739 4.78405 11.739 4.94005C11.739 5.18705 11.388 5.94105 11.102 5.94105C10.725 5.94105 9.08704 4.81005 8.71004 4.53705C8.68404 4.51105 8.65804 4.49805 8.61904 4.49805C8.51504 4.49805 8.48904 4.58905 8.47604 4.66705V4.94005C8.47604 5.26505 8.45004 5.43405 8.20304 5.43405C7.87804 5.43405 7.38404 5.40805 6.99404 5.40805H4.61504C4.21204 5.40805 3.75704 5.43405 3.39304 5.43405C3.13304 5.43405 3.13304 5.20005 3.13304 4.83605ZM22.945 3.08105H20.67C20.488 3.08105 20.358 3.21105 20.358 3.39305V3.52305C20.358 3.70505 20.488 3.83505 20.67 3.83505H22.945C23.127 3.83505 23.257 3.70505 23.257 3.52305V3.39305C23.257 3.21105 23.127 3.08105 22.945 3.08105ZM20.67 2.28805H22.945C23.127 2.28805 23.257 2.15805 23.257 1.97605V1.85905C23.257 1.67705 23.127 1.54705 22.945 1.54705H20.67C20.488 1.54705 20.358 1.67705 20.358 1.85905V1.97605C20.358 2.15805 20.488 2.28805 20.67 2.28805ZM24.492 1.89805V3.48405C24.492 3.71805 24.518 3.96505 24.518 4.19905C24.518 4.64105 24.284 4.78405 23.868 4.78405C23.53 4.78405 23.205 4.75805 22.88 4.75805H20.748C20.423 4.75805 20.098 4.78405 19.773 4.78405C19.344 4.78405 19.097 4.65405 19.097 4.19905C19.097 3.95205 19.123 3.71805 19.123 3.48405V1.89805C19.123 1.65105 19.097 1.41705 19.097 1.18305C19.097 0.728048 19.331 0.598049 19.76 0.598049C20.085 0.598049 20.41 0.624048 20.748 0.624048H22.88C23.205 0.624048 23.53 0.598049 23.855 0.598049C24.271 0.598049 24.518 0.715049 24.518 1.18305C24.518 1.41705 24.492 1.66405 24.492 1.89805ZM23.4 8.20305C23.244 8.21605 23.166 8.26805 23.101 8.41105C22.568 9.64605 21.58 10.92 20.501 11.726C20.397 11.804 20.241 11.934 20.124 11.934C19.929 11.934 19.5 11.583 19.5 11.375C19.5 11.258 19.682 11.128 19.773 11.063C20.618 10.504 21.541 9.39905 22.048 8.51505C22.061 8.47605 22.074 8.43705 22.074 8.39805C22.074 8.25505 21.97 8.21605 21.853 8.20305H21.749C21.528 8.20305 21.411 8.25505 21.294 8.43705C20.93 9.02205 20.501 9.55505 20.007 10.036C19.5 10.53 19.266 10.686 18.681 11.063C18.629 11.102 18.564 11.115 18.499 11.115C18.304 11.115 17.888 10.738 17.888 10.543C17.888 10.426 18.096 10.322 18.187 10.257C18.98 9.76305 19.591 9.21705 20.176 8.47605C20.202 8.43705 20.228 8.41105 20.228 8.35905C20.228 8.24205 20.124 8.21605 20.033 8.20305H19.981C19.747 8.20305 19.656 8.24205 19.5 8.39805C19.032 8.90505 18.538 9.34705 17.979 9.71105C17.875 9.78905 17.719 9.90605 17.589 9.90605C17.381 9.90605 16.965 9.46405 16.965 9.25605C16.965 9.13905 17.095 9.06105 17.264 8.94405C18.187 8.33305 18.863 7.68305 19.461 6.74705C19.487 6.70805 19.5 6.66905 19.5 6.63005C19.5 6.51305 19.409 6.46105 19.305 6.44805C19.006 6.46105 18.486 6.47405 18.213 6.47405C17.927 6.47405 17.94 6.26605 17.94 5.90205C17.94 5.53805 17.927 5.33005 18.213 5.33005C18.707 5.33005 19.188 5.36905 19.682 5.36905H23.881C24.362 5.36905 24.856 5.33005 25.35 5.33005C25.636 5.33005 25.623 5.53805 25.623 5.90205C25.623 6.26605 25.636 6.47405 25.35 6.47405C24.856 6.47405 24.362 6.44805 23.881 6.44805H21.099C20.904 6.44805 20.839 6.50005 20.748 6.65605C20.722 6.69505 20.709 6.73405 20.683 6.77305C20.67 6.81205 20.657 6.85105 20.657 6.89005C20.657 7.02005 20.761 7.05905 20.878 7.07205H23.465C23.803 7.07205 24.141 7.04605 24.466 7.04605C24.96 7.04605 25.051 7.29305 25.051 7.73505C25.051 8.55405 24.934 10.179 24.674 10.92C24.362 11.804 23.66 11.882 22.828 11.882C22.217 11.882 21.996 11.895 21.996 10.881C21.996 10.725 22.009 10.556 22.217 10.556C22.334 10.556 22.542 10.582 22.672 10.595C22.763 10.608 22.841 10.608 22.932 10.608C23.309 10.608 23.413 10.543 23.53 10.179C23.647 9.77605 23.738 8.87905 23.738 8.45005C23.738 8.20305 23.595 8.21605 23.4 8.20305ZM15.262 7.80005C15.509 7.69605 15.574 7.59205 15.574 7.31905V4.57605C15.574 4.32905 15.483 4.23805 15.223 4.21205C14.95 4.21205 14.664 4.25105 14.417 4.25105C14.144 4.25105 14.157 4.06905 14.157 3.61405C14.157 3.13305 14.144 2.97705 14.417 2.97705C14.534 2.97705 15.054 2.99005 15.21 3.00305C15.47 2.99005 15.574 2.89905 15.574 2.63905V1.66405C15.574 1.31305 15.574 0.962049 15.535 0.637048C15.522 0.598049 15.522 0.533049 15.522 0.481049C15.522 0.338048 15.613 0.312048 15.743 0.312048C15.938 0.312048 16.718 0.377048 16.952 0.390048C17.043 0.403048 17.199 0.429048 17.199 0.559048C17.199 0.650049 17.121 0.689048 17.004 0.767049C16.874 0.845048 16.861 0.988048 16.861 1.41705V2.63905C16.861 2.89905 16.965 3.00305 17.212 3.00305C17.511 3.01605 17.797 2.97705 18.096 2.97705C18.356 2.97705 18.356 3.12005 18.356 3.61405C18.356 4.08205 18.369 4.25105 18.096 4.25105C17.901 4.25105 17.511 4.22505 17.212 4.21205C16.965 4.23805 16.861 4.32905 16.861 4.57605V6.81205C16.861 6.94205 16.913 7.07205 17.056 7.07205C17.108 7.07205 17.147 7.04605 17.186 7.03305C17.225 7.02005 17.355 6.95505 17.485 6.89005C17.745 6.76005 18.083 6.60405 18.135 6.60405C18.33 6.60405 18.369 7.30605 18.369 7.44905C18.369 7.64405 18.317 7.74805 18.148 7.83905C17.225 8.32005 16.055 8.82705 15.08 9.21705C14.859 9.30805 14.82 9.34705 14.794 9.42505C14.742 9.56805 14.703 9.67205 14.599 9.67205C14.456 9.67205 14.417 9.52905 14.313 9.25605C14.248 9.10005 14.014 8.47605 14.014 8.34605C14.014 8.16405 14.196 8.13805 14.339 8.09905C14.651 8.02105 14.95 7.93005 15.262 7.80005ZM30.758 3.30205H37.57C37.817 3.30205 38.09 3.30205 38.298 3.26305C38.337 3.25005 38.389 3.25005 38.428 3.25005C38.688 3.25005 39.338 4.06905 39.338 4.22505C39.338 4.30305 39.156 4.47205 38.935 4.66705C38.818 4.77105 38.701 4.87505 38.584 4.99205C37.479 6.08405 36.335 7.16305 35.139 8.16405C35.022 8.26805 34.892 8.37205 34.892 8.54105C34.892 8.68405 35.009 8.80105 35.087 8.91805C35.178 9.04805 35.568 9.59405 35.568 9.71105C35.568 9.95805 34.762 10.478 34.489 10.478C34.359 10.478 34.281 10.348 34.229 10.244C33.592 9.21705 32.773 8.22905 31.876 7.43605C31.798 7.35805 31.629 7.21505 31.629 7.09805C31.629 6.90305 32.331 6.31805 32.591 6.31805C32.786 6.31805 33.436 6.98105 33.605 7.15005C33.709 7.25405 33.787 7.34505 33.943 7.34505C34.073 7.34505 34.164 7.28005 34.255 7.20205C34.814 6.73405 35.36 6.25305 35.88 5.75905C36.023 5.62905 36.699 5.00505 36.699 4.84905C36.699 4.66705 36.465 4.68005 36.218 4.68005H30.758C30.186 4.68005 29.536 4.71905 29.094 4.71905C28.743 4.71905 28.756 4.45905 28.756 4.09505C28.756 3.41905 28.743 3.27605 29.068 3.27605C29.64 3.27605 30.199 3.30205 30.758 3.30205ZM50.583 4.00405C50.7 4.00405 51.493 4.31605 51.649 4.38105C51.753 4.42005 51.883 4.48505 51.883 4.61505C51.883 4.70605 51.792 4.75805 51.727 4.81005C51.623 4.88805 51.61 4.92705 51.558 5.08305C51.168 6.42205 50.674 7.64405 49.777 8.72305C48.828 9.84105 47.632 10.543 46.241 10.985C46.15 11.011 45.929 11.089 45.838 11.089C45.591 11.089 45.11 10.374 45.11 10.192C45.11 10.049 45.188 9.99705 45.318 9.95805C46.995 9.50305 48.412 8.73605 49.348 7.21505C49.907 6.31805 50.271 5.30405 50.414 4.26405C50.427 4.14705 50.44 4.00405 50.583 4.00405ZM48.282 4.47205L48.399 4.66705C48.516 4.84905 48.984 5.56405 48.984 5.73305C48.984 5.99305 48.23 6.33105 48.048 6.33105C47.918 6.33105 47.84 6.18805 47.788 6.08405C47.515 5.53805 47.216 5.05705 46.878 4.55005C46.826 4.48505 46.761 4.39405 46.761 4.29005C46.761 4.06905 47.463 3.74405 47.632 3.74405C47.814 3.74405 48.061 4.10805 48.282 4.47205ZM44.993 4.47205C45.097 4.47205 45.149 4.52405 45.214 4.58905C45.357 4.75805 45.656 5.22605 45.786 5.43405C45.903 5.61605 46.345 6.29205 46.345 6.46105C46.345 6.73405 45.565 7.05905 45.409 7.05905C45.279 7.05905 45.214 6.94205 45.162 6.83805C44.889 6.29205 44.577 5.77205 44.226 5.26505C44.187 5.20005 44.122 5.12205 44.122 5.03105C44.122 4.79705 44.824 4.47205 44.993 4.47205ZM59.488 2.23605H64.532C64.753 2.23605 65.065 2.21005 65.182 2.21005C65.442 2.21005 65.637 2.45705 65.806 2.62605C65.923 2.74305 66.248 3.05505 66.248 3.22405C66.248 3.34105 66.144 3.47105 66.053 3.97805C65.624 6.42205 64.662 8.13805 62.608 9.56805C61.854 10.101 60.97 10.569 60.112 10.907C59.995 10.946 59.813 11.011 59.683 11.011C59.371 11.011 58.916 10.14 58.916 9.93205C58.916 9.78905 59.033 9.75005 59.15 9.72405C60.255 9.42505 61.49 8.74905 62.387 8.00805C63.518 7.07205 64.298 5.68105 64.506 4.22505C64.519 4.13405 64.545 3.97805 64.545 3.90005C64.545 3.65305 64.324 3.62705 64.09 3.62705H59.462C58.916 3.62705 58.383 3.65305 57.837 3.65305C57.447 3.65305 57.447 3.53605 57.447 2.95105C57.447 2.35305 57.434 2.21005 57.811 2.21005C58.37 2.21005 58.929 2.23605 59.488 2.23605ZM66.976 0.585048C66.599 0.585048 66.287 0.897049 66.287 1.28705C66.287 1.67705 66.599 1.97605 66.976 1.97605C67.366 1.97605 67.678 1.67705 67.678 1.28705C67.678 0.897049 67.366 0.585048 66.976 0.585048ZM66.976 4.85182e-05C67.691 4.85182e-05 68.276 0.572048 68.276 1.28705C68.276 2.00205 67.691 2.57405 66.976 2.57405C66.261 2.57405 65.689 2.00205 65.689 1.28705C65.689 0.572048 66.261 4.85182e-05 66.976 4.85182e-05Z" fill="#FFFBFB"/>
</svg>
