<svg width="108" height="12" viewBox="0 0 108 12" fill="none" xmlns="http://www.w3.org/2000/svg">
<path d="M8.54103 3.6659H7.69603C7.42303 3.6659 7.11103 3.6789 6.99403 3.6789C6.76003 3.6789 6.77303 3.5489 6.77303 3.2629C6.77303 2.9899 6.77303 2.8469 6.99403 2.8469C7.11103 2.8469 7.42303 2.8729 7.69603 2.8729H8.54103C8.81403 2.8729 9.12603 2.8469 9.24303 2.8469C9.47703 2.8469 9.46403 2.9899 9.46403 3.2629C9.46403 3.5489 9.47703 3.6789 9.24303 3.6789C9.08703 3.6789 8.81403 3.6659 8.54103 3.6659ZM3.41903 3.6399H2.71703C2.41803 3.6399 2.08003 3.6659 1.96303 3.6659C1.72903 3.6659 1.74203 3.5099 1.74203 3.2499C1.74203 2.9769 1.72903 2.8339 1.96303 2.8339C2.10603 2.8339 2.43103 2.8599 2.71703 2.8599H3.41903C3.70503 2.8599 4.03003 2.8339 4.17303 2.8339C4.40703 2.8339 4.39403 2.9769 4.39403 3.2499C4.39403 3.5229 4.40703 3.6659 4.17303 3.6659C4.04303 3.6659 3.71803 3.6399 3.41903 3.6399ZM8.50203 4.9789H7.72203C7.43603 4.9789 7.16303 5.0049 7.00703 5.0049C6.77303 5.0049 6.77303 4.8619 6.77303 4.5889C6.77303 4.3029 6.77303 4.1729 6.99403 4.1729C7.16303 4.1729 7.44903 4.1859 7.72203 4.1859H8.50203C8.78803 4.1859 9.07403 4.1729 9.23003 4.1729C9.46403 4.1729 9.46403 4.3029 9.46403 4.5889C9.46403 4.8749 9.46403 5.0049 9.23003 5.0049C9.03503 5.0049 8.78803 4.9789 8.50203 4.9789ZM3.41903 4.9529H2.70403C2.40503 4.9529 2.08003 4.9789 1.97603 4.9789C1.74203 4.9789 1.74203 4.8359 1.74203 4.5629C1.74203 4.2899 1.74203 4.1469 1.96303 4.1469C2.09303 4.1469 2.43103 4.1729 2.70403 4.1729H3.41903C3.69203 4.1729 4.03003 4.1469 4.14703 4.1469C4.38103 4.1469 4.38103 4.2899 4.38103 4.5629C4.38103 4.8489 4.38103 4.9789 4.14703 4.9789C4.04303 4.9789 3.71803 4.9529 3.41903 4.9529ZM6.25303 1.1699V1.2219C6.25303 1.4039 6.33103 1.4819 6.50003 1.4819H9.41203C9.78903 1.4819 10.153 1.4559 10.517 1.4559C10.946 1.4559 11.18 1.4949 11.18 1.9889V3.1459C11.18 3.3019 11.206 3.4579 11.206 3.6139C11.206 3.8999 11.037 3.8999 10.569 3.8999C10.114 3.8999 9.91903 3.9129 9.91903 3.6269C9.91903 3.4709 9.94503 3.3019 9.94503 3.1459V2.7299C9.94503 2.4829 9.82803 2.3789 9.58103 2.3789H6.61703C6.37003 2.3789 6.25303 2.4829 6.25303 2.7299V3.6009C6.25303 4.0299 6.29203 4.4459 6.29203 4.8749C6.29203 5.2779 6.13603 5.2649 5.59003 5.2649C5.07003 5.2649 4.90103 5.2779 4.90103 4.8749C4.90103 4.4459 4.92703 4.0169 4.92703 3.6009V2.7299C4.92703 2.4829 4.82303 2.3789 4.56303 2.3789H1.62503C1.37803 2.3789 1.27403 2.4829 1.27403 2.7299V3.1069C1.27403 3.2759 1.30003 3.4319 1.30003 3.6009C1.30003 3.8739 1.07903 3.8609 0.650027 3.8609C0.195027 3.8609 2.74181e-05 3.8739 2.74181e-05 3.5879C2.74181e-05 3.4579 0.0260274 3.2499 0.0260274 3.1069V1.9629C0.0260274 1.5079 0.260027 1.4559 0.663027 1.4559C1.04003 1.4559 1.41703 1.4819 1.79403 1.4819H4.68003C4.86203 1.4819 4.92703 1.4039 4.92703 1.2349V1.1699C4.92703 0.987904 4.86203 0.922904 4.68003 0.922904H2.97703C2.48303 0.922904 2.00203 0.948904 1.52103 0.948904C1.23503 0.948904 1.23503 0.844904 1.23503 0.467904C1.23503 0.0909036 1.23503 -9.59635e-05 1.52103 -9.59635e-05C2.00203 -9.59635e-05 2.48303 0.0129039 2.97703 0.0129039H8.25503C8.73603 0.0129039 9.21703 -9.59635e-05 9.69803 -9.59635e-05C9.99703 -9.59635e-05 9.99703 0.0909036 9.99703 0.467904C9.99703 0.844904 9.99703 0.948904 9.69803 0.948904C9.21703 0.948904 8.73603 0.922904 8.25503 0.922904H6.51303C6.33103 0.922904 6.25303 0.987904 6.25303 1.1699ZM4.73203 7.7869H2.67803C2.53503 7.7999 2.44403 7.8909 2.43103 8.0339V8.1639C2.43103 8.3199 2.53503 8.4109 2.67803 8.4109H4.73203C4.88803 8.4109 4.97903 8.3199 4.97903 8.1639V8.0339C4.97903 7.8909 4.88803 7.7869 4.73203 7.7869ZM6.24003 8.0339V8.1639C6.24003 8.3199 6.33103 8.4109 6.48703 8.4109H8.55403C8.69703 8.4109 8.80103 8.3199 8.80103 8.1639V8.0339C8.78803 7.8909 8.69703 7.7999 8.55403 7.7869H6.48703C6.33103 7.7869 6.25303 7.8909 6.24003 8.0339ZM4.97903 6.7599V6.6429C4.97903 6.4869 4.88803 6.3959 4.73203 6.3959H2.67803C2.53503 6.3959 2.43103 6.4869 2.43103 6.6429V6.7599C2.44403 6.9029 2.53503 6.9939 2.67803 7.0069H4.73203C4.88803 7.0069 4.97903 6.9029 4.97903 6.7599ZM6.48703 7.0069H8.55403C8.69703 6.9939 8.78803 6.9029 8.80103 6.7599V6.6429C8.80103 6.4869 8.69703 6.3959 8.55403 6.3959H6.48703C6.33103 6.3959 6.24003 6.4869 6.24003 6.6429V6.7599C6.25303 6.9029 6.33103 7.0069 6.48703 7.0069ZM4.97903 9.8799V9.6459C4.97903 9.3989 4.87503 9.2949 4.62803 9.2949H2.82103C2.58703 9.2949 2.43103 9.3209 2.41803 9.5419C2.40503 9.8279 2.31403 9.8149 1.76803 9.8149H1.57303C1.31303 9.8149 1.15703 9.7889 1.15703 9.5289C1.15703 9.2169 1.17003 8.9179 1.17003 8.6059V6.7339C1.17003 6.4869 1.15703 6.2399 1.15703 5.9929C1.15703 5.6029 1.28703 5.5119 1.78103 5.5119C2.19703 5.5119 2.61303 5.5249 3.02903 5.5249H8.20303C8.71003 5.5249 9.08703 5.5119 9.36003 5.5119C9.90603 5.5119 10.062 5.5769 10.062 5.9799C10.062 6.2269 10.049 6.4869 10.049 6.7339V8.0989C10.049 8.3459 10.062 8.5929 10.062 8.8399C10.062 9.2429 9.93203 9.3209 9.29503 9.3209C9.03503 9.3209 8.67103 9.2949 8.20303 9.2949H6.55203C6.33103 9.2949 6.25303 9.3859 6.24003 9.5939C6.25303 10.0099 6.30503 10.1139 6.82503 10.1139H9.59403C10.088 10.1139 10.244 10.0359 10.426 9.1389C10.465 8.9049 10.491 8.7879 10.725 8.7879C10.959 8.7879 11.557 8.9049 11.557 9.2169C11.557 9.5679 11.258 10.2699 11.076 10.5819C10.803 11.0629 10.4 11.1019 9.88003 11.1019H6.39603C5.36903 11.1019 4.97903 10.9329 4.97903 9.8799ZM20.657 3.7309C20.423 3.8869 20.371 4.0039 20.371 4.2769V4.7579C20.371 5.0179 20.475 5.1219 20.735 5.1219H23.426C23.972 5.1219 24.518 5.0959 25.064 5.0959C25.402 5.0959 25.389 5.2649 25.389 5.7849C25.389 6.2919 25.402 6.4739 25.064 6.4739C24.518 6.4739 23.972 6.4349 23.426 6.4349H20.735C20.475 6.4349 20.371 6.5389 20.371 6.7989V8.8789C20.371 9.2169 20.397 9.5549 20.397 9.8799C20.397 11.2189 18.915 11.2839 17.901 11.2839C17.615 11.2839 17.316 11.2969 17.212 11.0629C17.108 10.8549 17.043 10.3999 17.043 10.1659C17.043 9.9839 17.095 9.8669 17.303 9.8669C17.381 9.8669 17.511 9.8799 17.589 9.8799C17.732 9.8929 17.966 9.9059 18.109 9.9059C19.032 9.9059 19.019 9.7499 19.019 9.0219V6.7989C19.019 6.5389 18.915 6.4349 18.655 6.4349H15.912C15.366 6.4349 14.82 6.4739 14.274 6.4739C13.936 6.4739 13.949 6.2919 13.949 5.7849C13.949 5.2649 13.949 5.0959 14.274 5.0959C14.82 5.0959 15.366 5.1219 15.912 5.1219H18.655C18.915 5.1219 19.019 5.0179 19.019 4.7579V4.2899C19.019 3.9909 19.006 3.7049 18.967 3.4189V3.3019C18.967 3.1329 19.071 3.1199 19.201 3.1199H19.422C19.591 3.1199 19.695 3.0679 19.825 2.9769C20.046 2.8079 21.346 1.8199 21.346 1.6119C21.346 1.4689 21.164 1.4949 20.995 1.4949H17.485C16.965 1.4949 16.445 1.5339 15.925 1.5339C15.587 1.5339 15.613 1.3519 15.613 0.857904C15.613 0.337904 15.6 0.168904 15.925 0.168904C16.445 0.168904 16.965 0.207904 17.485 0.207904H21.528C21.983 0.207904 22.438 0.181904 22.893 0.181904C23.192 0.181904 23.283 0.246904 23.491 0.454904C23.608 0.571904 23.829 0.818904 23.829 1.0009C23.829 1.5469 21.19 3.3669 20.657 3.7309ZM38.272 1.5079C37.882 1.5079 37.57 1.8199 37.57 2.2099C37.57 2.5999 37.882 2.9119 38.272 2.9119C38.662 2.9119 38.974 2.5999 38.974 2.2099C38.974 1.8199 38.662 1.5079 38.272 1.5079ZM38.272 0.909904C38.987 0.909904 39.559 1.4949 39.559 2.2099C39.559 2.9249 38.987 3.4969 38.272 3.4969C37.557 3.4969 36.985 2.9249 36.985 2.2099C36.985 1.4949 37.557 0.909904 38.272 0.909904ZM35.919 2.8859C36.01 2.8859 36.088 2.9119 36.153 2.9769C36.335 3.1199 36.855 3.7959 37.024 4.0299C37.401 4.5369 39.117 7.0719 39.117 7.5659C39.117 7.8909 38.116 8.3459 37.895 8.3459C37.739 8.3459 37.687 8.2289 37.635 8.1119C36.972 6.6559 36.114 5.1219 35.087 3.8999C35.022 3.8349 34.944 3.7439 34.944 3.6399C34.944 3.4059 35.724 2.8859 35.919 2.8859ZM31.499 2.6259C31.629 2.6259 32.123 2.8989 32.266 2.9769C32.396 3.0419 32.955 3.3279 32.955 3.4709C32.955 3.5619 32.825 3.6139 32.747 3.6529C32.63 3.7179 32.591 3.7959 32.526 3.9129C31.759 5.3559 30.784 6.7859 29.679 7.9949C29.536 8.1639 29.133 8.6319 28.912 8.6319C28.717 8.6319 27.807 8.0989 27.807 7.8259C27.807 7.7479 27.859 7.6959 27.911 7.6439C29.211 6.3959 30.615 4.6019 31.278 2.9249C31.317 2.8339 31.382 2.6259 31.499 2.6259ZM52.403 2.9379C52.663 2.9379 53.131 3.8999 53.131 4.0949C53.131 4.3159 52.611 4.8229 52.442 4.9919C50.336 7.1629 48.126 8.6189 45.383 9.8929C44.954 10.1009 44.941 10.1139 44.837 10.3349C44.811 10.3869 44.772 10.4129 44.707 10.4129C44.564 10.4129 44.291 9.8929 44.2 9.7369C44.122 9.6069 43.81 9.0869 43.81 8.9569C43.81 8.8139 44.044 8.7879 44.213 8.7359C47.086 7.8909 50.336 5.4339 52.182 3.0809C52.234 3.0159 52.312 2.9379 52.403 2.9379ZM44.72 0.857904C44.928 0.857904 46.176 1.7679 46.423 1.9499C46.592 2.0669 47.216 2.4959 47.216 2.6909C47.216 2.9899 46.605 3.6919 46.358 3.6919C46.254 3.6919 46.007 3.4969 45.838 3.3409C45.474 3.0159 44.577 2.4179 44.109 2.1319C44.005 2.0669 43.901 2.0019 43.901 1.8849C43.901 1.6899 44.421 0.857904 44.72 0.857904ZM59.488 1.5339H64.038C64.311 1.5339 64.948 1.5339 65.208 1.5079C65.26 1.5079 65.403 1.4819 65.442 1.4819C65.754 1.4819 66.313 2.1839 66.313 2.3139C66.313 2.4439 66.196 2.5869 66.092 3.1459C65.65 5.6549 64.727 7.3839 62.621 8.8659C61.867 9.3859 60.983 9.8669 60.125 10.1919C59.995 10.2439 59.826 10.3089 59.696 10.3089C59.384 10.3089 58.916 9.4379 58.916 9.2299C58.916 9.0869 59.033 9.0479 59.15 9.0219C60.281 8.7229 61.503 8.0339 62.387 7.3059C63.531 6.3569 64.324 4.9789 64.519 3.5099C64.532 3.4319 64.545 3.2759 64.545 3.1979C64.545 2.9509 64.324 2.9249 64.09 2.9249H59.475C58.929 2.9249 58.396 2.9509 57.85 2.9509C57.447 2.9509 57.46 2.8339 57.46 2.2489C57.46 1.6509 57.447 1.5079 57.811 1.5079C58.37 1.5079 58.929 1.5339 59.488 1.5339ZM73.918 2.5609V7.6309C73.918 7.9559 73.944 8.1639 74.178 8.1639C74.334 8.1639 74.932 7.8909 75.244 7.7479C77.012 6.9289 78.858 5.7069 80.236 4.3289C80.314 4.2509 80.431 4.1209 80.548 4.1209C80.756 4.1209 81.198 4.9789 81.198 5.2389C81.198 5.3299 81.12 5.4079 81.055 5.4729C80.769 5.7589 80.457 6.0189 80.145 6.2789C78.429 7.6959 76.466 8.7879 74.425 9.6589C74.269 9.7239 74.113 9.7889 73.97 9.8669C73.879 9.9189 73.749 9.9969 73.645 9.9969C73.489 9.9969 72.774 9.6199 72.618 9.5159C72.462 9.3989 72.449 9.2819 72.449 9.0609C72.449 8.6189 72.475 8.1379 72.475 7.6569V2.3659C72.475 2.0799 72.475 1.7939 72.462 1.5729C72.449 1.4819 72.423 1.2089 72.423 1.1439C72.423 1.0659 72.462 0.987904 72.566 0.987904C72.618 0.987904 72.761 1.0139 72.839 1.0269C73.047 1.0529 73.697 1.1569 73.892 1.2089C74.009 1.2349 74.165 1.2479 74.165 1.3779C74.165 1.4559 74.1 1.4949 74.048 1.5469C73.931 1.6509 73.931 1.8069 73.931 1.9499C73.918 2.1449 73.918 2.3529 73.918 2.5609ZM92.7489 3.4059C92.8659 3.4059 93.6589 3.7179 93.8149 3.7829C93.9189 3.8219 94.0489 3.8869 94.0489 4.0169C94.0489 4.1079 93.9579 4.1599 93.8929 4.2119C93.7889 4.2899 93.7759 4.3289 93.7239 4.4849C93.3339 5.8239 92.8399 7.0459 91.9429 8.1249C90.9939 9.2429 89.7979 9.9449 88.4069 10.3869C88.3159 10.4129 88.0949 10.4909 88.0039 10.4909C87.7569 10.4909 87.2759 9.7759 87.2759 9.5939C87.2759 9.4509 87.3539 9.3989 87.4839 9.3599C89.1609 8.9049 90.5779 8.1379 91.5139 6.6169C92.0729 5.7199 92.4369 4.7059 92.5799 3.6659C92.5929 3.5489 92.6059 3.4059 92.7489 3.4059ZM90.4479 3.8739L90.5649 4.0689C90.6819 4.2509 91.1499 4.9659 91.1499 5.1349C91.1499 5.3949 90.3959 5.7329 90.2139 5.7329C90.0839 5.7329 90.0059 5.5899 89.9539 5.4859C89.6809 4.9399 89.3819 4.4589 89.0439 3.9519C88.9919 3.8869 88.9269 3.7959 88.9269 3.6919C88.9269 3.4709 89.6289 3.1459 89.7979 3.1459C89.9799 3.1459 90.2269 3.5099 90.4479 3.8739ZM87.1589 3.8739C87.2629 3.8739 87.3149 3.9259 87.3799 3.9909C87.5229 4.1599 87.8219 4.6279 87.9519 4.8359C88.0689 5.0179 88.5109 5.6939 88.5109 5.8629C88.5109 6.1359 87.7309 6.4609 87.5749 6.4609C87.4449 6.4609 87.3799 6.3439 87.3279 6.2399C87.0549 5.6939 86.7429 5.1739 86.3919 4.6669C86.3529 4.6019 86.2879 4.5239 86.2879 4.4329C86.2879 4.1989 86.9899 3.8739 87.1589 3.8739ZM104.28 4.0559C104.371 3.9519 104.514 3.7699 104.657 3.7699C104.917 3.7699 106.217 4.7969 106.477 5.0179C106.659 5.1739 107.387 5.7329 107.387 5.9539C107.387 6.1749 106.776 6.8509 106.516 6.8509C106.412 6.8509 106.308 6.7599 106.23 6.6819C105.528 6.0579 105.112 5.7069 104.345 5.1609C104.306 5.1349 104.267 5.1089 104.215 5.1089C104.098 5.1089 104.059 5.2129 104.059 5.3169V8.8659C104.059 9.3859 104.085 9.8929 104.085 10.4129C104.085 11.0109 104.072 11.0889 103.279 11.0889C102.759 11.0889 102.538 11.0759 102.538 10.6469C102.538 10.0619 102.577 9.4769 102.577 8.8919V1.4819C102.577 1.1439 102.551 0.792904 102.538 0.467904C102.538 0.402903 102.525 0.285903 102.525 0.233904C102.525 0.103903 102.564 0.0389035 102.694 0.0389035C102.772 0.0389035 103.045 0.0779038 103.136 0.0909036C103.721 0.168904 104.254 0.220904 104.254 0.402903C104.254 0.454904 104.215 0.532904 104.189 0.571904C104.072 0.714904 104.046 0.909904 104.046 1.2609C104.046 1.4559 104.059 1.7029 104.059 2.0279V3.9779C104.059 4.0819 104.124 4.1079 104.163 4.1079C104.215 4.1079 104.241 4.0949 104.28 4.0559Z" fill="#FFFBFB"/>
</svg>
