<svg width="95" height="12" viewBox="0 0 95 12" fill="none" xmlns="http://www.w3.org/2000/svg">
<path d="M4.71898 2.808H7.09798C7.35798 2.808 7.66998 2.795 7.89098 2.743C7.92998 2.73 7.98198 2.717 8.02098 2.717C8.24198 2.717 8.69698 3.393 8.69698 3.601C8.69698 3.679 8.65798 3.731 8.61898 3.796C8.46298 4.03 8.39798 4.173 8.29398 4.433C7.92998 5.265 7.51398 6.071 7.05898 6.851C7.00698 6.929 6.96798 7.007 6.96798 7.111C6.96798 7.28 7.08498 7.358 7.20198 7.449C7.35798 7.566 7.92998 7.956 7.92998 8.125C7.92998 8.346 7.34498 9.113 7.09798 9.113C7.01998 9.113 6.95498 9.061 6.90298 9.009C6.72098 8.853 6.55198 8.723 6.36998 8.567C6.29198 8.502 6.20098 8.437 6.08398 8.437C5.90198 8.437 5.75898 8.619 5.64198 8.749C4.83598 9.646 3.86098 10.387 2.80798 10.946C2.52198 11.102 1.50798 11.609 1.23498 11.609C0.896982 11.609 0.298982 10.777 0.298982 10.595C0.298982 10.439 0.519982 10.4 0.857982 10.296C2.20998 9.867 3.60098 8.996 4.57598 7.956C4.66698 7.865 4.77098 7.761 4.77098 7.631C4.77098 7.501 4.70598 7.423 4.61498 7.358C4.31598 7.163 3.63998 6.812 3.31498 6.656C3.18498 6.604 2.92498 6.513 2.92498 6.37C2.92498 6.188 3.43198 5.395 3.71798 5.395C3.93898 5.395 5.13498 6.084 5.39498 6.24C5.47298 6.279 5.55098 6.318 5.64198 6.318C5.88898 6.318 6.00598 6.071 6.35698 5.382C6.36998 5.343 6.39598 5.278 6.43498 5.2C6.56498 4.927 6.77298 4.472 6.77298 4.342C6.77298 4.069 6.43498 4.082 6.23998 4.082H3.75698C3.44498 4.082 3.35398 4.186 3.18498 4.42C2.75598 5.018 2.01498 5.902 1.49498 6.422C1.39098 6.526 1.23498 6.669 1.07898 6.669C0.844982 6.669 -1.80602e-05 6.123 -1.80602e-05 5.902C-1.80602e-05 5.798 0.116982 5.707 0.194982 5.655C1.49498 4.654 3.05498 2.535 3.58798 0.987996C3.62698 0.883996 3.67898 0.662996 3.82198 0.662996C3.92598 0.662996 4.18598 0.792995 4.54998 0.974995C4.66698 1.027 5.31698 1.313 5.31698 1.417C5.31698 1.495 5.25198 1.534 5.18698 1.56C4.99198 1.638 4.97898 1.677 4.79698 1.989C4.74498 2.08 4.67998 2.197 4.58898 2.34C4.54998 2.418 4.48498 2.522 4.48498 2.613C4.48498 2.743 4.60198 2.795 4.71898 2.808ZM19.5 4.745V9.763C19.5 10.335 19.526 10.907 19.526 11.466C19.526 11.817 19.357 11.856 18.876 11.856C18.161 11.856 18.031 11.817 18.031 11.479C18.031 10.92 18.057 10.361 18.057 9.802V6.266C18.057 6.188 18.096 5.902 17.849 5.902C17.719 5.902 17.446 6.123 17.342 6.201C16.952 6.487 14.885 7.865 14.547 7.865C14.326 7.865 13.533 7.072 13.533 6.825C13.533 6.695 13.65 6.643 13.741 6.604C15.444 5.889 17.537 4.433 18.85 3.159C19.526 2.496 20.137 1.768 20.618 0.961996C20.657 0.896996 20.735 0.766996 20.826 0.766996C20.917 0.766996 21.32 1.04 21.71 1.3C21.853 1.391 22.217 1.612 22.217 1.768C22.217 1.846 22.152 1.872 22.087 1.898C21.801 1.976 21.762 1.989 21.58 2.21C20.956 2.964 20.488 3.471 19.799 4.16C19.604 4.355 19.5 4.446 19.5 4.745ZM31.9211 1.43C32.0771 1.43 32.8831 1.807 33.0781 1.898C33.1691 1.95 33.4161 2.041 33.4161 2.158C33.4161 2.236 33.3251 2.288 33.2601 2.314C32.9741 2.444 32.9091 2.639 32.5711 3.276C31.7911 4.771 31.0891 6.305 30.3221 7.813C30.2831 7.904 30.2051 8.047 30.2051 8.151C30.2051 8.281 30.3091 8.385 30.4391 8.385C30.5301 8.385 30.7381 8.359 30.8291 8.346C31.9601 8.229 33.0781 8.112 34.1961 7.969C34.3391 7.956 34.5601 7.943 34.5601 7.748C34.5601 7.514 33.5721 6.656 33.3511 6.461C33.2601 6.37 33.1171 6.266 33.1171 6.136C33.1171 5.928 33.7541 5.304 33.9881 5.304C34.3131 5.304 35.8601 7.02 36.1461 7.345C36.3801 7.631 37.5241 9.035 37.5241 9.321C37.5241 9.633 36.7961 10.166 36.5101 10.166C36.3541 10.166 36.2501 9.971 36.1851 9.841C35.8471 9.295 35.7431 9.074 35.4701 9.074C35.4311 9.074 29.0221 9.867 28.2941 9.958C27.8521 10.01 27.8521 9.984 27.7091 10.179C27.6701 10.231 27.6311 10.283 27.5531 10.283C27.3971 10.283 27.3061 9.893 27.2021 9.399C27.1761 9.243 27.1501 9.087 27.0981 8.918C27.0851 8.853 27.0591 8.788 27.0591 8.723C27.0591 8.58 27.1761 8.567 27.3451 8.567H27.5661C28.4501 8.567 28.4891 8.515 28.6841 8.151C29.1651 7.241 31.4531 2.496 31.7001 1.69C31.7391 1.586 31.7781 1.43 31.9211 1.43ZM42.9841 5.083H49.4711C50.0171 5.083 50.5631 5.044 51.1221 5.044C51.5251 5.044 51.5121 5.148 51.5121 5.759C51.5121 6.201 51.5121 6.448 51.1611 6.448C50.5891 6.448 50.0301 6.422 49.4711 6.422H47.7681C47.4041 6.422 47.3911 6.76 47.3521 7.033C47.0661 8.866 46.1821 10.231 44.5441 11.128C44.2971 11.258 43.4391 11.7 43.1921 11.7C42.9061 11.7 42.1911 10.842 42.1911 10.621C42.1911 10.478 42.4381 10.426 42.5551 10.4C43.1141 10.244 43.6861 10.036 44.1801 9.724C45.0121 9.217 45.5971 8.294 45.8181 7.358C45.8441 7.241 45.9351 6.825 45.9351 6.721C45.9351 6.552 45.7921 6.422 45.6231 6.422H42.9841C42.4511 6.422 41.9051 6.448 41.3591 6.448C41.0211 6.448 41.0081 6.253 41.0081 5.785C41.0081 5.187 41.0471 5.044 41.3331 5.044C41.8921 5.044 42.4381 5.083 42.9841 5.083ZM44.7521 1.677H47.5471C48.1061 1.677 48.6651 1.651 49.2371 1.651C49.5881 1.651 49.5751 1.82 49.5751 2.457C49.5751 2.86 49.5881 3.042 49.2241 3.042C48.6781 3.042 48.1191 3.016 47.5601 3.016H44.7261C44.1671 3.016 43.6081 3.042 43.0621 3.042C42.6721 3.042 42.7111 2.834 42.7111 2.34C42.7111 1.794 42.7241 1.651 43.0621 1.651C43.6211 1.651 44.1801 1.677 44.7521 1.677ZM57.437 5.408H63.417C64.015 5.408 64.86 5.369 65.029 5.369C65.38 5.369 65.393 5.473 65.393 6.188C65.393 6.604 65.38 6.851 65.042 6.851C64.496 6.851 63.95 6.825 63.417 6.825H57.437C56.904 6.825 56.358 6.851 55.812 6.851C55.474 6.851 55.461 6.604 55.461 6.201C55.461 5.473 55.487 5.369 55.825 5.369C55.994 5.369 56.891 5.408 57.437 5.408ZM71.984 2.457H76.521C76.885 2.457 77.483 2.431 77.665 2.431C77.938 2.431 78.12 2.665 78.289 2.834C78.406 2.951 78.744 3.315 78.744 3.445C78.744 3.562 78.64 3.692 78.549 4.199C78.12 6.643 77.158 8.359 75.104 9.789C74.35 10.322 73.479 10.79 72.608 11.128C72.491 11.167 72.309 11.245 72.179 11.245C71.88 11.245 71.412 10.374 71.412 10.153C71.412 10.01 71.529 9.971 71.646 9.945C72.764 9.646 73.986 8.97 74.883 8.229C76.014 7.293 76.794 5.902 77.002 4.446C77.015 4.355 77.041 4.199 77.041 4.121C77.041 3.874 76.82 3.848 76.586 3.848H71.958C71.412 3.848 70.879 3.874 70.333 3.874C69.943 3.874 69.943 3.757 69.943 3.185C69.943 2.574 69.93 2.431 70.307 2.431C70.866 2.431 71.425 2.457 71.984 2.457ZM79.706 -4.47035e-06C79.849 -4.47035e-06 80.941 1.105 80.941 1.274C80.941 1.456 80.486 1.872 80.33 1.872C80.265 1.872 80.2 1.794 80.161 1.755C79.823 1.352 79.563 1.066 79.186 0.701996C79.147 0.662996 79.082 0.610995 79.082 0.545995C79.082 0.389996 79.563 -4.47035e-06 79.706 -4.47035e-06ZM78.523 1.001C78.666 1.001 79.771 2.119 79.771 2.275C79.771 2.457 79.316 2.873 79.147 2.873C79.069 2.873 79.03 2.808 78.978 2.756C78.679 2.392 78.354 2.041 78.003 1.716C77.964 1.664 77.899 1.612 77.899 1.547C77.899 1.404 78.38 1.001 78.523 1.001ZM89.5531 4.147V7.852C89.5531 8.255 89.5661 8.45 89.7611 8.45C90.1901 8.45 92.7511 6.162 93.1671 5.733C93.2321 5.668 93.3231 5.564 93.4271 5.564C93.6481 5.564 94.0901 6.396 94.0901 6.604C94.0901 6.799 93.5831 7.215 93.4141 7.358C92.6341 8.034 91.8541 8.697 91.0351 9.308C90.6841 9.581 90.1251 9.997 89.8131 10.27C89.6961 10.361 89.5661 10.504 89.4101 10.504C89.2411 10.504 88.6821 10.218 88.5131 10.114C88.3311 10.01 88.0971 9.88 88.0971 9.646C88.0971 9.555 88.1491 8.71 88.1491 8.086V3.536C88.1491 3.094 88.1491 2.652 88.0971 2.21V2.145C88.0971 2.054 88.1491 2.015 88.2271 2.015C88.3051 2.015 88.6301 2.067 88.7341 2.08C89.4101 2.171 89.7871 2.21 89.7871 2.353C89.7871 2.444 89.7351 2.47 89.6831 2.535C89.5921 2.626 89.5791 2.743 89.5661 2.873C89.5531 3.172 89.5531 3.822 89.5531 4.147ZM85.2891 2.288C85.5361 2.288 86.1991 2.379 86.4721 2.418C86.6281 2.444 86.7971 2.444 86.7971 2.574C86.7971 2.639 86.7191 2.704 86.6671 2.756C86.5891 2.834 86.6021 3.055 86.6021 3.172V3.458C86.6021 6.149 86.4201 8.437 84.3531 10.413C84.2491 10.504 84.0931 10.686 83.9501 10.686C83.7551 10.686 82.7931 10.205 82.7931 9.971C82.7931 9.88 82.8971 9.789 82.9621 9.737C84.9381 8.099 85.1851 6.279 85.1851 3.861C85.1851 3.471 85.1721 2.951 85.1331 2.574C85.1331 2.535 85.1201 2.47 85.1201 2.431C85.1201 2.314 85.1981 2.288 85.2891 2.288Z" fill="#FFFBFB"/>
</svg>
